<svg viewBox="0 0 900 520" xmlns="http://www.w3.org/2000/svg">
<defs>
<linearGradient id="skyA3" x1="0" y1="0" x2="0" y2="1"><stop offset="0" stop-color="#A3CBAB"/><stop offset="0.52" stop-color="#DCE8B4"/><stop offset="1" stop-color="#F8DCA2"/></linearGradient>
<linearGradient id="grassA3" x1="0" y1="0" x2="0.25" y2="1"><stop offset="0" stop-color="#A0D080"/><stop offset="1" stop-color="#74B25E"/></linearGradient>
</defs>
<rect x="0" y="0" width="900" height="520" fill="url(#skyA3)"/>
<g opacity="0.5"><ellipse cx="230" cy="72" rx="44" ry="8" fill="#FDF6E4"/><ellipse cx="214" cy="76" rx="30" ry="6.4" fill="#F4EFD8"/></g>
<g opacity="0.45"><ellipse cx="600" cy="62" rx="36" ry="7" fill="#FDF6E4"/><ellipse cx="587" cy="65" rx="25" ry="5.6" fill="#F4EFD8"/></g>
<g opacity="0.4"><ellipse cx="795" cy="100" rx="26" ry="5.5" fill="#FDF6E4"/><ellipse cx="786" cy="103" rx="18" ry="4.4" fill="#F4EFD8"/></g>
<g opacity="0.4"><ellipse cx="65" cy="140" rx="28" ry="6" fill="#FDF6E4"/><ellipse cx="54" cy="143" rx="20" ry="4.8" fill="#F4EFD8"/></g>
<g opacity="0.42"><ellipse cx="300" cy="468" rx="48" ry="12" fill="#FDF6E4"/><ellipse cx="275" cy="462.6" rx="25" ry="8.8" fill="#FDF6E4"/><ellipse cx="318.2" cy="462" rx="28.3" ry="9.6" fill="#FDF6E4"/><ellipse cx="304.8" cy="471.2" rx="41.3" ry="8.8" fill="#F4EFD8"/></g>
<g opacity="0.4"><ellipse cx="620" cy="476" rx="54" ry="13" fill="#FDF6E4"/><ellipse cx="591.9" cy="470.1" rx="28.1" ry="9.5" fill="#FDF6E4"/><ellipse cx="640.5" cy="469.5" rx="31.9" ry="10.4" fill="#FDF6E4"/><ellipse cx="625.4" cy="479.5" rx="46.4" ry="9.5" fill="#F4EFD8"/></g>
<g opacity="0.38"><ellipse cx="800" cy="455" rx="40" ry="9" fill="#FDF6E4"/><ellipse cx="786" cy="458.6" rx="27.2" ry="7" fill="#F4EFD8"/></g>
<g opacity="0.25"><ellipse cx="170" cy="494" rx="36" ry="8" fill="#FDF6E4"/><ellipse cx="157.4" cy="497.2" rx="24.5" ry="6.2" fill="#F4EFD8"/></g>
<g opacity="0.24"><ellipse cx="460" cy="500" rx="42" ry="9" fill="#FDF6E4"/><ellipse cx="445.3" cy="503.6" rx="28.6" ry="7" fill="#F4EFD8"/></g>
<g opacity="0.24"><ellipse cx="755" cy="492" rx="34" ry="7" fill="#FDF6E4"/><ellipse cx="743.1" cy="494.8" rx="23.1" ry="5.5" fill="#F4EFD8"/></g>
<g transform="translate(0,-24)">
<ellipse cx="456" cy="424" rx="108" ry="11" fill="#D2BB93"/>
<ellipse cx="458" cy="432" rx="62" ry="7.5" fill="#DECAA4"/>
<ellipse cx="459" cy="438" rx="30" ry="4.5" fill="#E9D8B6"/>
<path transform="translate(0,30)" fill="#C9B08A" d="M 144,282 C 141,242 176,204 232,185 C 288,166 350,152 420,150 C 493,148 566,157 634,180 C 700,203 762,228 777,263 C 791,299 748,336 694,358 C 634,383 550,399 464,402 C 382,405 300,392 240,370 C 192,352 147,323 144,282 Z"/>
<path transform="translate(0,15)" fill="#D2BC90" d="M 144,282 C 141,242 176,204 232,185 C 288,166 350,152 420,150 C 493,148 566,157 634,180 C 700,203 762,228 777,263 C 791,299 748,336 694,358 C 634,383 550,399 464,402 C 382,405 300,392 240,370 C 192,352 147,323 144,282 Z"/>
<path fill="#ECDFBE" d="M 144,282 C 141,242 176,204 232,185 C 288,166 350,152 420,150 C 493,148 566,157 634,180 C 700,203 762,228 777,263 C 791,299 748,336 694,358 C 634,383 550,399 464,402 C 382,405 300,392 240,370 C 192,352 147,323 144,282 Z"/>
<path fill="url(#grassA3)" d="M 162,282 C 160,247 193,213 244,195 C 296,176 355,166 421,164 C 490,162 560,170 623,192 C 686,214 744,236 757,268 C 769,298 728,331 677,351 C 620,373 545,388 464,390 C 385,392 313,381 256,360 C 211,343 164,318 162,282 Z"/>
<ellipse cx="545" cy="205" rx="95" ry="28" fill="#A4D384" opacity="0.38"/>
<ellipse cx="255" cy="262" rx="46" ry="15" fill="#A4D384" opacity="0.32"/>
<ellipse cx="640" cy="298" rx="50" ry="16" fill="#A4D384" opacity="0.28"/>
<ellipse cx="490" cy="382" rx="160" ry="10" fill="#4E8746" opacity="0.12"/>
<ellipse cx="470" cy="330" rx="60" ry="13" fill="#699F63" opacity="0.14"/>
<ellipse cx="295" cy="290" rx="36" ry="11" fill="#699F63" opacity="0.14"/>
<ellipse cx="350" cy="245" rx="80" ry="30" fill="#F2C46E" opacity="0.11"/>
<rect x="305" y="366" width="5" height="13" rx="2.5" fill="#B9A87C" opacity="0.4"/><rect x="342" y="373" width="5" height="13" rx="2.5" fill="#B9A87C" opacity="0.4"/><rect x="380" y="378" width="5" height="13" rx="2.5" fill="#B9A87C" opacity="0.4"/><rect x="420" y="382" width="5" height="13" rx="2.5" fill="#B9A87C" opacity="0.4"/><rect x="462" y="384" width="5" height="13" rx="2.5" fill="#B9A87C" opacity="0.4"/><rect x="504" y="383" width="5" height="13" rx="2.5" fill="#B9A87C" opacity="0.4"/><rect x="546" y="380" width="5" height="13" rx="2.5" fill="#B9A87C" opacity="0.4"/><rect x="588" y="374" width="5" height="13" rx="2.5" fill="#B9A87C" opacity="0.4"/><rect x="628" y="366" width="5" height="13" rx="2.5" fill="#B9A87C" opacity="0.4"/><rect x="664" y="355" width="5" height="13" rx="2.5" fill="#B9A87C" opacity="0.4"/><rect x="696" y="341" width="5" height="13" rx="2.5" fill="#B9A87C" opacity="0.4"/><rect x="722" y="325" width="5" height="13" rx="2.5" fill="#B9A87C" opacity="0.4"/><rect x="740" y="306" width="5" height="13" rx="2.5" fill="#B9A87C" opacity="0.4"/>
<ellipse cx="250" cy="196" rx="8" ry="3.6" fill="#7CB863" opacity="0.55"/><ellipse cx="340" cy="172" rx="5.5" ry="2.5" fill="#8CC474" opacity="0.55"/><ellipse cx="455" cy="163" rx="9" ry="4" fill="#7CB863" opacity="0.55"/><ellipse cx="570" cy="178" rx="5" ry="2.3" fill="#8CC474" opacity="0.55"/><ellipse cx="655" cy="200" rx="8" ry="3.6" fill="#7CB863" opacity="0.55"/><ellipse cx="725" cy="230" rx="5.5" ry="2.5" fill="#8CC474" opacity="0.55"/><ellipse cx="752" cy="275" rx="6.5" ry="3" fill="#7CB863" opacity="0.55"/><ellipse cx="710" cy="332" rx="6" ry="2.7" fill="#8CC474" opacity="0.55"/><ellipse cx="640" cy="362" rx="8" ry="3.6" fill="#7CB863" opacity="0.55"/><ellipse cx="560" cy="380" rx="5.5" ry="2.5" fill="#8CC474" opacity="0.55"/><ellipse cx="460" cy="387" rx="8.5" ry="3.8" fill="#7CB863" opacity="0.55"/><ellipse cx="360" cy="381" rx="5.5" ry="2.5" fill="#8CC474" opacity="0.55"/><ellipse cx="285" cy="366" rx="7.5" ry="3.4" fill="#7CB863" opacity="0.55"/><ellipse cx="200" cy="330" rx="6" ry="2.7" fill="#8CC474" opacity="0.55"/><ellipse cx="174" cy="290" rx="6.5" ry="3" fill="#7CB863" opacity="0.55"/><ellipse cx="185" cy="240" rx="7" ry="3.2" fill="#8CC474" opacity="0.55"/><ellipse cx="215" cy="208" rx="6" ry="2.7" fill="#7CB863" opacity="0.55"/>
<path d="M 62,364 C 95,362 125,357 165,344" fill="none" stroke="#B08A60" stroke-width="33" stroke-linecap="round" transform="translate(0,10)" opacity="0.8"/><path d="M 62,364 C 95,362 125,357 165,344" fill="none" stroke="#D8C7A0" stroke-width="33" stroke-linecap="round" transform="translate(0,5)"/><path d="M 62,364 C 95,362 125,357 165,344" fill="none" stroke="#ECDFBE" stroke-width="33" stroke-linecap="round"/>
<path d="M 684,244 C 692,218 703,193 721,166" fill="none" stroke="#B08A60" stroke-width="33" stroke-linecap="round" transform="translate(0,10)" opacity="0.8"/><path d="M 684,244 C 692,218 703,193 721,166" fill="none" stroke="#D8C7A0" stroke-width="33" stroke-linecap="round" transform="translate(0,5)"/><path d="M 684,244 C 692,218 703,193 721,166" fill="none" stroke="#ECDFBE" stroke-width="33" stroke-linecap="round"/>
<path d="M 80,360 C 120,356 155,348 195,336 C 245,326 300,332 355,344 C 415,356 480,358 535,346 C 590,332 635,306 660,272 C 674,250 679,240 683,228 C 688,212 700,190 718,164" fill="none" stroke="#B4A47C" stroke-width="24" stroke-linecap="round" transform="translate(0,6)"/>
<path d="M 80,360 C 120,356 155,348 195,336 C 245,326 300,332 355,344 C 415,356 480,358 535,346 C 590,332 635,306 660,272 C 674,250 679,240 683,228 C 688,212 700,190 718,164" fill="none" stroke="#EAE0C6" stroke-width="24" stroke-linecap="round"/>
<path d="M 80,360 C 120,356 155,348 195,336 C 245,326 300,332 355,344 C 415,356 480,358 535,346 C 590,332 635,306 660,272 C 674,250 679,240 683,228 C 688,212 700,190 718,164" fill="none" stroke="#EAE0C6" stroke-width="27" stroke-linecap="round" opacity="0.35" transform="translate(1.5,2)"/>
<path d="M 80,360 C 120,356 155,348 195,336 C 245,326 300,332 355,344 C 415,356 480,358 535,346 C 590,332 635,306 660,272 C 674,250 679,240 683,228 C 688,212 700,190 718,164" fill="none" stroke="#E7DDC0" stroke-width="12" stroke-linecap="round" transform="translate(-0.5,-1)"/>
<ellipse cx="100" cy="358" rx="6.5" ry="4.2" fill="#D6C9A2"/><ellipse cx="130" cy="353" rx="6.5" ry="4.2" fill="#D6C9A2"/><ellipse cx="163" cy="346" rx="6.5" ry="4.2" fill="#D6C9A2"/><ellipse cx="235" cy="330" rx="6.5" ry="4.2" fill="#D6C9A2"/><ellipse cx="273" cy="332" rx="6.5" ry="4.2" fill="#D6C9A2"/><ellipse cx="315" cy="337" rx="6.5" ry="4.2" fill="#D6C9A2"/><ellipse cx="355" cy="344" rx="6.5" ry="4.2" fill="#D6C9A2"/><ellipse cx="400" cy="351" rx="6.5" ry="4.2" fill="#D6C9A2"/><ellipse cx="447" cy="354" rx="6.5" ry="4.2" fill="#D6C9A2"/><ellipse cx="492" cy="354" rx="6.5" ry="4.2" fill="#D6C9A2"/><ellipse cx="535" cy="346" rx="6.5" ry="4.2" fill="#D6C9A2"/><ellipse cx="573" cy="336" rx="6.5" ry="4.2" fill="#D6C9A2"/><ellipse cx="609" cy="317" rx="6.5" ry="4.2" fill="#D6C9A2"/><ellipse cx="637" cy="295" rx="6.5" ry="4.2" fill="#D6C9A2"/><ellipse cx="660" cy="272" rx="6.5" ry="4.2" fill="#D6C9A2"/><ellipse cx="676" cy="248" rx="6.5" ry="4.2" fill="#D6C9A2"/><ellipse cx="683" cy="231" rx="6.5" ry="4.2" fill="#D6C9A2"/><ellipse cx="692" cy="210" rx="6.5" ry="4.2" fill="#D6C9A2"/><ellipse cx="704" cy="186" rx="6.5" ry="4.2" fill="#D6C9A2"/>
<g transform="translate(-15,-22)"><g opacity="0.8"><circle cx="345" cy="245.8" r="27.6" fill="#DFD2AE"/><circle cx="369" cy="265" r="27.6" fill="#DFD2AE"/><circle cx="345" cy="284.2" r="27.6" fill="#DFD2AE"/><circle cx="321" cy="265" r="27.6" fill="#DFD2AE"/><rect x="321" y="245.8" width="48" height="38.4" rx="9.6" fill="#DFD2AE"/></g><g><circle cx="345" cy="242.8" r="27.6" fill="#E8DCBE"/><circle cx="369" cy="262" r="27.6" fill="#E8DCBE"/><circle cx="345" cy="281.2" r="27.6" fill="#E8DCBE"/><circle cx="321" cy="262" r="27.6" fill="#E8DCBE"/><rect x="321" y="242.8" width="48" height="38.4" rx="9.6" fill="#E8DCBE"/></g><ellipse cx="380.6" cy="272.6" rx="5.5" ry="3.6" fill="#D6C9A2" opacity="0.8"/><ellipse cx="367.3" cy="290.8" rx="5.5" ry="3.6" fill="#D6C9A2" opacity="0.8"/><ellipse cx="345.5" cy="298" rx="5.5" ry="3.6" fill="#D6C9A2" opacity="0.8"/><ellipse cx="323.5" cy="291.4" rx="5.5" ry="3.6" fill="#D6C9A2" opacity="0.8"/><ellipse cx="309.7" cy="273.6" rx="5.5" ry="3.6" fill="#D6C9A2" opacity="0.8"/><ellipse cx="309.4" cy="251.4" rx="5.5" ry="3.6" fill="#D6C9A2" opacity="0.8"/><ellipse cx="322.7" cy="233.2" rx="5.5" ry="3.6" fill="#D6C9A2" opacity="0.8"/><ellipse cx="344.5" cy="226" rx="5.5" ry="3.6" fill="#D6C9A2" opacity="0.8"/><ellipse cx="366.5" cy="232.6" rx="5.5" ry="3.6" fill="#D6C9A2" opacity="0.8"/><ellipse cx="380.3" cy="250.4" rx="5.5" ry="3.6" fill="#D6C9A2" opacity="0.8"/><g><circle cx="345" cy="247" r="23" fill="#B7A177"/><circle cx="365" cy="263" r="23" fill="#B7A177"/><circle cx="345" cy="279" r="23" fill="#B7A177"/><circle cx="325" cy="263" r="23" fill="#B7A177"/><rect x="325" y="247" width="40" height="32" rx="8" fill="#B7A177"/></g><g><circle cx="345" cy="244" r="23" fill="#ECDFBE"/><circle cx="365" cy="260" r="23" fill="#ECDFBE"/><circle cx="345" cy="276" r="23" fill="#ECDFBE"/><circle cx="325" cy="260" r="23" fill="#ECDFBE"/><rect x="325" y="244" width="40" height="32" rx="8" fill="#ECDFBE"/></g><g><circle cx="345" cy="245.96" r="18.4" fill="#CDB992"/><circle cx="363.8" cy="261" r="18.4" fill="#CDB992"/><circle cx="345" cy="276.04" r="18.4" fill="#CDB992"/><circle cx="326.2" cy="261" r="18.4" fill="#CDB992"/><rect x="326.2" y="246" width="37.6" height="30.1" rx="7.5" fill="#CDB992"/></g><g><circle cx="345" cy="247.92" r="14.3" fill="#57A79E"/><circle cx="362.6" cy="262" r="14.3" fill="#57A79E"/><circle cx="345" cy="276.08" r="14.3" fill="#57A79E"/><circle cx="327.4" cy="262" r="14.3" fill="#57A79E"/><rect x="327.4" y="247.9" width="35.2" height="28.2" rx="7" fill="#57A79E"/></g><g><circle cx="345" cy="250.88" r="12" fill="#8FCFC2"/><circle cx="361.4" cy="264" r="12" fill="#8FCFC2"/><circle cx="345" cy="277.12" r="12" fill="#8FCFC2"/><circle cx="328.6" cy="264" r="12" fill="#8FCFC2"/><rect x="328.6" y="250.9" width="32.8" height="26.2" rx="6.6" fill="#8FCFC2"/></g><ellipse cx="339" cy="266.7" rx="11.5" ry="6" fill="#BFE8DC" opacity="0.55"/></g>
<g transform="translate(455,248) rotate(4) scale(1.0)"><rect x="-34" y="-19" width="68" height="38" rx="13" fill="#ECDFBE"/><rect x="-34" y="-15" width="68" height="38" rx="13" fill="#CDB992" opacity="0.55"/><rect x="-29" y="-14" width="58" height="28" rx="9" fill="#C4A981"/><ellipse cx="-19" cy="-5" rx="5.2" ry="3.6" fill="#6FAA58"/><ellipse cx="0" cy="-5" rx="5.2" ry="3.6" fill="#98CB77"/><ellipse cx="19" cy="-5" rx="5.2" ry="3.6" fill="#6FAA58"/><circle cx="16.2" cy="-4.5" r="2.6" fill="#F2C46E"/></g>
<g transform="translate(218,296) rotate(-6) scale(0.78)"><rect x="-34" y="-19" width="68" height="38" rx="13" fill="#ECDFBE"/><rect x="-34" y="-15" width="68" height="38" rx="13" fill="#CDB992" opacity="0.55"/><rect x="-29" y="-14" width="58" height="28" rx="9" fill="#C4A981"/><ellipse cx="-19" cy="-5" rx="5.2" ry="3.6" fill="#6FAA58"/><ellipse cx="0" cy="-5" rx="5.2" ry="3.6" fill="#98CB77"/><ellipse cx="19" cy="-5" rx="5.2" ry="3.6" fill="#6FAA58"/><circle cx="16.2" cy="-4.5" r="2.6" fill="#F2C46E"/></g>
<g transform="translate(700,330) rotate(7) scale(0.6)"><rect x="-34" y="-19" width="68" height="38" rx="13" fill="#ECDFBE"/><rect x="-34" y="-15" width="68" height="38" rx="13" fill="#CDB992" opacity="0.55"/><rect x="-29" y="-14" width="58" height="28" rx="9" fill="#C4A981"/><ellipse cx="-19" cy="-5" rx="5.2" ry="3.6" fill="#6FAA58"/><ellipse cx="0" cy="-5" rx="5.2" ry="3.6" fill="#98CB77"/><ellipse cx="19" cy="-5" rx="5.2" ry="3.6" fill="#6FAA58"/><circle cx="16.2" cy="-4.5" r="2.6" fill="#F2C46E"/></g>
<g><ellipse cx="560" cy="182" rx="15.8" ry="6.6" fill="#CBBC97"/><ellipse cx="560" cy="181" rx="12" ry="4.8" fill="#C4A981"/><ellipse cx="565" cy="184" rx="13" ry="4.8" fill="#4E8746" opacity="0.22"/><rect x="557.1" y="164.7" width="5.8" height="18.7" rx="2.9" fill="#8A6B4F"/><circle cx="562.2" cy="157.6" r="13" fill="#4E8746"/><circle cx="558.6" cy="154.7" r="11.4" fill="#6FAA58"/><ellipse cx="555.1" cy="152.9" rx="5.7" ry="4.4" fill="#98CB77"/><circle cx="554.1" cy="156" r="2.4" fill="#F2C46E"/><circle cx="563.7" cy="149" r="2.4" fill="#F2C46E"/><circle cx="569.6" cy="158.9" r="2.4" fill="#F2C46E"/></g>
<g><ellipse cx="475" cy="195" rx="17.6" ry="7.4" fill="#CBBC97"/><ellipse cx="475" cy="194" rx="13.4" ry="5.4" fill="#C4A981"/><ellipse cx="480.6" cy="197" rx="14.4" ry="5.4" fill="#4E8746" opacity="0.22"/><rect x="471.8" y="175.8" width="6.4" height="20.8" rx="3.2" fill="#8A6B4F"/><circle cx="477.4" cy="167.9" r="14.4" fill="#4E8746"/><circle cx="473.4" cy="164.7" r="12.6" fill="#6FAA58"/><ellipse cx="469.6" cy="162.7" rx="6.3" ry="4.9" fill="#98CB77"/><circle cx="468.4" cy="166.1" r="2.7" fill="#F2C46E"/><circle cx="479.2" cy="158.4" r="2.7" fill="#F2C46E"/><circle cx="485.7" cy="169.3" r="2.7" fill="#F2C46E"/></g>
<g><ellipse cx="300" cy="195" rx="16.5" ry="6.9" fill="#CBBC97"/><ellipse cx="300" cy="194" rx="12.5" ry="5" fill="#C4A981"/><ellipse cx="305.2" cy="197" rx="13.5" ry="5" fill="#4E8746" opacity="0.22"/><rect x="297" y="177" width="6" height="19.5" rx="3" fill="#8A6B4F"/><circle cx="302.2" cy="169.6" r="13.5" fill="#4E8746"/><circle cx="298.5" cy="166.6" r="11.9" fill="#6FAA58"/><ellipse cx="294.9" cy="164.7" rx="5.9" ry="4.6" fill="#98CB77"/><circle cx="293.9" cy="167.9" r="2.5" fill="#F2C46E"/><circle cx="303.9" cy="160.7" r="2.5" fill="#F2C46E"/><circle cx="310.1" cy="170.9" r="2.5" fill="#F2C46E"/></g>
<g><ellipse cx="525" cy="232" rx="24.6" ry="10.3" fill="#CBBC97"/><ellipse cx="525" cy="231" rx="18.7" ry="7.5" fill="#C4A981"/><ellipse cx="532.8" cy="234" rx="20.2" ry="7.5" fill="#4E8746" opacity="0.22"/><rect x="520.5" y="205.1" width="9" height="29.1" rx="4.5" fill="#8A6B4F"/><circle cx="528.4" cy="194" r="20.2" fill="#4E8746"/><circle cx="522.8" cy="189.6" r="17.7" fill="#6FAA58"/><ellipse cx="517.4" cy="186.8" rx="8.8" ry="6.8" fill="#98CB77"/><circle cx="515.8" cy="191.6" r="3.8" fill="#F2C46E"/><circle cx="530.8" cy="180.7" r="3.8" fill="#F2C46E"/><circle cx="540" cy="196" r="3.8" fill="#F2C46E"/><circle cx="525.6" cy="204.1" r="3.8" fill="#F2C46E"/></g>
<g><ellipse cx="630" cy="240" rx="22" ry="9.2" fill="#CBBC97"/><ellipse cx="630" cy="239" rx="16.7" ry="6.7" fill="#C4A981"/><ellipse cx="637" cy="242" rx="18" ry="6.7" fill="#4E8746" opacity="0.22"/><rect x="626" y="216" width="8" height="26" rx="4" fill="#8A6B4F"/><circle cx="633" cy="206.1" r="18" fill="#4E8746"/><circle cx="628" cy="202.1" r="15.8" fill="#6FAA58"/><ellipse cx="623.2" cy="199.6" rx="7.9" ry="6.1" fill="#98CB77"/><circle cx="621.8" cy="203.9" r="3.4" fill="#F2C46E"/><circle cx="635.2" cy="194.2" r="3.4" fill="#F2C46E"/><circle cx="643.4" cy="207.9" r="3.4" fill="#F2C46E"/><circle cx="630.5" cy="215.1" r="3.4" fill="#F2C46E"/></g>
<g><ellipse cx="215" cy="255" rx="15" ry="6.3" fill="#CBBC97"/><ellipse cx="215" cy="254" rx="11.4" ry="4.6" fill="#C4A981"/><ellipse cx="219.8" cy="257" rx="12.2" ry="4.6" fill="#4E8746" opacity="0.22"/><rect x="212.3" y="238.7" width="5.4" height="17.7" rx="2.7" fill="#8A6B4F"/><circle cx="217" cy="231.9" r="12.2" fill="#4E8746"/><circle cx="213.6" cy="229.2" r="10.7" fill="#6FAA58"/><ellipse cx="210.4" cy="227.5" rx="5.4" ry="4.1" fill="#98CB77"/><circle cx="209.4" cy="230.5" r="2.3" fill="#F2C46E"/><circle cx="218.5" cy="223.9" r="2.3" fill="#F2C46E"/></g>
<g><ellipse cx="715" cy="262" rx="18.7" ry="7.8" fill="#CBBC97"/><ellipse cx="715" cy="261" rx="14.2" ry="5.7" fill="#C4A981"/><ellipse cx="721" cy="264" rx="15.3" ry="5.7" fill="#4E8746" opacity="0.22"/><rect x="711.6" y="241.6" width="6.8" height="22.1" rx="3.4" fill="#8A6B4F"/><circle cx="717.5" cy="233.2" r="15.3" fill="#4E8746"/><circle cx="713.3" cy="229.8" r="13.4" fill="#6FAA58"/><ellipse cx="709.2" cy="227.7" rx="6.7" ry="5.2" fill="#98CB77"/><circle cx="708" cy="231.3" r="2.9" fill="#F2C46E"/><circle cx="719.4" cy="223.1" r="2.9" fill="#F2C46E"/><circle cx="726.4" cy="234.7" r="2.9" fill="#F2C46E"/></g>
<g><ellipse cx="398" cy="304" rx="15" ry="6.3" fill="#CBBC97"/><ellipse cx="398" cy="303" rx="11.4" ry="4.6" fill="#C4A981"/><ellipse cx="402.8" cy="306" rx="12.2" ry="4.6" fill="#4E8746" opacity="0.22"/><rect x="395.3" y="287.7" width="5.4" height="17.7" rx="2.7" fill="#8A6B4F"/><circle cx="400" cy="280.9" r="12.2" fill="#4E8746"/><circle cx="396.6" cy="278.2" r="10.7" fill="#6FAA58"/><ellipse cx="393.4" cy="276.5" rx="5.4" ry="4.1" fill="#98CB77"/><circle cx="392.4" cy="279.5" r="2.3" fill="#F2C46E"/><circle cx="401.5" cy="272.9" r="2.3" fill="#F2C46E"/></g>
<g><ellipse cx="670" cy="345" rx="15" ry="6.3" fill="#CBBC97"/><ellipse cx="670" cy="344" rx="11.4" ry="4.6" fill="#C4A981"/><ellipse cx="674.8" cy="347" rx="12.2" ry="4.6" fill="#4E8746" opacity="0.22"/><rect x="667.3" y="328.7" width="5.4" height="17.7" rx="2.7" fill="#8A6B4F"/><circle cx="672" cy="321.9" r="12.2" fill="#4E8746"/><circle cx="668.6" cy="319.2" r="10.7" fill="#6FAA58"/><ellipse cx="665.4" cy="317.5" rx="5.4" ry="4.1" fill="#98CB77"/><circle cx="664.4" cy="320.5" r="2.3" fill="#F2C46E"/><circle cx="673.5" cy="313.9" r="2.3" fill="#F2C46E"/></g>
<g><ellipse cx="255" cy="215" rx="4" ry="2.6" fill="#699F63" opacity="0.5"/><ellipse cx="264" cy="217" rx="5" ry="3" fill="#699F63" opacity="0.4"/><ellipse cx="260" cy="210" rx="4.5" ry="2.8" fill="#98CB77" opacity="0.55"/></g>
<g><ellipse cx="415" cy="195" rx="4" ry="2.6" fill="#699F63" opacity="0.5"/><ellipse cx="424" cy="197" rx="5" ry="3" fill="#699F63" opacity="0.4"/><ellipse cx="420" cy="190" rx="4.5" ry="2.8" fill="#98CB77" opacity="0.55"/></g>
<g><ellipse cx="368" cy="318" rx="4" ry="2.6" fill="#699F63" opacity="0.5"/><ellipse cx="377" cy="320" rx="5" ry="3" fill="#699F63" opacity="0.4"/><ellipse cx="373" cy="313" rx="4.5" ry="2.8" fill="#98CB77" opacity="0.55"/></g>
<g><ellipse cx="585" cy="268" rx="4" ry="2.6" fill="#699F63" opacity="0.5"/><ellipse cx="594" cy="270" rx="5" ry="3" fill="#699F63" opacity="0.4"/><ellipse cx="590" cy="263" rx="4.5" ry="2.8" fill="#98CB77" opacity="0.55"/></g>
<g><ellipse cx="268" cy="318" rx="4" ry="2.6" fill="#699F63" opacity="0.5"/><ellipse cx="277" cy="320" rx="5" ry="3" fill="#699F63" opacity="0.4"/><ellipse cx="273" cy="313" rx="4.5" ry="2.8" fill="#98CB77" opacity="0.55"/></g>
<g><ellipse cx="475" cy="285" rx="4" ry="2.6" fill="#699F63" opacity="0.5"/><ellipse cx="484" cy="287" rx="5" ry="3" fill="#699F63" opacity="0.4"/><ellipse cx="480" cy="280" rx="4.5" ry="2.8" fill="#98CB77" opacity="0.55"/></g>
<g><ellipse cx="298" cy="384" rx="4" ry="2.6" fill="#699F63" opacity="0.5"/><ellipse cx="307" cy="386" rx="5" ry="3" fill="#699F63" opacity="0.4"/><ellipse cx="303" cy="379" rx="4.5" ry="2.8" fill="#98CB77" opacity="0.55"/></g>
<g><ellipse cx="505" cy="386" rx="4" ry="2.6" fill="#699F63" opacity="0.5"/><ellipse cx="514" cy="388" rx="5" ry="3" fill="#699F63" opacity="0.4"/><ellipse cx="510" cy="381" rx="4.5" ry="2.8" fill="#98CB77" opacity="0.55"/></g>
<g><ellipse cx="700" cy="310" rx="4" ry="2.6" fill="#699F63" opacity="0.5"/><ellipse cx="709" cy="312" rx="5" ry="3" fill="#699F63" opacity="0.4"/><ellipse cx="705" cy="305" rx="4.5" ry="2.8" fill="#98CB77" opacity="0.55"/></g>
<g><ellipse cx="395" cy="383" rx="4" ry="2.6" fill="#699F63" opacity="0.5"/><ellipse cx="404" cy="385" rx="5" ry="3" fill="#699F63" opacity="0.4"/><ellipse cx="400" cy="378" rx="4.5" ry="2.8" fill="#98CB77" opacity="0.55"/></g>
<g><ellipse cx="330" cy="300" rx="4" ry="2.6" fill="#699F63" opacity="0.5"/><ellipse cx="339" cy="302" rx="5" ry="3" fill="#699F63" opacity="0.4"/><ellipse cx="335" cy="295" rx="4.5" ry="2.8" fill="#98CB77" opacity="0.55"/></g>
<g><ellipse cx="560" cy="248" rx="4" ry="2.6" fill="#699F63" opacity="0.5"/><ellipse cx="569" cy="250" rx="5" ry="3" fill="#699F63" opacity="0.4"/><ellipse cx="565" cy="243" rx="4.5" ry="2.8" fill="#98CB77" opacity="0.55"/></g>
<g><ellipse cx="630" cy="262" rx="4" ry="2.6" fill="#699F63" opacity="0.5"/><ellipse cx="639" cy="264" rx="5" ry="3" fill="#699F63" opacity="0.4"/><ellipse cx="635" cy="257" rx="4.5" ry="2.8" fill="#98CB77" opacity="0.55"/></g>
<g><ellipse cx="480" cy="384" rx="4" ry="2.6" fill="#699F63" opacity="0.5"/><ellipse cx="489" cy="386" rx="5" ry="3" fill="#699F63" opacity="0.4"/><ellipse cx="485" cy="379" rx="4.5" ry="2.8" fill="#98CB77" opacity="0.55"/></g>
<g><ellipse cx="630" cy="355" rx="4" ry="2.6" fill="#699F63" opacity="0.5"/><ellipse cx="639" cy="357" rx="5" ry="3" fill="#699F63" opacity="0.4"/><ellipse cx="635" cy="350" rx="4.5" ry="2.8" fill="#98CB77" opacity="0.55"/></g>
</g>
<g opacity="0.9"><ellipse cx="58" cy="342" rx="40" ry="10" fill="#FDF6E4"/><ellipse cx="44" cy="346" rx="27.2" ry="7.8" fill="#F4EFD8"/></g>
<g opacity="0.85"><ellipse cx="88" cy="352" rx="26" ry="7" fill="#FDF6E4"/><ellipse cx="78.9" cy="354.8" rx="17.7" ry="5.5" fill="#F4EFD8"/></g>
<g opacity="0.9"><ellipse cx="728" cy="134" rx="36" ry="9" fill="#FDF6E4"/><ellipse cx="715.4" cy="137.6" rx="24.5" ry="7" fill="#F4EFD8"/></g>
<g opacity="0.85"><ellipse cx="710" cy="148" rx="24" ry="6.5" fill="#FDF6E4"/><ellipse cx="701.6" cy="150.6" rx="16.3" ry="5.1" fill="#F4EFD8"/></g>
</svg>
