<svg viewBox="0 0 900 520" xmlns="http://www.w3.org/2000/svg">
<defs>
<linearGradient id="skyA3" x1="0" y1="0" x2="0" y2="1"><stop offset="0" stop-color="#A3CBAB"/><stop offset="0.52" stop-color="#DCE8B4"/><stop offset="1" stop-color="#F8DCA2"/></linearGradient>
<linearGradient id="grassA3" x1="0" y1="0" x2="0.25" y2="1"><stop offset="0" stop-color="#A0D080"/><stop offset="1" stop-color="#74B25E"/></linearGradient>
</defs>
<rect x="0" y="0" width="900" height="520" fill="url(#skyA3)"/>
<g opacity="0.5"><ellipse cx="230" cy="72" rx="44" ry="8" fill="#FDF6E4"/><ellipse cx="214" cy="76" rx="30" ry="6.4" fill="#F4EFD8"/></g>
<g opacity="0.45"><ellipse cx="600" cy="62" rx="36" ry="7" fill="#FDF6E4"/><ellipse cx="587" cy="65" rx="25" ry="5.6" fill="#F4EFD8"/></g>
<g opacity="0.4"><ellipse cx="795" cy="100" rx="26" ry="5.5" fill="#FDF6E4"/><ellipse cx="786" cy="103" rx="18" ry="4.4" fill="#F4EFD8"/></g>
<g opacity="0.4"><ellipse cx="65" cy="140" rx="28" ry="6" fill="#FDF6E4"/><ellipse cx="54" cy="143" rx="20" ry="4.8" fill="#F4EFD8"/></g>
<g opacity="0.42"><ellipse cx="300" cy="468" rx="48" ry="12" fill="#FDF6E4"/><ellipse cx="275" cy="462.6" rx="25" ry="8.8" fill="#FDF6E4"/><ellipse cx="318.2" cy="462" rx="28.3" ry="9.6" fill="#FDF6E4"/><ellipse cx="304.8" cy="471.2" rx="41.3" ry="8.8" fill="#F4EFD8"/></g>
<g opacity="0.4"><ellipse cx="620" cy="476" rx="54" ry="13" fill="#FDF6E4"/><ellipse cx="591.9" cy="470.1" rx="28.1" ry="9.5" fill="#FDF6E4"/><ellipse cx="640.5" cy="469.5" rx="31.9" ry="10.4" fill="#FDF6E4"/><ellipse cx="625.4" cy="479.5" rx="46.4" ry="9.5" fill="#F4EFD8"/></g>
<g opacity="0.38"><ellipse cx="800" cy="455" rx="40" ry="9" fill="#FDF6E4"/><ellipse cx="786" cy="458.6" rx="27.2" ry="7" fill="#F4EFD8"/></g>
<g opacity="0.25"><ellipse cx="170" cy="494" rx="36" ry="8" fill="#FDF6E4"/><ellipse cx="157.4" cy="497.2" rx="24.5" ry="6.2" fill="#F4EFD8"/></g>
<g opacity="0.24"><ellipse cx="460" cy="500" rx="42" ry="9" fill="#FDF6E4"/><ellipse cx="445.3" cy="503.6" rx="28.6" ry="7" fill="#F4EFD8"/></g>
<g opacity="0.24"><ellipse cx="755" cy="492" rx="34" ry="7" fill="#FDF6E4"/><ellipse cx="743.1" cy="494.8" rx="23.1" ry="5.5" fill="#F4EFD8"/></g>
<g transform="translate(0,-24)">
<ellipse cx="456" cy="424" rx="108" ry="11" fill="#D2BB93"/>
<ellipse cx="458" cy="432" rx="62" ry="7.5" fill="#DECAA4"/>
<ellipse cx="459" cy="438" rx="30" ry="4.5" fill="#E9D8B6"/>
<path transform="translate(0,30)" fill="#C9B08A" d="M 144,282 C 141,242 176,204 232,185 C 288,166 350,152 420,150 C 493,148 566,157 634,180 C 700,203 762,228 777,263 C 791,299 748,336 694,358 C 634,383 550,399 464,402 C 382,405 300,392 240,370 C 192,352 147,323 144,282 Z"/>
<path transform="translate(0,15)" fill="#D2BC90" d="M 144,282 C 141,242 176,204 232,185 C 288,166 350,152 420,150 C 493,148 566,157 634,180 C 700,203 762,228 777,263 C 791,299 748,336 694,358 C 634,383 550,399 464,402 C 382,405 300,392 240,370 C 192,352 147,323 144,282 Z"/>
<path fill="#ECDFBE" d="M 144,282 C 141,242 176,204 232,185 C 288,166 350,152 420,150 C 493,148 566,157 634,180 C 700,203 762,228 777,263 C 791,299 748,336 694,358 C 634,383 550,399 464,402 C 382,405 300,392 240,370 C 192,352 147,323 144,282 Z"/>
<path fill="url(#grassA3)" d="M 162,282 C 160,247 193,213 244,195 C 296,176 355,166 421,164 C 490,162 560,170 623,192 C 686,214 744,236 757,268 C 769,298 728,331 677,351 C 620,373 545,388 464,390 C 385,392 313,381 256,360 C 211,343 164,318 162,282 Z"/>
<ellipse cx="500" cy="300" rx="90" ry="26" fill="#A4D384" opacity="0.35"/>
<ellipse cx="250" cy="320" rx="40" ry="13" fill="#A4D384" opacity="0.3"/>
<ellipse cx="640" cy="320" rx="45" ry="15" fill="#A4D384" opacity="0.28"/>
<ellipse cx="480" cy="378" rx="170" ry="13" fill="#4E8746" opacity="0.12"/>
<ellipse cx="300" cy="250" rx="30" ry="10" fill="#699F63" opacity="0.14"/>
<ellipse cx="430" cy="310" rx="80" ry="28" fill="#F2C46E" opacity="0.11"/>
<rect x="270" y="357" width="5" height="13" rx="2.5" fill="#B9A87C" opacity="0.4"/><rect x="305" y="366" width="5" height="13" rx="2.5" fill="#B9A87C" opacity="0.4"/><rect x="342" y="373" width="5" height="13" rx="2.5" fill="#B9A87C" opacity="0.4"/><rect x="380" y="378" width="5" height="13" rx="2.5" fill="#B9A87C" opacity="0.4"/><rect x="420" y="382" width="5" height="13" rx="2.5" fill="#B9A87C" opacity="0.4"/><rect x="462" y="384" width="5" height="13" rx="2.5" fill="#B9A87C" opacity="0.4"/><rect x="504" y="383" width="5" height="13" rx="2.5" fill="#B9A87C" opacity="0.4"/><rect x="546" y="380" width="5" height="13" rx="2.5" fill="#B9A87C" opacity="0.4"/><rect x="588" y="374" width="5" height="13" rx="2.5" fill="#B9A87C" opacity="0.4"/><rect x="628" y="366" width="5" height="13" rx="2.5" fill="#B9A87C" opacity="0.4"/><rect x="664" y="355" width="5" height="13" rx="2.5" fill="#B9A87C" opacity="0.4"/><rect x="696" y="341" width="5" height="13" rx="2.5" fill="#B9A87C" opacity="0.4"/><rect x="722" y="325" width="5" height="13" rx="2.5" fill="#B9A87C" opacity="0.4"/><rect x="740" y="306" width="5" height="13" rx="2.5" fill="#B9A87C" opacity="0.4"/>
<ellipse cx="250" cy="196" rx="8" ry="3.6" fill="#7CB863" opacity="0.55"/><ellipse cx="340" cy="172" rx="5.5" ry="2.5" fill="#8CC474" opacity="0.55"/><ellipse cx="455" cy="163" rx="9" ry="4" fill="#7CB863" opacity="0.55"/><ellipse cx="570" cy="178" rx="5" ry="2.3" fill="#8CC474" opacity="0.55"/><ellipse cx="655" cy="200" rx="8" ry="3.6" fill="#7CB863" opacity="0.55"/><ellipse cx="725" cy="230" rx="5.5" ry="2.5" fill="#8CC474" opacity="0.55"/><ellipse cx="752" cy="275" rx="6.5" ry="3" fill="#7CB863" opacity="0.55"/><ellipse cx="710" cy="332" rx="6" ry="2.7" fill="#8CC474" opacity="0.55"/><ellipse cx="640" cy="362" rx="8" ry="3.6" fill="#7CB863" opacity="0.55"/><ellipse cx="560" cy="380" rx="5.5" ry="2.5" fill="#8CC474" opacity="0.55"/><ellipse cx="460" cy="387" rx="8.5" ry="3.8" fill="#7CB863" opacity="0.55"/><ellipse cx="360" cy="381" rx="5.5" ry="2.5" fill="#8CC474" opacity="0.55"/><ellipse cx="285" cy="366" rx="7.5" ry="3.4" fill="#7CB863" opacity="0.55"/><ellipse cx="200" cy="330" rx="6" ry="2.7" fill="#8CC474" opacity="0.55"/><ellipse cx="174" cy="290" rx="6.5" ry="3" fill="#7CB863" opacity="0.55"/><ellipse cx="185" cy="240" rx="7" ry="3.2" fill="#8CC474" opacity="0.55"/><ellipse cx="215" cy="208" rx="6" ry="2.7" fill="#7CB863" opacity="0.55"/>
<path d="M 142,426 C 162,398 184,366 212,338" fill="none" stroke="#B08A60" stroke-width="33" stroke-linecap="round" transform="translate(0,10)" opacity="0.8"/><path d="M 142,426 C 162,398 184,366 212,338" fill="none" stroke="#D8C7A0" stroke-width="33" stroke-linecap="round" transform="translate(0,5)"/><path d="M 142,426 C 162,398 184,366 212,338" fill="none" stroke="#ECDFBE" stroke-width="33" stroke-linecap="round"/>
<path d="M 672,204 C 706,197 742,190 790,178" fill="none" stroke="#B08A60" stroke-width="33" stroke-linecap="round" transform="translate(0,10)" opacity="0.8"/><path d="M 672,204 C 706,197 742,190 790,178" fill="none" stroke="#D8C7A0" stroke-width="33" stroke-linecap="round" transform="translate(0,5)"/><path d="M 672,204 C 706,197 742,190 790,178" fill="none" stroke="#ECDFBE" stroke-width="33" stroke-linecap="round"/>
<path d="M 152,412 C 170,388 190,362 212,338 C 235,314 248,286 262,258 C 280,222 310,200 355,192 C 400,184 470,188 525,198 C 570,206 610,214 640,212 C 655,211 668,207 680,202 C 700,197 735,190 782,180" fill="none" stroke="#B4A47C" stroke-width="24" stroke-linecap="round" transform="translate(0,6)"/>
<path d="M 152,412 C 170,388 190,362 212,338 C 235,314 248,286 262,258 C 280,222 310,200 355,192 C 400,184 470,188 525,198 C 570,206 610,214 640,212 C 655,211 668,207 680,202 C 700,197 735,190 782,180" fill="none" stroke="#EAE0C6" stroke-width="24" stroke-linecap="round"/>
<path d="M 152,412 C 170,388 190,362 212,338 C 235,314 248,286 262,258 C 280,222 310,200 355,192 C 400,184 470,188 525,198 C 570,206 610,214 640,212 C 655,211 668,207 680,202 C 700,197 735,190 782,180" fill="none" stroke="#EAE0C6" stroke-width="27" stroke-linecap="round" opacity="0.35" transform="translate(1.5,2)"/>
<path d="M 152,412 C 170,388 190,362 212,338 C 235,314 248,286 262,258 C 280,222 310,200 355,192 C 400,184 470,188 525,198 C 570,206 610,214 640,212 C 655,211 668,207 680,202 C 700,197 735,190 782,180" fill="none" stroke="#E7DDC0" stroke-width="12" stroke-linecap="round" transform="translate(-0.5,-1)"/>
<ellipse cx="160" cy="400" rx="6.5" ry="4.2" fill="#D6C9A2"/><ellipse cx="174" cy="381" rx="6.5" ry="4.2" fill="#D6C9A2"/><ellipse cx="190" cy="362" rx="6.5" ry="4.2" fill="#D6C9A2"/><ellipse cx="206" cy="344" rx="6.5" ry="4.2" fill="#D6C9A2"/><ellipse cx="222" cy="325" rx="6.5" ry="4.2" fill="#D6C9A2"/><ellipse cx="236" cy="306" rx="6.5" ry="4.2" fill="#D6C9A2"/><ellipse cx="248" cy="286" rx="6.5" ry="4.2" fill="#D6C9A2"/><ellipse cx="258" cy="266" rx="6.5" ry="4.2" fill="#D6C9A2"/><ellipse cx="272" cy="238" rx="6.5" ry="4.2" fill="#D6C9A2"/><ellipse cx="292" cy="218" rx="6.5" ry="4.2" fill="#D6C9A2"/><ellipse cx="320" cy="202" rx="6.5" ry="4.2" fill="#D6C9A2"/><ellipse cx="352" cy="193" rx="6.5" ry="4.2" fill="#D6C9A2"/><ellipse cx="392" cy="187" rx="6.5" ry="4.2" fill="#D6C9A2"/><ellipse cx="436" cy="187" rx="6.5" ry="4.2" fill="#D6C9A2"/><ellipse cx="482" cy="192" rx="6.5" ry="4.2" fill="#D6C9A2"/><ellipse cx="525" cy="198" rx="6.5" ry="4.2" fill="#D6C9A2"/><ellipse cx="565" cy="205" rx="6.5" ry="4.2" fill="#D6C9A2"/><ellipse cx="600" cy="211" rx="6.5" ry="4.2" fill="#D6C9A2"/><ellipse cx="632" cy="212" rx="6.5" ry="4.2" fill="#D6C9A2"/><ellipse cx="662" cy="208" rx="6.5" ry="4.2" fill="#D6C9A2"/><ellipse cx="700" cy="199" rx="6.5" ry="4.2" fill="#D6C9A2"/><ellipse cx="732" cy="192" rx="6.5" ry="4.2" fill="#D6C9A2"/><ellipse cx="766" cy="184" rx="6.5" ry="4.2" fill="#D6C9A2"/>
<g transform="translate(75,38)"><g opacity="0.8"><circle cx="345" cy="245.8" r="27.6" fill="#DFD2AE"/><circle cx="369" cy="265" r="27.6" fill="#DFD2AE"/><circle cx="345" cy="284.2" r="27.6" fill="#DFD2AE"/><circle cx="321" cy="265" r="27.6" fill="#DFD2AE"/><rect x="321" y="245.8" width="48" height="38.4" rx="9.6" fill="#DFD2AE"/></g><g><circle cx="345" cy="242.8" r="27.6" fill="#E8DCBE"/><circle cx="369" cy="262" r="27.6" fill="#E8DCBE"/><circle cx="345" cy="281.2" r="27.6" fill="#E8DCBE"/><circle cx="321" cy="262" r="27.6" fill="#E8DCBE"/><rect x="321" y="242.8" width="48" height="38.4" rx="9.6" fill="#E8DCBE"/></g><ellipse cx="380.6" cy="272.6" rx="5.5" ry="3.6" fill="#D6C9A2" opacity="0.8"/><ellipse cx="367.3" cy="290.8" rx="5.5" ry="3.6" fill="#D6C9A2" opacity="0.8"/><ellipse cx="345.5" cy="298" rx="5.5" ry="3.6" fill="#D6C9A2" opacity="0.8"/><ellipse cx="323.5" cy="291.4" rx="5.5" ry="3.6" fill="#D6C9A2" opacity="0.8"/><ellipse cx="309.7" cy="273.6" rx="5.5" ry="3.6" fill="#D6C9A2" opacity="0.8"/><ellipse cx="309.4" cy="251.4" rx="5.5" ry="3.6" fill="#D6C9A2" opacity="0.8"/><ellipse cx="322.7" cy="233.2" rx="5.5" ry="3.6" fill="#D6C9A2" opacity="0.8"/><ellipse cx="344.5" cy="226" rx="5.5" ry="3.6" fill="#D6C9A2" opacity="0.8"/><ellipse cx="366.5" cy="232.6" rx="5.5" ry="3.6" fill="#D6C9A2" opacity="0.8"/><ellipse cx="380.3" cy="250.4" rx="5.5" ry="3.6" fill="#D6C9A2" opacity="0.8"/><g><circle cx="345" cy="247" r="23" fill="#B7A177"/><circle cx="365" cy="263" r="23" fill="#B7A177"/><circle cx="345" cy="279" r="23" fill="#B7A177"/><circle cx="325" cy="263" r="23" fill="#B7A177"/><rect x="325" y="247" width="40" height="32" rx="8" fill="#B7A177"/></g><g><circle cx="345" cy="244" r="23" fill="#ECDFBE"/><circle cx="365" cy="260" r="23" fill="#ECDFBE"/><circle cx="345" cy="276" r="23" fill="#ECDFBE"/><circle cx="325" cy="260" r="23" fill="#ECDFBE"/><rect x="325" y="244" width="40" height="32" rx="8" fill="#ECDFBE"/></g><g><circle cx="345" cy="245.96" r="18.4" fill="#CDB992"/><circle cx="363.8" cy="261" r="18.4" fill="#CDB992"/><circle cx="345" cy="276.04" r="18.4" fill="#CDB992"/><circle cx="326.2" cy="261" r="18.4" fill="#CDB992"/><rect x="326.2" y="246" width="37.6" height="30.1" rx="7.5" fill="#CDB992"/></g><g><circle cx="345" cy="247.92" r="14.3" fill="#57A79E"/><circle cx="362.6" cy="262" r="14.3" fill="#57A79E"/><circle cx="345" cy="276.08" r="14.3" fill="#57A79E"/><circle cx="327.4" cy="262" r="14.3" fill="#57A79E"/><rect x="327.4" y="247.9" width="35.2" height="28.2" rx="7" fill="#57A79E"/></g><g><circle cx="345" cy="250.88" r="12" fill="#8FCFC2"/><circle cx="361.4" cy="264" r="12" fill="#8FCFC2"/><circle cx="345" cy="277.12" r="12" fill="#8FCFC2"/><circle cx="328.6" cy="264" r="12" fill="#8FCFC2"/><rect x="328.6" y="250.9" width="32.8" height="26.2" rx="6.6" fill="#8FCFC2"/></g><ellipse cx="339" cy="266.7" rx="11.5" ry="6" fill="#BFE8DC" opacity="0.55"/></g>
<g transform="translate(560,240) rotate(4) scale(1.0)"><rect x="-34" y="-19" width="68" height="38" rx="13" fill="#ECDFBE"/><rect x="-34" y="-15" width="68" height="38" rx="13" fill="#CDB992" opacity="0.55"/><rect x="-29" y="-14" width="58" height="28" rx="9" fill="#C4A981"/><ellipse cx="-19" cy="-5" rx="5.2" ry="3.6" fill="#6FAA58"/><ellipse cx="0" cy="-5" rx="5.2" ry="3.6" fill="#98CB77"/><ellipse cx="19" cy="-5" rx="5.2" ry="3.6" fill="#6FAA58"/><circle cx="16.2" cy="-4.5" r="2.6" fill="#F2C46E"/></g>
<g transform="translate(205,228) rotate(-8) scale(0.6)"><rect x="-34" y="-19" width="68" height="38" rx="13" fill="#ECDFBE"/><rect x="-34" y="-15" width="68" height="38" rx="13" fill="#CDB992" opacity="0.55"/><rect x="-29" y="-14" width="58" height="28" rx="9" fill="#C4A981"/><ellipse cx="-19" cy="-5" rx="5.2" ry="3.6" fill="#6FAA58"/><ellipse cx="0" cy="-5" rx="5.2" ry="3.6" fill="#98CB77"/><ellipse cx="19" cy="-5" rx="5.2" ry="3.6" fill="#6FAA58"/><circle cx="16.2" cy="-4.5" r="2.6" fill="#F2C46E"/></g>
<g transform="translate(600,352) rotate(7) scale(0.72)"><rect x="-34" y="-19" width="68" height="38" rx="13" fill="#ECDFBE"/><rect x="-34" y="-15" width="68" height="38" rx="13" fill="#CDB992" opacity="0.55"/><rect x="-29" y="-14" width="58" height="28" rx="9" fill="#C4A981"/><ellipse cx="-19" cy="-5" rx="5.2" ry="3.6" fill="#6FAA58"/><ellipse cx="0" cy="-5" rx="5.2" ry="3.6" fill="#98CB77"/><ellipse cx="19" cy="-5" rx="5.2" ry="3.6" fill="#6FAA58"/><circle cx="16.2" cy="-4.5" r="2.6" fill="#F2C46E"/></g>
<g><ellipse cx="430" cy="168" rx="11" ry="4.6" fill="#CBBC97"/><ellipse cx="430" cy="167" rx="8.3" ry="3.4" fill="#C4A981"/><ellipse cx="433.5" cy="170" rx="9" ry="3.4" fill="#4E8746" opacity="0.22"/><rect x="428" y="156" width="4" height="13" rx="2" fill="#8A6B4F"/><circle cx="431.5" cy="151.1" r="9" fill="#4E8746"/><circle cx="429" cy="149.1" r="7.9" fill="#6FAA58"/><ellipse cx="426.6" cy="147.8" rx="4" ry="3" fill="#98CB77"/><circle cx="425.9" cy="149.9" r="2.2" fill="#F2C46E"/><circle cx="432.6" cy="145.1" r="2.2" fill="#F2C46E"/></g>
<g><ellipse cx="310" cy="176" rx="12.1" ry="5.1" fill="#CBBC97"/><ellipse cx="310" cy="175" rx="9.2" ry="3.7" fill="#C4A981"/><ellipse cx="313.9" cy="178" rx="9.9" ry="3.7" fill="#4E8746" opacity="0.22"/><rect x="307.8" y="162.8" width="4.4" height="14.3" rx="2.2" fill="#8A6B4F"/><circle cx="311.6" cy="157.4" r="9.9" fill="#4E8746"/><circle cx="308.9" cy="155.2" r="8.7" fill="#6FAA58"/><ellipse cx="306.3" cy="153.8" rx="4.3" ry="3.4" fill="#98CB77"/><circle cx="305.5" cy="156.1" r="2.2" fill="#F2C46E"/><circle cx="312.9" cy="150.8" r="2.2" fill="#F2C46E"/></g>
<g><ellipse cx="688" cy="268" rx="18.7" ry="7.8" fill="#CBBC97"/><ellipse cx="688" cy="267" rx="14.2" ry="5.7" fill="#C4A981"/><ellipse cx="694" cy="270" rx="15.3" ry="5.7" fill="#4E8746" opacity="0.22"/><rect x="684.6" y="247.6" width="6.8" height="22.1" rx="3.4" fill="#8A6B4F"/><circle cx="690.5" cy="239.2" r="15.3" fill="#4E8746"/><circle cx="686.3" cy="235.8" r="13.4" fill="#6FAA58"/><ellipse cx="682.2" cy="233.7" rx="6.7" ry="5.2" fill="#98CB77"/><circle cx="681" cy="237.3" r="2.9" fill="#F2C46E"/><circle cx="692.4" cy="229.1" r="2.9" fill="#F2C46E"/><circle cx="699.4" cy="240.7" r="2.9" fill="#F2C46E"/></g>
<g><ellipse cx="190" cy="278" rx="15" ry="6.3" fill="#CBBC97"/><ellipse cx="190" cy="277" rx="11.4" ry="4.6" fill="#C4A981"/><ellipse cx="194.8" cy="280" rx="12.2" ry="4.6" fill="#4E8746" opacity="0.22"/><rect x="187.3" y="261.7" width="5.4" height="17.7" rx="2.7" fill="#8A6B4F"/><circle cx="192" cy="254.9" r="12.2" fill="#4E8746"/><circle cx="188.6" cy="252.2" r="10.7" fill="#6FAA58"/><ellipse cx="185.4" cy="250.5" rx="5.4" ry="4.1" fill="#98CB77"/><circle cx="184.4" cy="253.5" r="2.3" fill="#F2C46E"/><circle cx="193.5" cy="246.9" r="2.3" fill="#F2C46E"/></g>
<g><ellipse cx="620" cy="290" rx="24.6" ry="10.3" fill="#CBBC97"/><ellipse cx="620" cy="289" rx="18.7" ry="7.5" fill="#C4A981"/><ellipse cx="627.8" cy="292" rx="20.2" ry="7.5" fill="#4E8746" opacity="0.22"/><rect x="615.5" y="263.1" width="9" height="29.1" rx="4.5" fill="#8A6B4F"/><circle cx="623.4" cy="252" r="20.2" fill="#4E8746"/><circle cx="617.8" cy="247.6" r="17.7" fill="#6FAA58"/><ellipse cx="612.4" cy="244.8" rx="8.8" ry="6.8" fill="#98CB77"/><circle cx="610.8" cy="249.6" r="3.8" fill="#F2C46E"/><circle cx="625.8" cy="238.7" r="3.8" fill="#F2C46E"/><circle cx="635" cy="254" r="3.8" fill="#F2C46E"/><circle cx="620.6" cy="262.1" r="3.8" fill="#F2C46E"/></g>
<g><ellipse cx="300" cy="330" rx="17.6" ry="7.4" fill="#CBBC97"/><ellipse cx="300" cy="329" rx="13.4" ry="5.4" fill="#C4A981"/><ellipse cx="305.6" cy="332" rx="14.4" ry="5.4" fill="#4E8746" opacity="0.22"/><rect x="296.8" y="310.8" width="6.4" height="20.8" rx="3.2" fill="#8A6B4F"/><circle cx="302.4" cy="302.9" r="14.4" fill="#4E8746"/><circle cx="298.4" cy="299.7" r="12.6" fill="#6FAA58"/><ellipse cx="294.6" cy="297.7" rx="6.3" ry="4.9" fill="#98CB77"/><circle cx="293.4" cy="301.1" r="2.7" fill="#F2C46E"/><circle cx="304.2" cy="293.4" r="2.7" fill="#F2C46E"/><circle cx="310.7" cy="304.3" r="2.7" fill="#F2C46E"/></g>
<g><ellipse cx="540" cy="330" rx="22" ry="9.2" fill="#CBBC97"/><ellipse cx="540" cy="329" rx="16.7" ry="6.7" fill="#C4A981"/><ellipse cx="547" cy="332" rx="18" ry="6.7" fill="#4E8746" opacity="0.22"/><rect x="536" y="306" width="8" height="26" rx="4" fill="#8A6B4F"/><circle cx="543" cy="296.1" r="18" fill="#4E8746"/><circle cx="538" cy="292.1" r="15.8" fill="#6FAA58"/><ellipse cx="533.2" cy="289.6" rx="7.9" ry="6.1" fill="#98CB77"/><circle cx="531.8" cy="293.9" r="3.4" fill="#F2C46E"/><circle cx="545.2" cy="284.2" r="3.4" fill="#F2C46E"/><circle cx="553.4" cy="297.9" r="3.4" fill="#F2C46E"/><circle cx="540.5" cy="305.1" r="3.4" fill="#F2C46E"/></g>
<g><ellipse cx="252" cy="350" rx="13.6" ry="5.7" fill="#CBBC97"/><ellipse cx="252" cy="349" rx="10.4" ry="4.2" fill="#C4A981"/><ellipse cx="256.3" cy="352" rx="11.2" ry="4.2" fill="#4E8746" opacity="0.22"/><rect x="249.5" y="335.1" width="5" height="16.1" rx="2.5" fill="#8A6B4F"/><circle cx="253.9" cy="329" r="11.2" fill="#4E8746"/><circle cx="250.8" cy="326.5" r="9.8" fill="#6FAA58"/><ellipse cx="247.8" cy="325" rx="4.9" ry="3.8" fill="#98CB77"/><circle cx="246.9" cy="327.6" r="2.2" fill="#F2C46E"/><circle cx="255.2" cy="321.6" r="2.2" fill="#F2C46E"/></g>
<g><ellipse cx="360" cy="368" rx="13.2" ry="5.5" fill="#CBBC97"/><ellipse cx="360" cy="367" rx="10" ry="4" fill="#C4A981"/><ellipse cx="364.2" cy="370" rx="10.8" ry="4" fill="#4E8746" opacity="0.22"/><rect x="357.6" y="353.6" width="4.8" height="15.6" rx="2.4" fill="#8A6B4F"/><circle cx="361.8" cy="347.7" r="10.8" fill="#4E8746"/><circle cx="358.8" cy="345.3" r="9.5" fill="#6FAA58"/><ellipse cx="355.9" cy="343.8" rx="4.7" ry="3.7" fill="#98CB77"/><circle cx="355.1" cy="346.3" r="2.2" fill="#F2C46E"/><circle cx="363.1" cy="340.5" r="2.2" fill="#F2C46E"/></g>
<g><ellipse cx="470" cy="368" rx="15" ry="6.3" fill="#CBBC97"/><ellipse cx="470" cy="367" rx="11.4" ry="4.6" fill="#C4A981"/><ellipse cx="474.8" cy="370" rx="12.2" ry="4.6" fill="#4E8746" opacity="0.22"/><rect x="467.3" y="351.7" width="5.4" height="17.7" rx="2.7" fill="#8A6B4F"/><circle cx="472" cy="344.9" r="12.2" fill="#4E8746"/><circle cx="468.6" cy="342.2" r="10.7" fill="#6FAA58"/><ellipse cx="465.4" cy="340.5" rx="5.4" ry="4.1" fill="#98CB77"/><circle cx="464.4" cy="343.5" r="2.3" fill="#F2C46E"/><circle cx="473.5" cy="336.9" r="2.3" fill="#F2C46E"/></g>
<g><ellipse cx="215" cy="295" rx="4" ry="2.6" fill="#699F63" opacity="0.5"/><ellipse cx="224" cy="297" rx="5" ry="3" fill="#699F63" opacity="0.4"/><ellipse cx="220" cy="290" rx="4.5" ry="2.8" fill="#98CB77" opacity="0.55"/></g>
<g><ellipse cx="360" cy="175" rx="4" ry="2.6" fill="#699F63" opacity="0.5"/><ellipse cx="369" cy="177" rx="5" ry="3" fill="#699F63" opacity="0.4"/><ellipse cx="365" cy="170" rx="4.5" ry="2.8" fill="#98CB77" opacity="0.55"/></g>
<g><ellipse cx="505" cy="180" rx="4" ry="2.6" fill="#699F63" opacity="0.5"/><ellipse cx="514" cy="182" rx="5" ry="3" fill="#699F63" opacity="0.4"/><ellipse cx="510" cy="175" rx="4.5" ry="2.8" fill="#98CB77" opacity="0.55"/></g>
<g><ellipse cx="600" cy="196" rx="4" ry="2.6" fill="#699F63" opacity="0.5"/><ellipse cx="609" cy="198" rx="5" ry="3" fill="#699F63" opacity="0.4"/><ellipse cx="605" cy="191" rx="4.5" ry="2.8" fill="#98CB77" opacity="0.55"/></g>
<g><ellipse cx="320" cy="270" rx="4" ry="2.6" fill="#699F63" opacity="0.5"/><ellipse cx="329" cy="272" rx="5" ry="3" fill="#699F63" opacity="0.4"/><ellipse cx="325" cy="265" rx="4.5" ry="2.8" fill="#98CB77" opacity="0.55"/></g>
<g><ellipse cx="480" cy="250" rx="4" ry="2.6" fill="#699F63" opacity="0.5"/><ellipse cx="489" cy="252" rx="5" ry="3" fill="#699F63" opacity="0.4"/><ellipse cx="485" cy="245" rx="4.5" ry="2.8" fill="#98CB77" opacity="0.55"/></g>
<g><ellipse cx="575" cy="305" rx="4" ry="2.6" fill="#699F63" opacity="0.5"/><ellipse cx="584" cy="307" rx="5" ry="3" fill="#699F63" opacity="0.4"/><ellipse cx="580" cy="300" rx="4.5" ry="2.8" fill="#98CB77" opacity="0.55"/></g>
<g><ellipse cx="650" cy="330" rx="4" ry="2.6" fill="#699F63" opacity="0.5"/><ellipse cx="659" cy="332" rx="5" ry="3" fill="#699F63" opacity="0.4"/><ellipse cx="655" cy="325" rx="4.5" ry="2.8" fill="#98CB77" opacity="0.55"/></g>
<g><ellipse cx="700" cy="300" rx="4" ry="2.6" fill="#699F63" opacity="0.5"/><ellipse cx="709" cy="302" rx="5" ry="3" fill="#699F63" opacity="0.4"/><ellipse cx="705" cy="295" rx="4.5" ry="2.8" fill="#98CB77" opacity="0.55"/></g>
<g><ellipse cx="280" cy="300" rx="4" ry="2.6" fill="#699F63" opacity="0.5"/><ellipse cx="289" cy="302" rx="5" ry="3" fill="#699F63" opacity="0.4"/><ellipse cx="285" cy="295" rx="4.5" ry="2.8" fill="#98CB77" opacity="0.55"/></g>
<g><ellipse cx="400" cy="355" rx="4" ry="2.6" fill="#699F63" opacity="0.5"/><ellipse cx="409" cy="357" rx="5" ry="3" fill="#699F63" opacity="0.4"/><ellipse cx="405" cy="350" rx="4.5" ry="2.8" fill="#98CB77" opacity="0.55"/></g>
<g><ellipse cx="545" cy="368" rx="4" ry="2.6" fill="#699F63" opacity="0.5"/><ellipse cx="554" cy="370" rx="5" ry="3" fill="#699F63" opacity="0.4"/><ellipse cx="550" cy="363" rx="4.5" ry="2.8" fill="#98CB77" opacity="0.55"/></g>
<g><ellipse cx="490" cy="330" rx="4" ry="2.6" fill="#699F63" opacity="0.5"/><ellipse cx="499" cy="332" rx="5" ry="3" fill="#699F63" opacity="0.4"/><ellipse cx="495" cy="325" rx="4.5" ry="2.8" fill="#98CB77" opacity="0.55"/></g>
</g>
<g opacity="0.92"><ellipse cx="140" cy="402" rx="44" ry="11" fill="#FDF6E4"/><ellipse cx="124.6" cy="406.4" rx="29.9" ry="8.6" fill="#F4EFD8"/></g>
<g opacity="0.85"><ellipse cx="165" cy="388" rx="27" ry="7" fill="#FDF6E4"/><ellipse cx="155.6" cy="390.8" rx="18.4" ry="5.5" fill="#F4EFD8"/></g>
<g opacity="0.9"><ellipse cx="806" cy="152" rx="40" ry="10" fill="#FDF6E4"/><ellipse cx="792" cy="156" rx="27.2" ry="7.8" fill="#F4EFD8"/></g>
<g opacity="0.85"><ellipse cx="784" cy="163" rx="26" ry="7" fill="#FDF6E4"/><ellipse cx="774.9" cy="165.8" rx="17.7" ry="5.5" fill="#F4EFD8"/></g>
</svg>
