<svg viewBox="0 0 900 520" xmlns="http://www.w3.org/2000/svg">
<defs>
<linearGradient id="skyA" x1="0" y1="0" x2="0" y2="1"><stop offset="0" stop-color="#9ED2C6"/><stop offset="0.52" stop-color="#DFF0C8"/><stop offset="1" stop-color="#FBE7AE"/></linearGradient>
<linearGradient id="grassA" x1="0" y1="0" x2="0.25" y2="1"><stop offset="0" stop-color="#A4D384"/><stop offset="1" stop-color="#7CB863"/></linearGradient>
</defs>
<rect x="0" y="0" width="900" height="520" fill="url(#skyA)"/>
<ellipse cx="700" cy="58" rx="170" ry="70" fill="#FBE7AE" opacity="0.18"/>
<ellipse cx="700" cy="58" rx="95" ry="40" fill="#FDF6E4" opacity="0.14"/>
<g opacity="0.85">
<ellipse cx="120" cy="140" rx="75.4" ry="19.5" fill="#FDF6E4"/>
<ellipse cx="81" cy="130.9" rx="39" ry="14.3" fill="#FDF6E4"/>
<ellipse cx="148.6" cy="129.6" rx="44.2" ry="15.6" fill="#FDF6E4"/>
<ellipse cx="127.8" cy="145.2" rx="65" ry="14.3" fill="#F4EFD8"/>
</g>
<g opacity="0.7">
<ellipse cx="812" cy="210" rx="52.2" ry="13.5" fill="#FDF6E4"/>
<ellipse cx="785" cy="203.7" rx="27" ry="9.9" fill="#FDF6E4"/>
<ellipse cx="831.8" cy="202.8" rx="30.6" ry="10.8" fill="#FDF6E4"/>
<ellipse cx="817.4" cy="213.6" rx="45" ry="9.9" fill="#F4EFD8"/>
</g>
<g opacity="0.6">
<ellipse cx="70" cy="330" rx="46.4" ry="12" fill="#FDF6E4"/>
<ellipse cx="46" cy="324.4" rx="24" ry="8.8" fill="#FDF6E4"/>
<ellipse cx="87.6" cy="323.6" rx="27.2" ry="9.6" fill="#FDF6E4"/>
<ellipse cx="74.8" cy="333.2" rx="40" ry="8.8" fill="#F4EFD8"/>
</g>
<g opacity="0.65">
<ellipse cx="842" cy="396" rx="49.3" ry="12.8" fill="#FDF6E4"/>
<ellipse cx="816.5" cy="390.1" rx="25.5" ry="9.4" fill="#FDF6E4"/>
<ellipse cx="860.7" cy="389.2" rx="28.9" ry="10.2" fill="#FDF6E4"/>
<ellipse cx="847.1" cy="399.4" rx="42.5" ry="9.4" fill="#F4EFD8"/>
</g>
<g opacity="0.5">
<ellipse cx="340" cy="68" rx="46.4" ry="12" fill="#FDF6E4"/>
<ellipse cx="316" cy="62.4" rx="24" ry="8.8" fill="#FDF6E4"/>
<ellipse cx="357.6" cy="61.6" rx="27.2" ry="9.6" fill="#FDF6E4"/>
<ellipse cx="344.8" cy="71.2" rx="40" ry="8.8" fill="#F4EFD8"/>
</g>
<path d="M 655.5,402.4 C 658,409 650.9,417.3 636.9,423.1 C 622.9,428.8 595.3,433.5 571.5,436.9 C 547.7,440.4 520.9,442.1 494.2,443.6 C 467.5,445.2 439.3,446.8 411.4,446.2 C 383.5,445.5 349.4,443.8 326.6,439.9 C 303.8,435.9 284,428.9 274.6,422.7 C 265.2,416.4 267.6,408.9 270.1,402.4 C 272.6,396 279.5,389.9 289.7,383.9 C 299.9,377.9 311.4,371.1 331.2,366.4 C 351,361.7 380.7,357 408.4,355.7 C 436.1,354.3 470.7,355.9 497.1,358.2 C 523.6,360.4 546.1,365.1 566.9,369.3 C 587.7,373.5 607.1,378 621.9,383.5 C 636.6,389 653,395.8 655.5,402.4 Z" fill="#B08A60"/><path d="M 580.9,434.4 C 579.8,439.7 569.8,445.3 560.3,449.6 C 550.9,454 537.5,457.4 524.2,460.6 C 510.9,463.8 497,467.2 480.5,468.9 C 464.1,470.7 443,472.3 425.6,471.3 C 408.3,470.4 388.9,467 376.3,463.4 C 363.8,459.7 356.3,454.1 350.3,449.3 C 344.3,444.4 341.4,439.5 340.3,434.4 C 339.2,429.3 337.9,423.6 343.5,418.6 C 349.2,413.7 360.3,408 374.2,404.7 C 388.1,401.5 409.5,399.8 427,399.3 C 444.5,398.8 462.6,400.3 479.2,401.7 C 495.7,403.1 511.7,404.7 526.3,407.5 C 541,410.3 558,413.8 567.1,418.3 C 576.2,422.8 582.1,429.2 580.9,434.4 Z" fill="#96714E"/><path d="M 509.2,464.4 C 510.2,467.2 509.7,470.6 506.3,473.1 C 502.8,475.6 495.3,477.9 488.5,479.4 C 481.7,480.8 473.1,481.3 465.4,481.7 C 457.7,482.2 450.2,482.4 442.4,482 C 434.6,481.7 425.4,481.2 418.7,479.7 C 412,478.2 405.1,475.6 402,473.1 C 398.9,470.5 399.2,467.2 400.2,464.4 C 401.2,461.7 404.6,459.2 408,456.8 C 411.4,454.4 415,451.9 420.5,450 C 426.1,448 433.5,445.8 441.2,445.1 C 448.9,444.3 459,444.5 466.6,445.4 C 474.2,446.2 481.1,448.4 486.7,450.3 C 492.3,452.2 496.5,454.4 500.3,456.8 C 504,459.1 508.2,461.7 509.2,464.4 Z" fill="#7E5E41"/>
<ellipse cx="385" cy="400" rx="55" ry="8" fill="#C4A981" opacity="0.45"/>
<ellipse cx="515" cy="406" rx="44" ry="7" fill="#C4A981" opacity="0.4"/>
<ellipse cx="455" cy="442" rx="36" ry="6" fill="#CBBC97" opacity="0.45"/>
<path d="M 745.5,296 C 746.1,308.4 733,322.2 719.9,333.5 C 706.9,344.7 686.1,354.3 667.3,363.4 C 648.5,372.6 629.7,381.6 607.3,388.5 C 584.9,395.4 559,401.4 532.8,404.8 C 506.5,408.2 477.9,408.4 450,408.7 C 422.1,409.1 394.3,408.8 365.6,406.9 C 337,405 303.4,403.3 278,397.1 C 252.6,390.9 227,380.5 213.1,369.5 C 199.2,358.6 197.5,343.7 194.8,331.4 C 192.1,319.2 196.3,307.7 196.8,296 C 197.4,284.3 193.6,272.8 198.1,261 C 202.5,249.3 208.9,236 223.4,225.7 C 237.8,215.3 261.5,206.2 284.8,198.9 C 308.1,191.6 335.7,186 363.2,181.9 C 390.7,177.8 421.3,174 450,174.4 C 478.7,174.7 510.1,178.5 535.2,184 C 560.3,189.5 580.2,199.5 600.5,207.5 C 620.8,215.5 637.7,223.2 657,231.8 C 676.4,240.3 701.9,248.3 716.6,259 C 731.4,269.7 745,283.6 745.5,296 Z" fill="#B7A177"/>
<path d="M 745.5,280.7 C 746.1,293.1 733,306.9 719.9,318.2 C 706.9,329.4 686.1,339 667.3,348.1 C 648.5,357.3 629.7,366.3 607.3,373.2 C 584.9,380.1 559,386.1 532.8,389.5 C 506.5,392.9 477.9,393.1 450,393.4 C 422.1,393.8 394.3,393.5 365.6,391.6 C 337,389.7 303.4,388 278,381.8 C 252.6,375.6 227,365.2 213.1,354.2 C 199.2,343.3 197.5,328.4 194.8,316.1 C 192.1,303.9 196.3,292.4 196.8,280.7 C 197.4,269 193.6,257.5 198.1,245.7 C 202.5,234 208.9,220.7 223.4,210.4 C 237.8,200 261.5,190.9 284.8,183.6 C 308.1,176.3 335.7,170.7 363.2,166.6 C 390.7,162.5 421.3,158.7 450,159.1 C 478.7,159.4 510.1,163.2 535.2,168.7 C 560.3,174.2 580.2,184.2 600.5,192.2 C 620.8,200.2 637.7,207.9 657,216.5 C 676.4,225 701.9,233 716.6,243.7 C 731.4,254.4 745,268.3 745.5,280.7 Z" fill="#CDB992"/>
<path d="M 745.5,262 C 746.1,274.4 733,288.2 719.9,299.5 C 706.9,310.7 686.1,320.3 667.3,329.4 C 648.5,338.6 629.7,347.6 607.3,354.5 C 584.9,361.4 559,367.4 532.8,370.8 C 506.5,374.2 477.9,374.4 450,374.7 C 422.1,375.1 394.3,374.8 365.6,372.9 C 337,371 303.4,369.3 278,363.1 C 252.6,356.9 227,346.5 213.1,335.5 C 199.2,324.6 197.5,309.7 194.8,297.4 C 192.1,285.2 196.3,273.7 196.8,262 C 197.4,250.3 193.6,238.8 198.1,227 C 202.5,215.3 208.9,202 223.4,191.7 C 237.8,181.3 261.5,172.2 284.8,164.9 C 308.1,157.6 335.7,152 363.2,147.9 C 390.7,143.8 421.3,140 450,140.4 C 478.7,140.7 510.1,144.5 535.2,150 C 560.3,155.5 580.2,165.5 600.5,173.5 C 620.8,181.5 637.7,189.2 657,197.8 C 676.4,206.3 701.9,214.3 716.6,225 C 731.4,235.7 745,249.6 745.5,262 Z" fill="#ECDFBE"/>
<path d="M 727.8,258 C 728.3,269.7 716,282.6 703.7,293.2 C 691.5,303.8 671.9,312.8 654.3,321.4 C 636.6,330 618.9,338.4 597.9,344.9 C 576.8,351.4 552.4,357.1 527.8,360.3 C 503.2,363.4 476.2,363.7 450,364 C 423.8,364.3 397.6,364.1 370.7,362.2 C 343.8,360.4 312.2,358.9 288.3,353 C 264.4,347.2 240.4,337.4 227.3,327.1 C 214.3,316.8 212.6,302.8 210.1,291.3 C 207.5,279.8 211.5,269 212,258 C 212.5,247 209,236.2 213.2,225.1 C 217.3,214.1 223.4,201.6 237,191.9 C 250.6,182.2 272.8,173.6 294.7,166.7 C 316.6,159.8 342.5,154.6 368.4,150.8 C 394.3,146.9 423.1,143.4 450,143.7 C 476.9,144 506.5,147.5 530.1,152.7 C 553.7,157.9 572.4,167.3 591.5,174.8 C 610.6,182.3 626.4,189.5 644.6,197.6 C 662.8,205.7 686.8,213.2 700.6,223.2 C 714.5,233.3 727.3,246.3 727.8,258 Z" fill="url(#grassA)"/>
<rect x="707.8" y="310" width="5" height="13" rx="2.5" fill="#B9A87C" opacity="0.55"/><rect x="692.1" y="319.4" width="5" height="13" rx="2.5" fill="#B9A87C" opacity="0.55"/><rect x="675.5" y="328.1" width="5" height="13" rx="2.5" fill="#B9A87C" opacity="0.55"/><rect x="658.5" y="336.5" width="5" height="13" rx="2.5" fill="#B9A87C" opacity="0.55"/><rect x="641" y="344.4" width="5" height="13" rx="2.5" fill="#B9A87C" opacity="0.55"/><rect x="622.7" y="352" width="5" height="13" rx="2.5" fill="#B9A87C" opacity="0.55"/><rect x="603.2" y="359" width="5" height="13" rx="2.5" fill="#B9A87C" opacity="0.55"/><rect x="582.1" y="365.2" width="5" height="13" rx="2.5" fill="#B9A87C" opacity="0.55"/><rect x="559.4" y="370.3" width="5" height="13" rx="2.5" fill="#B9A87C" opacity="0.55"/><rect x="535.4" y="374.2" width="5" height="13" rx="2.5" fill="#B9A87C" opacity="0.55"/><rect x="510.6" y="376.7" width="5" height="13" rx="2.5" fill="#B9A87C" opacity="0.55"/><rect x="485.4" y="378.2" width="5" height="13" rx="2.5" fill="#B9A87C" opacity="0.55"/><rect x="460.1" y="378.7" width="5" height="13" rx="2.5" fill="#B9A87C" opacity="0.55"/><rect x="434.9" y="378.7" width="5" height="13" rx="2.5" fill="#B9A87C" opacity="0.55"/><rect x="409.6" y="378.3" width="5" height="13" rx="2.5" fill="#B9A87C" opacity="0.55"/><rect x="383.9" y="377.7" width="5" height="13" rx="2.5" fill="#B9A87C" opacity="0.55"/><rect x="357.5" y="376.6" width="5" height="13" rx="2.5" fill="#B9A87C" opacity="0.55"/><rect x="330.7" y="374.9" width="5" height="13" rx="2.5" fill="#B9A87C" opacity="0.55"/><rect x="303.7" y="372" width="5" height="13" rx="2.5" fill="#B9A87C" opacity="0.55"/><rect x="277.5" y="367.5" width="5" height="13" rx="2.5" fill="#B9A87C" opacity="0.55"/><rect x="253.3" y="361.3" width="5" height="13" rx="2.5" fill="#B9A87C" opacity="0.55"/><rect x="232.3" y="353.2" width="5" height="13" rx="2.5" fill="#B9A87C" opacity="0.55"/><rect x="215.6" y="343.4" width="5" height="13" rx="2.5" fill="#B9A87C" opacity="0.55"/><rect x="203.6" y="332.5" width="5" height="13" rx="2.5" fill="#B9A87C" opacity="0.55"/><rect x="196.3" y="320.8" width="5" height="13" rx="2.5" fill="#B9A87C" opacity="0.55"/><rect x="192.9" y="309" width="5" height="13" rx="2.5" fill="#B9A87C" opacity="0.55"/>
<ellipse cx="360" cy="208" rx="90" ry="30" fill="#A4D384" opacity="0.4"/>
<ellipse cx="560" cy="295" rx="62" ry="22" fill="#A4D384" opacity="0.3"/>
<ellipse cx="268" cy="295" rx="50" ry="18" fill="#A4D384" opacity="0.3"/>
<ellipse cx="468" cy="348" rx="70" ry="14" fill="#699F63" opacity="0.2"/>
<ellipse cx="618" cy="215" rx="52" ry="18" fill="#699F63" opacity="0.18"/>
<ellipse cx="440" cy="245" rx="110" ry="40" fill="#F2C46E" opacity="0.1"/>
<g transform="translate(287,268) rotate(-8)">
<rect x="-36" y="-20" width="72" height="40" rx="13" fill="#ECDFBE"/>
<rect x="-36" y="-16" width="72" height="40" rx="13" fill="#CDB992" opacity="0.55"/>
<rect x="-31" y="-15" width="62" height="30" rx="9" fill="#C4A981"/>
<ellipse cx="-21" cy="-6" rx="5.2" ry="3.6" fill="#6FAA58"/><ellipse cx="-21" cy="6" rx="5.2" ry="3.6" fill="#98CB77"/><ellipse cx="0" cy="-6" rx="5.2" ry="3.6" fill="#98CB77"/><ellipse cx="0" cy="6" rx="5.2" ry="3.6" fill="#6FAA58"/><ellipse cx="21" cy="-6" rx="5.2" ry="3.6" fill="#6FAA58"/><ellipse cx="21" cy="6" rx="5.2" ry="3.6" fill="#98CB77"/><circle cx="17.4" cy="-4.8" r="2.6" fill="#F2C46E"/>
</g>
<g transform="translate(620,285) rotate(8)">
<rect x="-32" y="-18" width="64" height="36" rx="13" fill="#ECDFBE"/>
<rect x="-32" y="-14" width="64" height="36" rx="13" fill="#CDB992" opacity="0.55"/>
<rect x="-27" y="-13" width="54" height="26" rx="9" fill="#C4A981"/>
<ellipse cx="-17" cy="-4" rx="5.2" ry="3.6" fill="#6FAA58"/><ellipse cx="0" cy="-4" rx="5.2" ry="3.6" fill="#98CB77"/><ellipse cx="17" cy="-4" rx="5.2" ry="3.6" fill="#6FAA58"/><circle cx="15.1" cy="-4.2" r="2.6" fill="#F2C46E"/>
</g>
<g transform="translate(310,215) rotate(14)">
<rect x="-32" y="-18" width="64" height="36" rx="13" fill="#ECDFBE"/>
<rect x="-32" y="-14" width="64" height="36" rx="13" fill="#CDB992" opacity="0.55"/>
<rect x="-27" y="-13" width="54" height="26" rx="9" fill="#C4A981"/>
<ellipse cx="-17" cy="-4" rx="5.2" ry="3.6" fill="#6FAA58"/><ellipse cx="0" cy="-4" rx="5.2" ry="3.6" fill="#98CB77"/><ellipse cx="17" cy="-4" rx="5.2" ry="3.6" fill="#6FAA58"/><circle cx="15.1" cy="-4.2" r="2.6" fill="#F2C46E"/>
</g>
<path d="M 248,232 C 254,227 270.3,210 284,202 C 297.7,194 322.3,187 330,184" fill="none" stroke="#B7A177" stroke-width="10" stroke-linecap="round" transform="translate(0,5)"/><path d="M 248,232 C 254,227 270.3,210 284,202 C 297.7,194 322.3,187 330,184" fill="none" stroke="#ECDFBE" stroke-width="10" stroke-linecap="round"/><ellipse cx="266.5" cy="215.2" rx="3.4" ry="2.4" fill="#D6C9A2"/><ellipse cx="287.6" cy="200" rx="3.4" ry="2.4" fill="#D6C9A2"/><ellipse cx="311.4" cy="190.4" rx="3.4" ry="2.4" fill="#D6C9A2"/>
<path d="M 555,335 C 563.3,333.3 590.5,331.2 605,325 C 619.5,318.8 635.8,302.5 642,298" fill="none" stroke="#B7A177" stroke-width="10" stroke-linecap="round" transform="translate(0,5)"/><path d="M 555,335 C 563.3,333.3 590.5,331.2 605,325 C 619.5,318.8 635.8,302.5 642,298" fill="none" stroke="#ECDFBE" stroke-width="10" stroke-linecap="round"/><ellipse cx="580.1" cy="331.3" rx="3.4" ry="2.4" fill="#D6C9A2"/><ellipse cx="605" cy="325" rx="3.4" ry="2.4" fill="#D6C9A2"/><ellipse cx="626.6" cy="310.9" rx="3.4" ry="2.4" fill="#D6C9A2"/>
<g opacity="0.8"><circle cx="435" cy="224" r="43.4" fill="#DFD2AE"/><circle cx="473.75" cy="255" r="43.4" fill="#DFD2AE"/><circle cx="435" cy="286" r="43.4" fill="#DFD2AE"/><circle cx="396.25" cy="255" r="43.4" fill="#DFD2AE"/><rect x="396.3" y="224" width="77.5" height="62" rx="15.5" fill="#DFD2AE"/></g><g><circle cx="435" cy="221" r="43.4" fill="#E8DCBE"/><circle cx="473.75" cy="252" r="43.4" fill="#E8DCBE"/><circle cx="435" cy="283" r="43.4" fill="#E8DCBE"/><circle cx="396.25" cy="252" r="43.4" fill="#E8DCBE"/><rect x="396.3" y="221" width="77.5" height="62" rx="15.5" fill="#E8DCBE"/></g><ellipse cx="488.1" cy="267.2" rx="5.5" ry="3.6" fill="#D6C9A2" opacity="0.8"/><ellipse cx="468.3" cy="293.2" rx="5.5" ry="3.6" fill="#D6C9A2" opacity="0.8"/><ellipse cx="435.8" cy="303.4" rx="5.5" ry="3.6" fill="#D6C9A2" opacity="0.8"/><ellipse cx="403" cy="294" rx="5.5" ry="3.6" fill="#D6C9A2" opacity="0.8"/><ellipse cx="382.4" cy="268.6" rx="5.5" ry="3.6" fill="#D6C9A2" opacity="0.8"/><ellipse cx="381.9" cy="236.8" rx="5.5" ry="3.6" fill="#D6C9A2" opacity="0.8"/><ellipse cx="401.7" cy="210.8" rx="5.5" ry="3.6" fill="#D6C9A2" opacity="0.8"/><ellipse cx="434.2" cy="200.6" rx="5.5" ry="3.6" fill="#D6C9A2" opacity="0.8"/><ellipse cx="467" cy="210" rx="5.5" ry="3.6" fill="#D6C9A2" opacity="0.8"/><ellipse cx="487.6" cy="235.4" rx="5.5" ry="3.6" fill="#D6C9A2" opacity="0.8"/><g><circle cx="435" cy="233" r="28" fill="#B7A177"/><circle cx="460" cy="253" r="28" fill="#B7A177"/><circle cx="435" cy="273" r="28" fill="#B7A177"/><circle cx="410" cy="253" r="28" fill="#B7A177"/><rect x="410" y="233" width="50" height="40" rx="10" fill="#B7A177"/></g><g><circle cx="435" cy="230" r="28" fill="#ECDFBE"/><circle cx="460" cy="250" r="28" fill="#ECDFBE"/><circle cx="435" cy="270" r="28" fill="#ECDFBE"/><circle cx="410" cy="250" r="28" fill="#ECDFBE"/><rect x="410" y="230" width="50" height="40" rx="10" fill="#ECDFBE"/></g><g><circle cx="435" cy="232.2" r="22.4" fill="#CDB992"/><circle cx="458.5" cy="251" r="22.4" fill="#CDB992"/><circle cx="435" cy="269.8" r="22.4" fill="#CDB992"/><circle cx="411.5" cy="251" r="22.4" fill="#CDB992"/><rect x="411.5" y="232.2" width="47" height="37.6" rx="9.4" fill="#CDB992"/></g><g><circle cx="435" cy="234.4" r="17.4" fill="#57A79E"/><circle cx="457" cy="252" r="17.4" fill="#57A79E"/><circle cx="435" cy="269.6" r="17.4" fill="#57A79E"/><circle cx="413" cy="252" r="17.4" fill="#57A79E"/><rect x="413" y="234.4" width="44" height="35.2" rx="8.8" fill="#57A79E"/></g><g><circle cx="435" cy="237.6" r="14.6" fill="#8FCFC2"/><circle cx="455.5" cy="254" r="14.6" fill="#8FCFC2"/><circle cx="435" cy="270.4" r="14.6" fill="#8FCFC2"/><circle cx="414.5" cy="254" r="14.6" fill="#8FCFC2"/><rect x="414.5" y="237.6" width="41" height="32.8" rx="8.2" fill="#8FCFC2"/></g><ellipse cx="427.5" cy="258.4" rx="14" ry="7.3" fill="#BFE8DC" opacity="0.85"/>
<path d="M 150,398 C 164.7,387 211.3,342 238,332" fill="none" stroke="#96714E" stroke-width="36" stroke-linecap="round" transform="translate(0,11)" opacity="0.9"/><path d="M 150,398 C 164.7,387 211.3,342 238,332" fill="none" stroke="#CDB992" stroke-width="36" stroke-linecap="round" transform="translate(0,6)"/><path d="M 150,398 C 164.7,387 211.3,342 238,332" fill="none" stroke="#ECDFBE" stroke-width="36" stroke-linecap="round"/>
<path d="M 636,178 C 653.7,169.2 676.2,160.3 696,152 C 715.8,143.7 745.2,132 755,128" fill="none" stroke="#96714E" stroke-width="36" stroke-linecap="round" transform="translate(0,11)" opacity="0.9"/><path d="M 636,178 C 653.7,169.2 676.2,160.3 696,152 C 715.8,143.7 745.2,132 755,128" fill="none" stroke="#CDB992" stroke-width="36" stroke-linecap="round" transform="translate(0,6)"/><path d="M 636,178 C 653.7,169.2 676.2,160.3 696,152 C 715.8,143.7 745.2,132 755,128" fill="none" stroke="#ECDFBE" stroke-width="36" stroke-linecap="round"/>
<path d="M 150,398 C 164.7,387 211.3,342 238,332 C 264.7,322 285.5,337.7 310,338 C 334.5,338.3 359.7,336 385,334 C 410.3,332 437.8,331.7 462,326 C 486.2,320.3 512,312 530,300 C 548,288 560,269.8 570,254 C 580,238.2 579,217.7 590,205 C 601,192.3 618.3,186.8 636,178 C 653.7,169.2 676.2,160.3 696,152 C 715.8,143.7 745.2,132 755,128" fill="none" stroke="#B4A47C" stroke-width="24" stroke-linecap="round" transform="translate(0,6)"/><path d="M 150,398 C 164.7,387 211.3,342 238,332 C 264.7,322 285.5,337.7 310,338 C 334.5,338.3 359.7,336 385,334 C 410.3,332 437.8,331.7 462,326 C 486.2,320.3 512,312 530,300 C 548,288 560,269.8 570,254 C 580,238.2 579,217.7 590,205 C 601,192.3 618.3,186.8 636,178 C 653.7,169.2 676.2,160.3 696,152 C 715.8,143.7 745.2,132 755,128" fill="none" stroke="#EAE0C6" stroke-width="24" stroke-linecap="round"/><path d="M 150,398 C 164.7,387 211.3,342 238,332 C 264.7,322 285.5,337.7 310,338 C 334.5,338.3 359.7,336 385,334 C 410.3,332 437.8,331.7 462,326 C 486.2,320.3 512,312 530,300 C 548,288 560,269.8 570,254 C 580,238.2 579,217.7 590,205 C 601,192.3 618.3,186.8 636,178 C 653.7,169.2 676.2,160.3 696,152 C 715.8,143.7 745.2,132 755,128" fill="none" stroke="#E7DDC0" stroke-width="13" stroke-linecap="round"/><ellipse cx="193.7" cy="361.2" rx="6.5" ry="4.2" fill="#D6C9A2"/><ellipse cx="241.3" cy="330.9" rx="6.5" ry="4.2" fill="#D6C9A2"/><ellipse cx="295.1" cy="336.2" rx="6.5" ry="4.2" fill="#D6C9A2"/><ellipse cx="350.3" cy="336.7" rx="6.5" ry="4.2" fill="#D6C9A2"/><ellipse cx="404.3" cy="332.7" rx="6.5" ry="4.2" fill="#D6C9A2"/><ellipse cx="459" cy="326.7" rx="6.5" ry="4.2" fill="#D6C9A2"/><ellipse cx="512.5" cy="309.6" rx="6.5" ry="4.2" fill="#D6C9A2"/><ellipse cx="554.6" cy="276.4" rx="6.5" ry="4.2" fill="#D6C9A2"/><ellipse cx="579.6" cy="228.3" rx="6.5" ry="4.2" fill="#D6C9A2"/><ellipse cx="614.5" cy="188.1" rx="6.5" ry="4.2" fill="#D6C9A2"/><ellipse cx="665.2" cy="164.8" rx="6.5" ry="4.2" fill="#D6C9A2"/><ellipse cx="717.9" cy="143" rx="6.5" ry="4.2" fill="#D6C9A2"/>
<g><ellipse cx="248" cy="244" rx="28" ry="11.8" fill="#CBBC97"/><ellipse cx="248" cy="243" rx="21.3" ry="8.5" fill="#C4A981"/><ellipse cx="255" cy="246" rx="23" ry="8.5" fill="#4E8746" opacity="0.22"/><rect x="244" y="214" width="8" height="32" rx="4" fill="#8A6B4F"/><circle cx="251" cy="200.8" r="24" fill="#4E8746"/><circle cx="246" cy="196.8" r="21.1" fill="#6FAA58"/><ellipse cx="238.9" cy="192.2" rx="10.6" ry="8.2" fill="#98CB77"/><circle cx="236.1" cy="197.9" r="3.4" fill="#F2C46E"/><circle cx="253.9" cy="185" r="3.4" fill="#F2C46E"/><circle cx="264.9" cy="203.2" r="3.4" fill="#F2C46E"/><circle cx="247.6" cy="212.8" r="3.4" fill="#F2C46E"/></g>
<g><ellipse cx="350" cy="180" rx="24" ry="10.1" fill="#CBBC97"/><ellipse cx="350" cy="179" rx="18.2" ry="7.3" fill="#C4A981"/><ellipse cx="357" cy="182" rx="19.7" ry="7.3" fill="#4E8746" opacity="0.22"/><rect x="346" y="154" width="8" height="28" rx="4" fill="#8A6B4F"/><circle cx="353" cy="143" r="20" fill="#4E8746"/><circle cx="348" cy="139" r="17.6" fill="#6FAA58"/><ellipse cx="342.4" cy="135.8" rx="8.8" ry="6.8" fill="#98CB77"/><circle cx="340.6" cy="140.6" r="3.4" fill="#F2C46E"/><circle cx="355.4" cy="129.8" r="3.4" fill="#F2C46E"/><circle cx="364.6" cy="145" r="3.4" fill="#F2C46E"/><circle cx="350.2" cy="153" r="3.4" fill="#F2C46E"/></g>
<g><ellipse cx="555" cy="182" rx="26" ry="10.9" fill="#CBBC97"/><ellipse cx="555" cy="181" rx="19.8" ry="7.9" fill="#C4A981"/><ellipse cx="562" cy="184" rx="21.3" ry="7.9" fill="#4E8746" opacity="0.22"/><rect x="551" y="154" width="8" height="30" rx="4" fill="#8A6B4F"/><circle cx="558" cy="141.9" r="22" fill="#4E8746"/><circle cx="553" cy="137.9" r="19.4" fill="#6FAA58"/><ellipse cx="546.6" cy="134" rx="9.7" ry="7.5" fill="#98CB77"/><circle cx="544.4" cy="139.3" r="3.4" fill="#F2C46E"/><circle cx="560.6" cy="127.4" r="3.4" fill="#F2C46E"/><circle cx="570.8" cy="144.1" r="3.4" fill="#F2C46E"/><circle cx="554.9" cy="152.9" r="3.4" fill="#F2C46E"/></g>
<g><ellipse cx="528" cy="224" rx="30" ry="12.6" fill="#CBBC97"/><ellipse cx="528" cy="223" rx="22.8" ry="9.1" fill="#C4A981"/><ellipse cx="535" cy="226" rx="24.6" ry="9.1" fill="#4E8746" opacity="0.22"/><rect x="524" y="192" width="8" height="34" rx="4" fill="#8A6B4F"/><circle cx="531" cy="177.7" r="26" fill="#4E8746"/><circle cx="526" cy="173.7" r="22.9" fill="#6FAA58"/><ellipse cx="518.1" cy="168.3" rx="11.4" ry="8.8" fill="#98CB77"/><circle cx="514.9" cy="174.6" r="3.4" fill="#F2C46E"/><circle cx="534.1" cy="160.5" r="3.4" fill="#F2C46E"/><circle cx="546.1" cy="180.3" r="3.4" fill="#F2C46E"/><circle cx="527.4" cy="190.7" r="3.4" fill="#F2C46E"/></g>
<g><ellipse cx="660" cy="255" rx="26" ry="10.9" fill="#CBBC97"/><ellipse cx="660" cy="254" rx="19.8" ry="7.9" fill="#C4A981"/><ellipse cx="667" cy="257" rx="21.3" ry="7.9" fill="#4E8746" opacity="0.22"/><rect x="656" y="227" width="8" height="30" rx="4" fill="#8A6B4F"/><circle cx="663" cy="214.9" r="22" fill="#4E8746"/><circle cx="658" cy="210.9" r="19.4" fill="#6FAA58"/><ellipse cx="651.6" cy="207" rx="9.7" ry="7.5" fill="#98CB77"/><circle cx="649.4" cy="212.3" r="3.4" fill="#F2C46E"/><circle cx="665.6" cy="200.4" r="3.4" fill="#F2C46E"/><circle cx="675.8" cy="217.1" r="3.4" fill="#F2C46E"/><circle cx="659.9" cy="225.9" r="3.4" fill="#F2C46E"/></g>
<g><ellipse cx="100" cy="446.7" rx="11" ry="5.5" fill="#96714E"/><ellipse cx="100" cy="442.4" rx="19.4" ry="7.9" fill="#CDB992"/><ellipse cx="100" cy="438" rx="22" ry="7.9" fill="#ECDFBE"/><ellipse cx="100" cy="437" rx="13.2" ry="4" fill="#E7DDC0"/></g>
<g><ellipse cx="48" cy="477.9" rx="7.5" ry="3.8" fill="#96714E"/><ellipse cx="48" cy="475" rx="13.2" ry="5.4" fill="#CDB992"/><ellipse cx="48" cy="472" rx="15" ry="5.4" fill="#ECDFBE"/><ellipse cx="48" cy="471" rx="9" ry="2.7" fill="#E7DDC0"/></g>
<g><ellipse cx="808" cy="113.9" rx="10" ry="5" fill="#96714E"/><ellipse cx="808" cy="110" rx="17.6" ry="7.2" fill="#CDB992"/><ellipse cx="808" cy="106" rx="20" ry="7.2" fill="#ECDFBE"/><ellipse cx="808" cy="105" rx="12" ry="3.6" fill="#E7DDC0"/></g>
<g><ellipse cx="862" cy="85.1" rx="6.5" ry="3.3" fill="#96714E"/><ellipse cx="862" cy="82.6" rx="11.4" ry="4.7" fill="#CDB992"/><ellipse cx="862" cy="80" rx="13" ry="4.7" fill="#ECDFBE"/><ellipse cx="862" cy="79" rx="7.8" ry="2.3" fill="#E7DDC0"/></g>
<g opacity="0.9">
<ellipse cx="560" cy="448" rx="87" ry="22.5" fill="#FDF6E4"/>
<ellipse cx="515" cy="437.5" rx="45" ry="16.5" fill="#FDF6E4"/>
<ellipse cx="593" cy="436" rx="51" ry="18" fill="#FDF6E4"/>
<ellipse cx="569" cy="454" rx="75" ry="16.5" fill="#F4EFD8"/>
</g>
<g opacity="0.8">
<ellipse cx="300" cy="470" rx="52.2" ry="13.5" fill="#FDF6E4"/>
<ellipse cx="273" cy="463.7" rx="27" ry="9.9" fill="#FDF6E4"/>
<ellipse cx="319.8" cy="462.8" rx="30.6" ry="10.8" fill="#FDF6E4"/>
<ellipse cx="305.4" cy="473.6" rx="45" ry="9.9" fill="#F4EFD8"/>
</g>
</svg>
