<svg viewBox="0 0 900 520" xmlns="http://www.w3.org/2000/svg">
<defs>
<linearGradient id="skyA3" x1="0" y1="0" x2="0" y2="1"><stop offset="0" stop-color="#A3CBAB"/><stop offset="0.52" stop-color="#DCE8B4"/><stop offset="1" stop-color="#F8DCA2"/></linearGradient>
<linearGradient id="grassA3" x1="0" y1="0" x2="0.25" y2="1"><stop offset="0" stop-color="#A0D080"/><stop offset="1" stop-color="#74B25E"/></linearGradient>
</defs>
<rect x="0" y="0" width="900" height="520" fill="url(#skyA3)"/>
<g opacity="0.5"><ellipse cx="230" cy="72" rx="44" ry="8" fill="#FDF6E4"/><ellipse cx="214" cy="76" rx="30" ry="6.4" fill="#F4EFD8"/></g>
<g opacity="0.45"><ellipse cx="600" cy="62" rx="36" ry="7" fill="#FDF6E4"/><ellipse cx="587" cy="65" rx="25" ry="5.6" fill="#F4EFD8"/></g>
<g opacity="0.4"><ellipse cx="795" cy="100" rx="26" ry="5.5" fill="#FDF6E4"/><ellipse cx="786" cy="103" rx="18" ry="4.4" fill="#F4EFD8"/></g>
<g opacity="0.4"><ellipse cx="65" cy="140" rx="28" ry="6" fill="#FDF6E4"/><ellipse cx="54" cy="143" rx="20" ry="4.8" fill="#F4EFD8"/></g>
<g opacity="0.42"><ellipse cx="300" cy="468" rx="48" ry="12" fill="#FDF6E4"/><ellipse cx="275" cy="462.6" rx="25" ry="8.8" fill="#FDF6E4"/><ellipse cx="318.2" cy="462" rx="28.3" ry="9.6" fill="#FDF6E4"/><ellipse cx="304.8" cy="471.2" rx="41.3" ry="8.8" fill="#F4EFD8"/></g>
<g opacity="0.4"><ellipse cx="620" cy="476" rx="54" ry="13" fill="#FDF6E4"/><ellipse cx="591.9" cy="470.1" rx="28.1" ry="9.5" fill="#FDF6E4"/><ellipse cx="640.5" cy="469.5" rx="31.9" ry="10.4" fill="#FDF6E4"/><ellipse cx="625.4" cy="479.5" rx="46.4" ry="9.5" fill="#F4EFD8"/></g>
<g opacity="0.38"><ellipse cx="800" cy="455" rx="40" ry="9" fill="#FDF6E4"/><ellipse cx="786" cy="458.6" rx="27.2" ry="7" fill="#F4EFD8"/></g>
<g opacity="0.25"><ellipse cx="170" cy="494" rx="36" ry="8" fill="#FDF6E4"/><ellipse cx="157.4" cy="497.2" rx="24.5" ry="6.2" fill="#F4EFD8"/></g>
<g opacity="0.24"><ellipse cx="460" cy="500" rx="42" ry="9" fill="#FDF6E4"/><ellipse cx="445.3" cy="503.6" rx="28.6" ry="7" fill="#F4EFD8"/></g>
<g opacity="0.24"><ellipse cx="755" cy="492" rx="34" ry="7" fill="#FDF6E4"/><ellipse cx="743.1" cy="494.8" rx="23.1" ry="5.5" fill="#F4EFD8"/></g>
<g transform="translate(0,-24)">
<ellipse cx="456" cy="424" rx="108" ry="11" fill="#D2BB93"/>
<ellipse cx="458" cy="432" rx="62" ry="7.5" fill="#DECAA4"/>
<ellipse cx="459" cy="438" rx="30" ry="4.5" fill="#E9D8B6"/>
<path transform="translate(0,30)" fill="#C9B08A" d="M 144,282 C 141,242 176,204 232,185 C 288,166 350,152 420,150 C 493,148 566,157 634,180 C 700,203 762,228 777,263 C 791,299 748,336 694,358 C 634,383 550,399 464,402 C 382,405 300,392 240,370 C 192,352 147,323 144,282 Z"/>
<path transform="translate(0,15)" fill="#D2BC90" d="M 144,282 C 141,242 176,204 232,185 C 288,166 350,152 420,150 C 493,148 566,157 634,180 C 700,203 762,228 777,263 C 791,299 748,336 694,358 C 634,383 550,399 464,402 C 382,405 300,392 240,370 C 192,352 147,323 144,282 Z"/>
<path fill="#ECDFBE" d="M 144,282 C 141,242 176,204 232,185 C 288,166 350,152 420,150 C 493,148 566,157 634,180 C 700,203 762,228 777,263 C 791,299 748,336 694,358 C 634,383 550,399 464,402 C 382,405 300,392 240,370 C 192,352 147,323 144,282 Z"/>
<path fill="url(#grassA3)" d="M 162,282 C 160,247 193,213 244,195 C 296,176 355,166 421,164 C 490,162 560,170 623,192 C 686,214 744,236 757,268 C 769,298 728,331 677,351 C 620,373 545,388 464,390 C 385,392 313,381 256,360 C 211,343 164,318 162,282 Z"/>
<ellipse cx="480" cy="310" rx="95" ry="26" fill="#A4D384" opacity="0.35"/>
<ellipse cx="620" cy="330" rx="50" ry="16" fill="#A4D384" opacity="0.28"/>
<ellipse cx="470" cy="378" rx="170" ry="13" fill="#4E8746" opacity="0.12"/>
<ellipse cx="300" cy="250" rx="30" ry="10" fill="#699F63" opacity="0.14"/>
<ellipse cx="415" cy="300" rx="78" ry="26" fill="#F2C46E" opacity="0.11"/>
<rect x="270" y="357" width="5" height="13" rx="2.5" fill="#B9A87C" opacity="0.4"/><rect x="305" y="366" width="5" height="13" rx="2.5" fill="#B9A87C" opacity="0.4"/><rect x="342" y="373" width="5" height="13" rx="2.5" fill="#B9A87C" opacity="0.4"/><rect x="380" y="378" width="5" height="13" rx="2.5" fill="#B9A87C" opacity="0.4"/><rect x="420" y="382" width="5" height="13" rx="2.5" fill="#B9A87C" opacity="0.4"/><rect x="462" y="384" width="5" height="13" rx="2.5" fill="#B9A87C" opacity="0.4"/><rect x="504" y="383" width="5" height="13" rx="2.5" fill="#B9A87C" opacity="0.4"/><rect x="546" y="380" width="5" height="13" rx="2.5" fill="#B9A87C" opacity="0.4"/><rect x="588" y="374" width="5" height="13" rx="2.5" fill="#B9A87C" opacity="0.4"/><rect x="628" y="366" width="5" height="13" rx="2.5" fill="#B9A87C" opacity="0.4"/><rect x="664" y="355" width="5" height="13" rx="2.5" fill="#B9A87C" opacity="0.4"/><rect x="696" y="341" width="5" height="13" rx="2.5" fill="#B9A87C" opacity="0.4"/><rect x="722" y="325" width="5" height="13" rx="2.5" fill="#B9A87C" opacity="0.4"/><rect x="740" y="306" width="5" height="13" rx="2.5" fill="#B9A87C" opacity="0.4"/>
<ellipse cx="250" cy="196" rx="8" ry="3.6" fill="#7CB863" opacity="0.55"/><ellipse cx="340" cy="172" rx="5.5" ry="2.5" fill="#8CC474" opacity="0.55"/><ellipse cx="455" cy="163" rx="9" ry="4" fill="#7CB863" opacity="0.55"/><ellipse cx="570" cy="178" rx="5" ry="2.3" fill="#8CC474" opacity="0.55"/><ellipse cx="655" cy="200" rx="8" ry="3.6" fill="#7CB863" opacity="0.55"/><ellipse cx="725" cy="230" rx="5.5" ry="2.5" fill="#8CC474" opacity="0.55"/><ellipse cx="752" cy="275" rx="6.5" ry="3" fill="#7CB863" opacity="0.55"/><ellipse cx="710" cy="332" rx="6" ry="2.7" fill="#8CC474" opacity="0.55"/><ellipse cx="640" cy="362" rx="8" ry="3.6" fill="#7CB863" opacity="0.55"/><ellipse cx="560" cy="380" rx="5.5" ry="2.5" fill="#8CC474" opacity="0.55"/><ellipse cx="460" cy="387" rx="8.5" ry="3.8" fill="#7CB863" opacity="0.55"/><ellipse cx="360" cy="381" rx="5.5" ry="2.5" fill="#8CC474" opacity="0.55"/><ellipse cx="285" cy="366" rx="7.5" ry="3.4" fill="#7CB863" opacity="0.55"/><ellipse cx="200" cy="330" rx="6" ry="2.7" fill="#8CC474" opacity="0.55"/><ellipse cx="174" cy="290" rx="6.5" ry="3" fill="#7CB863" opacity="0.55"/><ellipse cx="185" cy="240" rx="7" ry="3.2" fill="#8CC474" opacity="0.55"/><ellipse cx="215" cy="208" rx="6" ry="2.7" fill="#7CB863" opacity="0.55"/>
<path d="M 148,420 C 166,396 190,366 216,338" fill="none" stroke="#B08A60" stroke-width="33" stroke-linecap="round" transform="translate(0,10)" opacity="0.8"/><path d="M 148,420 C 166,396 190,366 216,338" fill="none" stroke="#D8C7A0" stroke-width="33" stroke-linecap="round" transform="translate(0,5)"/><path d="M 148,420 C 166,396 190,366 216,338" fill="none" stroke="#ECDFBE" stroke-width="33" stroke-linecap="round"/>
<path d="M 640,193 C 668,181 700,169 748,156" fill="none" stroke="#B08A60" stroke-width="33" stroke-linecap="round" transform="translate(0,10)" opacity="0.8"/><path d="M 640,193 C 668,181 700,169 748,156" fill="none" stroke="#D8C7A0" stroke-width="33" stroke-linecap="round" transform="translate(0,5)"/><path d="M 640,193 C 668,181 700,169 748,156" fill="none" stroke="#ECDFBE" stroke-width="33" stroke-linecap="round"/>
<path d="M 155,408 C 172,386 192,362 215,338 C 238,314 252,286 264,256 C 282,216 312,208 355,202 C 400,199 462,200 505,207 C 545,215 580,214 610,206 C 630,199 648,190 668,181 C 695,171 720,163 752,155" fill="none" stroke="#B4A47C" stroke-width="24" stroke-linecap="round" transform="translate(0,6)"/>
<path d="M 155,408 C 172,386 192,362 215,338 C 238,314 252,286 264,256 C 282,216 312,208 355,202 C 400,199 462,200 505,207 C 545,215 580,214 610,206 C 630,199 648,190 668,181 C 695,171 720,163 752,155" fill="none" stroke="#EAE0C6" stroke-width="24" stroke-linecap="round"/>
<path d="M 155,408 C 172,386 192,362 215,338 C 238,314 252,286 264,256 C 282,216 312,208 355,202 C 400,199 462,200 505,207 C 545,215 580,214 610,206 C 630,199 648,190 668,181 C 695,171 720,163 752,155" fill="none" stroke="#EAE0C6" stroke-width="27" stroke-linecap="round" opacity="0.35" transform="translate(1.5,2)"/>
<path d="M 155,408 C 172,386 192,362 215,338 C 238,314 252,286 264,256 C 282,216 312,208 355,202 C 400,199 462,200 505,207 C 545,215 580,214 610,206 C 630,199 648,190 668,181 C 695,171 720,163 752,155" fill="none" stroke="#E7DDC0" stroke-width="12" stroke-linecap="round" transform="translate(-0.5,-1)"/>
<ellipse cx="168" cy="390" rx="6.5" ry="4.2" fill="#D6C9A2"/><ellipse cx="185" cy="368" rx="6.5" ry="4.2" fill="#D6C9A2"/><ellipse cx="202" cy="350" rx="6.5" ry="4.2" fill="#D6C9A2"/><ellipse cx="228" cy="320" rx="6.5" ry="4.2" fill="#D6C9A2"/><ellipse cx="244" cy="299" rx="6.5" ry="4.2" fill="#D6C9A2"/><ellipse cx="256" cy="277" rx="6.5" ry="4.2" fill="#D6C9A2"/><ellipse cx="264" cy="256" rx="6.5" ry="4.2" fill="#D6C9A2"/><ellipse cx="280" cy="234" rx="6.5" ry="4.2" fill="#D6C9A2"/><ellipse cx="300" cy="219" rx="6.5" ry="4.2" fill="#D6C9A2"/><ellipse cx="326" cy="208" rx="6.5" ry="4.2" fill="#D6C9A2"/><ellipse cx="355" cy="202" rx="6.5" ry="4.2" fill="#D6C9A2"/><ellipse cx="392" cy="200" rx="6.5" ry="4.2" fill="#D6C9A2"/><ellipse cx="431" cy="201" rx="6.5" ry="4.2" fill="#D6C9A2"/><ellipse cx="470" cy="203" rx="6.5" ry="4.2" fill="#D6C9A2"/><ellipse cx="505" cy="207" rx="6.5" ry="4.2" fill="#D6C9A2"/><ellipse cx="540" cy="212" rx="6.5" ry="4.2" fill="#D6C9A2"/><ellipse cx="575" cy="213" rx="6.5" ry="4.2" fill="#D6C9A2"/><ellipse cx="605" cy="206" rx="6.5" ry="4.2" fill="#D6C9A2"/><ellipse cx="630" cy="198" rx="6.5" ry="4.2" fill="#D6C9A2"/><ellipse cx="650" cy="188" rx="6.5" ry="4.2" fill="#D6C9A2"/><ellipse cx="668" cy="181" rx="6.5" ry="4.2" fill="#D6C9A2"/><ellipse cx="695" cy="171" rx="6.5" ry="4.2" fill="#D6C9A2"/><ellipse cx="725" cy="162" rx="6.5" ry="4.2" fill="#D6C9A2"/>
<g transform="translate(65,20)"><g opacity="0.8"><circle cx="345" cy="245.8" r="27.6" fill="#DFD2AE"/><circle cx="369" cy="265" r="27.6" fill="#DFD2AE"/><circle cx="345" cy="284.2" r="27.6" fill="#DFD2AE"/><circle cx="321" cy="265" r="27.6" fill="#DFD2AE"/><rect x="321" y="245.8" width="48" height="38.4" rx="9.6" fill="#DFD2AE"/></g><g><circle cx="345" cy="242.8" r="27.6" fill="#E8DCBE"/><circle cx="369" cy="262" r="27.6" fill="#E8DCBE"/><circle cx="345" cy="281.2" r="27.6" fill="#E8DCBE"/><circle cx="321" cy="262" r="27.6" fill="#E8DCBE"/><rect x="321" y="242.8" width="48" height="38.4" rx="9.6" fill="#E8DCBE"/></g><ellipse cx="380.6" cy="272.6" rx="5.5" ry="3.6" fill="#D6C9A2" opacity="0.8"/><ellipse cx="367.3" cy="290.8" rx="5.5" ry="3.6" fill="#D6C9A2" opacity="0.8"/><ellipse cx="345.5" cy="298" rx="5.5" ry="3.6" fill="#D6C9A2" opacity="0.8"/><ellipse cx="323.5" cy="291.4" rx="5.5" ry="3.6" fill="#D6C9A2" opacity="0.8"/><ellipse cx="309.7" cy="273.6" rx="5.5" ry="3.6" fill="#D6C9A2" opacity="0.8"/><ellipse cx="309.4" cy="251.4" rx="5.5" ry="3.6" fill="#D6C9A2" opacity="0.8"/><ellipse cx="322.7" cy="233.2" rx="5.5" ry="3.6" fill="#D6C9A2" opacity="0.8"/><ellipse cx="344.5" cy="226" rx="5.5" ry="3.6" fill="#D6C9A2" opacity="0.8"/><ellipse cx="366.5" cy="232.6" rx="5.5" ry="3.6" fill="#D6C9A2" opacity="0.8"/><ellipse cx="380.3" cy="250.4" rx="5.5" ry="3.6" fill="#D6C9A2" opacity="0.8"/><g><circle cx="345" cy="247" r="23" fill="#B7A177"/><circle cx="365" cy="263" r="23" fill="#B7A177"/><circle cx="345" cy="279" r="23" fill="#B7A177"/><circle cx="325" cy="263" r="23" fill="#B7A177"/><rect x="325" y="247" width="40" height="32" rx="8" fill="#B7A177"/></g><g><circle cx="345" cy="244" r="23" fill="#ECDFBE"/><circle cx="365" cy="260" r="23" fill="#ECDFBE"/><circle cx="345" cy="276" r="23" fill="#ECDFBE"/><circle cx="325" cy="260" r="23" fill="#ECDFBE"/><rect x="325" y="244" width="40" height="32" rx="8" fill="#ECDFBE"/></g><g><circle cx="345" cy="245.96" r="18.4" fill="#CDB992"/><circle cx="363.8" cy="261" r="18.4" fill="#CDB992"/><circle cx="345" cy="276.04" r="18.4" fill="#CDB992"/><circle cx="326.2" cy="261" r="18.4" fill="#CDB992"/><rect x="326.2" y="246" width="37.6" height="30.1" rx="7.5" fill="#CDB992"/></g><g><circle cx="345" cy="247.92" r="14.3" fill="#57A79E"/><circle cx="362.6" cy="262" r="14.3" fill="#57A79E"/><circle cx="345" cy="276.08" r="14.3" fill="#57A79E"/><circle cx="327.4" cy="262" r="14.3" fill="#57A79E"/><rect x="327.4" y="247.9" width="35.2" height="28.2" rx="7" fill="#57A79E"/></g><g><circle cx="345" cy="250.88" r="12" fill="#8FCFC2"/><circle cx="361.4" cy="264" r="12" fill="#8FCFC2"/><circle cx="345" cy="277.12" r="12" fill="#8FCFC2"/><circle cx="328.6" cy="264" r="12" fill="#8FCFC2"/><rect x="328.6" y="250.9" width="32.8" height="26.2" rx="6.6" fill="#8FCFC2"/></g><ellipse cx="339" cy="266.7" rx="11.5" ry="6" fill="#BFE8DC" opacity="0.55"/></g>
<g transform="translate(530,255) rotate(4) scale(1.0)"><rect x="-34" y="-19" width="68" height="38" rx="13" fill="#ECDFBE"/><rect x="-34" y="-15" width="68" height="38" rx="13" fill="#CDB992" opacity="0.55"/><rect x="-29" y="-14" width="58" height="28" rx="9" fill="#C4A981"/><ellipse cx="-19" cy="-5" rx="5.2" ry="3.6" fill="#6FAA58"/><ellipse cx="0" cy="-5" rx="5.2" ry="3.6" fill="#98CB77"/><ellipse cx="19" cy="-5" rx="5.2" ry="3.6" fill="#6FAA58"/><circle cx="16.2" cy="-4.5" r="2.6" fill="#F2C46E"/></g>
<g transform="translate(350,360) rotate(-5) scale(0.9)"><rect x="-34" y="-19" width="68" height="38" rx="13" fill="#ECDFBE"/><rect x="-34" y="-15" width="68" height="38" rx="13" fill="#CDB992" opacity="0.55"/><rect x="-29" y="-14" width="58" height="28" rx="9" fill="#C4A981"/><ellipse cx="-19" cy="-5" rx="5.2" ry="3.6" fill="#6FAA58"/><ellipse cx="0" cy="-5" rx="5.2" ry="3.6" fill="#98CB77"/><ellipse cx="19" cy="-5" rx="5.2" ry="3.6" fill="#6FAA58"/><circle cx="16.2" cy="-4.5" r="2.6" fill="#F2C46E"/></g>
<g transform="translate(718,258) rotate(6) scale(0.7)"><rect x="-34" y="-19" width="68" height="38" rx="13" fill="#ECDFBE"/><rect x="-34" y="-15" width="68" height="38" rx="13" fill="#CDB992" opacity="0.55"/><rect x="-29" y="-14" width="58" height="28" rx="9" fill="#C4A981"/><ellipse cx="-19" cy="-5" rx="5.2" ry="3.6" fill="#6FAA58"/><ellipse cx="0" cy="-5" rx="5.2" ry="3.6" fill="#98CB77"/><ellipse cx="19" cy="-5" rx="5.2" ry="3.6" fill="#6FAA58"/><circle cx="16.2" cy="-4.5" r="2.6" fill="#F2C46E"/></g>
<g><ellipse cx="590" cy="290" rx="25.3" ry="10.6" fill="#CBBC97"/><ellipse cx="590" cy="289" rx="19.2" ry="7.7" fill="#C4A981"/><ellipse cx="598" cy="292" rx="20.7" ry="7.7" fill="#4E8746" opacity="0.22"/><rect x="585.4" y="262.4" width="9.2" height="29.9" rx="4.6" fill="#8A6B4F"/><circle cx="593.5" cy="251" r="20.7" fill="#4E8746"/><circle cx="587.7" cy="246.4" r="18.2" fill="#6FAA58"/><ellipse cx="582.2" cy="243.5" rx="9.1" ry="7" fill="#98CB77"/><circle cx="580.6" cy="248.5" r="3.9" fill="#F2C46E"/><circle cx="596" cy="237.3" r="3.9" fill="#F2C46E"/><circle cx="605.4" cy="253.1" r="3.9" fill="#F2C46E"/><circle cx="590.6" cy="261.4" r="3.9" fill="#F2C46E"/></g>
<g><ellipse cx="665" cy="305" rx="20.9" ry="8.7" fill="#CBBC97"/><ellipse cx="665" cy="304" rx="15.9" ry="6.4" fill="#C4A981"/><ellipse cx="671.6" cy="307" rx="17.1" ry="6.4" fill="#4E8746" opacity="0.22"/><rect x="661.2" y="282.2" width="7.6" height="24.7" rx="3.8" fill="#8A6B4F"/><circle cx="667.9" cy="272.8" r="17.1" fill="#4E8746"/><circle cx="663.1" cy="269" r="15" fill="#6FAA58"/><ellipse cx="658.5" cy="266.6" rx="7.5" ry="5.8" fill="#98CB77"/><circle cx="657.2" cy="270.7" r="3.2" fill="#F2C46E"/><circle cx="669.9" cy="261.5" r="3.2" fill="#F2C46E"/><circle cx="677.7" cy="274.5" r="3.2" fill="#F2C46E"/></g>
<g><ellipse cx="320" cy="320" rx="20.9" ry="8.7" fill="#CBBC97"/><ellipse cx="320" cy="319" rx="15.9" ry="6.4" fill="#C4A981"/><ellipse cx="326.6" cy="322" rx="17.1" ry="6.4" fill="#4E8746" opacity="0.22"/><rect x="316.2" y="297.2" width="7.6" height="24.7" rx="3.8" fill="#8A6B4F"/><circle cx="322.9" cy="287.8" r="17.1" fill="#4E8746"/><circle cx="318.1" cy="284" r="15" fill="#6FAA58"/><ellipse cx="313.5" cy="281.6" rx="7.5" ry="5.8" fill="#98CB77"/><circle cx="312.2" cy="285.7" r="3.2" fill="#F2C46E"/><circle cx="324.9" cy="276.5" r="3.2" fill="#F2C46E"/><circle cx="332.7" cy="289.5" r="3.2" fill="#F2C46E"/></g>
<g><ellipse cx="485" cy="332" rx="23.1" ry="9.7" fill="#CBBC97"/><ellipse cx="485" cy="331" rx="17.5" ry="7" fill="#C4A981"/><ellipse cx="492.4" cy="334" rx="18.9" ry="7" fill="#4E8746" opacity="0.22"/><rect x="480.8" y="306.8" width="8.4" height="27.3" rx="4.2" fill="#8A6B4F"/><circle cx="488.1" cy="296.4" r="18.9" fill="#4E8746"/><circle cx="482.9" cy="292.2" r="16.6" fill="#6FAA58"/><ellipse cx="477.9" cy="289.6" rx="8.3" ry="6.4" fill="#98CB77"/><circle cx="476.4" cy="294.1" r="3.6" fill="#F2C46E"/><circle cx="490.5" cy="283.9" r="3.6" fill="#F2C46E"/><circle cx="499.1" cy="298.3" r="3.6" fill="#F2C46E"/><circle cx="485.5" cy="305.9" r="3.6" fill="#F2C46E"/></g>
<g><ellipse cx="655" cy="346" rx="18.7" ry="7.8" fill="#CBBC97"/><ellipse cx="655" cy="345" rx="14.2" ry="5.7" fill="#C4A981"/><ellipse cx="661" cy="348" rx="15.3" ry="5.7" fill="#4E8746" opacity="0.22"/><rect x="651.6" y="325.6" width="6.8" height="22.1" rx="3.4" fill="#8A6B4F"/><circle cx="657.5" cy="317.2" r="15.3" fill="#4E8746"/><circle cx="653.3" cy="313.8" r="13.4" fill="#6FAA58"/><ellipse cx="649.2" cy="311.7" rx="6.7" ry="5.2" fill="#98CB77"/><circle cx="648" cy="315.3" r="2.9" fill="#F2C46E"/><circle cx="659.4" cy="307.1" r="2.9" fill="#F2C46E"/><circle cx="666.4" cy="318.7" r="2.9" fill="#F2C46E"/></g>
<g><ellipse cx="262" cy="354" rx="15.4" ry="6.4" fill="#CBBC97"/><ellipse cx="262" cy="353" rx="11.7" ry="4.7" fill="#C4A981"/><ellipse cx="266.9" cy="356" rx="12.6" ry="4.7" fill="#4E8746" opacity="0.22"/><rect x="259.2" y="337.2" width="5.6" height="18.2" rx="2.8" fill="#8A6B4F"/><circle cx="264.1" cy="330.3" r="12.6" fill="#4E8746"/><circle cx="260.6" cy="327.5" r="11.1" fill="#6FAA58"/><ellipse cx="257.2" cy="325.7" rx="5.5" ry="4.3" fill="#98CB77"/><circle cx="256.3" cy="328.7" r="2.4" fill="#F2C46E"/><circle cx="265.6" cy="321.9" r="2.4" fill="#F2C46E"/></g>
<g><ellipse cx="190" cy="261.4" rx="14.4" ry="5" fill="#CBBC97"/><ellipse cx="190" cy="260.6" rx="11.4" ry="3.8" fill="#C4A981"/><ellipse cx="196" cy="262.6" rx="11.4" ry="3.6" fill="#4E8746" opacity="0.22"/><circle cx="184.6" cy="254.6" r="9" fill="#4E8746"/><circle cx="195" cy="255.2" r="8.4" fill="#6FAA58"/><circle cx="189.8" cy="250.4" r="8.9" fill="#6FAA58"/><ellipse cx="187" cy="248" rx="5.8" ry="4.6" fill="#98CB77"/><circle cx="183.4" cy="252.6" r="2.6" fill="#EFC3CC"/><circle cx="194.6" cy="250.2" r="2.6" fill="#EFC98D"/><circle cx="191" cy="257.6" r="2.4" fill="#EFC3CC"/></g>
<g><ellipse cx="200" cy="328.8" rx="13.2" ry="4.6" fill="#CBBC97"/><ellipse cx="200" cy="328.1" rx="10.4" ry="3.5" fill="#C4A981"/><ellipse cx="205.5" cy="329.9" rx="10.4" ry="3.3" fill="#4E8746" opacity="0.22"/><circle cx="195.1" cy="322.6" r="8.2" fill="#4E8746"/><circle cx="204.6" cy="323.1" r="7.7" fill="#6FAA58"/><circle cx="199.8" cy="318.7" r="8.1" fill="#6FAA58"/><ellipse cx="197.2" cy="316.5" rx="5.3" ry="4.2" fill="#98CB77"/><circle cx="193.9" cy="320.7" r="2.4" fill="#EFC3CC"/><circle cx="204.2" cy="318.5" r="2.4" fill="#EFC98D"/><circle cx="200.9" cy="325.3" r="2.2" fill="#EFC3CC"/></g>
<g><ellipse cx="330" cy="186.6" rx="10.8" ry="3.8" fill="#CBBC97"/><ellipse cx="330" cy="185.9" rx="8.5" ry="2.9" fill="#C4A981"/><ellipse cx="334.5" cy="187.5" rx="8.5" ry="2.7" fill="#4E8746" opacity="0.22"/><circle cx="325.9" cy="181.4" r="6.8" fill="#4E8746"/><circle cx="333.8" cy="181.9" r="6.3" fill="#6FAA58"/><circle cx="329.8" cy="178.3" r="6.7" fill="#6FAA58"/><ellipse cx="327.8" cy="176.5" rx="4.3" ry="3.4" fill="#98CB77"/><circle cx="325.1" cy="179.9" r="2" fill="#EFC3CC"/><circle cx="333.4" cy="178.1" r="2" fill="#EFC98D"/><circle cx="330.7" cy="183.7" r="1.8" fill="#EFC3CC"/></g>
<g><ellipse cx="472" cy="185.6" rx="10.8" ry="3.8" fill="#CBBC97"/><ellipse cx="472" cy="184.9" rx="8.5" ry="2.9" fill="#C4A981"/><ellipse cx="476.5" cy="186.5" rx="8.5" ry="2.7" fill="#4E8746" opacity="0.22"/><circle cx="467.9" cy="180.4" r="6.8" fill="#4E8746"/><circle cx="475.8" cy="180.9" r="6.3" fill="#6FAA58"/><circle cx="471.8" cy="177.3" r="6.7" fill="#6FAA58"/><ellipse cx="469.8" cy="175.5" rx="4.3" ry="3.4" fill="#98CB77"/><circle cx="467.1" cy="178.9" r="2" fill="#EFC3CC"/><circle cx="475.4" cy="177.1" r="2" fill="#EFC98D"/><circle cx="472.7" cy="182.7" r="1.8" fill="#EFC3CC"/></g>
<g><ellipse cx="600" cy="184.3" rx="8.4" ry="2.9" fill="#CBBC97"/><ellipse cx="600" cy="183.8" rx="6.6" ry="2.2" fill="#C4A981"/><ellipse cx="603.5" cy="185" rx="6.6" ry="2.1" fill="#4E8746" opacity="0.22"/><circle cx="596.9" cy="180.3" r="5.2" fill="#4E8746"/><circle cx="602.9" cy="180.7" r="4.9" fill="#6FAA58"/><circle cx="599.9" cy="177.9" r="5.2" fill="#6FAA58"/><ellipse cx="598.2" cy="176.5" rx="3.4" ry="2.7" fill="#98CB77"/><circle cx="596.1" cy="179.2" r="1.7" fill="#EFC3CC"/><circle cx="602.7" cy="177.8" r="1.7" fill="#EFC98D"/><circle cx="600.6" cy="182.1" r="1.5" fill="#EFC3CC"/></g>
<g><ellipse cx="196" cy="292.5" rx="20" ry="12.9" fill="#CDB992"/><ellipse cx="196" cy="290" rx="20" ry="12.9" fill="#ECDFBE"/><ellipse cx="196" cy="290.5" rx="16" ry="9.9" fill="#C4A981"/><ellipse cx="184.2" cy="290.4" rx="2.6" ry="1.8" fill="#6FAA58"/><circle cx="187.2" cy="289" r="2.4" fill="#EFC3CC"/><ellipse cx="193" cy="286.4" rx="2.6" ry="1.8" fill="#6FAA58"/><circle cx="196" cy="285" r="2.4" fill="#EFC98D"/><ellipse cx="201.8" cy="290.4" rx="2.6" ry="1.8" fill="#6FAA58"/><circle cx="204.8" cy="289" r="2.4" fill="#EFC3CC"/><ellipse cx="188.7" cy="295.2" rx="2.6" ry="1.8" fill="#6FAA58"/><circle cx="191.7" cy="293.8" r="2.4" fill="#FBF0D8"/><ellipse cx="197.8" cy="295.6" rx="2.6" ry="1.8" fill="#6FAA58"/><circle cx="200.8" cy="294.2" r="2.4" fill="#EFC98D"/></g>
<g><ellipse cx="398" cy="179.5" rx="17" ry="11.1" fill="#CDB992"/><ellipse cx="398" cy="177" rx="17" ry="11.1" fill="#ECDFBE"/><ellipse cx="398" cy="177.5" rx="13" ry="8.1" fill="#C4A981"/><ellipse cx="387.9" cy="177.4" rx="2.6" ry="1.8" fill="#6FAA58"/><circle cx="390.9" cy="176" r="2.4" fill="#EFC3CC"/><ellipse cx="395" cy="174.4" rx="2.6" ry="1.8" fill="#6FAA58"/><circle cx="398" cy="173" r="2.4" fill="#EFC98D"/><ellipse cx="402.1" cy="177.4" rx="2.6" ry="1.8" fill="#6FAA58"/><circle cx="405.1" cy="176" r="2.4" fill="#EFC3CC"/><ellipse cx="391.5" cy="181.5" rx="2.6" ry="1.8" fill="#6FAA58"/><circle cx="394.5" cy="180.1" r="2.4" fill="#FBF0D8"/><ellipse cx="398.9" cy="181.8" rx="2.6" ry="1.8" fill="#6FAA58"/><circle cx="401.9" cy="180.4" r="2.4" fill="#EFC98D"/></g>
<g><ellipse cx="300" cy="255" rx="4" ry="2.6" fill="#699F63" opacity="0.5"/><ellipse cx="309" cy="257" rx="5" ry="3" fill="#699F63" opacity="0.4"/><ellipse cx="305" cy="250" rx="4.5" ry="2.8" fill="#98CB77" opacity="0.55"/></g>
<g><ellipse cx="520" cy="240" rx="4" ry="2.6" fill="#699F63" opacity="0.5"/><ellipse cx="529" cy="242" rx="5" ry="3" fill="#699F63" opacity="0.4"/><ellipse cx="525" cy="235" rx="4.5" ry="2.8" fill="#98CB77" opacity="0.55"/></g>
<g><ellipse cx="630" cy="322" rx="4" ry="2.6" fill="#699F63" opacity="0.5"/><ellipse cx="639" cy="324" rx="5" ry="3" fill="#699F63" opacity="0.4"/><ellipse cx="635" cy="317" rx="4.5" ry="2.8" fill="#98CB77" opacity="0.55"/></g>
<g><ellipse cx="560" cy="340" rx="4" ry="2.6" fill="#699F63" opacity="0.5"/><ellipse cx="569" cy="342" rx="5" ry="3" fill="#699F63" opacity="0.4"/><ellipse cx="565" cy="335" rx="4.5" ry="2.8" fill="#98CB77" opacity="0.55"/></g>
<g><ellipse cx="400" cy="348" rx="4" ry="2.6" fill="#699F63" opacity="0.5"/><ellipse cx="409" cy="350" rx="5" ry="3" fill="#699F63" opacity="0.4"/><ellipse cx="405" cy="343" rx="4.5" ry="2.8" fill="#98CB77" opacity="0.55"/></g>
<g><ellipse cx="700" cy="330" rx="4" ry="2.6" fill="#699F63" opacity="0.5"/><ellipse cx="709" cy="332" rx="5" ry="3" fill="#699F63" opacity="0.4"/><ellipse cx="705" cy="325" rx="4.5" ry="2.8" fill="#98CB77" opacity="0.55"/></g>
<g><ellipse cx="485" cy="255" rx="4" ry="2.6" fill="#699F63" opacity="0.5"/><ellipse cx="494" cy="257" rx="5" ry="3" fill="#699F63" opacity="0.4"/><ellipse cx="490" cy="250" rx="4.5" ry="2.8" fill="#98CB77" opacity="0.55"/></g>
<g><ellipse cx="268" cy="302" rx="4" ry="2.6" fill="#699F63" opacity="0.5"/><ellipse cx="277" cy="304" rx="5" ry="3" fill="#699F63" opacity="0.4"/><ellipse cx="273" cy="297" rx="4.5" ry="2.8" fill="#98CB77" opacity="0.55"/></g>
<g><ellipse cx="182" cy="272" rx="4" ry="2.6" fill="#699F63" opacity="0.5"/><ellipse cx="191" cy="274" rx="5" ry="3" fill="#699F63" opacity="0.4"/><ellipse cx="187" cy="267" rx="4.5" ry="2.8" fill="#98CB77" opacity="0.55"/></g>
<g><ellipse cx="222" cy="228" rx="4" ry="2.6" fill="#699F63" opacity="0.5"/><ellipse cx="231" cy="230" rx="5" ry="3" fill="#699F63" opacity="0.4"/><ellipse cx="227" cy="223" rx="4.5" ry="2.8" fill="#98CB77" opacity="0.55"/></g>
<g><ellipse cx="300" cy="189" rx="4" ry="2.6" fill="#699F63" opacity="0.5"/><ellipse cx="309" cy="191" rx="5" ry="3" fill="#699F63" opacity="0.4"/><ellipse cx="305" cy="184" rx="4.5" ry="2.8" fill="#98CB77" opacity="0.55"/></g>
<g><ellipse cx="438" cy="176" rx="4" ry="2.6" fill="#699F63" opacity="0.5"/><ellipse cx="447" cy="178" rx="5" ry="3" fill="#699F63" opacity="0.4"/><ellipse cx="443" cy="171" rx="4.5" ry="2.8" fill="#98CB77" opacity="0.55"/></g>
<g><ellipse cx="545" cy="193" rx="4" ry="2.6" fill="#699F63" opacity="0.5"/><ellipse cx="554" cy="195" rx="5" ry="3" fill="#699F63" opacity="0.4"/><ellipse cx="550" cy="188" rx="4.5" ry="2.8" fill="#98CB77" opacity="0.55"/></g>
</g>
<g opacity="0.94"><ellipse cx="146" cy="400" rx="50" ry="13" fill="#FDF6E4"/><ellipse cx="128.5" cy="405.2" rx="34" ry="10.1" fill="#F4EFD8"/></g>
<g opacity="0.87"><ellipse cx="174" cy="384" rx="29" ry="8" fill="#FDF6E4"/><ellipse cx="163.8" cy="387.2" rx="19.7" ry="6.2" fill="#F4EFD8"/></g>
<g opacity="0.85"><ellipse cx="126" cy="410" rx="30" ry="8" fill="#FDF6E4"/><ellipse cx="115.5" cy="413.2" rx="20.4" ry="6.2" fill="#F4EFD8"/></g>
<g opacity="0.9"><ellipse cx="752" cy="131" rx="40" ry="10" fill="#FDF6E4"/><ellipse cx="738" cy="135" rx="27.2" ry="7.8" fill="#F4EFD8"/></g>
<g opacity="0.85"><ellipse cx="730" cy="142" rx="26" ry="7" fill="#FDF6E4"/><ellipse cx="720.9" cy="144.8" rx="17.7" ry="5.5" fill="#F4EFD8"/></g>
</svg>
