<svg viewBox="0 0 900 520" xmlns="http://www.w3.org/2000/svg">
<defs>
<linearGradient id="skyA2" x1="0" y1="0" x2="0" y2="1"><stop offset="0" stop-color="#9ED2C6"/><stop offset="0.52" stop-color="#DFF0C8"/><stop offset="1" stop-color="#FBE7AE"/></linearGradient>
<linearGradient id="grassA2" x1="0" y1="0" x2="0.25" y2="1"><stop offset="0" stop-color="#A4D384"/><stop offset="1" stop-color="#7CB863"/></linearGradient>
</defs>
<rect x="0" y="0" width="900" height="520" fill="url(#skyA2)"/>
<g opacity="0.85">
<ellipse cx="120" cy="140" rx="75.4" ry="19.5" fill="#FDF6E4"/>
<ellipse cx="81" cy="130.9" rx="39" ry="14.3" fill="#FDF6E4"/>
<ellipse cx="148.6" cy="129.6" rx="44.2" ry="15.6" fill="#FDF6E4"/>
<ellipse cx="127.8" cy="145.2" rx="65" ry="14.3" fill="#F4EFD8"/>
</g>
<g opacity="0.7">
<ellipse cx="812" cy="120" rx="52.2" ry="13.5" fill="#FDF6E4"/>
<ellipse cx="785" cy="113.7" rx="27" ry="9.9" fill="#FDF6E4"/>
<ellipse cx="831.8" cy="112.8" rx="30.6" ry="10.8" fill="#FDF6E4"/>
<ellipse cx="817.4" cy="123.6" rx="45" ry="9.9" fill="#F4EFD8"/>
</g>
<g opacity="0.6">
<ellipse cx="70" cy="330" rx="46.4" ry="12" fill="#FDF6E4"/>
<ellipse cx="46" cy="324.4" rx="24" ry="8.8" fill="#FDF6E4"/>
<ellipse cx="87.6" cy="323.6" rx="27.2" ry="9.6" fill="#FDF6E4"/>
<ellipse cx="74.8" cy="333.2" rx="40" ry="8.8" fill="#F4EFD8"/>
</g>
<g opacity="0.65">
<ellipse cx="842" cy="396" rx="49.3" ry="12.8" fill="#FDF6E4"/>
<ellipse cx="816.5" cy="390.1" rx="25.5" ry="9.4" fill="#FDF6E4"/>
<ellipse cx="860.7" cy="389.2" rx="28.9" ry="10.2" fill="#FDF6E4"/>
<ellipse cx="847.1" cy="399.4" rx="42.5" ry="9.4" fill="#F4EFD8"/>
</g>
<g opacity="0.5">
<ellipse cx="340" cy="68" rx="46.4" ry="12" fill="#FDF6E4"/>
<ellipse cx="316" cy="62.4" rx="24" ry="8.8" fill="#FDF6E4"/>
<ellipse cx="357.6" cy="61.6" rx="27.2" ry="9.6" fill="#FDF6E4"/>
<ellipse cx="344.8" cy="71.2" rx="40" ry="8.8" fill="#F4EFD8"/>
</g>
<g opacity="0.5">
<ellipse cx="660" cy="60" rx="40.6" ry="10.5" fill="#FDF6E4"/>
<ellipse cx="639" cy="55.1" rx="21" ry="7.7" fill="#FDF6E4"/>
<ellipse cx="675.4" cy="54.4" rx="23.8" ry="8.4" fill="#FDF6E4"/>
<ellipse cx="664.2" cy="62.8" rx="35" ry="7.7" fill="#F4EFD8"/>
</g>
<path d="M 648.6,398.4 C 651.1,404.5 644.2,412.1 630.7,417.3 C 617.1,422.6 590.5,426.9 567.5,430.1 C 544.5,433.2 518.6,434.8 492.8,436.2 C 467,437.6 439.8,439.1 412.8,438.5 C 385.9,437.9 352.9,436.3 330.9,432.7 C 308.9,429.1 289.8,422.7 280.8,417 C 271.7,411.3 274,404.4 276.4,398.4 C 278.8,392.5 285.5,387 295.3,381.5 C 305.1,375.9 316.3,369.7 335.4,365.4 C 354.5,361.1 383.3,356.8 410,355.6 C 436.7,354.3 470.2,355.8 495.7,357.9 C 521.2,359.9 542.9,364.2 563,368.1 C 583.1,371.9 601.9,376 616.1,381.1 C 630.4,386.2 646.2,392.4 648.6,398.4 Z" fill="#AC8B64"/><path d="M 575,426.4 C 573.9,431.1 564.4,436.1 555.3,440 C 546.3,443.9 533.6,447 521,449.8 C 508.3,452.7 495,455.7 479.3,457.3 C 463.6,458.9 443.5,460.3 427,459.5 C 410.4,458.6 391.9,455.6 379.9,452.3 C 368,449 360.9,444 355.2,439.7 C 349.5,435.4 346.7,431 345.6,426.4 C 344.6,421.9 343.3,416.7 348.7,412.3 C 354.1,407.9 364.7,402.7 377.9,399.9 C 391.2,397 411.6,395.5 428.2,395 C 444.9,394.5 462.2,395.9 478,397.1 C 493.8,398.4 509,399.9 523,402.3 C 536.9,404.8 553.2,408 561.8,412 C 570.5,416 576.1,421.8 575,426.4 Z" fill="#C3A37C"/><path d="M 505.4,452.4 C 506.3,454.8 505.9,457.7 502.7,459.8 C 499.4,461.9 492.5,463.9 486.1,465.1 C 479.8,466.3 471.8,466.8 464.7,467.1 C 457.5,467.5 450.4,467.7 443.2,467.4 C 435.9,467.1 427.4,466.7 421.1,465.4 C 414.9,464.1 408.5,461.9 405.6,459.8 C 402.7,457.6 403,454.7 403.9,452.4 C 404.8,450.1 408,448 411.2,445.9 C 414.3,443.9 417.7,441.8 422.8,440.1 C 428,438.5 434.9,436.6 442.1,436 C 449.2,435.3 458.7,435.5 465.8,436.2 C 472.8,437 479.2,438.8 484.4,440.4 C 489.6,442 493.6,443.9 497.1,445.9 C 500.6,447.9 504.5,450.1 505.4,452.4 Z" fill="#D9BF97"/>
<ellipse cx="430" cy="408" rx="46" ry="7" fill="#D6BC94" opacity="0.5"/>
<ellipse cx="462" cy="458" rx="190" ry="26" fill="#F4EFD8" opacity="0.3"/>
<ellipse cx="492" cy="468" rx="133" ry="20.8" fill="#FDF6E4" opacity="0.24"/>
<path d="M 745.5,294 C 746.1,306.4 733,320.2 719.9,331.5 C 706.9,342.7 686.1,352.3 667.3,361.4 C 648.5,370.6 629.7,379.6 607.3,386.5 C 584.9,393.4 559,399.4 532.8,402.8 C 506.5,406.2 477.9,406.4 450,406.7 C 422.1,407.1 394.3,406.8 365.6,404.9 C 337,403 303.4,401.3 278,395.1 C 252.6,388.9 227,378.5 213.1,367.5 C 199.2,356.6 197.5,341.7 194.8,329.4 C 192.1,317.2 196.3,305.7 196.8,294 C 197.4,282.3 193.6,270.8 198.1,259 C 202.5,247.3 208.9,234 223.4,223.7 C 237.8,213.3 261.5,204.2 284.8,196.9 C 308.1,189.6 335.7,184 363.2,179.9 C 390.7,175.8 421.3,172 450,172.4 C 478.7,172.7 510.1,176.5 535.2,182 C 560.3,187.5 580.2,197.5 600.5,205.5 C 620.8,213.5 637.7,221.2 657,229.8 C 676.4,238.3 701.9,246.3 716.6,257 C 731.4,267.7 745,281.6 745.5,294 Z" fill="#BFA981"/>
<path d="M 745.5,279.6 C 746.1,292 733,305.8 719.9,317.1 C 706.9,328.3 686.1,337.9 667.3,347 C 648.5,356.2 629.7,365.2 607.3,372.1 C 584.9,379 559,385 532.8,388.4 C 506.5,391.8 477.9,392 450,392.3 C 422.1,392.7 394.3,392.4 365.6,390.5 C 337,388.6 303.4,386.9 278,380.7 C 252.6,374.5 227,364.1 213.1,353.1 C 199.2,342.2 197.5,327.3 194.8,315 C 192.1,302.8 196.3,291.3 196.8,279.6 C 197.4,267.9 193.6,256.4 198.1,244.6 C 202.5,232.9 208.9,219.6 223.4,209.3 C 237.8,198.9 261.5,189.8 284.8,182.5 C 308.1,175.2 335.7,169.6 363.2,165.5 C 390.7,161.4 421.3,157.6 450,158 C 478.7,158.3 510.1,162.1 535.2,167.6 C 560.3,173.1 580.2,183.1 600.5,191.1 C 620.8,199.1 637.7,206.8 657,215.4 C 676.4,223.9 701.9,231.9 716.6,242.6 C 731.4,253.3 745,267.2 745.5,279.6 Z" fill="#D2BC90"/>
<path d="M 745.5,262 C 746.1,274.4 733,288.2 719.9,299.5 C 706.9,310.7 686.1,320.3 667.3,329.4 C 648.5,338.6 629.7,347.6 607.3,354.5 C 584.9,361.4 559,367.4 532.8,370.8 C 506.5,374.2 477.9,374.4 450,374.7 C 422.1,375.1 394.3,374.8 365.6,372.9 C 337,371 303.4,369.3 278,363.1 C 252.6,356.9 227,346.5 213.1,335.5 C 199.2,324.6 197.5,309.7 194.8,297.4 C 192.1,285.2 196.3,273.7 196.8,262 C 197.4,250.3 193.6,238.8 198.1,227 C 202.5,215.3 208.9,202 223.4,191.7 C 237.8,181.3 261.5,172.2 284.8,164.9 C 308.1,157.6 335.7,152 363.2,147.9 C 390.7,143.8 421.3,140 450,140.4 C 478.7,140.7 510.1,144.5 535.2,150 C 560.3,155.5 580.2,165.5 600.5,173.5 C 620.8,181.5 637.7,189.2 657,197.8 C 676.4,206.3 701.9,214.3 716.6,225 C 731.4,235.7 745,249.6 745.5,262 Z" fill="#ECDFBE"/>
<path d="M 727.8,258 C 728.3,269.7 716,282.6 703.7,293.2 C 691.5,303.8 671.9,312.8 654.3,321.4 C 636.6,330 618.9,338.4 597.9,344.9 C 576.8,351.4 552.4,357.1 527.8,360.3 C 503.2,363.4 476.2,363.7 450,364 C 423.8,364.3 397.6,364.1 370.7,362.2 C 343.8,360.4 312.2,358.9 288.3,353 C 264.4,347.2 240.4,337.4 227.3,327.1 C 214.3,316.8 212.6,302.8 210.1,291.3 C 207.5,279.8 211.5,269 212,258 C 212.5,247 209,236.2 213.2,225.1 C 217.3,214.1 223.4,201.6 237,191.9 C 250.6,182.2 272.8,173.6 294.7,166.7 C 316.6,159.8 342.5,154.6 368.4,150.8 C 394.3,146.9 423.1,143.4 450,143.7 C 476.9,144 506.5,147.5 530.1,152.7 C 553.7,157.9 572.4,167.3 591.5,174.8 C 610.6,182.3 626.4,189.5 644.6,197.6 C 662.8,205.7 686.8,213.2 700.6,223.2 C 714.5,233.3 727.3,246.3 727.8,258 Z" fill="url(#grassA2)"/>
<rect x="677.9" y="324.2" width="5" height="13" rx="2.5" fill="#B9A87C" opacity="0.4"/><rect x="660.8" y="332.8" width="5" height="13" rx="2.5" fill="#B9A87C" opacity="0.4"/><rect x="643.1" y="341" width="5" height="13" rx="2.5" fill="#B9A87C" opacity="0.4"/><rect x="624.8" y="348.8" width="5" height="13" rx="2.5" fill="#B9A87C" opacity="0.4"/><rect x="605.2" y="356.1" width="5" height="13" rx="2.5" fill="#B9A87C" opacity="0.4"/><rect x="584.1" y="362.6" width="5" height="13" rx="2.5" fill="#B9A87C" opacity="0.4"/><rect x="561.2" y="368" width="5" height="13" rx="2.5" fill="#B9A87C" opacity="0.4"/><rect x="537" y="372.1" width="5" height="13" rx="2.5" fill="#B9A87C" opacity="0.4"/><rect x="511.7" y="374.9" width="5" height="13" rx="2.5" fill="#B9A87C" opacity="0.4"/><rect x="382.6" y="375.9" width="5" height="13" rx="2.5" fill="#B9A87C" opacity="0.4"/><rect x="355.8" y="374.8" width="5" height="13" rx="2.5" fill="#B9A87C" opacity="0.4"/><rect x="328.4" y="372.9" width="5" height="13" rx="2.5" fill="#B9A87C" opacity="0.4"/><rect x="301" y="369.7" width="5" height="13" rx="2.5" fill="#B9A87C" opacity="0.4"/><rect x="274.6" y="364.8" width="5" height="13" rx="2.5" fill="#B9A87C" opacity="0.4"/><rect x="250.6" y="358" width="5" height="13" rx="2.5" fill="#B9A87C" opacity="0.4"/><rect x="230.3" y="349.3" width="5" height="13" rx="2.5" fill="#B9A87C" opacity="0.4"/><rect x="214.7" y="338.9" width="5" height="13" rx="2.5" fill="#B9A87C" opacity="0.4"/><rect x="204.2" y="327.5" width="5" height="13" rx="2.5" fill="#B9A87C" opacity="0.4"/>
<ellipse cx="675.6" cy="310.5" rx="9.2" ry="4.2" fill="#7CB863" opacity="0.55"/><ellipse cx="615.9" cy="338.4" rx="4" ry="1.8" fill="#8CC474" opacity="0.55"/><ellipse cx="542.1" cy="358.3" rx="8.7" ry="3.9" fill="#7CB863" opacity="0.55"/><ellipse cx="368" cy="362.1" rx="4.4" ry="2" fill="#7CB863" opacity="0.55"/><ellipse cx="277.3" cy="350.4" rx="9.8" ry="4.4" fill="#8CC474" opacity="0.55"/><ellipse cx="219" cy="318.2" rx="5.9" ry="2.6" fill="#7CB863" opacity="0.55"/><ellipse cx="210.6" cy="278.6" rx="5.7" ry="2.6" fill="#8CC474" opacity="0.55"/><ellipse cx="211.9" cy="242.6" rx="9.9" ry="4.4" fill="#7CB863" opacity="0.55"/><ellipse cx="222.7" cy="205.1" rx="4.5" ry="2" fill="#8CC474" opacity="0.55"/><ellipse cx="274.8" cy="173.1" rx="7.5" ry="3.4" fill="#7CB863" opacity="0.55"/><ellipse cx="353.8" cy="153.2" rx="8.9" ry="4" fill="#8CC474" opacity="0.55"/><ellipse cx="443.4" cy="143.7" rx="4" ry="1.8" fill="#7CB863" opacity="0.55"/><ellipse cx="532.5" cy="153.3" rx="9.1" ry="4.1" fill="#8CC474" opacity="0.55"/><ellipse cx="599.1" cy="178.2" rx="7.2" ry="3.2" fill="#7CB863" opacity="0.55"/><ellipse cx="659.2" cy="203.4" rx="4.7" ry="2.1" fill="#8CC474" opacity="0.55"/>
<ellipse cx="540" cy="200" rx="80" ry="26" fill="#A4D384" opacity="0.35"/>
<ellipse cx="300" cy="300" rx="50" ry="16" fill="#A4D384" opacity="0.3"/>
<ellipse cx="620" cy="300" rx="55" ry="18" fill="#A4D384" opacity="0.28"/>
<ellipse cx="500" cy="335" rx="70" ry="16" fill="#699F63" opacity="0.2"/>
<ellipse cx="240" cy="255" rx="36" ry="13" fill="#699F63" opacity="0.18"/>
<ellipse cx="345" cy="258" rx="85" ry="34" fill="#F2C46E" opacity="0.1"/>
<g><ellipse cx="263" cy="212" rx="4" ry="2.6" fill="#699F63" opacity="0.5"/><ellipse cx="272" cy="214" rx="5" ry="3" fill="#699F63" opacity="0.4"/><ellipse cx="268" cy="209" rx="4.5" ry="2.8" fill="#98CB77" opacity="0.55"/></g>
<g><ellipse cx="295" cy="232" rx="4" ry="2.6" fill="#699F63" opacity="0.5"/><ellipse cx="304" cy="234" rx="5" ry="3" fill="#699F63" opacity="0.4"/><ellipse cx="300" cy="229" rx="4.5" ry="2.8" fill="#98CB77" opacity="0.55"/></g>
<g><ellipse cx="295" cy="295" rx="4" ry="2.6" fill="#699F63" opacity="0.5"/><ellipse cx="304" cy="297" rx="5" ry="3" fill="#699F63" opacity="0.4"/><ellipse cx="300" cy="292" rx="4.5" ry="2.8" fill="#98CB77" opacity="0.55"/></g>
<g><ellipse cx="415" cy="300" rx="4" ry="2.6" fill="#699F63" opacity="0.5"/><ellipse cx="424" cy="302" rx="5" ry="3" fill="#699F63" opacity="0.4"/><ellipse cx="420" cy="297" rx="4.5" ry="2.8" fill="#98CB77" opacity="0.55"/></g>
<g><ellipse cx="500" cy="255" rx="4" ry="2.6" fill="#699F63" opacity="0.5"/><ellipse cx="509" cy="257" rx="5" ry="3" fill="#699F63" opacity="0.4"/><ellipse cx="505" cy="252" rx="4.5" ry="2.8" fill="#98CB77" opacity="0.55"/></g>
<g><ellipse cx="580" cy="205" rx="4" ry="2.6" fill="#699F63" opacity="0.5"/><ellipse cx="589" cy="207" rx="5" ry="3" fill="#699F63" opacity="0.4"/><ellipse cx="585" cy="202" rx="4.5" ry="2.8" fill="#98CB77" opacity="0.55"/></g>
<g><ellipse cx="663" cy="255" rx="4" ry="2.6" fill="#699F63" opacity="0.5"/><ellipse cx="672" cy="257" rx="5" ry="3" fill="#699F63" opacity="0.4"/><ellipse cx="668" cy="252" rx="4.5" ry="2.8" fill="#98CB77" opacity="0.55"/></g>
<g><ellipse cx="610" cy="325" rx="4" ry="2.6" fill="#699F63" opacity="0.5"/><ellipse cx="619" cy="327" rx="5" ry="3" fill="#699F63" opacity="0.4"/><ellipse cx="615" cy="322" rx="4.5" ry="2.8" fill="#98CB77" opacity="0.55"/></g>
<g transform="translate(600,255) rotate(6)">
<rect x="-34" y="-19" width="68" height="38" rx="13" fill="#ECDFBE"/>
<rect x="-34" y="-15" width="68" height="38" rx="13" fill="#CDB992" opacity="0.55"/>
<rect x="-29" y="-14" width="58" height="28" rx="9" fill="#C4A981"/>
<ellipse cx="-19" cy="-5" rx="5.2" ry="3.6" fill="#6FAA58"/><ellipse cx="0" cy="-5" rx="5.2" ry="3.6" fill="#98CB77"/><ellipse cx="19" cy="-5" rx="5.2" ry="3.6" fill="#6FAA58"/><circle cx="16.2" cy="-4.5" r="2.6" fill="#F2C46E"/>
</g>
<g opacity="0.8"><circle cx="345" cy="245.8" r="27.6" fill="#DFD2AE"/><circle cx="369" cy="265" r="27.6" fill="#DFD2AE"/><circle cx="345" cy="284.2" r="27.6" fill="#DFD2AE"/><circle cx="321" cy="265" r="27.6" fill="#DFD2AE"/><rect x="321" y="245.8" width="48" height="38.4" rx="9.6" fill="#DFD2AE"/></g><g><circle cx="345" cy="242.8" r="27.6" fill="#E8DCBE"/><circle cx="369" cy="262" r="27.6" fill="#E8DCBE"/><circle cx="345" cy="281.2" r="27.6" fill="#E8DCBE"/><circle cx="321" cy="262" r="27.6" fill="#E8DCBE"/><rect x="321" y="242.8" width="48" height="38.4" rx="9.6" fill="#E8DCBE"/></g><ellipse cx="380.6" cy="272.6" rx="5.5" ry="3.6" fill="#D6C9A2" opacity="0.8"/><ellipse cx="367.3" cy="290.8" rx="5.5" ry="3.6" fill="#D6C9A2" opacity="0.8"/><ellipse cx="345.5" cy="298" rx="5.5" ry="3.6" fill="#D6C9A2" opacity="0.8"/><ellipse cx="323.5" cy="291.4" rx="5.5" ry="3.6" fill="#D6C9A2" opacity="0.8"/><ellipse cx="309.7" cy="273.6" rx="5.5" ry="3.6" fill="#D6C9A2" opacity="0.8"/><ellipse cx="309.4" cy="251.4" rx="5.5" ry="3.6" fill="#D6C9A2" opacity="0.8"/><ellipse cx="322.7" cy="233.2" rx="5.5" ry="3.6" fill="#D6C9A2" opacity="0.8"/><ellipse cx="344.5" cy="226" rx="5.5" ry="3.6" fill="#D6C9A2" opacity="0.8"/><ellipse cx="366.5" cy="232.6" rx="5.5" ry="3.6" fill="#D6C9A2" opacity="0.8"/><ellipse cx="380.3" cy="250.4" rx="5.5" ry="3.6" fill="#D6C9A2" opacity="0.8"/><g><circle cx="345" cy="247" r="23" fill="#B7A177"/><circle cx="365" cy="263" r="23" fill="#B7A177"/><circle cx="345" cy="279" r="23" fill="#B7A177"/><circle cx="325" cy="263" r="23" fill="#B7A177"/><rect x="325" y="247" width="40" height="32" rx="8" fill="#B7A177"/></g><g><circle cx="345" cy="244" r="23" fill="#ECDFBE"/><circle cx="365" cy="260" r="23" fill="#ECDFBE"/><circle cx="345" cy="276" r="23" fill="#ECDFBE"/><circle cx="325" cy="260" r="23" fill="#ECDFBE"/><rect x="325" y="244" width="40" height="32" rx="8" fill="#ECDFBE"/></g><g><circle cx="345" cy="245.96" r="18.4" fill="#CDB992"/><circle cx="363.8" cy="261" r="18.4" fill="#CDB992"/><circle cx="345" cy="276.04" r="18.4" fill="#CDB992"/><circle cx="326.2" cy="261" r="18.4" fill="#CDB992"/><rect x="326.2" y="246" width="37.6" height="30.1" rx="7.5" fill="#CDB992"/></g><g><circle cx="345" cy="247.92" r="14.3" fill="#57A79E"/><circle cx="362.6" cy="262" r="14.3" fill="#57A79E"/><circle cx="345" cy="276.08" r="14.3" fill="#57A79E"/><circle cx="327.4" cy="262" r="14.3" fill="#57A79E"/><rect x="327.4" y="247.9" width="35.2" height="28.2" rx="7" fill="#57A79E"/></g><g><circle cx="345" cy="250.88" r="12" fill="#8FCFC2"/><circle cx="361.4" cy="264" r="12" fill="#8FCFC2"/><circle cx="345" cy="277.12" r="12" fill="#8FCFC2"/><circle cx="328.6" cy="264" r="12" fill="#8FCFC2"/><rect x="328.6" y="250.9" width="32.8" height="26.2" rx="6.6" fill="#8FCFC2"/></g><ellipse cx="339" cy="266.7" rx="11.5" ry="6" fill="#BFE8DC" opacity="0.55"/>
<path d="M 396,490 C 400.7,477.3 415,434.3 424,414 C 433,393.7 455.7,380.8 450,368" fill="none" stroke="#B08A60" stroke-width="33" stroke-linecap="round" transform="translate(0,10)" opacity="0.8"/><path d="M 396,490 C 400.7,477.3 415,434.3 424,414 C 433,393.7 455.7,380.8 450,368" fill="none" stroke="#D8C7A0" stroke-width="33" stroke-linecap="round" transform="translate(0,5)"/><path d="M 396,490 C 400.7,477.3 415,434.3 424,414 C 433,393.7 455.7,380.8 450,368" fill="none" stroke="#ECDFBE" stroke-width="33" stroke-linecap="round"/>
<path d="M 725,258 C 748,249.7 767.2,246 788,242 C 808.8,238 839.7,235.3 850,234" fill="none" stroke="#B08A60" stroke-width="33" stroke-linecap="round" transform="translate(0,10)" opacity="0.8"/><path d="M 725,258 C 748,249.7 767.2,246 788,242 C 808.8,238 839.7,235.3 850,234" fill="none" stroke="#D8C7A0" stroke-width="33" stroke-linecap="round" transform="translate(0,5)"/><path d="M 725,258 C 748,249.7 767.2,246 788,242 C 808.8,238 839.7,235.3 850,234" fill="none" stroke="#ECDFBE" stroke-width="33" stroke-linecap="round"/>
<path d="M 396,490 C 400.7,477.3 415,434.3 424,414 C 433,393.7 455.7,380.8 450,368 C 444.3,355.2 411.7,342.2 390,337 C 368.3,331.8 339.7,341.5 320,337 C 300.3,332.5 282.3,322.5 272,310 C 261.7,297.5 258,277.8 258,262 C 258,246.2 262.5,226 272,215 C 281.5,204 298.7,199.8 315,196 C 331.3,192.2 353.3,187.7 370,192 C 386.7,196.3 404.7,210.3 415,222 C 425.3,233.7 422,249.8 432,262 C 442,274.2 453.7,285.7 475,295 C 496.3,304.3 530.8,318.5 560,318 C 589.2,317.5 622.5,302 650,292 C 677.5,282 702,266.3 725,258 C 748,249.7 767.2,246 788,242 C 808.8,238 839.7,235.3 850,234" fill="none" stroke="#B4A47C" stroke-width="24" stroke-linecap="round" transform="translate(0,6)"/><path d="M 396,490 C 400.7,477.3 415,434.3 424,414 C 433,393.7 455.7,380.8 450,368 C 444.3,355.2 411.7,342.2 390,337 C 368.3,331.8 339.7,341.5 320,337 C 300.3,332.5 282.3,322.5 272,310 C 261.7,297.5 258,277.8 258,262 C 258,246.2 262.5,226 272,215 C 281.5,204 298.7,199.8 315,196 C 331.3,192.2 353.3,187.7 370,192 C 386.7,196.3 404.7,210.3 415,222 C 425.3,233.7 422,249.8 432,262 C 442,274.2 453.7,285.7 475,295 C 496.3,304.3 530.8,318.5 560,318 C 589.2,317.5 622.5,302 650,292 C 677.5,282 702,266.3 725,258 C 748,249.7 767.2,246 788,242 C 808.8,238 839.7,235.3 850,234" fill="none" stroke="#EAE0C6" stroke-width="24" stroke-linecap="round"/><path d="M 397.9,491.8 C 402.1,478.6 414.2,433.5 422.9,412.7 C 431.6,391.9 455.4,379.3 450,367 C 444.7,354.7 413,344 391,339 C 369,333.9 337.6,341.8 318.2,336.7 C 298.7,331.6 284.7,320.4 274.3,308.2 C 263.9,296 255.7,278.8 255.6,263.4 C 255.6,248 264.3,227.4 274,215.8 C 283.7,204.3 297.8,197.9 313.8,194 C 329.9,190.1 353.2,187.5 370.2,192.4 C 387.2,197.4 405.9,212.4 415.9,223.7 C 425.9,235 420,248.7 430.3,260.5 C 440.5,272.2 456.1,284.4 477.3,294.3 C 498.5,304.2 528.5,320.5 557.6,320 C 586.7,319.5 624.3,302 652,291.4 C 679.7,280.8 701,264.3 723.7,256.4 C 746.4,248.4 767.1,247.3 788.3,243.6 C 809.5,240 840.4,236.1 850.8,234.6" fill="none" stroke="#EAE0C6" stroke-width="27" stroke-linecap="round" opacity="0.35"/><path d="M 397.6,492.2 C 401.8,478.9 414.4,433.3 423.1,412.4 C 431.9,391.5 455.4,379 450,366.8 C 444.7,354.6 412.8,344.4 390.8,339.4 C 368.9,334.3 338,341.9 318.5,336.7 C 299,331.4 284.3,320 273.9,307.9 C 263.5,295.7 256.1,279 256,263.7 C 256,248.4 264,227.7 273.6,216 C 283.3,204.3 297.9,197.5 314,193.6 C 330.1,189.7 353.2,187.5 370.1,192.5 C 387.1,197.6 405.7,212.8 415.7,224 C 425.8,235.3 420.3,248.5 430.5,260.2 C 440.7,271.8 455.7,284.1 476.9,294.2 C 498.1,304.2 528.9,320.9 558,320.4 C 587.1,319.9 624,302 651.7,291.3 C 679.3,280.6 701.2,263.9 723.9,256.1 C 746.7,248.2 767.1,247.5 788.2,244 C 809.4,240.4 840.2,236.2 850.6,234.7" fill="none" stroke="#E7DDC0" stroke-width="12" stroke-linecap="round"/><ellipse cx="415.1" cy="436.3" rx="6.5" ry="4.2" fill="#D6C9A2"/><ellipse cx="442.5" cy="388.2" rx="6.5" ry="4.2" fill="#D6C9A2"/><ellipse cx="423.1" cy="348.3" rx="6.5" ry="4.2" fill="#D6C9A2"/><ellipse cx="369.7" cy="335.5" rx="6.5" ry="4.2" fill="#D6C9A2"/><ellipse cx="315.1" cy="335.8" rx="6.5" ry="4.2" fill="#D6C9A2"/><ellipse cx="269.6" cy="306.7" rx="6.5" ry="4.2" fill="#D6C9A2"/><ellipse cx="258.4" cy="253.8" rx="6.5" ry="4.2" fill="#D6C9A2"/><ellipse cx="282.1" cy="207" rx="6.5" ry="4.2" fill="#D6C9A2"/><ellipse cx="335.2" cy="191.9" rx="6.5" ry="4.2" fill="#D6C9A2"/><ellipse cx="388.8" cy="200.3" rx="6.5" ry="4.2" fill="#D6C9A2"/><ellipse cx="423.2" cy="240.1" rx="6.5" ry="4.2" fill="#D6C9A2"/><ellipse cx="454.7" cy="283.7" rx="6.5" ry="4.2" fill="#D6C9A2"/><ellipse cx="503.6" cy="306.5" rx="6.5" ry="4.2" fill="#D6C9A2"/><ellipse cx="556.3" cy="318" rx="6.5" ry="4.2" fill="#D6C9A2"/><ellipse cx="609.5" cy="307.2" rx="6.5" ry="4.2" fill="#D6C9A2"/><ellipse cx="660.2" cy="288" rx="6.5" ry="4.2" fill="#D6C9A2"/><ellipse cx="710.4" cy="264" rx="6.5" ry="4.2" fill="#D6C9A2"/><ellipse cx="762.4" cy="247.2" rx="6.5" ry="4.2" fill="#D6C9A2"/><ellipse cx="817" cy="237.7" rx="6.5" ry="4.2" fill="#D6C9A2"/>
<g><ellipse cx="452" cy="165" rx="22" ry="9.2" fill="#CBBC97"/><ellipse cx="452" cy="164" rx="16.7" ry="6.7" fill="#C4A981"/><ellipse cx="459" cy="167" rx="18" ry="6.7" fill="#4E8746" opacity="0.22"/><rect x="448" y="141" width="8" height="26" rx="4" fill="#8A6B4F"/><circle cx="455" cy="131.1" r="18" fill="#4E8746"/><circle cx="450" cy="127.1" r="15.8" fill="#6FAA58"/><ellipse cx="445.2" cy="124.6" rx="7.9" ry="6.1" fill="#98CB77"/><circle cx="443.8" cy="128.9" r="3.4" fill="#F2C46E"/><circle cx="457.2" cy="119.2" r="3.4" fill="#F2C46E"/><circle cx="465.4" cy="132.9" r="3.4" fill="#F2C46E"/><circle cx="452.5" cy="140.1" r="3.4" fill="#F2C46E"/></g>
<g><ellipse cx="492" cy="185" rx="24" ry="10.1" fill="#CBBC97"/><ellipse cx="492" cy="184" rx="18.2" ry="7.3" fill="#C4A981"/><ellipse cx="499" cy="187" rx="19.7" ry="7.3" fill="#4E8746" opacity="0.22"/><rect x="488" y="159" width="8" height="28" rx="4" fill="#8A6B4F"/><circle cx="495" cy="148" r="20" fill="#4E8746"/><circle cx="490" cy="144" r="17.6" fill="#6FAA58"/><ellipse cx="484.4" cy="140.8" rx="8.8" ry="6.8" fill="#98CB77"/><circle cx="482.6" cy="145.6" r="3.4" fill="#F2C46E"/><circle cx="497.4" cy="134.8" r="3.4" fill="#F2C46E"/><circle cx="506.6" cy="150" r="3.4" fill="#F2C46E"/><circle cx="492.2" cy="158" r="3.4" fill="#F2C46E"/></g>
<g><ellipse cx="540" cy="228" rx="30" ry="12.6" fill="#CBBC97"/><ellipse cx="540" cy="227" rx="22.8" ry="9.1" fill="#C4A981"/><ellipse cx="547" cy="230" rx="24.6" ry="9.1" fill="#4E8746" opacity="0.22"/><rect x="536" y="196" width="8" height="34" rx="4" fill="#8A6B4F"/><circle cx="543" cy="181.7" r="26" fill="#4E8746"/><circle cx="538" cy="177.7" r="22.9" fill="#6FAA58"/><ellipse cx="530.1" cy="172.3" rx="11.4" ry="8.8" fill="#98CB77"/><circle cx="526.9" cy="178.6" r="3.4" fill="#F2C46E"/><circle cx="546.1" cy="164.5" r="3.4" fill="#F2C46E"/><circle cx="558.1" cy="184.3" r="3.4" fill="#F2C46E"/><circle cx="539.4" cy="194.7" r="3.4" fill="#F2C46E"/></g>
<g><ellipse cx="632" cy="220" rx="28" ry="11.8" fill="#CBBC97"/><ellipse cx="632" cy="219" rx="21.3" ry="8.5" fill="#C4A981"/><ellipse cx="639" cy="222" rx="23" ry="8.5" fill="#4E8746" opacity="0.22"/><rect x="628" y="190" width="8" height="32" rx="4" fill="#8A6B4F"/><circle cx="635" cy="176.8" r="24" fill="#4E8746"/><circle cx="630" cy="172.8" r="21.1" fill="#6FAA58"/><ellipse cx="622.9" cy="168.2" rx="10.6" ry="8.2" fill="#98CB77"/><circle cx="620.1" cy="173.9" r="3.4" fill="#F2C46E"/><circle cx="637.9" cy="161" r="3.4" fill="#F2C46E"/><circle cx="648.9" cy="179.2" r="3.4" fill="#F2C46E"/><circle cx="631.6" cy="188.8" r="3.4" fill="#F2C46E"/></g>
<g><ellipse cx="520" cy="352" rx="22" ry="9.2" fill="#CBBC97"/><ellipse cx="520" cy="351" rx="16.7" ry="6.7" fill="#C4A981"/><ellipse cx="527" cy="354" rx="18" ry="6.7" fill="#4E8746" opacity="0.22"/><rect x="516" y="328" width="8" height="26" rx="4" fill="#8A6B4F"/><circle cx="523" cy="318.1" r="18" fill="#4E8746"/><circle cx="518" cy="314.1" r="15.8" fill="#6FAA58"/><ellipse cx="513.2" cy="311.6" rx="7.9" ry="6.1" fill="#98CB77"/></g>
<g opacity="0.9">
<ellipse cx="560" cy="448" rx="87" ry="22.5" fill="#FDF6E4"/>
<ellipse cx="515" cy="437.5" rx="45" ry="16.5" fill="#FDF6E4"/>
<ellipse cx="593" cy="436" rx="51" ry="18" fill="#FDF6E4"/>
<ellipse cx="569" cy="454" rx="75" ry="16.5" fill="#F4EFD8"/>
</g>
<g opacity="0.8">
<ellipse cx="300" cy="468" rx="52.2" ry="13.5" fill="#FDF6E4"/>
<ellipse cx="273" cy="461.7" rx="27" ry="9.9" fill="#FDF6E4"/>
<ellipse cx="319.8" cy="460.8" rx="30.6" ry="10.8" fill="#FDF6E4"/>
<ellipse cx="305.4" cy="471.6" rx="45" ry="9.9" fill="#F4EFD8"/>
</g>
<g opacity="0.7">
<ellipse cx="700" cy="424" rx="46.4" ry="12" fill="#FDF6E4"/>
<ellipse cx="676" cy="418.4" rx="24" ry="8.8" fill="#FDF6E4"/>
<ellipse cx="717.6" cy="417.6" rx="27.2" ry="9.6" fill="#FDF6E4"/>
<ellipse cx="704.8" cy="427.2" rx="40" ry="8.8" fill="#F4EFD8"/>
</g>
<g><ellipse cx="392" cy="494" rx="60" ry="12" fill="#FDF6E4" opacity="0.95"/><ellipse cx="374" cy="500" rx="42" ry="9.6" fill="#F4EFD8" opacity="0.85"/></g>
<g><ellipse cx="412" cy="505" rx="46" ry="9" fill="#FDF6E4" opacity="0.95"/><ellipse cx="398.2" cy="509.5" rx="32.2" ry="7.2" fill="#F4EFD8" opacity="0.85"/></g>
<g><ellipse cx="864" cy="232" rx="52" ry="10" fill="#FDF6E4" opacity="0.95"/><ellipse cx="848.4" cy="237" rx="36.4" ry="8" fill="#F4EFD8" opacity="0.85"/></g>
<g><ellipse cx="850" cy="244" rx="40" ry="8" fill="#FDF6E4" opacity="0.95"/><ellipse cx="838" cy="248" rx="28" ry="6.4" fill="#F4EFD8" opacity="0.85"/></g>
</svg>
