<svg viewBox="0 0 900 520" xmlns="http://www.w3.org/2000/svg">
<defs>
<linearGradient id="skyA3" x1="0" y1="0" x2="0" y2="1"><stop offset="0" stop-color="#A3CBAB"/><stop offset="0.52" stop-color="#DCE8B4"/><stop offset="1" stop-color="#F8DCA2"/></linearGradient>
<linearGradient id="grassA3" x1="0" y1="0" x2="0.25" y2="1"><stop offset="0" stop-color="#A0D080"/><stop offset="1" stop-color="#74B25E"/></linearGradient>
</defs>
<rect x="0" y="0" width="900" height="520" fill="url(#skyA3)"/>
<g opacity="0.5"><ellipse cx="230" cy="72" rx="44" ry="8" fill="#FDF6E4"/><ellipse cx="214" cy="76" rx="30" ry="6.4" fill="#F4EFD8"/></g>
<g opacity="0.45"><ellipse cx="600" cy="62" rx="36" ry="7" fill="#FDF6E4"/><ellipse cx="587" cy="65" rx="25" ry="5.6" fill="#F4EFD8"/></g>
<g opacity="0.4"><ellipse cx="795" cy="100" rx="26" ry="5.5" fill="#FDF6E4"/><ellipse cx="786" cy="103" rx="18" ry="4.4" fill="#F4EFD8"/></g>
<g opacity="0.4"><ellipse cx="65" cy="140" rx="28" ry="6" fill="#FDF6E4"/><ellipse cx="54" cy="143" rx="20" ry="4.8" fill="#F4EFD8"/></g>
<g opacity="0.3"><ellipse cx="160" cy="488" rx="38" ry="8" fill="#FDF6E4"/><ellipse cx="148" cy="491" rx="26" ry="6" fill="#F4EFD8"/></g>
<g opacity="0.28"><ellipse cx="430" cy="496" rx="44" ry="9" fill="#FDF6E4"/><ellipse cx="415" cy="499" rx="30" ry="7" fill="#F4EFD8"/></g>
<g opacity="0.28"><ellipse cx="672" cy="492" rx="36" ry="7.5" fill="#FDF6E4"/><ellipse cx="660" cy="495" rx="25" ry="5.5" fill="#F4EFD8"/></g>
<g opacity="0.26"><ellipse cx="848" cy="483" rx="28" ry="6" fill="#FDF6E4"/><ellipse cx="838" cy="486" rx="20" ry="4.5" fill="#F4EFD8"/></g>
<g opacity="0.58"><ellipse cx="290" cy="458" rx="55" ry="13" fill="#FDF6E4"/><ellipse cx="262" cy="452" rx="28" ry="9.5" fill="#FDF6E4"/><ellipse cx="311" cy="451" rx="32" ry="10.5" fill="#FDF6E4"/><ellipse cx="295" cy="462" rx="47" ry="9.5" fill="#F4EFD8"/></g>
<g opacity="0.55"><ellipse cx="555" cy="464" rx="62" ry="14" fill="#FDF6E4"/><ellipse cx="523" cy="457" rx="32" ry="10.5" fill="#FDF6E4"/><ellipse cx="579" cy="456" rx="36" ry="11.5" fill="#FDF6E4"/><ellipse cx="561" cy="468" rx="53" ry="10.5" fill="#F4EFD8"/></g>
<g opacity="0.55"><ellipse cx="775" cy="448" rx="46" ry="11" fill="#FDF6E4"/><ellipse cx="751" cy="443" rx="24" ry="8" fill="#FDF6E4"/><ellipse cx="793" cy="442" rx="27" ry="9" fill="#FDF6E4"/><ellipse cx="779" cy="451" rx="39" ry="8" fill="#F4EFD8"/></g>
<g transform="translate(0,-24)">
<ellipse cx="456" cy="428" rx="170" ry="18" fill="#CFB891"/>
<ellipse cx="458" cy="440" rx="100" ry="12" fill="#DCC7A0"/>
<ellipse cx="459" cy="449" rx="50" ry="7" fill="#E8D6B2"/>
<path transform="translate(0,30)" fill="#C9B08A" d="M 144,282 C 141,242 176,204 232,185 C 288,166 350,152 420,150 C 493,148 566,157 634,180 C 700,203 762,228 777,263 C 791,299 748,336 694,358 C 634,383 550,399 464,402 C 382,405 300,392 240,370 C 192,352 147,323 144,282 Z"/>
<path transform="translate(0,15)" fill="#D2BC90" d="M 144,282 C 141,242 176,204 232,185 C 288,166 350,152 420,150 C 493,148 566,157 634,180 C 700,203 762,228 777,263 C 791,299 748,336 694,358 C 634,383 550,399 464,402 C 382,405 300,392 240,370 C 192,352 147,323 144,282 Z"/>
<path fill="#ECDFBE" d="M 144,282 C 141,242 176,204 232,185 C 288,166 350,152 420,150 C 493,148 566,157 634,180 C 700,203 762,228 777,263 C 791,299 748,336 694,358 C 634,383 550,399 464,402 C 382,405 300,392 240,370 C 192,352 147,323 144,282 Z"/>
<path fill="url(#grassA3)" d="M 162,282 C 160,247 193,213 244,195 C 296,176 355,166 421,164 C 490,162 560,170 623,192 C 686,214 744,236 757,268 C 769,298 728,331 677,351 C 620,373 545,388 464,390 C 385,392 313,381 256,360 C 211,343 164,318 162,282 Z"/>
<ellipse cx="545" cy="205" rx="95" ry="28" fill="#A4D384" opacity="0.38"/>
<ellipse cx="255" cy="262" rx="46" ry="15" fill="#A4D384" opacity="0.32"/>
<ellipse cx="640" cy="298" rx="50" ry="16" fill="#A4D384" opacity="0.28"/>
<ellipse cx="500" cy="368" rx="180" ry="17" fill="#4E8746" opacity="0.12"/>
<ellipse cx="470" cy="340" rx="60" ry="13" fill="#699F63" opacity="0.14"/>
<ellipse cx="295" cy="290" rx="36" ry="11" fill="#699F63" opacity="0.14"/>
<ellipse cx="350" cy="245" rx="80" ry="30" fill="#F2C46E" opacity="0.11"/>
<rect x="270" y="357" width="5" height="13" rx="2.5" fill="#B9A87C" opacity="0.4"/><rect x="305" y="366" width="5" height="13" rx="2.5" fill="#B9A87C" opacity="0.4"/><rect x="342" y="373" width="5" height="13" rx="2.5" fill="#B9A87C" opacity="0.4"/><rect x="380" y="378" width="5" height="13" rx="2.5" fill="#B9A87C" opacity="0.4"/><rect x="420" y="382" width="5" height="13" rx="2.5" fill="#B9A87C" opacity="0.4"/><rect x="462" y="384" width="5" height="13" rx="2.5" fill="#B9A87C" opacity="0.4"/><rect x="504" y="383" width="5" height="13" rx="2.5" fill="#B9A87C" opacity="0.4"/><rect x="546" y="380" width="5" height="13" rx="2.5" fill="#B9A87C" opacity="0.4"/><rect x="588" y="374" width="5" height="13" rx="2.5" fill="#B9A87C" opacity="0.4"/><rect x="628" y="366" width="5" height="13" rx="2.5" fill="#B9A87C" opacity="0.4"/><rect x="664" y="355" width="5" height="13" rx="2.5" fill="#B9A87C" opacity="0.4"/><rect x="696" y="341" width="5" height="13" rx="2.5" fill="#B9A87C" opacity="0.4"/><rect x="722" y="325" width="5" height="13" rx="2.5" fill="#B9A87C" opacity="0.4"/><rect x="740" y="306" width="5" height="13" rx="2.5" fill="#B9A87C" opacity="0.4"/>
<ellipse cx="250" cy="196" rx="8" ry="3.6" fill="#7CB863" opacity="0.55"/><ellipse cx="340" cy="172" rx="5.5" ry="2.5" fill="#8CC474" opacity="0.55"/><ellipse cx="455" cy="163" rx="9" ry="4" fill="#7CB863" opacity="0.55"/><ellipse cx="570" cy="178" rx="5" ry="2.3" fill="#8CC474" opacity="0.55"/><ellipse cx="655" cy="200" rx="8" ry="3.6" fill="#7CB863" opacity="0.55"/><ellipse cx="725" cy="230" rx="5.5" ry="2.5" fill="#8CC474" opacity="0.55"/><ellipse cx="752" cy="275" rx="6.5" ry="3" fill="#7CB863" opacity="0.55"/><ellipse cx="710" cy="332" rx="6" ry="2.7" fill="#8CC474" opacity="0.55"/><ellipse cx="640" cy="362" rx="8" ry="3.6" fill="#7CB863" opacity="0.55"/><ellipse cx="560" cy="380" rx="5.5" ry="2.5" fill="#8CC474" opacity="0.55"/><ellipse cx="460" cy="387" rx="8.5" ry="3.8" fill="#7CB863" opacity="0.55"/><ellipse cx="360" cy="381" rx="5.5" ry="2.5" fill="#8CC474" opacity="0.55"/><ellipse cx="285" cy="366" rx="7.5" ry="3.4" fill="#7CB863" opacity="0.55"/><ellipse cx="200" cy="330" rx="6" ry="2.7" fill="#8CC474" opacity="0.55"/><ellipse cx="174" cy="290" rx="6.5" ry="3" fill="#7CB863" opacity="0.55"/><ellipse cx="185" cy="240" rx="7" ry="3.2" fill="#8CC474" opacity="0.55"/><ellipse cx="215" cy="208" rx="6" ry="2.7" fill="#7CB863" opacity="0.55"/>
<path d="M 62,398 C 100,390 150,378 208,354" fill="none" stroke="#B08A60" stroke-width="33" stroke-linecap="round" transform="translate(0,10)" opacity="0.8"/><path d="M 62,398 C 100,390 150,378 208,354" fill="none" stroke="#D8C7A0" stroke-width="33" stroke-linecap="round" transform="translate(0,5)"/><path d="M 62,398 C 100,390 150,378 208,354" fill="none" stroke="#ECDFBE" stroke-width="33" stroke-linecap="round"/>
<path d="M 762,268 C 800,256 832,246 878,230" fill="none" stroke="#B08A60" stroke-width="33" stroke-linecap="round" transform="translate(0,10)" opacity="0.8"/><path d="M 762,268 C 800,256 832,246 878,230" fill="none" stroke="#D8C7A0" stroke-width="33" stroke-linecap="round" transform="translate(0,5)"/><path d="M 762,268 C 800,256 832,246 878,230" fill="none" stroke="#ECDFBE" stroke-width="33" stroke-linecap="round"/>
<path d="M 110,385 C 148,374 186,362 224,348 C 276,329 300,362 345,368 C 390,374 420,340 465,318 C 505,298 535,326 575,322 C 615,318 650,300 690,286 C 725,274 745,272 770,266 C 810,256 838,248 866,240" fill="none" stroke="#B4A47C" stroke-width="24" stroke-linecap="round" transform="translate(0,6)"/>
<path d="M 110,385 C 148,374 186,362 224,348 C 276,329 300,362 345,368 C 390,374 420,340 465,318 C 505,298 535,326 575,322 C 615,318 650,300 690,286 C 725,274 745,272 770,266 C 810,256 838,248 866,240" fill="none" stroke="#EAE0C6" stroke-width="24" stroke-linecap="round"/>
<path d="M 111,387 C 149,375 185,360 225,349 C 274,331 302,364 344,367 C 388,372 422,338 464,319 C 506,296 533,328 576,323 C 614,320 652,298 689,287 C 726,272 744,273 771,265 C 809,257 839,247 866,241" fill="none" stroke="#EAE0C6" stroke-width="27" stroke-linecap="round" opacity="0.35"/>
<path d="M 110,386 C 147,373 187,361 224,349 C 275,330 301,363 345,367 C 389,373 421,339 465,319 C 504,297 536,327 575,321 C 616,317 651,299 690,287 C 724,273 746,271 770,265 C 811,255 837,249 866,239" fill="none" stroke="#E7DDC0" stroke-width="12" stroke-linecap="round"/>
<ellipse cx="128" cy="381" rx="6.5" ry="4.2" fill="#D6C9A2"/><ellipse cx="150" cy="374" rx="6.5" ry="4.2" fill="#D6C9A2"/><ellipse cx="196" cy="357" rx="6.5" ry="4.2" fill="#D6C9A2"/><ellipse cx="242" cy="343" rx="6.5" ry="4.2" fill="#D6C9A2"/><ellipse cx="288" cy="349" rx="6.5" ry="4.2" fill="#D6C9A2"/><ellipse cx="332" cy="364" rx="6.5" ry="4.2" fill="#D6C9A2"/><ellipse cx="377" cy="368" rx="6.5" ry="4.2" fill="#D6C9A2"/><ellipse cx="413" cy="352" rx="6.5" ry="4.2" fill="#D6C9A2"/><ellipse cx="452" cy="326" rx="6.5" ry="4.2" fill="#D6C9A2"/><ellipse cx="492" cy="311" rx="6.5" ry="4.2" fill="#D6C9A2"/><ellipse cx="521" cy="314" rx="6.5" ry="4.2" fill="#D6C9A2"/><ellipse cx="553" cy="322" rx="6.5" ry="4.2" fill="#D6C9A2"/><ellipse cx="590" cy="319" rx="6.5" ry="4.2" fill="#D6C9A2"/><ellipse cx="633" cy="308" rx="6.5" ry="4.2" fill="#D6C9A2"/><ellipse cx="672" cy="292" rx="6.5" ry="4.2" fill="#D6C9A2"/><ellipse cx="712" cy="279" rx="6.5" ry="4.2" fill="#D6C9A2"/><ellipse cx="748" cy="270" rx="6.5" ry="4.2" fill="#D6C9A2"/><ellipse cx="800" cy="257" rx="6.5" ry="4.2" fill="#D6C9A2"/><ellipse cx="845" cy="246" rx="6.5" ry="4.2" fill="#D6C9A2"/>
<g transform="translate(-15,-22)"><g opacity="0.8"><circle cx="345" cy="245.8" r="27.6" fill="#DFD2AE"/><circle cx="369" cy="265" r="27.6" fill="#DFD2AE"/><circle cx="345" cy="284.2" r="27.6" fill="#DFD2AE"/><circle cx="321" cy="265" r="27.6" fill="#DFD2AE"/><rect x="321" y="245.8" width="48" height="38.4" rx="9.6" fill="#DFD2AE"/></g><g><circle cx="345" cy="242.8" r="27.6" fill="#E8DCBE"/><circle cx="369" cy="262" r="27.6" fill="#E8DCBE"/><circle cx="345" cy="281.2" r="27.6" fill="#E8DCBE"/><circle cx="321" cy="262" r="27.6" fill="#E8DCBE"/><rect x="321" y="242.8" width="48" height="38.4" rx="9.6" fill="#E8DCBE"/></g><ellipse cx="380.6" cy="272.6" rx="5.5" ry="3.6" fill="#D6C9A2" opacity="0.8"/><ellipse cx="367.3" cy="290.8" rx="5.5" ry="3.6" fill="#D6C9A2" opacity="0.8"/><ellipse cx="345.5" cy="298" rx="5.5" ry="3.6" fill="#D6C9A2" opacity="0.8"/><ellipse cx="323.5" cy="291.4" rx="5.5" ry="3.6" fill="#D6C9A2" opacity="0.8"/><ellipse cx="309.7" cy="273.6" rx="5.5" ry="3.6" fill="#D6C9A2" opacity="0.8"/><ellipse cx="309.4" cy="251.4" rx="5.5" ry="3.6" fill="#D6C9A2" opacity="0.8"/><ellipse cx="322.7" cy="233.2" rx="5.5" ry="3.6" fill="#D6C9A2" opacity="0.8"/><ellipse cx="344.5" cy="226" rx="5.5" ry="3.6" fill="#D6C9A2" opacity="0.8"/><ellipse cx="366.5" cy="232.6" rx="5.5" ry="3.6" fill="#D6C9A2" opacity="0.8"/><ellipse cx="380.3" cy="250.4" rx="5.5" ry="3.6" fill="#D6C9A2" opacity="0.8"/><g><circle cx="345" cy="247" r="23" fill="#B7A177"/><circle cx="365" cy="263" r="23" fill="#B7A177"/><circle cx="345" cy="279" r="23" fill="#B7A177"/><circle cx="325" cy="263" r="23" fill="#B7A177"/><rect x="325" y="247" width="40" height="32" rx="8" fill="#B7A177"/></g><g><circle cx="345" cy="244" r="23" fill="#ECDFBE"/><circle cx="365" cy="260" r="23" fill="#ECDFBE"/><circle cx="345" cy="276" r="23" fill="#ECDFBE"/><circle cx="325" cy="260" r="23" fill="#ECDFBE"/><rect x="325" y="244" width="40" height="32" rx="8" fill="#ECDFBE"/></g><g><circle cx="345" cy="245.96" r="18.4" fill="#CDB992"/><circle cx="363.8" cy="261" r="18.4" fill="#CDB992"/><circle cx="345" cy="276.04" r="18.4" fill="#CDB992"/><circle cx="326.2" cy="261" r="18.4" fill="#CDB992"/><rect x="326.2" y="246" width="37.6" height="30.1" rx="7.5" fill="#CDB992"/></g><g><circle cx="345" cy="247.92" r="14.3" fill="#57A79E"/><circle cx="362.6" cy="262" r="14.3" fill="#57A79E"/><circle cx="345" cy="276.08" r="14.3" fill="#57A79E"/><circle cx="327.4" cy="262" r="14.3" fill="#57A79E"/><rect x="327.4" y="247.9" width="35.2" height="28.2" rx="7" fill="#57A79E"/></g><g><circle cx="345" cy="250.88" r="12" fill="#8FCFC2"/><circle cx="361.4" cy="264" r="12" fill="#8FCFC2"/><circle cx="345" cy="277.12" r="12" fill="#8FCFC2"/><circle cx="328.6" cy="264" r="12" fill="#8FCFC2"/><rect x="328.6" y="250.9" width="32.8" height="26.2" rx="6.6" fill="#8FCFC2"/></g><ellipse cx="339" cy="266.7" rx="11.5" ry="6" fill="#BFE8DC" opacity="0.55"/></g>
<g transform="translate(455,248) rotate(4)"><rect x="-34" y="-19" width="68" height="38" rx="13" fill="#ECDFBE"/><rect x="-34" y="-15" width="68" height="38" rx="13" fill="#CDB992" opacity="0.55"/><rect x="-29" y="-14" width="58" height="28" rx="9" fill="#C4A981"/><ellipse cx="-19" cy="-5" rx="5.2" ry="3.6" fill="#6FAA58"/><ellipse cx="0" cy="-5" rx="5.2" ry="3.6" fill="#98CB77"/><ellipse cx="19" cy="-5" rx="5.2" ry="3.6" fill="#6FAA58"/><circle cx="16.2" cy="-4.5" r="2.6" fill="#F2C46E"/></g>
<g transform="translate(222,306) rotate(-6) scale(0.78)"><rect x="-34" y="-19" width="68" height="38" rx="13" fill="#ECDFBE"/><rect x="-34" y="-15" width="68" height="38" rx="13" fill="#CDB992" opacity="0.55"/><rect x="-29" y="-14" width="58" height="28" rx="9" fill="#C4A981"/><ellipse cx="-19" cy="-5" rx="5.2" ry="3.6" fill="#6FAA58"/><ellipse cx="0" cy="-5" rx="5.2" ry="3.6" fill="#98CB77"/><ellipse cx="19" cy="-5" rx="5.2" ry="3.6" fill="#6FAA58"/><circle cx="16.2" cy="-4.5" r="2.6" fill="#F2C46E"/></g>
<g transform="translate(665,330) rotate(7) scale(0.72)"><rect x="-34" y="-19" width="68" height="38" rx="13" fill="#ECDFBE"/><rect x="-34" y="-15" width="68" height="38" rx="13" fill="#CDB992" opacity="0.55"/><rect x="-29" y="-14" width="58" height="28" rx="9" fill="#C4A981"/><ellipse cx="-19" cy="-5" rx="5.2" ry="3.6" fill="#6FAA58"/><ellipse cx="0" cy="-5" rx="5.2" ry="3.6" fill="#98CB77"/><ellipse cx="19" cy="-5" rx="5.2" ry="3.6" fill="#6FAA58"/><circle cx="16.2" cy="-4.5" r="2.6" fill="#F2C46E"/></g>
<g><ellipse cx="300" cy="195" rx="16.5" ry="6.9" fill="#CBBC97"/><ellipse cx="300" cy="194" rx="12.5" ry="5" fill="#C4A981"/><ellipse cx="305.3" cy="197" rx="13.5" ry="5" fill="#4E8746" opacity="0.22"/><rect x="297" y="177" width="6" height="19.5" rx="3" fill="#8A6B4F"/><circle cx="302.3" cy="169.6" r="13.5" fill="#4E8746"/><circle cx="298.5" cy="166.6" r="11.9" fill="#6FAA58"/><ellipse cx="294.9" cy="164.7" rx="5.9" ry="4.6" fill="#98CB77"/><circle cx="293.9" cy="167.9" r="2.7" fill="#F2C46E"/><circle cx="303.9" cy="160.7" r="2.7" fill="#F2C46E"/><circle cx="310.1" cy="170.9" r="2.7" fill="#F2C46E"/></g>
<g><ellipse cx="215" cy="255" rx="15" ry="6.3" fill="#CBBC97"/><ellipse cx="215" cy="254" rx="11.4" ry="4.6" fill="#C4A981"/><ellipse cx="219.8" cy="257" rx="12.2" ry="4.6" fill="#4E8746" opacity="0.22"/><rect x="212.3" y="238.7" width="5.4" height="17.7" rx="2.7" fill="#8A6B4F"/><circle cx="217" cy="231.9" r="12.2" fill="#4E8746"/><circle cx="213.6" cy="229.2" r="10.7" fill="#6FAA58"/><ellipse cx="210.4" cy="227.5" rx="5.4" ry="4.1" fill="#98CB77"/><circle cx="209.4" cy="230.5" r="2.5" fill="#F2C46E"/><circle cx="218.5" cy="223.9" r="2.5" fill="#F2C46E"/></g>
<g><ellipse cx="560" cy="182" rx="15.8" ry="6.6" fill="#CBBC97"/><ellipse cx="560" cy="181" rx="12" ry="4.8" fill="#C4A981"/><ellipse cx="565" cy="184" rx="13" ry="4.8" fill="#4E8746" opacity="0.22"/><rect x="557.1" y="164.7" width="5.8" height="18.7" rx="2.9" fill="#8A6B4F"/><circle cx="562.2" cy="157.6" r="13" fill="#4E8746"/><circle cx="558.6" cy="154.7" r="11.4" fill="#6FAA58"/><ellipse cx="555.1" cy="152.9" rx="5.7" ry="4.4" fill="#98CB77"/><circle cx="554.1" cy="156" r="2.6" fill="#F2C46E"/><circle cx="563.7" cy="149" r="2.6" fill="#F2C46E"/><circle cx="569.6" cy="158.9" r="2.6" fill="#F2C46E"/></g>
<g><ellipse cx="475" cy="195" rx="17.6" ry="7.4" fill="#CBBC97"/><ellipse cx="475" cy="194" rx="13.4" ry="5.4" fill="#C4A981"/><ellipse cx="480.6" cy="197" rx="14.4" ry="5.4" fill="#4E8746" opacity="0.22"/><rect x="471.8" y="175.8" width="6.4" height="20.8" rx="3.2" fill="#8A6B4F"/><circle cx="477.4" cy="167.9" r="14.4" fill="#4E8746"/><circle cx="473.4" cy="164.7" r="12.6" fill="#6FAA58"/><ellipse cx="469.6" cy="162.7" rx="6.3" ry="4.9" fill="#98CB77"/><circle cx="468.4" cy="166.1" r="2.8" fill="#F2C46E"/><circle cx="479.2" cy="158.4" r="2.8" fill="#F2C46E"/><circle cx="485.7" cy="169.3" r="2.8" fill="#F2C46E"/></g>
<g><ellipse cx="525" cy="232" rx="24.6" ry="10.3" fill="#CBBC97"/><ellipse cx="525" cy="231" rx="18.7" ry="7.5" fill="#C4A981"/><ellipse cx="532.8" cy="234" rx="20.2" ry="7.5" fill="#4E8746" opacity="0.22"/><rect x="520.5" y="205.1" width="9" height="29.1" rx="4.5" fill="#8A6B4F"/><circle cx="528.4" cy="194" r="20.2" fill="#4E8746"/><circle cx="522.8" cy="189.6" r="17.7" fill="#6FAA58"/><ellipse cx="517.4" cy="186.8" rx="8.8" ry="6.8" fill="#98CB77"/><circle cx="515.8" cy="191.6" r="3.6" fill="#F2C46E"/><circle cx="530.8" cy="180.7" r="3.6" fill="#F2C46E"/><circle cx="540" cy="196" r="3.6" fill="#F2C46E"/><circle cx="525.6" cy="204.1" r="3.6" fill="#F2C46E"/></g>
<g><ellipse cx="630" cy="240" rx="22" ry="9.2" fill="#CBBC97"/><ellipse cx="630" cy="239" rx="16.7" ry="6.7" fill="#C4A981"/><ellipse cx="637" cy="242" rx="18" ry="6.7" fill="#4E8746" opacity="0.22"/><rect x="626" y="216" width="8" height="26" rx="4" fill="#8A6B4F"/><circle cx="633" cy="206.1" r="18" fill="#4E8746"/><circle cx="628" cy="202.1" r="15.8" fill="#6FAA58"/><ellipse cx="623.2" cy="199.6" rx="7.9" ry="6.1" fill="#98CB77"/><circle cx="621.8" cy="203.9" r="3.4" fill="#F2C46E"/><circle cx="635.2" cy="194.2" r="3.4" fill="#F2C46E"/><circle cx="643.4" cy="207.9" r="3.4" fill="#F2C46E"/><circle cx="630.5" cy="215.1" r="3.4" fill="#F2C46E"/></g>
<g><ellipse cx="700" cy="258" rx="18.7" ry="7.8" fill="#CBBC97"/><ellipse cx="700" cy="257" rx="14.2" ry="5.7" fill="#C4A981"/><ellipse cx="705.9" cy="260" rx="15.3" ry="5.7" fill="#4E8746" opacity="0.22"/><rect x="696.6" y="237.6" width="6.8" height="22.1" rx="3.4" fill="#8A6B4F"/><circle cx="702.6" cy="229.2" r="15.3" fill="#4E8746"/><circle cx="698.3" cy="225.8" r="13.4" fill="#6FAA58"/><ellipse cx="694.2" cy="223.7" rx="6.7" ry="5.2" fill="#98CB77"/><circle cx="693" cy="227.3" r="3" fill="#F2C46E"/><circle cx="704.4" cy="219.1" r="3" fill="#F2C46E"/><circle cx="711.4" cy="230.7" r="3" fill="#F2C46E"/></g>
<g><ellipse cx="600" cy="356" rx="15" ry="6.3" fill="#CBBC97"/><ellipse cx="600" cy="355" rx="11.4" ry="4.6" fill="#C4A981"/><ellipse cx="604.8" cy="358" rx="12.2" ry="4.6" fill="#4E8746" opacity="0.22"/><rect x="597.3" y="339.7" width="5.4" height="17.7" rx="2.7" fill="#8A6B4F"/><circle cx="602" cy="332.9" r="12.2" fill="#4E8746"/><circle cx="598.6" cy="330.2" r="10.7" fill="#6FAA58"/><ellipse cx="595.4" cy="328.5" rx="5.4" ry="4.1" fill="#98CB77"/><circle cx="594.4" cy="331.5" r="2.5" fill="#F2C46E"/><circle cx="603.5" cy="324.9" r="2.5" fill="#F2C46E"/></g>
<g><ellipse cx="435" cy="378" rx="13.2" ry="5.5" fill="#CBBC97"/><ellipse cx="435" cy="377" rx="10" ry="4" fill="#C4A981"/><ellipse cx="439.2" cy="380" rx="10.8" ry="4" fill="#4E8746" opacity="0.22"/><rect x="432.6" y="363.6" width="4.8" height="15.6" rx="2.4" fill="#8A6B4F"/><circle cx="436.8" cy="357.7" r="10.8" fill="#4E8746"/><circle cx="433.8" cy="355.3" r="9.5" fill="#6FAA58"/><ellipse cx="430.9" cy="353.8" rx="4.7" ry="3.7" fill="#98CB77"/><circle cx="430.1" cy="356.3" r="2.3" fill="#F2C46E"/><circle cx="438.1" cy="350.5" r="2.3" fill="#F2C46E"/></g>
<g><ellipse cx="255" cy="215" rx="4" ry="2.6" fill="#699F63" opacity="0.5"/><ellipse cx="264" cy="217" rx="5" ry="3" fill="#699F63" opacity="0.4"/><ellipse cx="260" cy="212" rx="4.5" ry="2.8" fill="#98CB77" opacity="0.55"/></g>
<g><ellipse cx="415" cy="195" rx="4" ry="2.6" fill="#699F63" opacity="0.5"/><ellipse cx="424" cy="197" rx="5" ry="3" fill="#699F63" opacity="0.4"/><ellipse cx="420" cy="192" rx="4.5" ry="2.8" fill="#98CB77" opacity="0.55"/></g>
<g><ellipse cx="390" cy="300" rx="4" ry="2.6" fill="#699F63" opacity="0.5"/><ellipse cx="399" cy="302" rx="5" ry="3" fill="#699F63" opacity="0.4"/><ellipse cx="395" cy="297" rx="4.5" ry="2.8" fill="#98CB77" opacity="0.55"/></g>
<g><ellipse cx="585" cy="268" rx="4" ry="2.6" fill="#699F63" opacity="0.5"/><ellipse cx="594" cy="270" rx="5" ry="3" fill="#699F63" opacity="0.4"/><ellipse cx="590" cy="265" rx="4.5" ry="2.8" fill="#98CB77" opacity="0.55"/></g>
<g><ellipse cx="268" cy="318" rx="4" ry="2.6" fill="#699F63" opacity="0.5"/><ellipse cx="277" cy="320" rx="5" ry="3" fill="#699F63" opacity="0.4"/><ellipse cx="273" cy="315" rx="4.5" ry="2.8" fill="#98CB77" opacity="0.55"/></g>
<g><ellipse cx="475" cy="285" rx="4" ry="2.6" fill="#699F63" opacity="0.5"/><ellipse cx="484" cy="287" rx="5" ry="3" fill="#699F63" opacity="0.4"/><ellipse cx="480" cy="282" rx="4.5" ry="2.8" fill="#98CB77" opacity="0.55"/></g>
<g><ellipse cx="300" cy="377" rx="4" ry="2.6" fill="#699F63" opacity="0.5"/><ellipse cx="309" cy="379" rx="5" ry="3" fill="#699F63" opacity="0.4"/><ellipse cx="305" cy="374" rx="4.5" ry="2.8" fill="#98CB77" opacity="0.55"/></g>
<g><ellipse cx="510" cy="352" rx="4" ry="2.6" fill="#699F63" opacity="0.5"/><ellipse cx="519" cy="354" rx="5" ry="3" fill="#699F63" opacity="0.4"/><ellipse cx="515" cy="349" rx="4.5" ry="2.8" fill="#98CB77" opacity="0.55"/></g>
<g><ellipse cx="700" cy="310" rx="4" ry="2.6" fill="#699F63" opacity="0.5"/><ellipse cx="709" cy="312" rx="5" ry="3" fill="#699F63" opacity="0.4"/><ellipse cx="705" cy="307" rx="4.5" ry="2.8" fill="#98CB77" opacity="0.55"/></g>
<g><ellipse cx="395" cy="383" rx="4" ry="2.6" fill="#699F63" opacity="0.5"/><ellipse cx="404" cy="385" rx="5" ry="3" fill="#699F63" opacity="0.4"/><ellipse cx="400" cy="380" rx="4.5" ry="2.8" fill="#98CB77" opacity="0.55"/></g>
</g>
<g><ellipse cx="330" cy="300" rx="4" ry="2.6" fill="#699F63" opacity="0.5"/><ellipse cx="339" cy="302" rx="5" ry="3" fill="#699F63" opacity="0.4"/><ellipse cx="335" cy="295" rx="4.5" ry="2.8" fill="#98CB77" opacity="0.55"/></g>
<g><ellipse cx="560" cy="248" rx="4" ry="2.6" fill="#699F63" opacity="0.5"/><ellipse cx="569" cy="250" rx="5" ry="3" fill="#699F63" opacity="0.4"/><ellipse cx="565" cy="243" rx="4.5" ry="2.8" fill="#98CB77" opacity="0.55"/></g>
<g><ellipse cx="662" cy="252" rx="4" ry="2.6" fill="#699F63" opacity="0.5"/><ellipse cx="671" cy="254" rx="5" ry="3" fill="#699F63" opacity="0.4"/><ellipse cx="667" cy="247" rx="4.5" ry="2.8" fill="#98CB77" opacity="0.55"/></g>
<g><ellipse cx="480" cy="368" rx="4" ry="2.6" fill="#699F63" opacity="0.5"/><ellipse cx="489" cy="370" rx="5" ry="3" fill="#699F63" opacity="0.4"/><ellipse cx="485" cy="363" rx="4.5" ry="2.8" fill="#98CB77" opacity="0.55"/></g>
<g><ellipse cx="622" cy="334" rx="4" ry="2.6" fill="#699F63" opacity="0.5"/><ellipse cx="631" cy="336" rx="5" ry="3" fill="#699F63" opacity="0.4"/><ellipse cx="627" cy="329" rx="4.5" ry="2.8" fill="#98CB77" opacity="0.55"/></g>
<g opacity="0.92"><ellipse cx="195" cy="392" rx="85" ry="22" fill="#FDF6E4"/><ellipse cx="151" cy="382" rx="44" ry="16" fill="#FDF6E4"/><ellipse cx="227" cy="380" rx="50" ry="17.5" fill="#FDF6E4"/><ellipse cx="204" cy="398" rx="73" ry="16" fill="#F4EFD8"/></g>
<g opacity="0.9"><ellipse cx="690" cy="378" rx="95" ry="24.5" fill="#FDF6E4"/><ellipse cx="641" cy="367" rx="49" ry="18" fill="#FDF6E4"/><ellipse cx="726" cy="365" rx="56" ry="19.5" fill="#FDF6E4"/><ellipse cx="700" cy="384" rx="82" ry="18" fill="#F4EFD8"/></g>
<g opacity="0.95"><ellipse cx="450" cy="442" rx="120" ry="29" fill="#FDF6E4"/><ellipse cx="388" cy="430" rx="62" ry="21" fill="#FDF6E4"/><ellipse cx="496" cy="428" rx="70" ry="24" fill="#FDF6E4"/><ellipse cx="462" cy="449" rx="103" ry="21" fill="#F4EFD8"/></g>
<g opacity="0.95"><ellipse cx="85" cy="354" rx="52" ry="13.5" fill="#FDF6E4"/><ellipse cx="58" cy="348" rx="27" ry="10" fill="#FDF6E4"/><ellipse cx="105" cy="347" rx="30" ry="10.8" fill="#FDF6E4"/><ellipse cx="90" cy="358" rx="45" ry="10" fill="#F4EFD8"/></g>
<g opacity="0.9"><ellipse cx="55" cy="368" rx="34" ry="8.5" fill="#FDF6E4"/><ellipse cx="40" cy="372" rx="24" ry="7" fill="#F4EFD8"/></g>
<g opacity="0.95"><ellipse cx="866" cy="208" rx="48" ry="12" fill="#FDF6E4"/><ellipse cx="845" cy="202" rx="25" ry="9" fill="#FDF6E4"/><ellipse cx="886" cy="201" rx="28" ry="9.6" fill="#FDF6E4"/><ellipse cx="872" cy="212" rx="42" ry="9" fill="#F4EFD8"/></g>
<g opacity="0.85"><ellipse cx="884" cy="222" rx="32" ry="8" fill="#FDF6E4"/><ellipse cx="872" cy="226" rx="22" ry="6.4" fill="#F4EFD8"/></g>
</svg>
