<svg viewBox="0 0 900 520" xmlns="http://www.w3.org/2000/svg">
<defs>
<linearGradient id="skyB" x1="0" y1="0" x2="0" y2="1"><stop offset="0" stop-color="#A3CBAB"/><stop offset="0.48" stop-color="#DCE8B4"/><stop offset="1" stop-color="#FBE7AE"/></linearGradient>
<linearGradient id="grassB" x1="0" y1="0" x2="0.25" y2="1"><stop offset="0" stop-color="#A4D384"/><stop offset="1" stop-color="#7CB863"/></linearGradient>
</defs>
<rect x="0" y="0" width="900" height="520" fill="url(#skyB)"/>
<ellipse cx="180" cy="66" rx="170" ry="70" fill="#FBE7AE" opacity="0.18"/>
<ellipse cx="180" cy="66" rx="95" ry="40" fill="#FDF6E4" opacity="0.14"/>
<g opacity="0.8">
<ellipse cx="790" cy="150" rx="69.6" ry="18" fill="#FDF6E4"/>
<ellipse cx="754" cy="141.6" rx="36" ry="13.2" fill="#FDF6E4"/>
<ellipse cx="816.4" cy="140.4" rx="40.8" ry="14.4" fill="#FDF6E4"/>
<ellipse cx="797.2" cy="154.8" rx="60" ry="13.2" fill="#F4EFD8"/>
</g>
<g opacity="0.75">
<ellipse cx="96" cy="226" rx="58" ry="15" fill="#FDF6E4"/>
<ellipse cx="66" cy="219" rx="30" ry="11" fill="#FDF6E4"/>
<ellipse cx="118" cy="218" rx="34" ry="12" fill="#FDF6E4"/>
<ellipse cx="102" cy="230" rx="50" ry="11" fill="#F4EFD8"/>
</g>
<g opacity="0.55">
<ellipse cx="660" cy="58" rx="46.4" ry="12" fill="#FDF6E4"/>
<ellipse cx="636" cy="52.4" rx="24" ry="8.8" fill="#FDF6E4"/>
<ellipse cx="677.6" cy="51.6" rx="27.2" ry="9.6" fill="#FDF6E4"/>
<ellipse cx="664.8" cy="61.2" rx="40" ry="8.8" fill="#F4EFD8"/>
</g>
<g opacity="0.6">
<ellipse cx="64" cy="430" rx="49.3" ry="12.8" fill="#FDF6E4"/>
<ellipse cx="38.5" cy="424.1" rx="25.5" ry="9.4" fill="#FDF6E4"/>
<ellipse cx="82.7" cy="423.2" rx="28.9" ry="10.2" fill="#FDF6E4"/>
<ellipse cx="69.1" cy="433.4" rx="42.5" ry="9.4" fill="#F4EFD8"/>
</g>
<g opacity="0.6">
<ellipse cx="846" cy="330" rx="43.5" ry="11.3" fill="#FDF6E4"/>
<ellipse cx="823.5" cy="324.8" rx="22.5" ry="8.3" fill="#FDF6E4"/>
<ellipse cx="862.5" cy="324" rx="25.5" ry="9" fill="#FDF6E4"/>
<ellipse cx="850.5" cy="333" rx="37.5" ry="8.3" fill="#F4EFD8"/>
</g>
<path d="M 648.9,400.2 C 648.4,406.5 634.4,413.8 619.4,419.1 C 604.4,424.4 580.8,428.3 559.1,432 C 537.5,435.6 515.1,438.9 489.5,441 C 463.8,443 432.6,445.1 405.2,444.3 C 377.9,443.4 345.8,440.1 325.5,435.8 C 305.2,431.5 292.1,424.5 283.4,418.5 C 274.6,412.6 273.4,406.4 272.9,400.2 C 272.4,394 272,387.5 280.6,381.6 C 289.3,375.6 303.8,368.5 324.7,364.3 C 345.5,360.2 378.4,357.4 405.8,356.7 C 433.2,355.9 463.2,358.1 488.9,360 C 514.6,361.9 537.7,364.7 559.9,368.2 C 582.2,371.7 607.3,375.7 622.1,381 C 637,386.4 649.4,393.9 648.9,400.2 Z" fill="#B08A60"/><path d="M 581.9,430.2 C 584.2,435.7 581.9,442.6 573.2,447.5 C 564.6,452.5 546.3,456.8 530.1,459.7 C 513.9,462.5 494.3,463.6 476.1,464.6 C 457.9,465.6 439.7,466.3 421,465.7 C 402.4,465.1 380.1,464.1 364.2,461 C 348.4,457.9 333,452.5 326.1,447.4 C 319.1,442.2 320.3,435.6 322.5,430.2 C 324.7,424.8 331.8,419.8 339.5,414.9 C 347.1,410 355.2,404.8 368.4,400.9 C 381.5,397 400,392.7 418.4,391.3 C 436.8,389.9 460.8,390.6 478.7,392.4 C 496.7,394.2 512.5,398.5 526,402.2 C 539.5,405.9 550.5,410.1 559.8,414.7 C 569.1,419.4 579.7,424.7 581.9,430.2 Z" fill="#96714E"/><path d="M 511.1,462.2 C 510.2,465.2 505.1,468.2 500.7,470.8 C 496.3,473.3 490.8,475.5 484.5,477.5 C 478.2,479.5 471,481.8 462.7,482.8 C 454.4,483.8 443.3,484.4 434.8,483.6 C 426.2,482.9 417.4,480.6 411.3,478.5 C 405.2,476.3 401.5,473.3 398.1,470.6 C 394.7,467.9 391.8,465.2 390.8,462.2 C 389.9,459.2 389.2,455.7 392.3,452.8 C 395.4,450 402.2,446.9 409.5,445.2 C 416.8,443.4 427.2,442.8 435.9,442.5 C 444.6,442.2 453.1,442.7 461.5,443.3 C 469.9,443.9 478.8,444.6 486.3,446.1 C 493.8,447.7 502.3,450 506.5,452.7 C 510.6,455.4 512.1,459.2 511.1,462.2 Z" fill="#7E5E41"/>
<ellipse cx="368" cy="392" rx="50" ry="7" fill="#C4A981" opacity="0.45"/>
<ellipse cx="540" cy="396" rx="40" ry="7" fill="#C4A981" opacity="0.4"/>
<ellipse cx="448" cy="436" rx="40" ry="6" fill="#CBBC97" opacity="0.45"/>
<path d="M 679.9,288 C 680.9,295.7 687.3,302.7 691.1,311.4 C 695,320 703.5,330.2 703.2,339.8 C 702.9,349.4 699.9,360.9 689.3,369 C 678.6,377 659.3,384.4 639.4,388.2 C 619.6,392 592.5,392.2 570.3,391.7 C 548.1,391.3 525.6,387.1 506.4,385.5 C 487.1,383.9 472.3,381.7 455,381.9 C 437.7,382.2 422.5,385 402.8,387 C 383.2,389 359.9,393.4 337.3,393.9 C 314.7,394.4 287.1,394 267.3,390 C 247.6,385.9 228.7,378 218.8,369.6 C 208.9,361.2 207.2,349.3 208,339.5 C 208.7,329.8 218.6,319.5 223.2,310.9 C 227.9,302.3 234.8,295.5 235.9,288 C 236.9,280.5 232.8,274 229.6,265.7 C 226.5,257.4 217.8,247.8 217.2,238.4 C 216.7,228.9 217.4,217.4 226.2,208.9 C 235,200.5 251.8,192.2 270.2,187.6 C 288.5,182.9 314.5,181.5 336.3,181.2 C 358.1,180.8 381.2,184.1 401,185.5 C 420.8,186.9 437.1,189.3 455,189.5 C 472.9,189.8 488.8,188.1 508.2,187 C 527.6,186 549.9,183 571.3,183.3 C 592.7,183.7 618.2,184.9 636.6,189.3 C 655,193.7 672.3,201.5 681.8,209.6 C 691.4,217.7 693.4,228.9 693.9,238.1 C 694.4,247.4 687.1,257 684.7,265.3 C 682.4,273.6 678.8,280.3 679.9,288 Z" fill="#B7A177"/>
<path d="M 679.9,274.5 C 680.9,282.2 687.3,289.2 691.1,297.9 C 695,306.5 703.5,316.7 703.2,326.3 C 702.9,335.9 699.9,347.4 689.3,355.5 C 678.6,363.5 659.3,370.9 639.4,374.7 C 619.6,378.5 592.5,378.7 570.3,378.2 C 548.1,377.8 525.6,373.6 506.4,372 C 487.1,370.4 472.3,368.2 455,368.4 C 437.7,368.7 422.5,371.5 402.8,373.5 C 383.2,375.5 359.9,379.9 337.3,380.4 C 314.7,380.9 287.1,380.5 267.3,376.5 C 247.6,372.4 228.7,364.5 218.8,356.1 C 208.9,347.7 207.2,335.8 208,326 C 208.7,316.3 218.6,306 223.2,297.4 C 227.9,288.8 234.8,282 235.9,274.5 C 236.9,267 232.8,260.5 229.6,252.2 C 226.5,243.9 217.8,234.3 217.2,224.9 C 216.7,215.4 217.4,203.9 226.2,195.4 C 235,187 251.8,178.7 270.2,174.1 C 288.5,169.4 314.5,168 336.3,167.7 C 358.1,167.3 381.2,170.6 401,172 C 420.8,173.4 437.1,175.8 455,176 C 472.9,176.3 488.8,174.6 508.2,173.5 C 527.6,172.5 549.9,169.5 571.3,169.8 C 592.7,170.2 618.2,171.4 636.6,175.8 C 655,180.2 672.3,188 681.8,196.1 C 691.4,204.2 693.4,215.4 693.9,224.6 C 694.4,233.9 687.1,243.5 684.7,251.8 C 682.4,260.1 678.8,266.8 679.9,274.5 Z" fill="#CDB992"/>
<path d="M 679.9,258 C 680.9,265.7 687.3,272.7 691.1,281.4 C 695,290 703.5,300.2 703.2,309.8 C 702.9,319.4 699.9,330.9 689.3,339 C 678.6,347 659.3,354.4 639.4,358.2 C 619.6,362 592.5,362.2 570.3,361.7 C 548.1,361.3 525.6,357.1 506.4,355.5 C 487.1,353.9 472.3,351.7 455,351.9 C 437.7,352.2 422.5,355 402.8,357 C 383.2,359 359.9,363.4 337.3,363.9 C 314.7,364.4 287.1,364 267.3,360 C 247.6,355.9 228.7,348 218.8,339.6 C 208.9,331.2 207.2,319.3 208,309.5 C 208.7,299.8 218.6,289.5 223.2,280.9 C 227.9,272.3 234.8,265.5 235.9,258 C 236.9,250.5 232.8,244 229.6,235.7 C 226.5,227.4 217.8,217.8 217.2,208.4 C 216.7,198.9 217.4,187.4 226.2,178.9 C 235,170.5 251.8,162.2 270.2,157.6 C 288.5,152.9 314.5,151.5 336.3,151.2 C 358.1,150.8 381.2,154.1 401,155.5 C 420.8,156.9 437.1,159.3 455,159.5 C 472.9,159.8 488.8,158.1 508.2,157 C 527.6,156 549.9,153 571.3,153.3 C 592.7,153.7 618.2,154.9 636.6,159.3 C 655,163.7 672.3,171.5 681.8,179.6 C 691.4,187.7 693.4,198.9 693.9,208.1 C 694.4,217.4 687.1,227 684.7,235.3 C 682.4,243.6 678.8,250.3 679.9,258 Z" fill="#ECDFBE"/>
<path d="M 666.4,254 C 667.4,261.2 673.3,267.8 677,276 C 680.6,284.1 688.6,293.7 688.3,302.7 C 688,311.7 685.2,322.5 675.2,330.1 C 665.2,337.7 647,344.6 628.4,348.2 C 609.7,351.8 584.2,351.9 563.4,351.5 C 542.5,351.1 521.3,347.2 503.3,345.6 C 485.2,344.1 471.2,342 455,342.3 C 438.8,342.5 424.4,345.2 406,347.1 C 387.5,349 365.6,353.1 344.3,353.6 C 323.1,354 297.1,353.7 278.6,349.9 C 260,346.1 242.3,338.6 233,330.7 C 223.7,322.8 222.1,311.7 222.8,302.5 C 223.5,293.3 232.8,283.6 237.1,275.5 C 241.5,267.5 248,261.1 249,254 C 250,246.9 246.1,240.8 243.2,233 C 240.2,225.3 232,216.3 231.5,207.4 C 231,198.5 231.6,187.6 239.9,179.7 C 248.2,171.7 264,163.9 281.3,159.6 C 298.5,155.2 322.9,153.9 343.4,153.6 C 363.9,153.2 385.7,156.4 404.3,157.7 C 422.9,159 438.2,161.2 455,161.4 C 471.8,161.7 486.8,160.1 505,159.1 C 523.2,158.1 544.2,155.3 564.3,155.6 C 584.4,156 608.4,157.1 625.7,161.2 C 643,165.4 659.3,172.7 668.2,180.3 C 677.2,188 679.1,198.4 679.6,207.1 C 680,215.9 673.2,224.8 671,232.6 C 668.8,240.5 665.4,246.8 666.4,254 Z" fill="url(#grassB)"/>
<rect x="698.5" y="304.2" width="5" height="13" rx="2.5" fill="#B9A87C" opacity="0.55"/><rect x="700.8" y="317" width="5" height="13" rx="2.5" fill="#B9A87C" opacity="0.55"/><rect x="697.8" y="329.8" width="5" height="13" rx="2.5" fill="#B9A87C" opacity="0.55"/><rect x="688.1" y="341.8" width="5" height="13" rx="2.5" fill="#B9A87C" opacity="0.55"/><rect x="671.6" y="352" width="5" height="13" rx="2.5" fill="#B9A87C" opacity="0.55"/><rect x="648.8" y="359.7" width="5" height="13" rx="2.5" fill="#B9A87C" opacity="0.55"/><rect x="621.5" y="364.4" width="5" height="13" rx="2.5" fill="#B9A87C" opacity="0.55"/><rect x="591.8" y="366.2" width="5" height="13" rx="2.5" fill="#B9A87C" opacity="0.55"/><rect x="561.9" y="365.4" width="5" height="13" rx="2.5" fill="#B9A87C" opacity="0.55"/><rect x="533.4" y="363" width="5" height="13" rx="2.5" fill="#B9A87C" opacity="0.55"/><rect x="507.5" y="359.9" width="5" height="13" rx="2.5" fill="#B9A87C" opacity="0.55"/><rect x="484.2" y="357.3" width="5" height="13" rx="2.5" fill="#B9A87C" opacity="0.55"/><rect x="462.9" y="356" width="5" height="13" rx="2.5" fill="#B9A87C" opacity="0.55"/><rect x="442.1" y="356.3" width="5" height="13" rx="2.5" fill="#B9A87C" opacity="0.55"/><rect x="420.4" y="358.3" width="5" height="13" rx="2.5" fill="#B9A87C" opacity="0.55"/><rect x="396.6" y="361.5" width="5" height="13" rx="2.5" fill="#B9A87C" opacity="0.55"/><rect x="370" y="365" width="5" height="13" rx="2.5" fill="#B9A87C" opacity="0.55"/><rect x="340.8" y="367.6" width="5" height="13" rx="2.5" fill="#B9A87C" opacity="0.55"/><rect x="310.3" y="368.3" width="5" height="13" rx="2.5" fill="#B9A87C" opacity="0.55"/><rect x="280.3" y="366.4" width="5" height="13" rx="2.5" fill="#B9A87C" opacity="0.55"/><rect x="253" y="361.3" width="5" height="13" rx="2.5" fill="#B9A87C" opacity="0.55"/><rect x="230.7" y="353.2" width="5" height="13" rx="2.5" fill="#B9A87C" opacity="0.55"/><rect x="215" y="342.4" width="5" height="13" rx="2.5" fill="#B9A87C" opacity="0.55"/><rect x="206.6" y="330" width="5" height="13" rx="2.5" fill="#B9A87C" opacity="0.55"/><rect x="205" y="316.8" width="5" height="13" rx="2.5" fill="#B9A87C" opacity="0.55"/><rect x="208.8" y="303.8" width="5" height="13" rx="2.5" fill="#B9A87C" opacity="0.55"/>
<ellipse cx="285" cy="205" rx="66" ry="24" fill="#A4D384" opacity="0.4"/>
<ellipse cx="618" cy="202" rx="62" ry="22" fill="#A4D384" opacity="0.35"/>
<ellipse cx="300" cy="315" rx="52" ry="18" fill="#699F63" opacity="0.2"/>
<ellipse cx="608" cy="322" rx="50" ry="17" fill="#A4D384" opacity="0.28"/>
<ellipse cx="455" cy="300" rx="80" ry="22" fill="#699F63" opacity="0.18"/>
<ellipse cx="455" cy="212" rx="95" ry="34" fill="#F2C46E" opacity="0.1"/>
<g transform="translate(328,250) rotate(45)">
<rect x="-27" y="-27" width="54" height="54" rx="10" fill="#ECDFBE"/>
<rect x="-27" y="-23" width="54" height="54" rx="10" fill="#CDB992" opacity="0.55"/>
<rect x="-22" y="-22" width="44" height="44" rx="6" fill="#C4A981"/>
<ellipse cx="-12" cy="-13" rx="5.2" ry="3.6" fill="#6FAA58"/><ellipse cx="-12" cy="13" rx="5.2" ry="3.6" fill="#98CB77"/><ellipse cx="12" cy="-13" rx="5.2" ry="3.6" fill="#98CB77"/><ellipse cx="12" cy="13" rx="5.2" ry="3.6" fill="#6FAA58"/><circle cx="12.3" cy="-7" r="2.6" fill="#F2C46E"/>
</g>
<g transform="translate(582,250) rotate(45)">
<rect x="-27" y="-27" width="54" height="54" rx="10" fill="#ECDFBE"/>
<rect x="-27" y="-23" width="54" height="54" rx="10" fill="#CDB992" opacity="0.55"/>
<rect x="-22" y="-22" width="44" height="44" rx="6" fill="#C4A981"/>
<ellipse cx="-12" cy="-13" rx="5.2" ry="3.6" fill="#6FAA58"/><ellipse cx="-12" cy="13" rx="5.2" ry="3.6" fill="#98CB77"/><ellipse cx="12" cy="-13" rx="5.2" ry="3.6" fill="#98CB77"/><ellipse cx="12" cy="13" rx="5.2" ry="3.6" fill="#6FAA58"/><circle cx="12.3" cy="-7" r="2.6" fill="#F2C46E"/>
</g>
<g transform="translate(375,198) rotate(45)">
<rect x="-23" y="-23" width="46" height="46" rx="10" fill="#ECDFBE"/>
<rect x="-23" y="-19" width="46" height="46" rx="10" fill="#CDB992" opacity="0.55"/>
<rect x="-18" y="-18" width="36" height="36" rx="6" fill="#C4A981"/>
<ellipse cx="-8" cy="-9" rx="5.2" ry="3.6" fill="#6FAA58"/><ellipse cx="-8" cy="9" rx="5.2" ry="3.6" fill="#98CB77"/><ellipse cx="8" cy="-9" rx="5.2" ry="3.6" fill="#98CB77"/><ellipse cx="8" cy="9" rx="5.2" ry="3.6" fill="#6FAA58"/><circle cx="10.1" cy="-5.8" r="2.6" fill="#F2C46E"/>
</g>
<g transform="translate(535,198) rotate(45)">
<rect x="-23" y="-23" width="46" height="46" rx="10" fill="#ECDFBE"/>
<rect x="-23" y="-19" width="46" height="46" rx="10" fill="#CDB992" opacity="0.55"/>
<rect x="-18" y="-18" width="36" height="36" rx="6" fill="#C4A981"/>
<ellipse cx="-8" cy="-9" rx="5.2" ry="3.6" fill="#6FAA58"/><ellipse cx="-8" cy="9" rx="5.2" ry="3.6" fill="#98CB77"/><ellipse cx="8" cy="-9" rx="5.2" ry="3.6" fill="#98CB77"/><ellipse cx="8" cy="9" rx="5.2" ry="3.6" fill="#6FAA58"/><circle cx="10.1" cy="-5.8" r="2.6" fill="#F2C46E"/>
</g>
<path d="M 352,190 C 356.7,188.3 371.3,182.3 380,180 C 388.7,177.7 400,176.7 404,176" fill="none" stroke="#B7A177" stroke-width="10" stroke-linecap="round" transform="translate(0,5)"/><path d="M 352,190 C 356.7,188.3 371.3,182.3 380,180 C 388.7,177.7 400,176.7 404,176" fill="none" stroke="#ECDFBE" stroke-width="10" stroke-linecap="round"/><ellipse cx="375.2" cy="181.4" rx="3.4" ry="2.4" fill="#D6C9A2"/><ellipse cx="398.9" cy="176.7" rx="3.4" ry="2.4" fill="#D6C9A2"/>
<path d="M 558,190 C 553.3,188.3 538.7,182.3 530,180 C 521.3,177.7 510,176.7 506,176" fill="none" stroke="#B7A177" stroke-width="10" stroke-linecap="round" transform="translate(0,5)"/><path d="M 558,190 C 553.3,188.3 538.7,182.3 530,180 C 521.3,177.7 510,176.7 506,176" fill="none" stroke="#ECDFBE" stroke-width="10" stroke-linecap="round"/><ellipse cx="534.8" cy="181.4" rx="3.4" ry="2.4" fill="#D6C9A2"/><ellipse cx="511.1" cy="176.7" rx="3.4" ry="2.4" fill="#D6C9A2"/>
<g opacity="0.8"><circle cx="455" cy="230.2" r="40.3" fill="#DFD2AE"/><circle cx="487.55" cy="255" r="40.3" fill="#DFD2AE"/><circle cx="455" cy="279.8" r="40.3" fill="#DFD2AE"/><circle cx="422.45" cy="255" r="40.3" fill="#DFD2AE"/><rect x="422.5" y="230.2" width="65.1" height="49.6" rx="12.4" fill="#DFD2AE"/></g><g><circle cx="455" cy="227.2" r="40.3" fill="#E8DCBE"/><circle cx="487.55" cy="252" r="40.3" fill="#E8DCBE"/><circle cx="455" cy="276.8" r="40.3" fill="#E8DCBE"/><circle cx="422.45" cy="252" r="40.3" fill="#E8DCBE"/><rect x="422.5" y="227.2" width="65.1" height="49.6" rx="12.4" fill="#E8DCBE"/></g><ellipse cx="503.1" cy="265" rx="5.5" ry="3.6" fill="#D6C9A2" opacity="0.8"/><ellipse cx="485.1" cy="287.2" rx="5.5" ry="3.6" fill="#D6C9A2" opacity="0.8"/><ellipse cx="455.7" cy="296" rx="5.5" ry="3.6" fill="#D6C9A2" opacity="0.8"/><ellipse cx="426" cy="288" rx="5.5" ry="3.6" fill="#D6C9A2" opacity="0.8"/><ellipse cx="407.4" cy="266.2" rx="5.5" ry="3.6" fill="#D6C9A2" opacity="0.8"/><ellipse cx="406.9" cy="239" rx="5.5" ry="3.6" fill="#D6C9A2" opacity="0.8"/><ellipse cx="424.9" cy="216.8" rx="5.5" ry="3.6" fill="#D6C9A2" opacity="0.8"/><ellipse cx="454.3" cy="208" rx="5.5" ry="3.6" fill="#D6C9A2" opacity="0.8"/><ellipse cx="484" cy="216" rx="5.5" ry="3.6" fill="#D6C9A2" opacity="0.8"/><ellipse cx="502.6" cy="237.8" rx="5.5" ry="3.6" fill="#D6C9A2" opacity="0.8"/><g><circle cx="455" cy="237" r="26" fill="#B7A177"/><circle cx="476" cy="253" r="26" fill="#B7A177"/><circle cx="455" cy="269" r="26" fill="#B7A177"/><circle cx="434" cy="253" r="26" fill="#B7A177"/><rect x="434" y="237" width="42" height="32" rx="8" fill="#B7A177"/></g><g><circle cx="455" cy="234" r="26" fill="#ECDFBE"/><circle cx="476" cy="250" r="26" fill="#ECDFBE"/><circle cx="455" cy="266" r="26" fill="#ECDFBE"/><circle cx="434" cy="250" r="26" fill="#ECDFBE"/><rect x="434" y="234" width="42" height="32" rx="8" fill="#ECDFBE"/></g><g><circle cx="455" cy="235.96" r="20.8" fill="#CDB992"/><circle cx="474.74" cy="251" r="20.8" fill="#CDB992"/><circle cx="455" cy="266.04" r="20.8" fill="#CDB992"/><circle cx="435.26" cy="251" r="20.8" fill="#CDB992"/><rect x="435.3" y="236" width="39.5" height="30.1" rx="7.5" fill="#CDB992"/></g><g><circle cx="455" cy="237.92" r="16.1" fill="#57A79E"/><circle cx="473.48" cy="252" r="16.1" fill="#57A79E"/><circle cx="455" cy="266.08" r="16.1" fill="#57A79E"/><circle cx="436.52" cy="252" r="16.1" fill="#57A79E"/><rect x="436.5" y="237.9" width="37" height="28.2" rx="7" fill="#57A79E"/></g><g><circle cx="455" cy="240.88" r="13.5" fill="#8FCFC2"/><circle cx="472.22" cy="254" r="13.5" fill="#8FCFC2"/><circle cx="455" cy="267.12" r="13.5" fill="#8FCFC2"/><circle cx="437.78" cy="254" r="13.5" fill="#8FCFC2"/><rect x="437.8" y="240.9" width="34.4" height="26.2" rx="6.6" fill="#8FCFC2"/></g><ellipse cx="448.7" cy="256.7" rx="13" ry="6.8" fill="#BFE8DC" opacity="0.85"/>
<path d="M 168,415 C 182,402.8 227,356.8 252,342" fill="none" stroke="#96714E" stroke-width="36" stroke-linecap="round" transform="translate(0,11)" opacity="0.9"/><path d="M 168,415 C 182,402.8 227,356.8 252,342" fill="none" stroke="#CDB992" stroke-width="36" stroke-linecap="round" transform="translate(0,6)"/><path d="M 168,415 C 182,402.8 227,356.8 252,342" fill="none" stroke="#ECDFBE" stroke-width="36" stroke-linecap="round"/>
<path d="M 625,195 C 628.8,183.5 643.2,174.8 658,166 C 672.8,157.2 704.7,146 714,142" fill="none" stroke="#96714E" stroke-width="36" stroke-linecap="round" transform="translate(0,11)" opacity="0.9"/><path d="M 625,195 C 628.8,183.5 643.2,174.8 658,166 C 672.8,157.2 704.7,146 714,142" fill="none" stroke="#CDB992" stroke-width="36" stroke-linecap="round" transform="translate(0,6)"/><path d="M 625,195 C 628.8,183.5 643.2,174.8 658,166 C 672.8,157.2 704.7,146 714,142" fill="none" stroke="#ECDFBE" stroke-width="36" stroke-linecap="round"/>
<path d="M 168,415 C 182,402.8 227,356.8 252,342 C 277,327.2 295.3,327.3 318,326 C 340.7,324.7 365.2,334 388,334 C 410.8,334 432.3,326 455,326 C 477.7,326 502.2,335.3 524,334 C 545.8,332.7 568.3,326.7 586,318 C 603.7,309.3 621.8,295.8 630,282 C 638.2,268.2 635.8,249.5 635,235 C 634.2,220.5 621.2,206.5 625,195 C 628.8,183.5 643.2,174.8 658,166 C 672.8,157.2 704.7,146 714,142" fill="none" stroke="#B4A47C" stroke-width="24" stroke-linecap="round" transform="translate(0,6)"/><path d="M 168,415 C 182,402.8 227,356.8 252,342 C 277,327.2 295.3,327.3 318,326 C 340.7,324.7 365.2,334 388,334 C 410.8,334 432.3,326 455,326 C 477.7,326 502.2,335.3 524,334 C 545.8,332.7 568.3,326.7 586,318 C 603.7,309.3 621.8,295.8 630,282 C 638.2,268.2 635.8,249.5 635,235 C 634.2,220.5 621.2,206.5 625,195 C 628.8,183.5 643.2,174.8 658,166 C 672.8,157.2 704.7,146 714,142" fill="none" stroke="#EAE0C6" stroke-width="24" stroke-linecap="round"/><path d="M 168,415 C 182,402.8 227,356.8 252,342 C 277,327.2 295.3,327.3 318,326 C 340.7,324.7 365.2,334 388,334 C 410.8,334 432.3,326 455,326 C 477.7,326 502.2,335.3 524,334 C 545.8,332.7 568.3,326.7 586,318 C 603.7,309.3 621.8,295.8 630,282 C 638.2,268.2 635.8,249.5 635,235 C 634.2,220.5 621.2,206.5 625,195 C 628.8,183.5 643.2,174.8 658,166 C 672.8,157.2 704.7,146 714,142" fill="none" stroke="#E7DDC0" stroke-width="13" stroke-linecap="round"/><ellipse cx="209.9" cy="375.8" rx="6.5" ry="4.2" fill="#D6C9A2"/><ellipse cx="252" cy="342" rx="6.5" ry="4.2" fill="#D6C9A2"/><ellipse cx="304.3" cy="326.8" rx="6.5" ry="4.2" fill="#D6C9A2"/><ellipse cx="358.8" cy="330.6" rx="6.5" ry="4.2" fill="#D6C9A2"/><ellipse cx="413.3" cy="331.5" rx="6.5" ry="4.2" fill="#D6C9A2"/><ellipse cx="469.4" cy="327" rx="6.5" ry="4.2" fill="#D6C9A2"/><ellipse cx="524" cy="334" rx="6.5" ry="4.2" fill="#D6C9A2"/><ellipse cx="576.8" cy="322.1" rx="6.5" ry="4.2" fill="#D6C9A2"/><ellipse cx="622.2" cy="292.2" rx="6.5" ry="4.2" fill="#D6C9A2"/><ellipse cx="635.4" cy="240.6" rx="6.5" ry="4.2" fill="#D6C9A2"/><ellipse cx="628.7" cy="188.2" rx="6.5" ry="4.2" fill="#D6C9A2"/><ellipse cx="674.3" cy="157.9" rx="6.5" ry="4.2" fill="#D6C9A2"/>
<g><ellipse cx="270" cy="205" rx="28" ry="11.8" fill="#CBBC97"/><ellipse cx="270" cy="204" rx="21.3" ry="8.5" fill="#C4A981"/><ellipse cx="277" cy="207" rx="23" ry="8.5" fill="#4E8746" opacity="0.22"/><rect x="266" y="175" width="8" height="32" rx="4" fill="#8A6B4F"/><circle cx="273" cy="161.8" r="24" fill="#4E8746"/><circle cx="268" cy="157.8" r="21.1" fill="#6FAA58"/><ellipse cx="260.9" cy="153.2" rx="10.6" ry="8.2" fill="#98CB77"/><circle cx="258.1" cy="158.9" r="3.4" fill="#F2C46E"/><circle cx="275.9" cy="146" r="3.4" fill="#F2C46E"/><circle cx="286.9" cy="164.2" r="3.4" fill="#F2C46E"/><circle cx="269.6" cy="173.8" r="3.4" fill="#F2C46E"/></g>
<g><ellipse cx="300" cy="178" rx="24" ry="10.1" fill="#CBBC97"/><ellipse cx="300" cy="177" rx="18.2" ry="7.3" fill="#C4A981"/><ellipse cx="307" cy="180" rx="19.7" ry="7.3" fill="#4E8746" opacity="0.22"/><rect x="296" y="152" width="8" height="28" rx="4" fill="#8A6B4F"/><circle cx="303" cy="141" r="20" fill="#4E8746"/><circle cx="298" cy="137" r="17.6" fill="#6FAA58"/><ellipse cx="292.4" cy="133.8" rx="8.8" ry="6.8" fill="#98CB77"/><circle cx="290.6" cy="138.6" r="3.4" fill="#F2C46E"/><circle cx="305.4" cy="127.8" r="3.4" fill="#F2C46E"/><circle cx="314.6" cy="143" r="3.4" fill="#F2C46E"/><circle cx="300.2" cy="151" r="3.4" fill="#F2C46E"/></g>
<g><ellipse cx="575" cy="172" rx="28" ry="11.8" fill="#CBBC97"/><ellipse cx="575" cy="171" rx="21.3" ry="8.5" fill="#C4A981"/><ellipse cx="582" cy="174" rx="23" ry="8.5" fill="#4E8746" opacity="0.22"/><rect x="571" y="142" width="8" height="32" rx="4" fill="#8A6B4F"/><circle cx="578" cy="128.8" r="24" fill="#4E8746"/><circle cx="573" cy="124.80000000000001" r="21.1" fill="#6FAA58"/><ellipse cx="565.9" cy="120.2" rx="10.6" ry="8.2" fill="#98CB77"/><circle cx="563.1" cy="125.9" r="3.4" fill="#F2C46E"/><circle cx="580.9" cy="113" r="3.4" fill="#F2C46E"/><circle cx="591.9" cy="131.2" r="3.4" fill="#F2C46E"/><circle cx="574.6" cy="140.8" r="3.4" fill="#F2C46E"/></g>
<g><ellipse cx="350" cy="290" rx="24" ry="10.1" fill="#CBBC97"/><ellipse cx="350" cy="289" rx="18.2" ry="7.3" fill="#C4A981"/><ellipse cx="357" cy="292" rx="19.7" ry="7.3" fill="#4E8746" opacity="0.22"/><rect x="346" y="264" width="8" height="28" rx="4" fill="#8A6B4F"/><circle cx="353" cy="253" r="20" fill="#4E8746"/><circle cx="348" cy="249" r="17.6" fill="#6FAA58"/><ellipse cx="342.4" cy="245.8" rx="8.8" ry="6.8" fill="#98CB77"/></g>
<g><ellipse cx="545" cy="285" rx="22" ry="9.2" fill="#CBBC97"/><ellipse cx="545" cy="284" rx="16.7" ry="6.7" fill="#C4A981"/><ellipse cx="552" cy="287" rx="18" ry="6.7" fill="#4E8746" opacity="0.22"/><rect x="541" y="261" width="8" height="26" rx="4" fill="#8A6B4F"/><circle cx="548" cy="251.1" r="18" fill="#4E8746"/><circle cx="543" cy="247.1" r="15.8" fill="#6FAA58"/><ellipse cx="538.2" cy="244.6" rx="7.9" ry="6.1" fill="#98CB77"/><circle cx="536.8" cy="248.9" r="3.4" fill="#F2C46E"/><circle cx="550.2" cy="239.2" r="3.4" fill="#F2C46E"/><circle cx="558.4" cy="252.9" r="3.4" fill="#F2C46E"/><circle cx="545.5" cy="260.1" r="3.4" fill="#F2C46E"/></g>
<g><ellipse cx="645" cy="322" rx="24" ry="10.1" fill="#CBBC97"/><ellipse cx="645" cy="321" rx="18.2" ry="7.3" fill="#C4A981"/><ellipse cx="652" cy="324" rx="19.7" ry="7.3" fill="#4E8746" opacity="0.22"/><rect x="641" y="296" width="8" height="28" rx="4" fill="#8A6B4F"/><circle cx="648" cy="285" r="20" fill="#4E8746"/><circle cx="643" cy="281" r="17.6" fill="#6FAA58"/><ellipse cx="637.4" cy="277.8" rx="8.8" ry="6.8" fill="#98CB77"/><circle cx="635.6" cy="282.6" r="3.4" fill="#F2C46E"/><circle cx="650.4" cy="271.8" r="3.4" fill="#F2C46E"/><circle cx="659.6" cy="287" r="3.4" fill="#F2C46E"/><circle cx="645.2" cy="295" r="3.4" fill="#F2C46E"/></g>
<g><ellipse cx="112" cy="460.7" rx="11" ry="5.5" fill="#96714E"/><ellipse cx="112" cy="456.4" rx="19.4" ry="7.9" fill="#CDB992"/><ellipse cx="112" cy="452" rx="22" ry="7.9" fill="#ECDFBE"/><ellipse cx="112" cy="451" rx="13.2" ry="4" fill="#E7DDC0"/></g>
<g><ellipse cx="56" cy="491.5" rx="7" ry="3.5" fill="#96714E"/><ellipse cx="56" cy="488.8" rx="12.3" ry="5" fill="#CDB992"/><ellipse cx="56" cy="486" rx="14" ry="5" fill="#ECDFBE"/><ellipse cx="56" cy="485" rx="8.4" ry="2.5" fill="#E7DDC0"/></g>
<g><ellipse cx="770" cy="125.9" rx="10" ry="5" fill="#96714E"/><ellipse cx="770" cy="122" rx="17.6" ry="7.2" fill="#CDB992"/><ellipse cx="770" cy="118" rx="20" ry="7.2" fill="#ECDFBE"/><ellipse cx="770" cy="117" rx="12" ry="3.6" fill="#E7DDC0"/></g>
<g><ellipse cx="836" cy="97.1" rx="6.5" ry="3.3" fill="#96714E"/><ellipse cx="836" cy="94.6" rx="11.4" ry="4.7" fill="#CDB992"/><ellipse cx="836" cy="92" rx="13" ry="4.7" fill="#ECDFBE"/><ellipse cx="836" cy="91" rx="7.8" ry="2.3" fill="#E7DDC0"/></g>
<g opacity="0.9">
<ellipse cx="352" cy="458" rx="81.2" ry="21" fill="#FDF6E4"/>
<ellipse cx="310" cy="448.2" rx="42" ry="15.4" fill="#FDF6E4"/>
<ellipse cx="382.8" cy="446.8" rx="47.6" ry="16.8" fill="#FDF6E4"/>
<ellipse cx="360.4" cy="463.6" rx="70" ry="15.4" fill="#F4EFD8"/>
</g>
<g opacity="0.8">
<ellipse cx="610" cy="474" rx="52.2" ry="13.5" fill="#FDF6E4"/>
<ellipse cx="583" cy="467.7" rx="27" ry="9.9" fill="#FDF6E4"/>
<ellipse cx="629.8" cy="466.8" rx="30.6" ry="10.8" fill="#FDF6E4"/>
<ellipse cx="615.4" cy="477.6" rx="45" ry="9.9" fill="#F4EFD8"/>
</g>
</svg>
