<svg viewBox="0 0 900 520" xmlns="http://www.w3.org/2000/svg">
<defs>
<linearGradient id="skyB" x1="0" y1="0" x2="0" y2="1"><stop offset="0" stop-color="#A3CBAB"/><stop offset="0.48" stop-color="#DCE8B4"/><stop offset="1" stop-color="#FBE7AE"/></linearGradient>
<linearGradient id="grassB" x1="0" y1="0" x2="0.25" y2="1"><stop offset="0" stop-color="#A4D384"/><stop offset="1" stop-color="#7CB863"/></linearGradient>
</defs>
<rect x="0" y="0" width="900" height="520" fill="url(#skyB)"/>
<ellipse cx="180" cy="66" rx="170" ry="70" fill="#FBE7AE" opacity="0.18"/>
<ellipse cx="180" cy="66" rx="95" ry="40" fill="#FDF6E4" opacity="0.14"/>
<g opacity="0.8">
<ellipse cx="790" cy="150" rx="69.6" ry="18" fill="#FDF6E4"/>
<ellipse cx="754" cy="141.6" rx="36" ry="13.2" fill="#FDF6E4"/>
<ellipse cx="816.4" cy="140.4" rx="40.8" ry="14.4" fill="#FDF6E4"/>
<ellipse cx="797.2" cy="154.8" rx="60" ry="13.2" fill="#F4EFD8"/>
</g>
<g opacity="0.75">
<ellipse cx="96" cy="226" rx="58" ry="15" fill="#FDF6E4"/>
<ellipse cx="66" cy="219" rx="30" ry="11" fill="#FDF6E4"/>
<ellipse cx="118" cy="218" rx="34" ry="12" fill="#FDF6E4"/>
<ellipse cx="102" cy="230" rx="50" ry="11" fill="#F4EFD8"/>
</g>
<g opacity="0.55">
<ellipse cx="660" cy="58" rx="46.4" ry="12" fill="#FDF6E4"/>
<ellipse cx="636" cy="52.4" rx="24" ry="8.8" fill="#FDF6E4"/>
<ellipse cx="677.6" cy="51.6" rx="27.2" ry="9.6" fill="#FDF6E4"/>
<ellipse cx="664.8" cy="61.2" rx="40" ry="8.8" fill="#F4EFD8"/>
</g>
<g opacity="0.6">
<ellipse cx="64" cy="430" rx="49.3" ry="12.8" fill="#FDF6E4"/>
<ellipse cx="38.5" cy="424.1" rx="25.5" ry="9.4" fill="#FDF6E4"/>
<ellipse cx="82.7" cy="423.2" rx="28.9" ry="10.2" fill="#FDF6E4"/>
<ellipse cx="69.1" cy="433.4" rx="42.5" ry="9.4" fill="#F4EFD8"/>
</g>
<g opacity="0.6">
<ellipse cx="846" cy="330" rx="43.5" ry="11.3" fill="#FDF6E4"/>
<ellipse cx="823.5" cy="324.8" rx="22.5" ry="8.3" fill="#FDF6E4"/>
<ellipse cx="862.5" cy="324" rx="25.5" ry="9" fill="#FDF6E4"/>
<ellipse cx="850.5" cy="333" rx="37.5" ry="8.3" fill="#F4EFD8"/>
</g>
<path d="M 648.9,400.2 C 648.4,406.5 634.4,413.8 619.4,419.1 C 604.4,424.4 580.8,428.3 559.1,432 C 537.5,435.6 515.1,438.9 489.5,441 C 463.8,443 432.6,445.1 405.2,444.3 C 377.9,443.4 345.8,440.1 325.5,435.8 C 305.2,431.5 292.1,424.5 283.4,418.5 C 274.6,412.6 273.4,406.4 272.9,400.2 C 272.4,394 272,387.5 280.6,381.6 C 289.3,375.6 303.8,368.5 324.7,364.3 C 345.5,360.2 378.4,357.4 405.8,356.7 C 433.2,355.9 463.2,358.1 488.9,360 C 514.6,361.9 537.7,364.7 559.9,368.2 C 582.2,371.7 607.3,375.7 622.1,381 C 637,386.4 649.4,393.9 648.9,400.2 Z" fill="#B08A60"/><path d="M 581.9,430.2 C 584.2,435.7 581.9,442.6 573.2,447.5 C 564.6,452.5 546.3,456.8 530.1,459.7 C 513.9,462.5 494.3,463.6 476.1,464.6 C 457.9,465.6 439.7,466.3 421,465.7 C 402.4,465.1 380.1,464.1 364.2,461 C 348.4,457.9 333,452.5 326.1,447.4 C 319.1,442.2 320.3,435.6 322.5,430.2 C 324.7,424.8 331.8,419.8 339.5,414.9 C 347.1,410 355.2,404.8 368.4,400.9 C 381.5,397 400,392.7 418.4,391.3 C 436.8,389.9 460.8,390.6 478.7,392.4 C 496.7,394.2 512.5,398.5 526,402.2 C 539.5,405.9 550.5,410.1 559.8,414.7 C 569.1,419.4 579.7,424.7 581.9,430.2 Z" fill="#96714E"/><path d="M 511.1,462.2 C 510.2,465.2 505.1,468.2 500.7,470.8 C 496.3,473.3 490.8,475.5 484.5,477.5 C 478.2,479.5 471,481.8 462.7,482.8 C 454.4,483.8 443.3,484.4 434.8,483.6 C 426.2,482.9 417.4,480.6 411.3,478.5 C 405.2,476.3 401.5,473.3 398.1,470.6 C 394.7,467.9 391.8,465.2 390.8,462.2 C 389.9,459.2 389.2,455.7 392.3,452.8 C 395.4,450 402.2,446.9 409.5,445.2 C 416.8,443.4 427.2,442.8 435.9,442.5 C 444.6,442.2 453.1,442.7 461.5,443.3 C 469.9,443.9 478.8,444.6 486.3,446.1 C 493.8,447.7 502.3,450 506.5,452.7 C 510.6,455.4 512.1,459.2 511.1,462.2 Z" fill="#85644A"/>
<ellipse cx="368" cy="392" rx="50" ry="7" fill="#C4A981" opacity="0.45"/>
<ellipse cx="540" cy="396" rx="40" ry="7" fill="#C4A981" opacity="0.4"/>
<ellipse cx="448" cy="436" rx="40" ry="6" fill="#CBBC97" opacity="0.45"/>
<path d="M 746.5,288 C 740.5,297 724.1,306 710.6,313.3 C 697.1,320.6 678.5,325.9 665.6,331.9 C 652.7,338 642.4,342.8 633,349.5 C 623.7,356.2 619.1,364.1 609.5,372 C 599.9,379.8 590.4,389.8 575.5,396.4 C 560.7,403.1 540.5,409.8 520.4,412.1 C 500.3,414.5 475.3,413.6 455,410.8 C 434.7,408 415,401 398.4,395.4 C 381.8,389.9 369.7,382.6 355.4,377.6 C 341,372.7 328.7,369.1 312.2,365.6 C 295.7,362.1 275.5,360.6 256.3,356.7 C 237.1,352.7 212.9,348.4 197.1,341.8 C 181.3,335.2 166.4,326 161.8,317 C 157.1,308 161.2,296.9 169.3,288 C 177.4,279.1 195.9,270.8 210.2,263.8 C 224.4,256.8 242.8,252.1 254.8,246.2 C 266.8,240.3 274.9,235.4 282.5,228.4 C 290,221.3 292,212.5 300.1,203.8 C 308.2,195.2 316.5,183.9 331,176.4 C 345.5,169 366.3,161.5 387,158.9 C 407.6,156.2 434.1,157.4 455,160.7 C 475.9,164 496.3,172.1 512.6,178.6 C 529,185.1 540,193.8 553.2,199.6 C 566.4,205.5 576.6,209.9 591.7,213.7 C 606.9,217.5 625.5,218.9 644.3,222.6 C 663.1,226.3 687.8,229.8 704.8,235.9 C 721.8,242 739.3,250.5 746.2,259.2 C 753.2,267.9 752.4,279 746.5,288 Z" fill="#B7A177"/>
<path d="M 746.5,274.5 C 740.5,283.5 724.1,292.5 710.6,299.8 C 697.1,307.1 678.5,312.4 665.6,318.4 C 652.7,324.5 642.4,329.3 633,336 C 623.7,342.7 619.1,350.6 609.5,358.5 C 599.9,366.3 590.4,376.3 575.5,382.9 C 560.7,389.6 540.5,396.3 520.4,398.6 C 500.3,401 475.3,400.1 455,397.3 C 434.7,394.5 415,387.5 398.4,381.9 C 381.8,376.4 369.7,369.1 355.4,364.1 C 341,359.2 328.7,355.6 312.2,352.1 C 295.7,348.6 275.5,347.1 256.3,343.2 C 237.1,339.2 212.9,334.9 197.1,328.3 C 181.3,321.7 166.4,312.5 161.8,303.5 C 157.1,294.5 161.2,283.4 169.3,274.5 C 177.4,265.6 195.9,257.3 210.2,250.3 C 224.4,243.3 242.8,238.6 254.8,232.7 C 266.8,226.8 274.9,221.9 282.5,214.9 C 290,207.8 292,199 300.1,190.3 C 308.2,181.7 316.5,170.4 331,162.9 C 345.5,155.5 366.3,148 387,145.4 C 407.6,142.7 434.1,143.9 455,147.2 C 475.9,150.5 496.3,158.6 512.6,165.1 C 529,171.6 540,180.3 553.2,186.1 C 566.4,192 576.6,196.4 591.7,200.2 C 606.9,204 625.5,205.4 644.3,209.1 C 663.1,212.8 687.8,216.3 704.8,222.4 C 721.8,228.5 739.3,237 746.2,245.7 C 753.2,254.4 752.4,265.5 746.5,274.5 Z" fill="#CDB992"/>
<path d="M 746.5,258 C 740.5,267 724.1,276 710.6,283.3 C 697.1,290.6 678.5,295.9 665.6,301.9 C 652.7,308 642.4,312.8 633,319.5 C 623.7,326.2 619.1,334.1 609.5,342 C 599.9,349.8 590.4,359.8 575.5,366.4 C 560.7,373.1 540.5,379.8 520.4,382.1 C 500.3,384.5 475.3,383.6 455,380.8 C 434.7,378 415,371 398.4,365.4 C 381.8,359.9 369.7,352.6 355.4,347.6 C 341,342.7 328.7,339.1 312.2,335.6 C 295.7,332.1 275.5,330.6 256.3,326.7 C 237.1,322.7 212.9,318.4 197.1,311.8 C 181.3,305.2 166.4,296 161.8,287 C 157.1,278 161.2,266.9 169.3,258 C 177.4,249.1 195.9,240.8 210.2,233.8 C 224.4,226.8 242.8,222.1 254.8,216.2 C 266.8,210.3 274.9,205.4 282.5,198.4 C 290,191.3 292,182.5 300.1,173.8 C 308.2,165.2 316.5,153.9 331,146.4 C 345.5,139 366.3,131.5 387,128.9 C 407.6,126.2 434.1,127.4 455,130.7 C 475.9,134 496.3,142.1 512.6,148.6 C 529,155.1 540,163.8 553.2,169.6 C 566.4,175.5 576.6,179.9 591.7,183.7 C 606.9,187.5 625.5,188.9 644.3,192.6 C 663.1,196.3 687.8,199.8 704.8,205.9 C 721.8,212 739.3,220.5 746.2,229.2 C 753.2,237.9 752.4,249 746.5,258 Z" fill="#ECDFBE"/>
<path d="M 729,254 C 723.4,262.5 707.9,270.9 695.3,277.8 C 682.6,284.6 665.1,289.6 653,295.3 C 640.8,301 631.1,305.6 622.3,311.8 C 613.5,318.1 609.2,325.6 600.2,332.9 C 591.2,340.3 582.3,349.6 568.3,355.9 C 554.3,362.2 535.3,368.4 516.5,370.7 C 497.6,372.9 474.1,372 455,369.4 C 435.9,366.8 417.4,360.2 401.8,355 C 386.2,349.8 374.9,342.9 361.4,338.3 C 347.8,333.6 336.3,330.2 320.7,326.9 C 305.2,323.7 286.3,322.3 268.2,318.5 C 250.2,314.8 227.4,310.8 212.6,304.6 C 197.8,298.4 183.7,289.7 179.3,281.3 C 175,272.8 178.9,262.3 186.4,254 C 194,245.7 211.5,237.8 224.9,231.2 C 238.3,224.7 255.5,220.3 266.8,214.7 C 278.1,209.2 285.7,204.6 292.8,198 C 299.9,191.3 301.8,183 309.4,174.9 C 317,166.7 324.9,156.2 338.5,149.1 C 352.1,142.1 371.6,135.1 391.1,132.6 C 410.5,130.1 435.3,131.2 455,134.3 C 474.7,137.4 493.8,145.1 509.2,151.2 C 524.6,157.3 534.9,165.4 547.3,170.9 C 559.7,176.4 569.3,180.6 583.5,184.2 C 597.8,187.8 615.2,189 632.9,192.5 C 650.7,196 673.8,199.3 689.8,205 C 705.8,210.7 722.2,218.8 728.8,226.9 C 735.3,235.1 734.5,245.5 729,254 Z" fill="url(#grassB)"/>
<rect x="645.9" y="311.6" width="5" height="13" rx="2.5" fill="#B9A87C" opacity="0.55"/><rect x="632.5" y="319.2" width="5" height="13" rx="2.5" fill="#B9A87C" opacity="0.55"/><rect x="621.6" y="327.8" width="5" height="13" rx="2.5" fill="#B9A87C" opacity="0.55"/><rect x="611.8" y="337.5" width="5" height="13" rx="2.5" fill="#B9A87C" opacity="0.55"/><rect x="601.1" y="348.1" width="5" height="13" rx="2.5" fill="#B9A87C" opacity="0.55"/><rect x="587.7" y="359" width="5" height="13" rx="2.5" fill="#B9A87C" opacity="0.55"/><rect x="570.3" y="369.3" width="5" height="13" rx="2.5" fill="#B9A87C" opacity="0.55"/><rect x="548.6" y="377.7" width="5" height="13" rx="2.5" fill="#B9A87C" opacity="0.55"/><rect x="523.1" y="383.4" width="5" height="13" rx="2.5" fill="#B9A87C" opacity="0.55"/><rect x="495.1" y="385.8" width="5" height="13" rx="2.5" fill="#B9A87C" opacity="0.55"/><rect x="466.5" y="384.7" width="5" height="13" rx="2.5" fill="#B9A87C" opacity="0.55"/><rect x="439" y="380.5" width="5" height="13" rx="2.5" fill="#B9A87C" opacity="0.55"/><rect x="414" y="373.9" width="5" height="13" rx="2.5" fill="#B9A87C" opacity="0.55"/><rect x="392" y="366" width="5" height="13" rx="2.5" fill="#B9A87C" opacity="0.55"/><rect x="372.8" y="357.9" width="5" height="13" rx="2.5" fill="#B9A87C" opacity="0.55"/><rect x="355.2" y="350.6" width="5" height="13" rx="2.5" fill="#B9A87C" opacity="0.55"/><rect x="337.5" y="344.5" width="5" height="13" rx="2.5" fill="#B9A87C" opacity="0.55"/><rect x="318.4" y="339.7" width="5" height="13" rx="2.5" fill="#B9A87C" opacity="0.55"/><rect x="296.7" y="335.9" width="5" height="13" rx="2.5" fill="#B9A87C" opacity="0.55"/><rect x="272.3" y="332.1" width="5" height="13" rx="2.5" fill="#B9A87C" opacity="0.55"/><rect x="245.9" y="327.7" width="5" height="13" rx="2.5" fill="#B9A87C" opacity="0.55"/><rect x="219.5" y="321.7" width="5" height="13" rx="2.5" fill="#B9A87C" opacity="0.55"/>
<ellipse cx="230" cy="262" rx="55" ry="20" fill="#A4D384" opacity="0.4"/>
<ellipse cx="690" cy="245" rx="55" ry="20" fill="#A4D384" opacity="0.35"/>
<ellipse cx="400" cy="172" rx="58" ry="19" fill="#A4D384" opacity="0.3"/>
<ellipse cx="510" cy="350" rx="55" ry="15" fill="#699F63" opacity="0.2"/>
<ellipse cx="455" cy="295" rx="80" ry="20" fill="#699F63" opacity="0.15"/>
<ellipse cx="455" cy="215" rx="90" ry="32" fill="#F2C46E" opacity="0.1"/>
<g><ellipse cx="415" cy="185" rx="4" ry="2.6" fill="#699F63" opacity="0.5"/><ellipse cx="424" cy="187" rx="5" ry="3" fill="#699F63" opacity="0.4"/><ellipse cx="420" cy="182" rx="4.5" ry="2.8" fill="#98CB77" opacity="0.55"/></g>
<g><ellipse cx="493" cy="192" rx="4" ry="2.6" fill="#699F63" opacity="0.5"/><ellipse cx="502" cy="194" rx="5" ry="3" fill="#699F63" opacity="0.4"/><ellipse cx="498" cy="189" rx="4.5" ry="2.8" fill="#98CB77" opacity="0.55"/></g>
<g><ellipse cx="563" cy="238" rx="4" ry="2.6" fill="#699F63" opacity="0.5"/><ellipse cx="572" cy="240" rx="5" ry="3" fill="#699F63" opacity="0.4"/><ellipse cx="568" cy="235" rx="4.5" ry="2.8" fill="#98CB77" opacity="0.55"/></g>
<g><ellipse cx="383" cy="282" rx="4" ry="2.6" fill="#699F63" opacity="0.5"/><ellipse cx="392" cy="284" rx="5" ry="3" fill="#699F63" opacity="0.4"/><ellipse cx="388" cy="279" rx="4.5" ry="2.8" fill="#98CB77" opacity="0.55"/></g>
<g><ellipse cx="235" cy="235" rx="4" ry="2.6" fill="#699F63" opacity="0.5"/><ellipse cx="244" cy="237" rx="5" ry="3" fill="#699F63" opacity="0.4"/><ellipse cx="240" cy="232" rx="4.5" ry="2.8" fill="#98CB77" opacity="0.55"/></g>
<g><ellipse cx="695" cy="275" rx="4" ry="2.6" fill="#699F63" opacity="0.5"/><ellipse cx="704" cy="277" rx="5" ry="3" fill="#699F63" opacity="0.4"/><ellipse cx="700" cy="272" rx="4.5" ry="2.8" fill="#98CB77" opacity="0.55"/></g>
<g><ellipse cx="335" cy="200" rx="4" ry="2.6" fill="#699F63" opacity="0.5"/><ellipse cx="344" cy="202" rx="5" ry="3" fill="#699F63" opacity="0.4"/><ellipse cx="340" cy="197" rx="4.5" ry="2.8" fill="#98CB77" opacity="0.55"/></g>
<g transform="translate(322,255) rotate(45)">
<rect x="-27" y="-27" width="54" height="54" rx="10" fill="#ECDFBE"/>
<rect x="-27" y="-23" width="54" height="54" rx="10" fill="#CDB992" opacity="0.55"/>
<rect x="-22" y="-22" width="44" height="44" rx="6" fill="#C4A981"/>
<ellipse cx="-12" cy="-13" rx="5.2" ry="3.6" fill="#6FAA58"/><ellipse cx="-12" cy="13" rx="5.2" ry="3.6" fill="#98CB77"/><ellipse cx="12" cy="-13" rx="5.2" ry="3.6" fill="#98CB77"/><ellipse cx="12" cy="13" rx="5.2" ry="3.6" fill="#6FAA58"/><circle cx="12.3" cy="-7" r="2.6" fill="#F2C46E"/>
</g>
<g transform="translate(648,262) rotate(45)">
<rect x="-27" y="-27" width="54" height="54" rx="10" fill="#ECDFBE"/>
<rect x="-27" y="-23" width="54" height="54" rx="10" fill="#CDB992" opacity="0.55"/>
<rect x="-22" y="-22" width="44" height="44" rx="6" fill="#C4A981"/>
<ellipse cx="-12" cy="-13" rx="5.2" ry="3.6" fill="#6FAA58"/><ellipse cx="-12" cy="13" rx="5.2" ry="3.6" fill="#98CB77"/><ellipse cx="12" cy="-13" rx="5.2" ry="3.6" fill="#98CB77"/><ellipse cx="12" cy="13" rx="5.2" ry="3.6" fill="#6FAA58"/><circle cx="12.3" cy="-7" r="2.6" fill="#F2C46E"/>
</g>
<g transform="translate(545,282) rotate(45)">
<rect x="-23" y="-23" width="46" height="46" rx="10" fill="#ECDFBE"/>
<rect x="-23" y="-19" width="46" height="46" rx="10" fill="#CDB992" opacity="0.55"/>
<rect x="-18" y="-18" width="36" height="36" rx="6" fill="#C4A981"/>
<ellipse cx="-8" cy="-9" rx="5.2" ry="3.6" fill="#6FAA58"/><ellipse cx="-8" cy="9" rx="5.2" ry="3.6" fill="#98CB77"/><ellipse cx="8" cy="-9" rx="5.2" ry="3.6" fill="#98CB77"/><ellipse cx="8" cy="9" rx="5.2" ry="3.6" fill="#6FAA58"/><circle cx="10.1" cy="-5.8" r="2.6" fill="#F2C46E"/>
</g>
<path d="M 298,238 C 295.7,242 284.2,253.7 284,262 C 283.8,270.3 294.8,283.7 297,288" fill="none" stroke="#B29768" stroke-width="8" stroke-linecap="round" transform="translate(0,4)"/><path d="M 298,238 C 295.7,242 284.2,253.7 284,262 C 283.8,270.3 294.8,283.7 297,288" fill="none" stroke="#D2BC90" stroke-width="8" stroke-linecap="round"/><path d="M 298,238 C 295.7,242 284.2,253.7 284,262 C 283.8,270.3 294.8,283.7 297,288" fill="none" stroke="#ECDFBE" stroke-width="2.5" stroke-linecap="round" transform="translate(0,-1.5)"/>
<g opacity="0.8"><circle cx="455" cy="238.2" r="40.3" fill="#DFD2AE"/><circle cx="487.55" cy="263" r="40.3" fill="#DFD2AE"/><circle cx="455" cy="287.8" r="40.3" fill="#DFD2AE"/><circle cx="422.45" cy="263" r="40.3" fill="#DFD2AE"/><rect x="422.5" y="238.2" width="65.1" height="49.6" rx="12.4" fill="#DFD2AE"/></g><g><circle cx="455" cy="235.2" r="40.3" fill="#E8DCBE"/><circle cx="487.55" cy="260" r="40.3" fill="#E8DCBE"/><circle cx="455" cy="284.8" r="40.3" fill="#E8DCBE"/><circle cx="422.45" cy="260" r="40.3" fill="#E8DCBE"/><rect x="422.5" y="235.2" width="65.1" height="49.6" rx="12.4" fill="#E8DCBE"/></g><ellipse cx="503.1" cy="273" rx="5.5" ry="3.6" fill="#D6C9A2" opacity="0.8"/><ellipse cx="485.1" cy="295.2" rx="5.5" ry="3.6" fill="#D6C9A2" opacity="0.8"/><ellipse cx="455.7" cy="304" rx="5.5" ry="3.6" fill="#D6C9A2" opacity="0.8"/><ellipse cx="426" cy="296" rx="5.5" ry="3.6" fill="#D6C9A2" opacity="0.8"/><ellipse cx="407.4" cy="274.2" rx="5.5" ry="3.6" fill="#D6C9A2" opacity="0.8"/><ellipse cx="406.9" cy="247" rx="5.5" ry="3.6" fill="#D6C9A2" opacity="0.8"/><ellipse cx="424.9" cy="224.8" rx="5.5" ry="3.6" fill="#D6C9A2" opacity="0.8"/><ellipse cx="454.3" cy="216" rx="5.5" ry="3.6" fill="#D6C9A2" opacity="0.8"/><ellipse cx="484" cy="224" rx="5.5" ry="3.6" fill="#D6C9A2" opacity="0.8"/><ellipse cx="502.6" cy="245.8" rx="5.5" ry="3.6" fill="#D6C9A2" opacity="0.8"/><g><circle cx="455" cy="245" r="26" fill="#B7A177"/><circle cx="476" cy="261" r="26" fill="#B7A177"/><circle cx="455" cy="277" r="26" fill="#B7A177"/><circle cx="434" cy="261" r="26" fill="#B7A177"/><rect x="434" y="245" width="42" height="32" rx="8" fill="#B7A177"/></g><g><circle cx="455" cy="242" r="26" fill="#ECDFBE"/><circle cx="476" cy="258" r="26" fill="#ECDFBE"/><circle cx="455" cy="274" r="26" fill="#ECDFBE"/><circle cx="434" cy="258" r="26" fill="#ECDFBE"/><rect x="434" y="242" width="42" height="32" rx="8" fill="#ECDFBE"/></g><g><circle cx="455" cy="243.96" r="20.8" fill="#CDB992"/><circle cx="474.74" cy="259" r="20.8" fill="#CDB992"/><circle cx="455" cy="274.04" r="20.8" fill="#CDB992"/><circle cx="435.26" cy="259" r="20.8" fill="#CDB992"/><rect x="435.3" y="244" width="39.5" height="30.1" rx="7.5" fill="#CDB992"/></g><g><circle cx="455" cy="245.92" r="16.1" fill="#57A79E"/><circle cx="473.48" cy="260" r="16.1" fill="#57A79E"/><circle cx="455" cy="274.08" r="16.1" fill="#57A79E"/><circle cx="436.52" cy="260" r="16.1" fill="#57A79E"/><rect x="436.5" y="245.9" width="37" height="28.2" rx="7" fill="#57A79E"/></g><g><circle cx="455" cy="248.88" r="13.5" fill="#8FCFC2"/><circle cx="472.22" cy="262" r="13.5" fill="#8FCFC2"/><circle cx="455" cy="275.12" r="13.5" fill="#8FCFC2"/><circle cx="437.78" cy="262" r="13.5" fill="#8FCFC2"/><rect x="437.8" y="248.9" width="34.4" height="26.2" rx="6.6" fill="#8FCFC2"/></g><ellipse cx="448.7" cy="264.7" rx="13" ry="6.8" fill="#BFE8DC" opacity="0.85"/>
<ellipse cx="452" cy="335" rx="20" ry="12" fill="#DFD2AE" opacity="0.7"/><ellipse cx="452" cy="332" rx="20" ry="12" fill="#E8DCBE"/><ellipse cx="447" cy="330" rx="5.5" ry="3.6" fill="#D6C9A2" opacity="0.8"/>
<path d="M 160,400 C 175,392 224.7,364 250,352" fill="none" stroke="#96714E" stroke-width="36" stroke-linecap="round" transform="translate(0,11)" opacity="0.9"/><path d="M 160,400 C 175,392 224.7,364 250,352" fill="none" stroke="#CDB992" stroke-width="36" stroke-linecap="round" transform="translate(0,6)"/><path d="M 160,400 C 175,392 224.7,364 250,352" fill="none" stroke="#ECDFBE" stroke-width="36" stroke-linecap="round"/>
<path d="M 622,202 C 631.7,190.7 644.7,181.7 660,172 C 675.3,162.3 705,148.7 714,144" fill="none" stroke="#96714E" stroke-width="36" stroke-linecap="round" transform="translate(0,11)" opacity="0.9"/><path d="M 622,202 C 631.7,190.7 644.7,181.7 660,172 C 675.3,162.3 705,148.7 714,144" fill="none" stroke="#CDB992" stroke-width="36" stroke-linecap="round" transform="translate(0,6)"/><path d="M 622,202 C 631.7,190.7 644.7,181.7 660,172 C 675.3,162.3 705,148.7 714,144" fill="none" stroke="#ECDFBE" stroke-width="36" stroke-linecap="round"/>
<path d="M 160,400 C 175,392 224.7,364 250,352 C 275.3,340 290.3,331.7 312,328 C 333.7,324.3 357.8,326.7 380,330 C 402.2,333.3 423.3,343.7 445,348 C 466.7,352.3 490,359 510,356 C 530,353 550.7,341.7 565,330 C 579.3,318.3 589.8,301 596,286 C 602.2,271 597.7,254 602,240 C 606.3,226 612.3,213.3 622,202 C 631.7,190.7 644.7,181.7 660,172 C 675.3,162.3 705,148.7 714,144" fill="none" stroke="#B4A47C" stroke-width="24" stroke-linecap="round" transform="translate(0,6)"/><path d="M 160,400 C 175,392 224.7,364 250,352 C 275.3,340 290.3,331.7 312,328 C 333.7,324.3 357.8,326.7 380,330 C 402.2,333.3 423.3,343.7 445,348 C 466.7,352.3 490,359 510,356 C 530,353 550.7,341.7 565,330 C 579.3,318.3 589.8,301 596,286 C 602.2,271 597.7,254 602,240 C 606.3,226 612.3,213.3 622,202 C 631.7,190.7 644.7,181.7 660,172 C 675.3,162.3 705,148.7 714,144" fill="none" stroke="#EAE0C6" stroke-width="24" stroke-linecap="round"/><path d="M 160,400 C 175,392 224.7,364 250,352 C 275.3,340 290.3,331.7 312,328 C 333.7,324.3 357.8,326.7 380,330 C 402.2,333.3 423.3,343.7 445,348 C 466.7,352.3 490,359 510,356 C 530,353 550.7,341.7 565,330 C 579.3,318.3 589.8,301 596,286 C 602.2,271 597.7,254 602,240 C 606.3,226 612.3,213.3 622,202 C 631.7,190.7 644.7,181.7 660,172 C 675.3,162.3 705,148.7 714,144" fill="none" stroke="#E7DDC0" stroke-width="13" stroke-linecap="round"/><ellipse cx="209.9" cy="372.7" rx="6.5" ry="4.2" fill="#D6C9A2"/><ellipse cx="259" cy="347.7" rx="6.5" ry="4.2" fill="#D6C9A2"/><ellipse cx="312" cy="328" rx="6.5" ry="4.2" fill="#D6C9A2"/><ellipse cx="365.9" cy="328.1" rx="6.5" ry="4.2" fill="#D6C9A2"/><ellipse cx="420.8" cy="341.3" rx="6.5" ry="4.2" fill="#D6C9A2"/><ellipse cx="475.4" cy="354.3" rx="6.5" ry="4.2" fill="#D6C9A2"/><ellipse cx="530" cy="350.5" rx="6.5" ry="4.2" fill="#D6C9A2"/><ellipse cx="575" cy="320.3" rx="6.5" ry="4.2" fill="#D6C9A2"/><ellipse cx="599.2" cy="272.5" rx="6.5" ry="4.2" fill="#D6C9A2"/><ellipse cx="610" cy="220" rx="6.5" ry="4.2" fill="#D6C9A2"/><ellipse cx="647.2" cy="180.4" rx="6.5" ry="4.2" fill="#D6C9A2"/><ellipse cx="694.5" cy="153.6" rx="6.5" ry="4.2" fill="#D6C9A2"/>
<g><ellipse cx="225" cy="258" rx="26" ry="10.9" fill="#CBBC97"/><ellipse cx="225" cy="257" rx="19.8" ry="7.9" fill="#C4A981"/><ellipse cx="232" cy="260" rx="21.3" ry="7.9" fill="#4E8746" opacity="0.22"/><rect x="221" y="230" width="8" height="30" rx="4" fill="#8A6B4F"/><circle cx="228" cy="217.9" r="22" fill="#4E8746"/><circle cx="223" cy="213.9" r="19.4" fill="#6FAA58"/><ellipse cx="216.6" cy="210" rx="9.7" ry="7.5" fill="#98CB77"/><circle cx="214.4" cy="215.3" r="3.4" fill="#F2C46E"/><circle cx="230.6" cy="203.4" r="3.4" fill="#F2C46E"/><circle cx="240.8" cy="220.1" r="3.4" fill="#F2C46E"/><circle cx="224.9" cy="228.9" r="3.4" fill="#F2C46E"/></g>
<g><ellipse cx="252" cy="292" rx="22" ry="9.2" fill="#CBBC97"/><ellipse cx="252" cy="291" rx="16.7" ry="6.7" fill="#C4A981"/><ellipse cx="259" cy="294" rx="18" ry="6.7" fill="#4E8746" opacity="0.22"/><rect x="248" y="268" width="8" height="26" rx="4" fill="#8A6B4F"/><circle cx="255" cy="258.1" r="18" fill="#4E8746"/><circle cx="250" cy="254.10000000000002" r="15.8" fill="#6FAA58"/><ellipse cx="245.2" cy="251.6" rx="7.9" ry="6.1" fill="#98CB77"/></g>
<g><ellipse cx="700" cy="240" rx="24" ry="10.1" fill="#CBBC97"/><ellipse cx="700" cy="239" rx="18.2" ry="7.3" fill="#C4A981"/><ellipse cx="707" cy="242" rx="19.7" ry="7.3" fill="#4E8746" opacity="0.22"/><rect x="696" y="214" width="8" height="28" rx="4" fill="#8A6B4F"/><circle cx="703" cy="203" r="20" fill="#4E8746"/><circle cx="698" cy="199" r="17.6" fill="#6FAA58"/><ellipse cx="692.4" cy="195.8" rx="8.8" ry="6.8" fill="#98CB77"/><circle cx="690.6" cy="200.6" r="3.4" fill="#F2C46E"/><circle cx="705.4" cy="189.8" r="3.4" fill="#F2C46E"/><circle cx="714.6" cy="205" r="3.4" fill="#F2C46E"/><circle cx="700.2" cy="213" r="3.4" fill="#F2C46E"/></g>
<g><ellipse cx="662" cy="220" rx="22" ry="9.2" fill="#CBBC97"/><ellipse cx="662" cy="219" rx="16.7" ry="6.7" fill="#C4A981"/><ellipse cx="669" cy="222" rx="18" ry="6.7" fill="#4E8746" opacity="0.22"/><rect x="658" y="196" width="8" height="26" rx="4" fill="#8A6B4F"/><circle cx="665" cy="186.1" r="18" fill="#4E8746"/><circle cx="660" cy="182.1" r="15.8" fill="#6FAA58"/><ellipse cx="655.2" cy="179.6" rx="7.9" ry="6.1" fill="#98CB77"/><circle cx="653.8" cy="183.9" r="3.4" fill="#F2C46E"/><circle cx="667.2" cy="174.2" r="3.4" fill="#F2C46E"/><circle cx="675.4" cy="187.9" r="3.4" fill="#F2C46E"/><circle cx="662.5" cy="195.1" r="3.4" fill="#F2C46E"/></g>
<g><ellipse cx="360" cy="175" rx="24" ry="10.1" fill="#CBBC97"/><ellipse cx="360" cy="174" rx="18.2" ry="7.3" fill="#C4A981"/><ellipse cx="367" cy="177" rx="19.7" ry="7.3" fill="#4E8746" opacity="0.22"/><rect x="356" y="149" width="8" height="28" rx="4" fill="#8A6B4F"/><circle cx="363" cy="138" r="20" fill="#4E8746"/><circle cx="358" cy="134" r="17.6" fill="#6FAA58"/><ellipse cx="352.4" cy="130.8" rx="8.8" ry="6.8" fill="#98CB77"/><circle cx="350.6" cy="135.6" r="3.4" fill="#F2C46E"/><circle cx="365.4" cy="124.8" r="3.4" fill="#F2C46E"/><circle cx="374.6" cy="140" r="3.4" fill="#F2C46E"/><circle cx="360.2" cy="148" r="3.4" fill="#F2C46E"/></g>
<g><ellipse cx="105" cy="448.7" rx="11" ry="5.5" fill="#96714E"/><ellipse cx="105" cy="444.4" rx="19.4" ry="7.9" fill="#CDB992"/><ellipse cx="105" cy="440" rx="22" ry="7.9" fill="#ECDFBE"/><ellipse cx="105" cy="439" rx="13.2" ry="4" fill="#E7DDC0"/></g>
<g><ellipse cx="52" cy="479.5" rx="7" ry="3.5" fill="#96714E"/><ellipse cx="52" cy="476.8" rx="12.3" ry="5" fill="#CDB992"/><ellipse cx="52" cy="474" rx="14" ry="5" fill="#ECDFBE"/><ellipse cx="52" cy="473" rx="8.4" ry="2.5" fill="#E7DDC0"/></g>
<g><ellipse cx="766" cy="127.9" rx="10" ry="5" fill="#96714E"/><ellipse cx="766" cy="124" rx="17.6" ry="7.2" fill="#CDB992"/><ellipse cx="766" cy="120" rx="20" ry="7.2" fill="#ECDFBE"/><ellipse cx="766" cy="119" rx="12" ry="3.6" fill="#E7DDC0"/></g>
<g><ellipse cx="828" cy="100.1" rx="6.5" ry="3.3" fill="#96714E"/><ellipse cx="828" cy="97.6" rx="11.4" ry="4.7" fill="#CDB992"/><ellipse cx="828" cy="95" rx="13" ry="4.7" fill="#ECDFBE"/><ellipse cx="828" cy="94" rx="7.8" ry="2.3" fill="#E7DDC0"/></g>
<g opacity="0.9">
<ellipse cx="352" cy="458" rx="81.2" ry="21" fill="#FDF6E4"/>
<ellipse cx="310" cy="448.2" rx="42" ry="15.4" fill="#FDF6E4"/>
<ellipse cx="382.8" cy="446.8" rx="47.6" ry="16.8" fill="#FDF6E4"/>
<ellipse cx="360.4" cy="463.6" rx="70" ry="15.4" fill="#F4EFD8"/>
</g>
<g opacity="0.8">
<ellipse cx="610" cy="474" rx="52.2" ry="13.5" fill="#FDF6E4"/>
<ellipse cx="583" cy="467.7" rx="27" ry="9.9" fill="#FDF6E4"/>
<ellipse cx="629.8" cy="466.8" rx="30.6" ry="10.8" fill="#FDF6E4"/>
<ellipse cx="615.4" cy="477.6" rx="45" ry="9.9" fill="#F4EFD8"/>
</g>
</svg>
