<svg viewBox="0 0 900 520" xmlns="http://www.w3.org/2000/svg">
<defs>
<linearGradient id="skyA3" x1="0" y1="0" x2="0" y2="1"><stop offset="0" stop-color="#A3CBAB"/><stop offset="0.52" stop-color="#DCE8B4"/><stop offset="1" stop-color="#F8DCA2"/></linearGradient>
<linearGradient id="grassA3" x1="0" y1="0" x2="0.25" y2="1"><stop offset="0" stop-color="#A0D080"/><stop offset="1" stop-color="#74B25E"/></linearGradient>
</defs>
<rect x="0" y="0" width="900" height="520" fill="url(#skyA3)"/>
<g opacity="0.5"><ellipse cx="230" cy="72" rx="44" ry="8" fill="#FDF6E4"/><ellipse cx="214" cy="76" rx="30" ry="6.4" fill="#F4EFD8"/></g>
<g opacity="0.45"><ellipse cx="600" cy="62" rx="36" ry="7" fill="#FDF6E4"/><ellipse cx="587" cy="65" rx="25" ry="5.6" fill="#F4EFD8"/></g>
<g opacity="0.4"><ellipse cx="795" cy="100" rx="26" ry="5.5" fill="#FDF6E4"/><ellipse cx="786" cy="103" rx="18" ry="4.4" fill="#F4EFD8"/></g>
<g opacity="0.4"><ellipse cx="65" cy="140" rx="28" ry="6" fill="#FDF6E4"/><ellipse cx="54" cy="143" rx="20" ry="4.8" fill="#F4EFD8"/></g>
<g opacity="0.42"><ellipse cx="300" cy="468" rx="48" ry="12" fill="#FDF6E4"/><ellipse cx="275" cy="462.6" rx="25" ry="8.8" fill="#FDF6E4"/><ellipse cx="318.2" cy="462" rx="28.3" ry="9.6" fill="#FDF6E4"/><ellipse cx="304.8" cy="471.2" rx="41.3" ry="8.8" fill="#F4EFD8"/></g>
<g opacity="0.4"><ellipse cx="620" cy="476" rx="54" ry="13" fill="#FDF6E4"/><ellipse cx="591.9" cy="470.1" rx="28.1" ry="9.5" fill="#FDF6E4"/><ellipse cx="640.5" cy="469.5" rx="31.9" ry="10.4" fill="#FDF6E4"/><ellipse cx="625.4" cy="479.5" rx="46.4" ry="9.5" fill="#F4EFD8"/></g>
<g opacity="0.38"><ellipse cx="800" cy="455" rx="40" ry="9" fill="#FDF6E4"/><ellipse cx="786" cy="458.6" rx="27.2" ry="7" fill="#F4EFD8"/></g>
<g opacity="0.25"><ellipse cx="170" cy="494" rx="36" ry="8" fill="#FDF6E4"/><ellipse cx="157.4" cy="497.2" rx="24.5" ry="6.2" fill="#F4EFD8"/></g>
<g opacity="0.24"><ellipse cx="460" cy="500" rx="42" ry="9" fill="#FDF6E4"/><ellipse cx="445.3" cy="503.6" rx="28.6" ry="7" fill="#F4EFD8"/></g>
<g opacity="0.24"><ellipse cx="755" cy="492" rx="34" ry="7" fill="#FDF6E4"/><ellipse cx="743.1" cy="494.8" rx="23.1" ry="5.5" fill="#F4EFD8"/></g>
<g transform="translate(0,-24)">
<ellipse cx="456" cy="424" rx="108" ry="11" fill="#D2BB93"/>
<ellipse cx="458" cy="432" rx="62" ry="7.5" fill="#DECAA4"/>
<ellipse cx="459" cy="438" rx="30" ry="4.5" fill="#E9D8B6"/>
<path transform="translate(0,30)" fill="#C9B08A" d="M 144,282 C 141,242 176,204 232,185 C 288,166 350,152 420,150 C 493,148 566,157 634,180 C 700,203 762,228 777,263 C 791,299 748,336 694,358 C 634,383 550,399 464,402 C 382,405 300,392 240,370 C 192,352 147,323 144,282 Z"/>
<path transform="translate(0,15)" fill="#D2BC90" d="M 144,282 C 141,242 176,204 232,185 C 288,166 350,152 420,150 C 493,148 566,157 634,180 C 700,203 762,228 777,263 C 791,299 748,336 694,358 C 634,383 550,399 464,402 C 382,405 300,392 240,370 C 192,352 147,323 144,282 Z"/>
<path fill="#ECDFBE" d="M 144,282 C 141,242 176,204 232,185 C 288,166 350,152 420,150 C 493,148 566,157 634,180 C 700,203 762,228 777,263 C 791,299 748,336 694,358 C 634,383 550,399 464,402 C 382,405 300,392 240,370 C 192,352 147,323 144,282 Z"/>
<path fill="url(#grassA3)" d="M 162,282 C 160,247 193,213 244,195 C 296,176 355,166 421,164 C 490,162 560,170 623,192 C 686,214 744,236 757,268 C 769,298 728,331 677,351 C 620,373 545,388 464,390 C 385,392 313,381 256,360 C 211,343 164,318 162,282 Z"/>
<ellipse cx="530" cy="300" rx="90" ry="24" fill="#A4D384" opacity="0.34"/>
<ellipse cx="240" cy="300" rx="36" ry="11" fill="#A4D384" opacity="0.3"/>
<ellipse cx="480" cy="375" rx="160" ry="12" fill="#4E8746" opacity="0.12"/>
<ellipse cx="640" cy="230" rx="28" ry="9" fill="#699F63" opacity="0.13"/>
<ellipse cx="478" cy="305" rx="70" ry="22" fill="#F2C46E" opacity="0.11"/>
<rect x="342" y="373" width="5" height="13" rx="2.5" fill="#B9A87C" opacity="0.4"/><rect x="380" y="378" width="5" height="13" rx="2.5" fill="#B9A87C" opacity="0.4"/><rect x="420" y="382" width="5" height="13" rx="2.5" fill="#B9A87C" opacity="0.4"/><rect x="462" y="384" width="5" height="13" rx="2.5" fill="#B9A87C" opacity="0.4"/><rect x="504" y="383" width="5" height="13" rx="2.5" fill="#B9A87C" opacity="0.4"/><rect x="546" y="380" width="5" height="13" rx="2.5" fill="#B9A87C" opacity="0.4"/><rect x="588" y="374" width="5" height="13" rx="2.5" fill="#B9A87C" opacity="0.4"/><rect x="628" y="366" width="5" height="13" rx="2.5" fill="#B9A87C" opacity="0.4"/><rect x="664" y="355" width="5" height="13" rx="2.5" fill="#B9A87C" opacity="0.4"/><rect x="696" y="341" width="5" height="13" rx="2.5" fill="#B9A87C" opacity="0.4"/><rect x="722" y="325" width="5" height="13" rx="2.5" fill="#B9A87C" opacity="0.4"/><rect x="740" y="306" width="5" height="13" rx="2.5" fill="#B9A87C" opacity="0.4"/>
<ellipse cx="250" cy="196" rx="8" ry="3.6" fill="#7CB863" opacity="0.55"/><ellipse cx="340" cy="172" rx="5.5" ry="2.5" fill="#8CC474" opacity="0.55"/><ellipse cx="455" cy="163" rx="9" ry="4" fill="#7CB863" opacity="0.55"/><ellipse cx="570" cy="178" rx="5" ry="2.3" fill="#8CC474" opacity="0.55"/><ellipse cx="655" cy="200" rx="8" ry="3.6" fill="#7CB863" opacity="0.55"/><ellipse cx="725" cy="230" rx="5.5" ry="2.5" fill="#8CC474" opacity="0.55"/><ellipse cx="752" cy="275" rx="6.5" ry="3" fill="#7CB863" opacity="0.55"/><ellipse cx="710" cy="332" rx="6" ry="2.7" fill="#8CC474" opacity="0.55"/><ellipse cx="640" cy="362" rx="8" ry="3.6" fill="#7CB863" opacity="0.55"/><ellipse cx="560" cy="380" rx="5.5" ry="2.5" fill="#8CC474" opacity="0.55"/><ellipse cx="460" cy="387" rx="8.5" ry="3.8" fill="#7CB863" opacity="0.55"/><ellipse cx="360" cy="381" rx="5.5" ry="2.5" fill="#8CC474" opacity="0.55"/><ellipse cx="285" cy="366" rx="7.5" ry="3.4" fill="#7CB863" opacity="0.55"/><ellipse cx="200" cy="330" rx="6" ry="2.7" fill="#8CC474" opacity="0.55"/><ellipse cx="174" cy="290" rx="6.5" ry="3" fill="#7CB863" opacity="0.55"/><ellipse cx="185" cy="240" rx="7" ry="3.2" fill="#8CC474" opacity="0.55"/><ellipse cx="215" cy="208" rx="6" ry="2.7" fill="#7CB863" opacity="0.55"/>
<path d="M 277.1,420.3 C 278.4,415.5 282.6,399.7 284.8,391.3 C 287.1,382.9 289.3,374.6 290.5,370.1 C 291.8,365.6 291.9,365.6 292.3,364.3 C 292.7,363.1 292.8,362.8 292.9,362.4" fill="none" stroke="#B08A60" stroke-width="33" stroke-linecap="round" transform="translate(0,10)" opacity="0.8"/><path d="M 277.1,420.3 C 278.4,415.5 282.6,399.7 284.8,391.3 C 287.1,382.9 289.3,374.6 290.5,370.1 C 291.8,365.6 291.9,365.6 292.3,364.3 C 292.7,363.1 292.8,362.8 292.9,362.4" fill="none" stroke="#D8C7A0" stroke-width="33" stroke-linecap="round" transform="translate(0,5)"/><path d="M 277.1,420.3 C 278.4,415.5 282.6,399.7 284.8,391.3 C 287.1,382.9 289.3,374.6 290.5,370.1 C 291.8,365.6 291.9,365.6 292.3,364.3 C 292.7,363.1 292.8,362.8 292.9,362.4" fill="none" stroke="#ECDFBE" stroke-width="33" stroke-linecap="round"/>
<path d="M 616.5,195.7 C 618.8,194.5 622.4,192.6 630.6,188.2 C 638.9,183.9 654.2,175.7 665.9,169.5 C 677.7,163.2 693.9,154.6 701.3,150.7 C 708.6,146.8 708.6,146.8 710.1,146" fill="none" stroke="#B08A60" stroke-width="33" stroke-linecap="round" transform="translate(0,10)" opacity="0.8"/><path d="M 616.5,195.7 C 618.8,194.5 622.4,192.6 630.6,188.2 C 638.9,183.9 654.2,175.7 665.9,169.5 C 677.7,163.2 693.9,154.6 701.3,150.7 C 708.6,146.8 708.6,146.8 710.1,146" fill="none" stroke="#D8C7A0" stroke-width="33" stroke-linecap="round" transform="translate(0,5)"/><path d="M 616.5,195.7 C 618.8,194.5 622.4,192.6 630.6,188.2 C 638.9,183.9 654.2,175.7 665.9,169.5 C 677.7,163.2 693.9,154.6 701.3,150.7 C 708.6,146.8 708.6,146.8 710.1,146" fill="none" stroke="#ECDFBE" stroke-width="33" stroke-linecap="round"/>
<path d="M 277.1,420.3 C 280.2,409.4 290.5,370 295.6,354.9 C 300.7,339.8 303.1,337.7 307.8,329.7 C 312.4,321.7 317.8,313.9 323.7,306.7 C 329.6,299.5 336.1,292.7 343.1,286.5 C 350,280.4 357.5,274.7 365.3,269.6 C 373.2,264.6 381.5,260.2 390,256.5 C 398.5,252.8 407.5,249.7 416.5,247.4 C 425.5,245 434.8,243.8 444,242.5 C 453.3,241.3 462.6,241.1 471.9,240 C 481.2,238.9 490.4,237.5 499.6,235.7 C 508.7,234 517.9,232 526.9,229.7 C 535.9,227.4 544.9,224.8 553.8,221.9 C 562.7,219 571.4,215.8 580.1,212.3 C 588.8,208.8 591.4,208.2 605.7,201 C 620,193.9 648.6,178.6 665.9,169.5 C 683.3,160.3 702.7,149.9 710.1,146" fill="none" stroke="#B4A47C" stroke-width="24" stroke-linecap="round" transform="translate(0,6)"/>
<path d="M 277.1,420.3 C 280.2,409.4 290.5,370 295.6,354.9 C 300.7,339.8 303.1,337.7 307.8,329.7 C 312.4,321.7 317.8,313.9 323.7,306.7 C 329.6,299.5 336.1,292.7 343.1,286.5 C 350,280.4 357.5,274.7 365.3,269.6 C 373.2,264.6 381.5,260.2 390,256.5 C 398.5,252.8 407.5,249.7 416.5,247.4 C 425.5,245 434.8,243.8 444,242.5 C 453.3,241.3 462.6,241.1 471.9,240 C 481.2,238.9 490.4,237.5 499.6,235.7 C 508.7,234 517.9,232 526.9,229.7 C 535.9,227.4 544.9,224.8 553.8,221.9 C 562.7,219 571.4,215.8 580.1,212.3 C 588.8,208.8 591.4,208.2 605.7,201 C 620,193.9 648.6,178.6 665.9,169.5 C 683.3,160.3 702.7,149.9 710.1,146" fill="none" stroke="#EAE0C6" stroke-width="24" stroke-linecap="round"/>
<path d="M 277.1,420.3 C 280.2,409.4 290.5,370 295.6,354.9 C 300.7,339.8 303.1,337.7 307.8,329.7 C 312.4,321.7 317.8,313.9 323.7,306.7 C 329.6,299.5 336.1,292.7 343.1,286.5 C 350,280.4 357.5,274.7 365.3,269.6 C 373.2,264.6 381.5,260.2 390,256.5 C 398.5,252.8 407.5,249.7 416.5,247.4 C 425.5,245 434.8,243.8 444,242.5 C 453.3,241.3 462.6,241.1 471.9,240 C 481.2,238.9 490.4,237.5 499.6,235.7 C 508.7,234 517.9,232 526.9,229.7 C 535.9,227.4 544.9,224.8 553.8,221.9 C 562.7,219 571.4,215.8 580.1,212.3 C 588.8,208.8 591.4,208.2 605.7,201 C 620,193.9 648.6,178.6 665.9,169.5 C 683.3,160.3 702.7,149.9 710.1,146" fill="none" stroke="#EAE0C6" stroke-width="27" stroke-linecap="round" opacity="0.35" transform="translate(1.5,2)"/>
<path d="M 277.1,420.3 C 280.2,409.4 290.5,370 295.6,354.9 C 300.7,339.8 303.1,337.7 307.8,329.7 C 312.4,321.7 317.8,313.9 323.7,306.7 C 329.6,299.5 336.1,292.7 343.1,286.5 C 350,280.4 357.5,274.7 365.3,269.6 C 373.2,264.6 381.5,260.2 390,256.5 C 398.5,252.8 407.5,249.7 416.5,247.4 C 425.5,245 434.8,243.8 444,242.5 C 453.3,241.3 462.6,241.1 471.9,240 C 481.2,238.9 490.4,237.5 499.6,235.7 C 508.7,234 517.9,232 526.9,229.7 C 535.9,227.4 544.9,224.8 553.8,221.9 C 562.7,219 571.4,215.8 580.1,212.3 C 588.8,208.8 591.4,208.2 605.7,201 C 620,193.9 648.6,178.6 665.9,169.5 C 683.3,160.3 702.7,149.9 710.1,146" fill="none" stroke="#E7DDC0" stroke-width="12" stroke-linecap="round" transform="translate(-0.5,-1)"/>
<ellipse cx="287" cy="382" rx="6.5" ry="3.3" fill="#D6C9A2"/><ellipse cx="297" cy="351" rx="6.5" ry="3.3" fill="#D6C9A2"/><ellipse cx="312" cy="323" rx="6.5" ry="3.3" fill="#D6C9A2"/><ellipse cx="330" cy="299" rx="6.5" ry="3.3" fill="#D6C9A2"/><ellipse cx="354" cy="278" rx="6.5" ry="3.3" fill="#D6C9A2"/><ellipse cx="379" cy="262" rx="6.5" ry="3.3" fill="#D6C9A2"/><ellipse cx="407" cy="250" rx="6.5" ry="3.3" fill="#D6C9A2"/><ellipse cx="436" cy="243" rx="6.5" ry="3.3" fill="#D6C9A2"/><ellipse cx="466" cy="241" rx="6.5" ry="3.3" fill="#D6C9A2"/><ellipse cx="498" cy="236" rx="6.5" ry="3.3" fill="#D6C9A2"/><ellipse cx="527" cy="230" rx="6.5" ry="3.3" fill="#D6C9A2"/><ellipse cx="558" cy="221" rx="6.5" ry="3.3" fill="#D6C9A2"/><ellipse cx="587" cy="209" rx="6.5" ry="3.3" fill="#D6C9A2"/><ellipse cx="616" cy="196" rx="6.5" ry="3.3" fill="#D6C9A2"/><ellipse cx="648" cy="179" rx="6.5" ry="3.3" fill="#D6C9A2"/><ellipse cx="675" cy="165" rx="6.5" ry="3.3" fill="#D6C9A2"/><ellipse cx="710" cy="146" rx="6.5" ry="3.3" fill="#D6C9A2"/>
<g transform="translate(478,297)"><g transform="translate(0,5) scale(1,0.52) translate(-345,-262)" fill="#C9B389"><circle cx="345" cy="242.8" r="27.6"/><circle cx="369" cy="262" r="27.6"/><circle cx="345" cy="281.2" r="27.6"/><circle cx="321" cy="262" r="27.6"/><rect x="321" y="242.8" width="48" height="38.4" rx="9.6"/></g><g transform="scale(1,0.52) translate(-345,-262)"><g opacity="0.8"><circle cx="345" cy="245.8" r="27.6" fill="#DFD2AE"/><circle cx="369" cy="265" r="27.6" fill="#DFD2AE"/><circle cx="345" cy="284.2" r="27.6" fill="#DFD2AE"/><circle cx="321" cy="265" r="27.6" fill="#DFD2AE"/><rect x="321" y="245.8" width="48" height="38.4" rx="9.6" fill="#DFD2AE"/></g><g><circle cx="345" cy="242.8" r="27.6" fill="#E8DCBE"/><circle cx="369" cy="262" r="27.6" fill="#E8DCBE"/><circle cx="345" cy="281.2" r="27.6" fill="#E8DCBE"/><circle cx="321" cy="262" r="27.6" fill="#E8DCBE"/><rect x="321" y="242.8" width="48" height="38.4" rx="9.6" fill="#E8DCBE"/></g><ellipse cx="380.6" cy="272.6" rx="5.5" ry="3.6" fill="#D6C9A2" opacity="0.8"/><ellipse cx="367.3" cy="290.8" rx="5.5" ry="3.6" fill="#D6C9A2" opacity="0.8"/><ellipse cx="345.5" cy="298" rx="5.5" ry="3.6" fill="#D6C9A2" opacity="0.8"/><ellipse cx="323.5" cy="291.4" rx="5.5" ry="3.6" fill="#D6C9A2" opacity="0.8"/><ellipse cx="309.7" cy="273.6" rx="5.5" ry="3.6" fill="#D6C9A2" opacity="0.8"/><ellipse cx="309.4" cy="251.4" rx="5.5" ry="3.6" fill="#D6C9A2" opacity="0.8"/><ellipse cx="322.7" cy="233.2" rx="5.5" ry="3.6" fill="#D6C9A2" opacity="0.8"/><ellipse cx="344.5" cy="226" rx="5.5" ry="3.6" fill="#D6C9A2" opacity="0.8"/><ellipse cx="366.5" cy="232.6" rx="5.5" ry="3.6" fill="#D6C9A2" opacity="0.8"/><ellipse cx="380.3" cy="250.4" rx="5.5" ry="3.6" fill="#D6C9A2" opacity="0.8"/><g><circle cx="345" cy="247" r="23" fill="#B7A177"/><circle cx="365" cy="263" r="23" fill="#B7A177"/><circle cx="345" cy="279" r="23" fill="#B7A177"/><circle cx="325" cy="263" r="23" fill="#B7A177"/><rect x="325" y="247" width="40" height="32" rx="8" fill="#B7A177"/></g><g><circle cx="345" cy="244" r="23" fill="#ECDFBE"/><circle cx="365" cy="260" r="23" fill="#ECDFBE"/><circle cx="345" cy="276" r="23" fill="#ECDFBE"/><circle cx="325" cy="260" r="23" fill="#ECDFBE"/><rect x="325" y="244" width="40" height="32" rx="8" fill="#ECDFBE"/></g><g><circle cx="345" cy="245.96" r="18.4" fill="#CDB992"/><circle cx="363.8" cy="261" r="18.4" fill="#CDB992"/><circle cx="345" cy="276.04" r="18.4" fill="#CDB992"/><circle cx="326.2" cy="261" r="18.4" fill="#CDB992"/><rect x="326.2" y="246" width="37.6" height="30.1" rx="7.5" fill="#CDB992"/></g><g><circle cx="345" cy="247.92" r="14.3" fill="#57A79E"/><circle cx="362.6" cy="262" r="14.3" fill="#57A79E"/><circle cx="345" cy="276.08" r="14.3" fill="#57A79E"/><circle cx="327.4" cy="262" r="14.3" fill="#57A79E"/><rect x="327.4" y="247.9" width="35.2" height="28.2" rx="7" fill="#57A79E"/></g><g><circle cx="345" cy="250.88" r="12" fill="#8FCFC2"/><circle cx="361.4" cy="264" r="12" fill="#8FCFC2"/><circle cx="345" cy="277.12" r="12" fill="#8FCFC2"/><circle cx="328.6" cy="264" r="12" fill="#8FCFC2"/><rect x="328.6" y="250.9" width="32.8" height="26.2" rx="6.6" fill="#8FCFC2"/></g><ellipse cx="339" cy="266.7" rx="11.5" ry="6" fill="#BFE8DC" opacity="0.55"/></g></g>
<g transform="translate(450,362) rotate(-4) scale(1.0)"><rect x="-36" y="-6" width="72" height="20" rx="8" fill="#C9B389"/><rect x="-36" y="-10" width="72" height="20" rx="8" fill="#ECDFBE"/><rect x="-30" y="-6" width="60" height="12" rx="5" fill="#C4A981"/><ellipse cx="-18" cy="0" rx="5" ry="2.6" fill="#6FAA58"/><ellipse cx="0" cy="0" rx="5" ry="2.6" fill="#98CB77"/><ellipse cx="18" cy="0" rx="5" ry="2.6" fill="#6FAA58"/><circle cx="14" cy="-1.5" r="2.2" fill="#F2C46E"/></g>
<g transform="translate(630,332) rotate(6) scale(0.9)"><rect x="-36" y="-6" width="72" height="20" rx="8" fill="#C9B389"/><rect x="-36" y="-10" width="72" height="20" rx="8" fill="#ECDFBE"/><rect x="-30" y="-6" width="60" height="12" rx="5" fill="#C4A981"/><ellipse cx="-18" cy="0" rx="5" ry="2.6" fill="#6FAA58"/><ellipse cx="0" cy="0" rx="5" ry="2.6" fill="#98CB77"/><ellipse cx="18" cy="0" rx="5" ry="2.6" fill="#6FAA58"/><circle cx="14" cy="-1.5" r="2.2" fill="#F2C46E"/></g>
<g><ellipse cx="700" cy="245" rx="17.6" ry="7.4" fill="#CBBC97"/><ellipse cx="700" cy="244" rx="13.4" ry="5.4" fill="#C4A981"/><ellipse cx="705.6" cy="247" rx="14.4" ry="5.4" fill="#4E8746" opacity="0.22"/><rect x="696.8" y="225.8" width="6.4" height="20.8" rx="3.2" fill="#8A6B4F"/><circle cx="702.4" cy="217.9" r="14.4" fill="#4E8746"/><circle cx="698.4" cy="214.7" r="12.6" fill="#6FAA58"/><ellipse cx="694.6" cy="212.7" rx="6.3" ry="4.9" fill="#98CB77"/><circle cx="693.4" cy="216.1" r="2.7" fill="#F2C46E"/><circle cx="704.2" cy="208.4" r="2.7" fill="#F2C46E"/><circle cx="710.7" cy="219.3" r="2.7" fill="#F2C46E"/></g>
<g><ellipse cx="600" cy="290" rx="25.3" ry="10.6" fill="#CBBC97"/><ellipse cx="600" cy="289" rx="19.2" ry="7.7" fill="#C4A981"/><ellipse cx="608" cy="292" rx="20.7" ry="7.7" fill="#4E8746" opacity="0.22"/><rect x="595.4" y="262.4" width="9.2" height="29.9" rx="4.6" fill="#8A6B4F"/><circle cx="603.5" cy="251" r="20.7" fill="#4E8746"/><circle cx="597.7" cy="246.4" r="18.2" fill="#6FAA58"/><ellipse cx="592.2" cy="243.5" rx="9.1" ry="7" fill="#98CB77"/><circle cx="590.6" cy="248.5" r="3.9" fill="#F2C46E"/><circle cx="606" cy="237.3" r="3.9" fill="#F2C46E"/><circle cx="615.4" cy="253.1" r="3.9" fill="#F2C46E"/><circle cx="600.6" cy="261.4" r="3.9" fill="#F2C46E"/></g>
<g><ellipse cx="690" cy="300" rx="20.9" ry="8.7" fill="#CBBC97"/><ellipse cx="690" cy="299" rx="15.9" ry="6.4" fill="#C4A981"/><ellipse cx="696.6" cy="302" rx="17.1" ry="6.4" fill="#4E8746" opacity="0.22"/><rect x="686.2" y="277.2" width="7.6" height="24.7" rx="3.8" fill="#8A6B4F"/><circle cx="692.9" cy="267.8" r="17.1" fill="#4E8746"/><circle cx="688.1" cy="264" r="15" fill="#6FAA58"/><ellipse cx="683.5" cy="261.6" rx="7.5" ry="5.8" fill="#98CB77"/><circle cx="682.2" cy="265.7" r="3.2" fill="#F2C46E"/><circle cx="694.9" cy="256.5" r="3.2" fill="#F2C46E"/><circle cx="702.7" cy="269.5" r="3.2" fill="#F2C46E"/></g>
<g><ellipse cx="405" cy="342" rx="20.9" ry="8.7" fill="#CBBC97"/><ellipse cx="405" cy="341" rx="15.9" ry="6.4" fill="#C4A981"/><ellipse cx="411.6" cy="344" rx="17.1" ry="6.4" fill="#4E8746" opacity="0.22"/><rect x="401.2" y="319.2" width="7.6" height="24.7" rx="3.8" fill="#8A6B4F"/><circle cx="407.9" cy="309.8" r="17.1" fill="#4E8746"/><circle cx="403.1" cy="306" r="15" fill="#6FAA58"/><ellipse cx="398.5" cy="303.6" rx="7.5" ry="5.8" fill="#98CB77"/><circle cx="397.2" cy="307.7" r="3.2" fill="#F2C46E"/><circle cx="409.9" cy="298.5" r="3.2" fill="#F2C46E"/><circle cx="417.7" cy="311.5" r="3.2" fill="#F2C46E"/></g>
<g><ellipse cx="532" cy="338" rx="23.1" ry="9.7" fill="#CBBC97"/><ellipse cx="532" cy="337" rx="17.5" ry="7" fill="#C4A981"/><ellipse cx="539.4" cy="340" rx="18.9" ry="7" fill="#4E8746" opacity="0.22"/><rect x="527.8" y="312.8" width="8.4" height="27.3" rx="4.2" fill="#8A6B4F"/><circle cx="535.1" cy="302.4" r="18.9" fill="#4E8746"/><circle cx="529.9" cy="298.2" r="16.6" fill="#6FAA58"/><ellipse cx="524.9" cy="295.6" rx="8.3" ry="6.4" fill="#98CB77"/><circle cx="523.4" cy="300.1" r="3.6" fill="#F2C46E"/><circle cx="537.5" cy="289.9" r="3.6" fill="#F2C46E"/><circle cx="546.1" cy="304.3" r="3.6" fill="#F2C46E"/><circle cx="532.5" cy="311.9" r="3.6" fill="#F2C46E"/></g>
<g><ellipse cx="335" cy="372" rx="15.4" ry="6.4" fill="#CBBC97"/><ellipse cx="335" cy="371" rx="11.7" ry="4.7" fill="#C4A981"/><ellipse cx="339.9" cy="374" rx="12.6" ry="4.7" fill="#4E8746" opacity="0.22"/><rect x="332.2" y="355.2" width="5.6" height="18.2" rx="2.8" fill="#8A6B4F"/><circle cx="337.1" cy="348.3" r="12.6" fill="#4E8746"/><circle cx="333.6" cy="345.5" r="11.1" fill="#6FAA58"/><ellipse cx="330.2" cy="343.7" rx="5.5" ry="4.3" fill="#98CB77"/><circle cx="329.3" cy="346.7" r="2.4" fill="#F2C46E"/><circle cx="338.6" cy="339.9" r="2.4" fill="#F2C46E"/></g>
<g><ellipse cx="225" cy="272.4" rx="14.4" ry="5" fill="#CBBC97"/><ellipse cx="225" cy="271.6" rx="11.4" ry="3.8" fill="#C4A981"/><ellipse cx="231" cy="273.6" rx="11.4" ry="3.6" fill="#4E8746" opacity="0.22"/><circle cx="219.6" cy="265.6" r="9" fill="#4E8746"/><circle cx="230" cy="266.2" r="8.4" fill="#6FAA58"/><circle cx="224.8" cy="261.4" r="8.9" fill="#6FAA58"/><ellipse cx="222" cy="259" rx="5.8" ry="4.6" fill="#98CB77"/><circle cx="218.4" cy="263.6" r="2.6" fill="#EFC3CC"/><circle cx="229.6" cy="261.2" r="2.6" fill="#EFC98D"/><circle cx="226" cy="268.6" r="2.4" fill="#EFC3CC"/></g>
<g><ellipse cx="235" cy="344.2" rx="12" ry="4.2" fill="#CBBC97"/><ellipse cx="235" cy="343.5" rx="9.5" ry="3.2" fill="#C4A981"/><ellipse cx="240" cy="345.2" rx="9.5" ry="3" fill="#4E8746" opacity="0.22"/><circle cx="230.5" cy="338.5" r="7.5" fill="#4E8746"/><circle cx="239.2" cy="339" r="7" fill="#6FAA58"/><circle cx="234.8" cy="335" r="7.4" fill="#6FAA58"/><ellipse cx="232.5" cy="333" rx="4.8" ry="3.8" fill="#98CB77"/><circle cx="229.5" cy="336.8" r="2.2" fill="#EFC3CC"/><circle cx="238.8" cy="334.8" r="2.2" fill="#EFC98D"/><circle cx="235.8" cy="341" r="2" fill="#EFC3CC"/></g>
<g><ellipse cx="255" cy="231.8" rx="13.2" ry="4.6" fill="#CBBC97"/><ellipse cx="255" cy="231.1" rx="10.4" ry="3.5" fill="#C4A981"/><ellipse cx="260.5" cy="232.9" rx="10.4" ry="3.3" fill="#4E8746" opacity="0.22"/><circle cx="250.1" cy="225.6" r="8.2" fill="#4E8746"/><circle cx="259.6" cy="226.1" r="7.7" fill="#6FAA58"/><circle cx="254.8" cy="221.7" r="8.1" fill="#6FAA58"/><ellipse cx="252.2" cy="219.5" rx="5.3" ry="4.2" fill="#98CB77"/><circle cx="248.9" cy="223.7" r="2.4" fill="#EFC3CC"/><circle cx="259.2" cy="221.5" r="2.4" fill="#EFC98D"/><circle cx="255.9" cy="228.3" r="2.2" fill="#EFC3CC"/></g>
<g><ellipse cx="350" cy="195.6" rx="10.8" ry="3.8" fill="#CBBC97"/><ellipse cx="350" cy="194.9" rx="8.5" ry="2.9" fill="#C4A981"/><ellipse cx="354.5" cy="196.5" rx="8.5" ry="2.7" fill="#4E8746" opacity="0.22"/><circle cx="345.9" cy="190.4" r="6.8" fill="#4E8746"/><circle cx="353.8" cy="190.9" r="6.3" fill="#6FAA58"/><circle cx="349.8" cy="187.3" r="6.7" fill="#6FAA58"/><ellipse cx="347.8" cy="185.5" rx="4.3" ry="3.4" fill="#98CB77"/><circle cx="345.1" cy="188.9" r="2" fill="#EFC3CC"/><circle cx="353.4" cy="187.1" r="2" fill="#EFC98D"/><circle cx="350.7" cy="192.7" r="1.8" fill="#EFC3CC"/></g>
<g><ellipse cx="450" cy="200.6" rx="10.8" ry="3.8" fill="#CBBC97"/><ellipse cx="450" cy="199.9" rx="8.5" ry="2.9" fill="#C4A981"/><ellipse cx="454.5" cy="201.5" rx="8.5" ry="2.7" fill="#4E8746" opacity="0.22"/><circle cx="445.9" cy="195.4" r="6.8" fill="#4E8746"/><circle cx="453.8" cy="195.9" r="6.3" fill="#6FAA58"/><circle cx="449.8" cy="192.3" r="6.7" fill="#6FAA58"/><ellipse cx="447.8" cy="190.5" rx="4.3" ry="3.4" fill="#98CB77"/><circle cx="445.1" cy="193.9" r="2" fill="#EFC3CC"/><circle cx="453.4" cy="192.1" r="2" fill="#EFC98D"/><circle cx="450.7" cy="197.7" r="1.8" fill="#EFC3CC"/></g>
<g><ellipse cx="395" cy="191" rx="9.6" ry="3.4" fill="#CBBC97"/><ellipse cx="395" cy="190.4" rx="7.6" ry="2.6" fill="#C4A981"/><ellipse cx="399" cy="191.8" rx="7.6" ry="2.4" fill="#4E8746" opacity="0.22"/><circle cx="391.4" cy="186.4" r="6" fill="#4E8746"/><circle cx="398.4" cy="186.8" r="5.6" fill="#6FAA58"/><circle cx="394.8" cy="183.6" r="5.9" fill="#6FAA58"/><ellipse cx="393" cy="182" rx="3.8" ry="3" fill="#98CB77"/><circle cx="390.6" cy="185" r="1.8" fill="#EFC3CC"/><circle cx="398" cy="183.4" r="1.8" fill="#EFC98D"/><circle cx="395.6" cy="188.4" r="1.6" fill="#EFC3CC"/></g>
<g><ellipse cx="230" cy="308" rx="20" ry="10.9" fill="#C9B389"/><ellipse cx="230" cy="305" rx="20" ry="10.9" fill="#ECDFBE"/><ellipse cx="230" cy="305.5" rx="16" ry="8.3" fill="#C4A981"/><ellipse cx="218.6" cy="303.3" rx="2.4" ry="1.5" fill="#6FAA58"/><circle cx="221.2" cy="302.1" r="2.3" fill="#EFC3CC"/><ellipse cx="228.2" cy="301.6" rx="2.4" ry="1.5" fill="#6FAA58"/><circle cx="230.8" cy="300.4" r="2.3" fill="#EFC98D"/><ellipse cx="236.7" cy="304.1" rx="2.4" ry="1.5" fill="#6FAA58"/><circle cx="239.3" cy="302.9" r="2.3" fill="#EFC3CC"/><ellipse cx="223.9" cy="309.5" rx="2.4" ry="1.5" fill="#6FAA58"/><circle cx="226.5" cy="308.3" r="2.3" fill="#FBF0D8"/><ellipse cx="232.5" cy="309.7" rx="2.4" ry="1.5" fill="#6FAA58"/><circle cx="235.1" cy="308.5" r="2.3" fill="#EFC98D"/></g>
<g><ellipse cx="300" cy="208" rx="18" ry="9.9" fill="#C9B389"/><ellipse cx="300" cy="205" rx="18" ry="9.9" fill="#ECDFBE"/><ellipse cx="300" cy="205.5" rx="14" ry="7.3" fill="#C4A981"/><ellipse cx="289.7" cy="203.7" rx="2.4" ry="1.5" fill="#6FAA58"/><circle cx="292.3" cy="202.5" r="2.3" fill="#EFC3CC"/><ellipse cx="298.1" cy="202.2" rx="2.4" ry="1.5" fill="#6FAA58"/><circle cx="300.7" cy="201" r="2.3" fill="#EFC98D"/><ellipse cx="305.5" cy="204.4" rx="2.4" ry="1.5" fill="#6FAA58"/><circle cx="308.1" cy="203.2" r="2.3" fill="#EFC3CC"/><ellipse cx="294.3" cy="209.1" rx="2.4" ry="1.5" fill="#6FAA58"/><circle cx="296.9" cy="207.9" r="2.3" fill="#FBF0D8"/><ellipse cx="301.9" cy="209.3" rx="2.4" ry="1.5" fill="#6FAA58"/><circle cx="304.5" cy="208.1" r="2.3" fill="#EFC98D"/></g>
<g><ellipse cx="515" cy="196" rx="17" ry="9.4" fill="#C9B389"/><ellipse cx="515" cy="193" rx="17" ry="9.4" fill="#ECDFBE"/><ellipse cx="515" cy="193.5" rx="13" ry="6.8" fill="#C4A981"/><ellipse cx="505.2" cy="191.8" rx="2.4" ry="1.5" fill="#6FAA58"/><circle cx="507.9" cy="190.6" r="2.3" fill="#EFC3CC"/><ellipse cx="513" cy="190.5" rx="2.4" ry="1.5" fill="#6FAA58"/><circle cx="515.6" cy="189.3" r="2.3" fill="#EFC98D"/><ellipse cx="519.9" cy="192.5" rx="2.4" ry="1.5" fill="#6FAA58"/><circle cx="522.5" cy="191.3" r="2.3" fill="#EFC3CC"/><ellipse cx="509.5" cy="196.9" rx="2.4" ry="1.5" fill="#6FAA58"/><circle cx="512.1" cy="195.7" r="2.3" fill="#FBF0D8"/><ellipse cx="516.6" cy="197" rx="2.4" ry="1.5" fill="#6FAA58"/><circle cx="519.2" cy="195.8" r="2.3" fill="#EFC98D"/></g>
<g><ellipse cx="395" cy="262" rx="4" ry="2.6" fill="#699F63" opacity="0.5"/><ellipse cx="404" cy="264" rx="5" ry="3" fill="#699F63" opacity="0.4"/><ellipse cx="400" cy="257" rx="4.5" ry="2.8" fill="#98CB77" opacity="0.55"/></g>
<g><ellipse cx="545" cy="290" rx="4" ry="2.6" fill="#699F63" opacity="0.5"/><ellipse cx="554" cy="292" rx="5" ry="3" fill="#699F63" opacity="0.4"/><ellipse cx="550" cy="285" rx="4.5" ry="2.8" fill="#98CB77" opacity="0.55"/></g>
<g><ellipse cx="585" cy="315" rx="4" ry="2.6" fill="#699F63" opacity="0.5"/><ellipse cx="594" cy="317" rx="5" ry="3" fill="#699F63" opacity="0.4"/><ellipse cx="590" cy="310" rx="4.5" ry="2.8" fill="#98CB77" opacity="0.55"/></g>
<g><ellipse cx="660" cy="270" rx="4" ry="2.6" fill="#699F63" opacity="0.5"/><ellipse cx="669" cy="272" rx="5" ry="3" fill="#699F63" opacity="0.4"/><ellipse cx="665" cy="265" rx="4.5" ry="2.8" fill="#98CB77" opacity="0.55"/></g>
<g><ellipse cx="362" cy="352" rx="4" ry="2.6" fill="#699F63" opacity="0.5"/><ellipse cx="371" cy="354" rx="5" ry="3" fill="#699F63" opacity="0.4"/><ellipse cx="367" cy="347" rx="4.5" ry="2.8" fill="#98CB77" opacity="0.55"/></g>
<g><ellipse cx="500" cy="378" rx="4" ry="2.6" fill="#699F63" opacity="0.5"/><ellipse cx="509" cy="380" rx="5" ry="3" fill="#699F63" opacity="0.4"/><ellipse cx="505" cy="373" rx="4.5" ry="2.8" fill="#98CB77" opacity="0.55"/></g>
<g><ellipse cx="620" cy="362" rx="4" ry="2.6" fill="#699F63" opacity="0.5"/><ellipse cx="629" cy="364" rx="5" ry="3" fill="#699F63" opacity="0.4"/><ellipse cx="625" cy="357" rx="4.5" ry="2.8" fill="#98CB77" opacity="0.55"/></g>
<g><ellipse cx="720" cy="290" rx="4" ry="2.6" fill="#699F63" opacity="0.5"/><ellipse cx="729" cy="292" rx="5" ry="3" fill="#699F63" opacity="0.4"/><ellipse cx="725" cy="285" rx="4.5" ry="2.8" fill="#98CB77" opacity="0.55"/></g>
<g><ellipse cx="200" cy="300" rx="4" ry="2.6" fill="#699F63" opacity="0.5"/><ellipse cx="209" cy="302" rx="5" ry="3" fill="#699F63" opacity="0.4"/><ellipse cx="205" cy="295" rx="4.5" ry="2.8" fill="#98CB77" opacity="0.55"/></g>
<g><ellipse cx="255" cy="352" rx="4" ry="2.6" fill="#699F63" opacity="0.5"/><ellipse cx="264" cy="354" rx="5" ry="3" fill="#699F63" opacity="0.4"/><ellipse cx="260" cy="347" rx="4.5" ry="2.8" fill="#98CB77" opacity="0.55"/></g>
<g><ellipse cx="330" cy="222" rx="4" ry="2.6" fill="#699F63" opacity="0.5"/><ellipse cx="339" cy="224" rx="5" ry="3" fill="#699F63" opacity="0.4"/><ellipse cx="335" cy="217" rx="4.5" ry="2.8" fill="#98CB77" opacity="0.55"/></g>
<g><ellipse cx="485" cy="188" rx="4" ry="2.6" fill="#699F63" opacity="0.5"/><ellipse cx="494" cy="190" rx="5" ry="3" fill="#699F63" opacity="0.4"/><ellipse cx="490" cy="183" rx="4.5" ry="2.8" fill="#98CB77" opacity="0.55"/></g>
<g><ellipse cx="410" cy="205" rx="4" ry="2.6" fill="#699F63" opacity="0.5"/><ellipse cx="419" cy="207" rx="5" ry="3" fill="#699F63" opacity="0.4"/><ellipse cx="415" cy="200" rx="4.5" ry="2.8" fill="#98CB77" opacity="0.55"/></g>
</g>
<g opacity="0.94"><ellipse cx="272" cy="416" rx="48" ry="13" fill="#FDF6E4"/><ellipse cx="255.2" cy="421.2" rx="32.6" ry="10.1" fill="#F4EFD8"/></g>
<g opacity="0.86"><ellipse cx="296" cy="400" rx="27" ry="7.5" fill="#FDF6E4"/><ellipse cx="286.6" cy="403" rx="18.4" ry="5.9" fill="#F4EFD8"/></g>
<g opacity="0.88"><ellipse cx="248" cy="428" rx="30" ry="8" fill="#FDF6E4"/><ellipse cx="237.5" cy="431.2" rx="20.4" ry="6.2" fill="#F4EFD8"/></g>
<g opacity="0.93"><ellipse cx="716" cy="118" rx="42" ry="11" fill="#FDF6E4"/><ellipse cx="701.3" cy="122.4" rx="28.6" ry="8.6" fill="#F4EFD8"/></g>
<g opacity="0.86"><ellipse cx="694" cy="132" rx="27" ry="7.5" fill="#FDF6E4"/><ellipse cx="684.5" cy="135" rx="18.4" ry="5.9" fill="#F4EFD8"/></g>
</svg>
