<svg viewBox="0 0 1800 860" xmlns="http://www.w3.org/2000/svg">
  <defs>
    <linearGradient id="plain" x1="0" y1="0" x2="0" y2="1">
      <stop offset="0" stop-color="#BCD8B2"/>
      <stop offset="1" stop-color="#93C08D"/>
    </linearGradient>
    <linearGradient id="g1" x1="0" y1="0" x2="0.3" y2="1">
      <stop offset="0" stop-color="#8CC878"/>
      <stop offset="1" stop-color="#72B662"/>
    </linearGradient>
    <linearGradient id="g2" x1="0" y1="0" x2="0.3" y2="1">
      <stop offset="0" stop-color="#8AC26C"/>
      <stop offset="1" stop-color="#6EAC58"/>
    </linearGradient>
    <linearGradient id="g3" x1="0" y1="0" x2="0.3" y2="1">
      <stop offset="0" stop-color="#A3C377"/>
      <stop offset="1" stop-color="#88AC5F"/>
    </linearGradient>
    <radialGradient id="washGold" cx="0.16" cy="0.88" r="0.6">
      <stop offset="0" stop-color="#FBE7AE" stop-opacity="0.20"/>
      <stop offset="1" stop-color="#FBE7AE" stop-opacity="0"/>
    </radialGradient>
    <radialGradient id="washLeaf" cx="0.55" cy="0.45" r="0.5">
      <stop offset="0" stop-color="#DCE8B4" stop-opacity="0.12"/>
      <stop offset="1" stop-color="#DCE8B4" stop-opacity="0"/>
    </radialGradient>
    <radialGradient id="washStone" cx="0.88" cy="0.10" r="0.6">
      <stop offset="0" stop-color="#F6CE92" stop-opacity="0.22"/>
      <stop offset="1" stop-color="#F6CE92" stop-opacity="0"/>
    </radialGradient>
  </defs>

  <!-- ============ the calm plain, light drifting gold to warm stone ============ -->
  <rect x="0" y="0" width="1800" height="860" fill="url(#plain)"/>
  <rect x="0" y="0" width="1800" height="860" fill="url(#washGold)"/>
  <rect x="0" y="0" width="1800" height="860" fill="url(#washLeaf)"/>
  <rect x="0" y="0" width="1800" height="860" fill="url(#washStone)"/>
  <ellipse cx="150" cy="215" rx="110" ry="26" fill="#F4EFD8" opacity="0.12"/>
  <ellipse cx="700" cy="150" rx="90" ry="20" fill="#F4EFD8" opacity="0.09"/>
  <ellipse cx="1000" cy="720" rx="120" ry="26" fill="#F4EFD8" opacity="0.10"/>
  <ellipse cx="1620" cy="560" rx="100" ry="22" fill="#F4EFD8" opacity="0.10"/>
  <ellipse cx="1180" cy="620" rx="80" ry="18" fill="#F4EFD8" opacity="0.08"/>

  <!-- ============ ISLAND 3 : the Courtyard Heights (highest, warm stone) ============ -->
  <path transform="translate(-7,48)" fill="#6FAD72" opacity="0.45" d="M 1296,254 C 1298,186 1358,140 1452,128 C 1546,116 1634,130 1676,168 C 1712,200 1710,256 1668,294 C 1620,336 1518,352 1424,346 C 1342,340 1294,316 1296,254 Z"/>
  <path transform="translate(0,42)" fill="#D2BC90" d="M 1296,254 C 1298,186 1358,140 1452,128 C 1546,116 1634,130 1676,168 C 1712,200 1710,256 1668,294 C 1620,336 1518,352 1424,346 C 1342,340 1294,316 1296,254 Z"/>
  <rect x="1430" y="358" width="6" height="18" rx="3" fill="#B29768" opacity="0.55"/>
  <rect x="1505" y="364" width="6" height="18" rx="3" fill="#B29768" opacity="0.55"/>
  <rect x="1578" y="352" width="6" height="17" rx="3" fill="#B29768" opacity="0.55"/>
  <rect x="1644" y="328" width="6" height="16" rx="3" fill="#B29768" opacity="0.5"/>
  <path fill="#F0E0BE" d="M 1296,254 C 1298,186 1358,140 1452,128 C 1546,116 1634,130 1676,168 C 1712,200 1710,256 1668,294 C 1620,336 1518,352 1424,346 C 1342,340 1294,316 1296,254 Z"/>
  <path transform="translate(89.9,14.0) scale(0.94)" fill="url(#g3)" d="M 1296,254 C 1298,186 1358,140 1452,128 C 1546,116 1634,130 1676,168 C 1712,200 1710,256 1668,294 C 1620,336 1518,352 1424,346 C 1342,340 1294,316 1296,254 Z"/>
  <ellipse cx="1400" cy="185" rx="66" ry="26" fill="#B0CC80" opacity="0.32"/>
  <ellipse cx="1592" cy="292" rx="52" ry="18" fill="#B0CC80" opacity="0.28"/>

  <!-- paved court plaza, carved into the deck -->
  <path transform="translate(0,5)" fill="#D2BC90" opacity="0.55" d="M 1348,250 C 1352,206 1400,180 1466,176 C 1532,172 1580,194 1590,228 C 1598,258 1568,286 1508,296 C 1448,306 1372,300 1352,278 C 1344,268 1346,260 1348,250 Z"/>
  <path fill="#E9D8AE" d="M 1348,250 C 1352,206 1400,180 1466,176 C 1532,172 1580,194 1590,228 C 1598,258 1568,286 1508,296 C 1448,306 1372,300 1352,278 C 1344,268 1346,260 1348,250 Z"/>

  <!-- the octagonal court, heart of the Heights -->
  <g transform="translate(1466,231) scale(1,0.85)">
    <polygon points="46.2,19.1 19.1,46.2 -19.1,46.2 -46.2,19.1 -46.2,-19.1 -19.1,-46.2 19.1,-46.2 46.2,-19.1" fill="#F0E0BE" stroke="#F0E0BE" stroke-width="9" stroke-linejoin="round"/>
    <g transform="scale(0.82)">
      <polygon points="46.2,19.1 19.1,46.2 -19.1,46.2 -46.2,19.1 -46.2,-19.1 -19.1,-46.2 19.1,-46.2 46.2,-19.1" fill="#D2BC90" stroke="#D2BC90" stroke-width="8" stroke-linejoin="round"/>
    </g>
    <g transform="scale(0.66)">
      <polygon points="46.2,19.1 19.1,46.2 -19.1,46.2 -46.2,19.1 -46.2,-19.1 -19.1,-46.2 19.1,-46.2 46.2,-19.1" fill="#E7D6AC" stroke="#E7D6AC" stroke-width="8" stroke-linejoin="round"/>
    </g>
    <g transform="scale(0.38)">
      <polygon points="46.2,19.1 19.1,46.2 -19.1,46.2 -46.2,19.1 -46.2,-19.1 -19.1,-46.2 19.1,-46.2 46.2,-19.1" fill="#CBB68C" stroke="#CBB68C" stroke-width="9" stroke-linejoin="round"/>
    </g>
  </g>

  <!-- low parapet walls resting on the north rim -->
  <path transform="translate(0,4)" d="M 1386,141 C 1408,136 1430,133 1452,131" fill="none" stroke="#C9AF83" stroke-width="9" stroke-linecap="round" opacity="0.6"/>
  <path d="M 1386,141 C 1408,136 1430,133 1452,131" fill="none" stroke="#EDDCB4" stroke-width="9" stroke-linecap="round"/>
  <rect x="1382" y="132" width="5" height="14" rx="2.5" fill="#D2BC90"/>
  <rect x="1449" y="122" width="5" height="14" rx="2.5" fill="#D2BC90"/>
  <path transform="translate(0,4)" d="M 1556,122 C 1576,120 1596,120 1614,122" fill="none" stroke="#C9AF83" stroke-width="9" stroke-linecap="round" opacity="0.6"/>
  <path d="M 1556,122 C 1576,120 1596,120 1614,122" fill="none" stroke="#EDDCB4" stroke-width="9" stroke-linecap="round"/>
  <rect x="1552" y="114" width="5" height="14" rx="2.5" fill="#D2BC90"/>
  <rect x="1611" y="114" width="5" height="14" rx="2.5" fill="#D2BC90"/>

  <!-- gold flowerbed cut beside the curl -->
  <ellipse cx="1568" cy="308" rx="17" ry="8" fill="#D2BC90"/>
  <ellipse cx="1568" cy="307" rx="13" ry="6" fill="#C4A981"/>
  <circle cx="1562" cy="306" r="3" fill="#F3C572"/>
  <circle cx="1571" cy="304" r="3" fill="#F3C572"/>
  <circle cx="1568" cy="310" r="2.5" fill="#F3C572"/>

  <!-- ============ ISLAND 2 : the Orchard Rise (a level higher) ============ -->
  <path transform="translate(-7,40)" fill="#6FAD72" opacity="0.45" d="M 850,400 C 854,310 918,250 1015,236 C 1115,222 1196,246 1230,296 C 1262,342 1252,410 1202,455 C 1148,502 1048,522 955,514 C 878,506 846,478 850,400 Z"/>
  <path transform="translate(0,34)" fill="#CCB992" d="M 850,400 C 854,310 918,250 1015,236 C 1115,222 1196,246 1230,296 C 1262,342 1252,410 1202,455 C 1148,502 1048,522 955,514 C 878,506 846,478 850,400 Z"/>
  <rect x="940" y="522" width="6" height="17" rx="3" fill="#B39F74" opacity="0.55"/>
  <rect x="1030" y="530" width="6" height="17" rx="3" fill="#B39F74" opacity="0.55"/>
  <rect x="1112" y="518" width="6" height="17" rx="3" fill="#B39F74" opacity="0.55"/>
  <rect x="1186" y="478" width="6" height="16" rx="3" fill="#B39F74" opacity="0.5"/>
  <path fill="#EDE0C0" d="M 850,400 C 854,310 918,250 1015,236 C 1115,222 1196,246 1230,296 C 1262,342 1252,410 1202,455 C 1148,502 1048,522 955,514 C 878,506 846,478 850,400 Z"/>
  <path transform="translate(52.5,19.0) scale(0.95)" fill="url(#g2)" d="M 850,400 C 854,310 918,250 1015,236 C 1115,222 1196,246 1230,296 C 1262,342 1252,410 1202,455 C 1148,502 1048,522 955,514 C 878,506 846,478 850,400 Z"/>
  <ellipse cx="965" cy="322" rx="78" ry="30" fill="#A4D384" opacity="0.35"/>
  <ellipse cx="1152" cy="430" rx="52" ry="20" fill="#A4D384" opacity="0.28"/>

  <!-- the quatrefoil clearing, heart of the Orchard -->
  <g>
    <circle cx="1055" cy="390" r="36" fill="#EDE0C0"/>
    <circle cx="1005" cy="390" r="36" fill="#EDE0C0"/>
    <circle cx="1030" cy="415" r="36" fill="#EDE0C0"/>
    <circle cx="1030" cy="365" r="36" fill="#EDE0C0"/>
    <circle cx="1055" cy="390" r="29" fill="#CDBB92"/>
    <circle cx="1005" cy="390" r="29" fill="#CDBB92"/>
    <circle cx="1030" cy="415" r="29" fill="#CDBB92"/>
    <circle cx="1030" cy="365" r="29" fill="#CDBB92"/>
    <circle cx="1055" cy="390" r="24" fill="#A4D384"/>
    <circle cx="1005" cy="390" r="24" fill="#A4D384"/>
    <circle cx="1030" cy="415" r="24" fill="#A4D384"/>
    <circle cx="1030" cy="365" r="24" fill="#A4D384"/>
    <rect x="1006" y="366" width="48" height="48" fill="#A4D384"/>
    <circle cx="1030" cy="390" r="12" fill="#EDE0C0"/>
    <circle cx="1030" cy="390" r="5" fill="#F2C46E"/>
  </g>

  <!-- ============ ISLAND 1 : the Garden Valley (lowest, morning gold) ============ -->
  <path transform="translate(-7,32)" fill="#6FAD72" opacity="0.45" d="M 155,565 C 150,472 225,405 345,385 C 465,365 600,372 685,412 C 752,444 775,515 752,585 C 728,655 640,700 525,715 C 405,730 270,718 210,672 C 172,642 158,612 155,565 Z"/>
  <path transform="translate(0,26)" fill="#CBBC97" d="M 155,565 C 150,472 225,405 345,385 C 465,365 600,372 685,412 C 752,444 775,515 752,585 C 728,655 640,700 525,715 C 405,730 270,718 210,672 C 172,642 158,612 155,565 Z"/>
  <rect x="340" y="726" width="6" height="16" rx="3" fill="#B9A87C" opacity="0.55"/>
  <rect x="432" y="736" width="6" height="16" rx="3" fill="#B9A87C" opacity="0.55"/>
  <rect x="522" y="730" width="6" height="16" rx="3" fill="#B9A87C" opacity="0.55"/>
  <rect x="612" y="708" width="6" height="16" rx="3" fill="#B9A87C" opacity="0.5"/>
  <rect x="690" y="662" width="6" height="15" rx="3" fill="#B9A87C" opacity="0.5"/>
  <path fill="#EAE0C6" d="M 155,565 C 150,472 225,405 345,385 C 465,365 600,372 685,412 C 752,444 775,515 752,585 C 728,655 640,700 525,715 C 405,730 270,718 210,672 C 172,642 158,612 155,565 Z"/>
  <path transform="translate(22.3,27.8) scale(0.95)" fill="url(#g1)" d="M 155,565 C 150,472 225,405 345,385 C 465,365 600,372 685,412 C 752,444 775,515 752,585 C 728,655 640,700 525,715 C 405,730 270,718 210,672 C 172,642 158,612 155,565 Z"/>
  <ellipse cx="430" cy="470" rx="96" ry="38" fill="#ACDE90" opacity="0.38"/>
  <ellipse cx="620" cy="600" rx="58" ry="22" fill="#ACDE90" opacity="0.3"/>

  <!-- the eight-point-star spring basin, heart of the Valley (stone tiers; water lives in water-1) -->
  <g transform="translate(376,548) scale(1.15,0.95)">
    <polygon points="54,0 38.2,15.8 38.2,38.2 15.8,38.2 0,54 -15.8,38.2 -38.2,38.2 -38.2,15.8 -54,0 -38.2,-15.8 -38.2,-38.2 -15.8,-38.2 0,-54 15.8,-38.2 38.2,-38.2 38.2,-15.8" fill="#EAE0C6" stroke="#EAE0C6" stroke-width="10" stroke-linejoin="round"/>
    <g transform="scale(0.82)">
      <polygon points="54,0 38.2,15.8 38.2,38.2 15.8,38.2 0,54 -15.8,38.2 -38.2,38.2 -38.2,15.8 -54,0 -38.2,-15.8 -38.2,-38.2 -15.8,-38.2 0,-54 15.8,-38.2 38.2,-38.2 38.2,-15.8" fill="#CBBC97" stroke="#CBBC97" stroke-width="9" stroke-linejoin="round"/>
    </g>
  </g>

  <!-- geometric flowerbeds cut from the terrace -->
  <ellipse cx="480" cy="572" rx="26" ry="10" fill="#CBBC97"/>
  <ellipse cx="480" cy="571" rx="21" ry="7.5" fill="#C4A981"/>
  <circle cx="470" cy="570" r="3.5" fill="#F4CD7E"/>
  <circle cx="482" cy="568" r="3.5" fill="#F4CD7E"/>
  <circle cx="490" cy="573" r="3" fill="#F4CD7E"/>
  <circle cx="476" cy="575" r="2.5" fill="#F4CD7E"/>
  <ellipse cx="592" cy="606" rx="24" ry="9" fill="#CBBC97"/>
  <ellipse cx="592" cy="605" rx="19" ry="6.5" fill="#C4A981"/>
  <circle cx="584" cy="604" r="3" fill="#F4CD7E"/>
  <circle cx="596" cy="602" r="3.5" fill="#F4CD7E"/>
  <circle cx="600" cy="608" r="2.5" fill="#F4CD7E"/>

  <!-- ============ causeways and bridges (paved, level-matched) ============ -->
  <!-- entry causeway from the lower-left edge -->
  <path transform="translate(0,9)" d="M -14,844 C 40,834 150,804 230,756" fill="none" stroke="#B4A47C" stroke-width="26" stroke-linecap="round"/>
  <path d="M -14,844 C 40,834 150,804 230,756" fill="none" stroke="#EAE0C6" stroke-width="26" stroke-linecap="round"/>
  <path d="M -14,843 C 20,837 60,827 100,815" fill="none" stroke="#E7DDC0" stroke-width="14" stroke-linecap="round"/>
  <!-- bridge from Valley deck up to Orchard deck -->
  <path transform="translate(0,9)" d="M 716,514 C 762,494 820,472 872,462" fill="none" stroke="#B4A47C" stroke-width="26" stroke-linecap="round"/>
  <path d="M 716,514 C 762,494 820,472 872,462" fill="none" stroke="#EAE0C6" stroke-width="26" stroke-linecap="round"/>
  <!-- bridge from Orchard deck up to Courtyard deck -->
  <path transform="translate(0,9)" d="M 1214,376 C 1256,352 1300,332 1348,318" fill="none" stroke="#B4A47C" stroke-width="26" stroke-linecap="round"/>
  <path d="M 1214,376 C 1256,352 1300,332 1348,318" fill="none" stroke="#EAE0C6" stroke-width="26" stroke-linecap="round"/>
  <!-- exit causeway toward the open seam, upper-right -->
  <path transform="translate(0,9)" d="M 1674,213 C 1712,197 1758,169 1816,132" fill="none" stroke="#B4A47C" stroke-width="26" stroke-linecap="round"/>
  <path d="M 1674,213 C 1712,197 1758,169 1816,132" fill="none" stroke="#EAE0C6" stroke-width="26" stroke-linecap="round"/>
  <path d="M 1740,178 C 1768,161 1794,146 1818,131" fill="none" stroke="#E7DDC0" stroke-width="14" stroke-linecap="round"/>

  <!-- the walking trail, one paved way from edge to edge -->
  <path id="walk" d="M 20,832 C 95,824 168,800 230,756 C 260,732 276,706 286,670 C 298,636 320,612 354,600 C 390,590 418,592 440,604 C 480,624 520,658 558,674 C 602,690 638,668 662,636 C 682,614 700,560 716,514 C 762,494 820,472 872,462 C 950,490 1040,494 1120,476 C 1170,462 1196,436 1204,404 C 1208,392 1210,382 1214,376 C 1256,352 1300,332 1348,318 C 1398,338 1448,346 1488,338 C 1524,330 1536,312 1520,296 C 1498,278 1460,264 1424,264 C 1442,262 1456,259 1472,258 C 1506,253 1542,246 1574,236 C 1610,229 1642,221 1674,213 C 1712,197 1750,172 1788,148" fill="none" stroke="#E7DDC0" stroke-width="20" stroke-linecap="round" stroke-linejoin="round"/>

  <!-- stairs where the trail climbs a wall -->
  <rect x="235" y="720" width="25" height="9" rx="4.5" fill="#EAE0C6"/>
  <rect x="243" y="704" width="24" height="9" rx="4.5" fill="#E2D6B4"/>
  <rect x="252" y="688" width="23" height="9" rx="4.5" fill="#EAE0C6"/>
  <rect x="261" y="672" width="22" height="9" rx="4.5" fill="#E2D6B4"/>
  <rect x="812" y="464" width="26" height="8" rx="4" fill="#E2D6B4"/>
  <rect x="830" y="459" width="24" height="8" rx="4" fill="#EAE0C6"/>
  <rect x="846" y="455" width="22" height="8" rx="4" fill="#E2D6B4"/>
  <rect x="1288" y="326" width="26" height="8" rx="4" fill="#E2D6B4"/>
  <rect x="1308" y="320" width="24" height="8" rx="4" fill="#EAE0C6"/>
  <rect x="1326" y="314" width="22" height="8" rx="4" fill="#E2D6B4"/>

  <!-- paver stones along the way -->
  <ellipse cx="94" cy="819" rx="6.5" ry="4" fill="#D6C9A2"/>
  <ellipse cx="156" cy="797" rx="6.5" ry="4" fill="#D6C9A2"/>
  <ellipse cx="206" cy="772" rx="6.5" ry="4" fill="#D6C9A2"/>
  <ellipse cx="312" cy="627" rx="6.5" ry="4" fill="#D6C9A2"/>
  <ellipse cx="367" cy="597" rx="6.5" ry="4" fill="#D6C9A2"/>
  <ellipse cx="428" cy="599" rx="6.5" ry="4" fill="#D6C9A2"/>
  <ellipse cx="480" cy="627" rx="6.5" ry="4" fill="#D6C9A2"/>
  <ellipse cx="534" cy="662" rx="6.5" ry="4" fill="#D6C9A2"/>
  <ellipse cx="594" cy="679" rx="6.5" ry="4" fill="#D6C9A2"/>
  <ellipse cx="649" cy="651" rx="6.5" ry="4" fill="#D6C9A2"/>
  <ellipse cx="684" cy="600" rx="6.5" ry="4" fill="#D6C9A2"/>
  <ellipse cx="706" cy="543" rx="6.5" ry="4" fill="#D6C9A2"/>
  <ellipse cx="746" cy="501" rx="6.5" ry="4" fill="#D6C9A2"/>
  <ellipse cx="805" cy="480" rx="6.5" ry="4" fill="#D6C9A2"/>
  <ellipse cx="922" cy="476" rx="6.5" ry="4" fill="#D6C9A2"/>
  <ellipse cx="985" cy="486" rx="6.5" ry="4" fill="#D6C9A2"/>
  <ellipse cx="1048" cy="486" rx="6.5" ry="4" fill="#D6C9A2"/>
  <ellipse cx="1110" cy="478" rx="6.5" ry="4" fill="#D6C9A2"/>
  <ellipse cx="1162" cy="458" rx="6.5" ry="4" fill="#D6C9A2"/>
  <ellipse cx="1202" cy="412" rx="6.5" ry="4" fill="#D6C9A2"/>
  <ellipse cx="1235" cy="364" rx="6.5" ry="4" fill="#D6C9A2"/>
  <ellipse cx="1296" cy="336" rx="6.5" ry="4" fill="#D6C9A2"/>
  <ellipse cx="1410" cy="336" rx="6.5" ry="4" fill="#D6C9A2"/>
  <ellipse cx="1473" cy="340" rx="6.5" ry="4" fill="#D6C9A2"/>
  <ellipse cx="1526" cy="316" rx="6.5" ry="4" fill="#D6C9A2"/>
  <ellipse cx="1485" cy="276" rx="6.5" ry="4" fill="#D6C9A2"/>
  <ellipse cx="1483" cy="256" rx="6.5" ry="4" fill="#D6C9A2"/>
  <ellipse cx="1545" cy="245" rx="6.5" ry="4" fill="#D6C9A2"/>
  <ellipse cx="1605" cy="230" rx="6.5" ry="4" fill="#D6C9A2"/>
  <ellipse cx="1721" cy="189" rx="6.5" ry="4" fill="#D6C9A2"/>
  <ellipse cx="1774" cy="157" rx="6.5" ry="4" fill="#D6C9A2"/>

  <!-- ============ the one stone canal: beds and stair-lips (dry stonework) ============ -->
  <!-- Valley: spring basin to east rim -->
  <path d="M 420,540 C 470,530 540,512 606,492 C 646,482 678,472 704,464" fill="none" stroke="#E7DDC0" stroke-width="22" stroke-linecap="round"/>
  <!-- water-stair climbing to the Orchard (chadar 1) -->
  <path transform="translate(0,9)" d="M 704,464 C 740,428 806,370 866,336" fill="none" stroke="#B4A47C" stroke-width="28" stroke-linecap="round"/>
  <path d="M 704,464 C 740,428 806,370 866,336" fill="none" stroke="#EAE0C6" stroke-width="28" stroke-linecap="round"/>
  <rect x="734" y="421" width="28" height="6" rx="3" fill="#D6C9A2" transform="rotate(-35 748 424)"/>
  <rect x="781" y="385" width="28" height="6" rx="3" fill="#D6C9A2" transform="rotate(-33 795 388)"/>
  <rect x="822" y="356" width="28" height="6" rx="3" fill="#D6C9A2" transform="rotate(-28 836 359)"/>
  <!-- Orchard: channel across the deck -->
  <path d="M 866,336 C 918,312 985,306 1040,306 C 1102,306 1166,314 1218,330" fill="none" stroke="#E7DDC0" stroke-width="22" stroke-linecap="round"/>
  <!-- water-stair climbing to the Courtyard (chadar 2) -->
  <path transform="translate(0,9)" d="M 1218,330 C 1252,308 1284,286 1316,268" fill="none" stroke="#B4A47C" stroke-width="28" stroke-linecap="round"/>
  <path d="M 1218,330 C 1252,308 1284,286 1316,268" fill="none" stroke="#EAE0C6" stroke-width="28" stroke-linecap="round"/>
  <rect x="1234" y="308" width="26" height="6" rx="3" fill="#D6C9A2" transform="rotate(-33 1247 311)"/>
  <rect x="1268" y="287" width="26" height="6" rx="3" fill="#D6C9A2" transform="rotate(-33 1281 290)"/>
  <rect x="1291" y="274" width="24" height="6" rx="3" fill="#D6C9A2" transform="rotate(-30 1303 277)"/>
  <!-- Courtyard: channel in to the octagon pool, and out toward the seam -->
  <path d="M 1316,268 C 1354,254 1396,244 1436,238 C 1448,235 1456,233 1462,232" fill="none" stroke="#E7DDC0" stroke-width="22" stroke-linecap="round"/>
  <path d="M 1482,226 C 1496,220 1536,203 1580,187 C 1616,173 1640,163 1652,157" fill="none" stroke="#E7DDC0" stroke-width="22" stroke-linecap="round"/>
  <path transform="translate(0,8)" d="M 1652,156 C 1698,134 1745,112 1806,84" fill="none" stroke="#B4A47C" stroke-width="26" stroke-linecap="round"/>
  <path d="M 1652,156 C 1698,134 1745,112 1806,84" fill="none" stroke="#EAE0C6" stroke-width="26" stroke-linecap="round"/>
  <rect x="1693" y="127" width="26" height="6" rx="3" fill="#D6C9A2" transform="rotate(-25 1706 130)"/>
  <rect x="1739" y="105" width="26" height="6" rx="3" fill="#D6C9A2" transform="rotate(-25 1752 108)"/>

  <!-- ============ water, one continuous ribbon, grouped per region ============ -->
  <g id="water-1">
    <g transform="translate(376,548) scale(1.15,0.95)">
      <g transform="scale(0.70)">
        <polygon points="54,0 38.2,15.8 38.2,38.2 15.8,38.2 0,54 -15.8,38.2 -38.2,38.2 -38.2,15.8 -54,0 -38.2,-15.8 -38.2,-38.2 -15.8,-38.2 0,-54 15.8,-38.2 38.2,-38.2 38.2,-15.8" fill="#57A79E" stroke="#57A79E" stroke-width="8" stroke-linejoin="round"/>
      </g>
      <g transform="translate(0,4) scale(0.70)">
        <polygon points="54,0 38.2,15.8 38.2,38.2 15.8,38.2 0,54 -15.8,38.2 -38.2,38.2 -38.2,15.8 -54,0 -38.2,-15.8 -38.2,-38.2 -15.8,-38.2 0,-54 15.8,-38.2 38.2,-38.2 38.2,-15.8" fill="#8FCFC2" stroke="#8FCFC2" stroke-width="8" stroke-linejoin="round"/>
      </g>
      <ellipse cx="-9" cy="12" rx="17" ry="9" fill="#BFE8DC" opacity="0.85"/>
    </g>
    <path d="M 402,543 C 460,532 540,512 606,492 C 646,482 678,472 704,464" fill="none" stroke="#57A79E" stroke-width="11" stroke-linecap="round"/>
    <path transform="translate(0,2.5)" d="M 402,543 C 460,532 540,512 606,492 C 646,482 678,472 704,464" fill="none" stroke="#8FCFC2" stroke-width="8" stroke-linecap="round"/>
  </g>
  <g id="water-2">
    <path d="M 704,464 C 740,428 806,370 866,336" fill="none" stroke="#55A096" stroke-width="12" stroke-linecap="round"/>
    <path transform="translate(0,3)" d="M 704,464 C 740,428 806,370 866,336" fill="none" stroke="#89C8B8" stroke-width="8.5" stroke-linecap="round"/>
    <rect x="737" y="420" width="22" height="5.5" rx="2.75" fill="#BFE8DC" transform="rotate(-35 748 423)"/>
    <rect x="784" y="384" width="22" height="5.5" rx="2.75" fill="#BFE8DC" transform="rotate(-33 795 387)"/>
    <rect x="825" y="355" width="22" height="5.5" rx="2.75" fill="#BFE8DC" transform="rotate(-28 836 358)"/>
    <path d="M 866,336 C 918,312 985,306 1040,306 C 1102,306 1166,314 1218,330" fill="none" stroke="#55A096" stroke-width="11" stroke-linecap="round"/>
    <path transform="translate(0,2.5)" d="M 866,336 C 918,312 985,306 1040,306 C 1102,306 1166,314 1218,330" fill="none" stroke="#89C8B8" stroke-width="8" stroke-linecap="round"/>
  </g>
  <g id="water-3">
    <path d="M 1218,330 C 1252,308 1284,286 1316,268" fill="none" stroke="#5FA898" stroke-width="12" stroke-linecap="round"/>
    <path transform="translate(0,3)" d="M 1218,330 C 1252,308 1284,286 1316,268" fill="none" stroke="#8FC9B8" stroke-width="8.5" stroke-linecap="round"/>
    <rect x="1237" y="307" width="20" height="5.5" rx="2.75" fill="#C4E4D2" transform="rotate(-33 1247 310)"/>
    <rect x="1271" y="286" width="20" height="5.5" rx="2.75" fill="#C4E4D2" transform="rotate(-33 1281 289)"/>
    <rect x="1294" y="273" width="18" height="5.5" rx="2.75" fill="#C4E4D2" transform="rotate(-30 1303 276)"/>
    <path d="M 1316,268 C 1354,254 1396,244 1436,238 C 1448,235 1456,233 1462,232" fill="none" stroke="#5FA898" stroke-width="11" stroke-linecap="round"/>
    <path transform="translate(0,2.5)" d="M 1316,268 C 1354,254 1396,244 1436,238 C 1448,235 1456,233 1462,232" fill="none" stroke="#8FC9B8" stroke-width="8" stroke-linecap="round"/>
    <g transform="translate(1466,231) scale(1,0.85)">
      <g transform="scale(0.30)">
        <polygon points="46.2,19.1 19.1,46.2 -19.1,46.2 -46.2,19.1 -46.2,-19.1 -19.1,-46.2 19.1,-46.2 46.2,-19.1" fill="#5FA898" stroke="#5FA898" stroke-width="10" stroke-linejoin="round"/>
      </g>
      <g transform="translate(0,3) scale(0.26)">
        <polygon points="46.2,19.1 19.1,46.2 -19.1,46.2 -46.2,19.1 -46.2,-19.1 -19.1,-46.2 19.1,-46.2 46.2,-19.1" fill="#8FC9B8" stroke="#8FC9B8" stroke-width="10" stroke-linejoin="round"/>
      </g>
      <ellipse cx="-3" cy="6" rx="7" ry="3.5" fill="#C4E4D2" opacity="0.9"/>
    </g>
    <path d="M 1482,226 C 1496,220 1536,203 1580,187 C 1616,173 1640,163 1652,157" fill="none" stroke="#5FA898" stroke-width="11" stroke-linecap="round"/>
    <path transform="translate(0,2.5)" d="M 1482,226 C 1496,220 1536,203 1580,187 C 1616,173 1640,163 1652,157" fill="none" stroke="#8FC9B8" stroke-width="8" stroke-linecap="round"/>
    <path d="M 1652,156 C 1698,134 1745,112 1806,84" fill="none" stroke="#5FA898" stroke-width="12" stroke-linecap="round"/>
    <path transform="translate(0,3)" d="M 1652,156 C 1698,134 1745,112 1806,84" fill="none" stroke="#8FC9B8" stroke-width="8.5" stroke-linecap="round"/>
    <rect x="1696" y="126" width="20" height="5.5" rx="2.75" fill="#C4E4D2" transform="rotate(-25 1706 129)"/>
    <rect x="1742" y="104" width="20" height="5.5" rx="2.75" fill="#C4E4D2" transform="rotate(-25 1752 107)"/>
  </g>

  <!-- ============ wooden gates at the water-stair crests ============ -->
  <g>
    <ellipse cx="866" cy="350" rx="16" ry="4" fill="#5B9C52" opacity="0.25"/>
    <path d="M 853,349 L 853,329 C 853,315 879,315 879,329 L 879,349" fill="none" stroke="#8A6B4F" stroke-width="7" stroke-linecap="round"/>
    <path d="M 856,328 C 858,321 874,321 876,328" fill="none" stroke="#A5825F" stroke-width="3" stroke-linecap="round"/>
  </g>
  <g>
    <ellipse cx="1316" cy="282" rx="16" ry="4" fill="#5B9C52" opacity="0.25"/>
    <path d="M 1303,281 L 1303,261 C 1303,247 1329,247 1329,261 L 1329,281" fill="none" stroke="#8A6B4F" stroke-width="7" stroke-linecap="round"/>
    <path d="M 1306,260 C 1308,253 1324,253 1326,260" fill="none" stroke="#A5825F" stroke-width="3" stroke-linecap="round"/>
  </g>

  <!-- ============ trees, each in a cut bed ============ -->
  <g>
    <ellipse cx="255" cy="480" rx="30" ry="14" fill="#CBBC97"/>
    <ellipse cx="255" cy="479" rx="24" ry="10" fill="#C4A981"/>
    <ellipse cx="264" cy="482" rx="26" ry="9" fill="#5B9C52" opacity="0.28"/>
    <rect x="251" y="452" width="8" height="28" rx="4" fill="#8A6B4F"/>
    <circle cx="259" cy="425" r="30" fill="#5B9C52"/>
    <circle cx="254" cy="420" r="27" fill="#7CBF6B"/>
    <ellipse cx="245" cy="412" rx="14" ry="10" fill="#ACDE90"/>
  </g>
  <g>
    <ellipse cx="505" cy="435" rx="30" ry="14" fill="#CBBC97"/>
    <ellipse cx="505" cy="434" rx="24" ry="10" fill="#C4A981"/>
    <ellipse cx="514" cy="437" rx="26" ry="9" fill="#5B9C52" opacity="0.28"/>
    <rect x="501" y="408" width="8" height="27" rx="4" fill="#8A6B4F"/>
    <circle cx="509" cy="380" r="30" fill="#5B9C52"/>
    <circle cx="504" cy="375" r="27" fill="#7CBF6B"/>
    <ellipse cx="495" cy="367" rx="14" ry="10" fill="#ACDE90"/>
  </g>
  <g>
    <ellipse cx="902" cy="420" rx="28" ry="13" fill="#CDBB92"/>
    <ellipse cx="902" cy="419" rx="22" ry="9" fill="#C4A981"/>
    <ellipse cx="910" cy="422" rx="24" ry="8" fill="#4E8746" opacity="0.28"/>
    <rect x="898" y="392" width="8" height="28" rx="4" fill="#8A6B4F"/>
    <circle cx="906" cy="365" r="29" fill="#4E8746"/>
    <circle cx="901" cy="360" r="26" fill="#6FAA58"/>
    <ellipse cx="892" cy="352" rx="13" ry="9" fill="#98CB77"/>
    <circle cx="893" cy="374" r="3" fill="#F2C46E"/>
    <circle cx="914" cy="356" r="3" fill="#F2C46E"/>
    <circle cx="904" cy="382" r="2.7" fill="#F2C46E"/>
    <circle cx="920" cy="371" r="2.7" fill="#F2C46E"/>
  </g>
  <g>
    <ellipse cx="932" cy="458" rx="26" ry="12" fill="#CDBB92"/>
    <ellipse cx="932" cy="457" rx="20" ry="8" fill="#C4A981"/>
    <ellipse cx="939" cy="460" rx="22" ry="7" fill="#4E8746" opacity="0.28"/>
    <rect x="929" y="432" width="7" height="26" rx="3.5" fill="#8A6B4F"/>
    <circle cx="936" cy="403" r="27" fill="#4E8746"/>
    <circle cx="931" cy="399" r="24" fill="#6FAA58"/>
    <ellipse cx="923" cy="391" rx="12" ry="9" fill="#98CB77"/>
    <circle cx="924" cy="412" r="2.7" fill="#F2C46E"/>
    <circle cx="944" cy="396" r="2.7" fill="#F2C46E"/>
    <circle cx="934" cy="418" r="2.4" fill="#F2C46E"/>
  </g>
  <g>
    <ellipse cx="1147" cy="418" rx="28" ry="13" fill="#CDBB92"/>
    <ellipse cx="1147" cy="417" rx="22" ry="9" fill="#C4A981"/>
    <ellipse cx="1155" cy="420" rx="24" ry="8" fill="#4E8746" opacity="0.28"/>
    <rect x="1143" y="390" width="8" height="28" rx="4" fill="#8A6B4F"/>
    <circle cx="1151" cy="363" r="29" fill="#4E8746"/>
    <circle cx="1146" cy="358" r="26" fill="#6FAA58"/>
    <ellipse cx="1137" cy="350" rx="13" ry="9" fill="#98CB77"/>
    <circle cx="1138" cy="372" r="3" fill="#F2C46E"/>
    <circle cx="1159" cy="354" r="3" fill="#F2C46E"/>
    <circle cx="1149" cy="380" r="2.7" fill="#F2C46E"/>
    <circle cx="1165" cy="369" r="2.7" fill="#F2C46E"/>
  </g>
  <g>
    <ellipse cx="1126" cy="448" rx="26" ry="12" fill="#CDBB92"/>
    <ellipse cx="1126" cy="447" rx="20" ry="8" fill="#C4A981"/>
    <ellipse cx="1133" cy="450" rx="22" ry="7" fill="#4E8746" opacity="0.28"/>
    <rect x="1123" y="422" width="7" height="26" rx="3.5" fill="#8A6B4F"/>
    <circle cx="1130" cy="393" r="27" fill="#4E8746"/>
    <circle cx="1125" cy="389" r="24" fill="#6FAA58"/>
    <ellipse cx="1117" cy="381" rx="12" ry="9" fill="#98CB77"/>
    <circle cx="1118" cy="402" r="2.7" fill="#F2C46E"/>
    <circle cx="1138" cy="386" r="2.7" fill="#F2C46E"/>
    <circle cx="1128" cy="408" r="2.4" fill="#F2C46E"/>
  </g>
  <!-- Courtyard tree: bed and trunk here, canopy overhangs the path (see over) -->
  <ellipse cx="1606" cy="282" rx="28" ry="13" fill="#D2BC90"/>
  <ellipse cx="1606" cy="281" rx="22" ry="9" fill="#C4A981"/>
  <ellipse cx="1614" cy="284" rx="24" ry="8" fill="#6F994F" opacity="0.28"/>

  <!-- ============ things the traveler passes behind ============ -->
  <g id="over">
    <rect x="1602" y="230" width="8" height="52" rx="4" fill="#8A6B4F"/>
    <circle cx="1610" cy="227" r="28" fill="#6F994F"/>
    <circle cx="1605" cy="222" r="25" fill="#8CB061"/>
    <ellipse cx="1597" cy="214" rx="13" ry="10" fill="#B0CC80"/>
    <g transform="rotate(-17 1672 214)">
      <ellipse cx="1672" cy="233" rx="22" ry="5" fill="#B29768" opacity="0.3"/>
      <path d="M 1656,232 L 1656,206 C 1656,188 1688,188 1688,206 L 1688,232" fill="none" stroke="#D2BC90" stroke-width="9" stroke-linecap="round"/>
      <path d="M 1660,205 C 1663,196 1681,196 1684,205" fill="none" stroke="#F0E0BE" stroke-width="4" stroke-linecap="round"/>
    </g>
  </g>

  <!-- ============ anchors ============ -->
  <path id="stream" d="M 376,548 C 448,534 536,510 606,492 C 646,482 678,472 704,464 C 740,428 806,370 866,336 C 918,312 985,306 1040,306 C 1102,306 1166,314 1218,330 C 1252,308 1284,286 1316,268 C 1354,254 1396,244 1436,238 C 1450,235 1458,233 1466,231 C 1490,220 1536,202 1580,186 C 1616,172 1640,162 1652,156 C 1698,134 1740,114 1782,96" fill="none" stroke="none"/>
  <circle id="spot-1-1" cx="108" cy="818" r="6" fill="#FFFFFF" opacity="0"/>
  <circle id="spot-1-2" cx="240" cy="748" r="6" fill="#FFFFFF" opacity="0"/>
  <circle id="spot-1-3" cx="330" cy="612" r="6" fill="#FFFFFF" opacity="0"/>
  <circle id="spot-1-4" cx="436" cy="600" r="6" fill="#FFFFFF" opacity="0"/>
  <circle id="spot-1-5" cx="548" cy="668" r="6" fill="#FFFFFF" opacity="0"/>
  <circle id="spot-1-6" cx="648" cy="650" r="6" fill="#FFFFFF" opacity="0"/>
  <circle id="spot-1-7" cx="700" cy="542" r="6" fill="#FFFFFF" opacity="0"/>
  <circle id="spot-2-1" cx="784" cy="488" r="6" fill="#FFFFFF" opacity="0"/>
  <circle id="spot-2-2" cx="884" cy="466" r="6" fill="#FFFFFF" opacity="0"/>
  <circle id="spot-2-3" cx="982" cy="492" r="6" fill="#FFFFFF" opacity="0"/>
  <circle id="spot-2-4" cx="1080" cy="490" r="6" fill="#FFFFFF" opacity="0"/>
  <circle id="spot-2-5" cx="1172" cy="458" r="6" fill="#FFFFFF" opacity="0"/>
  <circle id="spot-2-6" cx="1258" cy="351" r="6" fill="#FFFFFF" opacity="0"/>
  <circle id="spot-2-7" cx="1348" cy="318" r="6" fill="#FFFFFF" opacity="0"/>
  <circle id="spot-3-1" cx="1440" cy="344" r="6" fill="#FFFFFF" opacity="0"/>
  <circle id="spot-3-2" cx="1520" cy="296" r="6" fill="#FFFFFF" opacity="0"/>
  <circle id="spot-3-3" cx="1424" cy="264" r="6" fill="#FFFFFF" opacity="0"/>
  <circle id="spot-3-4" cx="1516" cy="250" r="6" fill="#FFFFFF" opacity="0"/>
  <circle id="spot-3-5" cx="1608" cy="230" r="6" fill="#FFFFFF" opacity="0"/>
  <circle id="spot-3-6" cx="1700" cy="201" r="6" fill="#FFFFFF" opacity="0"/>
  <circle id="spot-3-7" cx="1782" cy="152" r="6" fill="#FFFFFF" opacity="0"/>
  <circle id="heart-1" cx="376" cy="548" r="6" fill="#FFFFFF" opacity="0"/>
  <circle id="heart-2" cx="1030" cy="390" r="6" fill="#FFFFFF" opacity="0"/>
  <circle id="heart-3" cx="1466" cy="231" r="6" fill="#FFFFFF" opacity="0"/>
  <circle id="gate-1" cx="866" cy="336" r="6" fill="#FFFFFF" opacity="0"/>
  <circle id="gate-2" cx="1316" cy="268" r="6" fill="#FFFFFF" opacity="0"/>
  <circle id="moon" cx="376" cy="130" r="6" fill="#FFFFFF" opacity="0"/>
</svg>
