<svg xmlns="http://www.w3.org/2000/svg" version="1.1" viewBox="0 0 1800 860">
  <defs>
    <linearGradient id="sky-band" x1="0" y1="0" x2="1" y2="0">
      <stop offset="0" stop-color="#9ED2C6"/>
      <stop offset="0.25" stop-color="#DFF0C8"/>
      <stop offset="0.43" stop-color="#A3CBAB"/>
      <stop offset="0.58" stop-color="#DCE8B4"/>
      <stop offset="0.76" stop-color="#F8DCA2"/>
      <stop offset="1" stop-color="#F6CE92"/>
    </linearGradient>
    <linearGradient id="ground-wash" x1="0" y1="1" x2="1" y2="0">
      <stop offset="0" stop-color="#7CBF6B"/>
      <stop offset="0.36" stop-color="#93C08D"/>
      <stop offset="0.66" stop-color="#8CB47F"/>
      <stop offset="1" stop-color="#B0CC80"/>
    </linearGradient>
    <linearGradient id="valley-grass" x1="0" y1="1" x2="1" y2="0">
      <stop offset="0" stop-color="#5B9C52"/>
      <stop offset="0.48" stop-color="#7CBF6B"/>
      <stop offset="1" stop-color="#ACDE90"/>
    </linearGradient>
    <linearGradient id="orchard-grass" x1="0" y1="1" x2="1" y2="0">
      <stop offset="0" stop-color="#699F63"/>
      <stop offset="0.55" stop-color="#7CB863"/>
      <stop offset="1" stop-color="#A4D384"/>
    </linearGradient>
    <linearGradient id="court-ground" x1="0" y1="1" x2="1" y2="0">
      <stop offset="0" stop-color="#8CB061"/>
      <stop offset="0.58" stop-color="#D2BC90"/>
      <stop offset="1" stop-color="#F0E0BE"/>
    </linearGradient>
    <linearGradient id="water-valley" x1="0" y1="1" x2="1" y2="0">
      <stop offset="0" stop-color="#57A79E"/>
      <stop offset="0.5" stop-color="#8FCFC2"/>
      <stop offset="1" stop-color="#BFE8DC"/>
    </linearGradient>
    <linearGradient id="water-heights" x1="0" y1="1" x2="1" y2="0">
      <stop offset="0" stop-color="#8FC9B8"/>
      <stop offset="1" stop-color="#C4E4D2"/>
    </linearGradient>
    <linearGradient id="path-warmth" x1="0" y1="1" x2="1" y2="0">
      <stop offset="0" stop-color="#C4A981"/>
      <stop offset="0.52" stop-color="#CBBC97"/>
      <stop offset="1" stop-color="#F0E0BE"/>
    </linearGradient>
  </defs>

  <!-- Only a narrow breath of sky; the ground plane owns the frame. -->
  <rect x="0" y="0" width="1800" height="88" fill="url(#sky-band)"/>
  <path fill="#FBE7AE" opacity="0.38" d="M0 51 C202 36 330 64 515 42 C725 17 854 62 1037 38 C1240 12 1425 48 1800 18 L1800 100 L0 100 Z"/>
  <rect x="0" y="48" width="1800" height="812" fill="url(#ground-wash)"/>

  <!-- Distant ground contours, all read from above rather than as a horizon. -->
  <path fill="#BCD8B2" d="M0 53 C195 79 335 52 492 87 C632 118 727 86 875 70 C1035 52 1186 79 1340 54 C1514 26 1642 62 1800 42 L1800 242 C1653 229 1512 251 1385 231 C1207 203 1091 236 911 222 C751 210 622 235 467 207 C298 176 157 199 0 180 Z"/>
  <path fill="#B5CFA0" opacity="0.86" d="M262 94 C456 53 624 112 781 89 C964 62 1092 107 1253 83 C1451 54 1600 94 1800 71 L1800 318 C1624 297 1462 323 1309 292 C1139 257 997 292 822 267 C654 243 519 264 365 228 Z"/>
  <path fill="#B3C9A9" opacity="0.64" d="M944 68 C1096 53 1188 83 1328 61 C1462 40 1629 68 1800 33 L1800 228 C1674 217 1536 233 1421 215 C1277 193 1140 205 1008 185 Z"/>

  <!-- Region 1: the low garden valley. -->
  <path fill="#6FAD72" d="M0 207 C157 171 258 212 381 177 C520 138 627 191 748 171 C859 153 927 171 1007 215 C901 298 814 348 745 431 C667 526 614 688 547 860 L0 860 Z"/>
  <path fill="url(#valley-grass)" d="M0 292 C116 252 213 296 318 250 C444 195 579 243 687 222 C791 202 882 233 938 295 C825 330 741 390 682 470 C608 570 565 701 516 860 L0 860 Z"/>
  <path fill="#ACDE90" opacity="0.42" d="M0 335 C124 303 232 345 349 292 C460 242 575 275 676 266 C762 258 821 278 864 310 C757 334 678 394 618 475 C550 565 514 678 473 812 C331 760 195 734 0 764 Z"/>
  <path fill="#5B9C52" opacity="0.52" d="M0 716 C118 673 224 711 329 676 C436 640 510 675 584 714 L515 860 L0 860 Z"/>

  <!-- Region 2: the orchard rise, with a visible terrace brow and face. -->
  <path fill="#699F63" d="M498 675 C590 629 647 566 698 498 C755 420 775 317 850 255 C932 187 1046 172 1162 193 C1268 212 1331 275 1387 355 C1313 460 1262 572 1228 695 C1019 735 786 750 566 774 Z"/>
  <path fill="#8CB47F" d="M520 628 C627 597 686 527 730 459 C786 371 805 282 875 230 C958 168 1061 169 1169 199 C1264 226 1327 284 1364 365 C1270 416 1194 476 1129 553 C963 586 776 616 600 679 Z"/>
  <path fill="url(#orchard-grass)" d="M557 561 C661 530 710 464 750 394 C797 312 824 244 899 209 C989 168 1083 186 1172 222 C1252 255 1304 307 1328 374 C1223 402 1135 451 1057 513 C898 518 731 548 557 618 Z"/>
  <path fill="#A4D384" opacity="0.36" d="M650 520 C737 466 763 393 805 321 C853 240 935 207 1032 211 C1129 215 1208 257 1253 322 C1147 341 1052 382 969 443 C863 454 755 480 650 520 Z"/>

  <!-- Region 3: warm, highest ground. It continues cleanly beyond the right seam. -->
  <path fill="#B29768" d="M1108 458 C1165 365 1197 270 1274 201 C1354 130 1466 102 1587 111 C1682 119 1743 104 1800 80 L1800 574 C1668 568 1531 587 1414 556 C1294 524 1198 510 1108 458 Z"/>
  <path fill="#D2BC90" d="M1132 410 C1192 322 1224 242 1294 182 C1375 112 1478 91 1590 105 C1677 116 1735 91 1800 61 L1800 512 C1657 506 1544 522 1438 497 C1321 470 1223 468 1132 410 Z"/>
  <path fill="url(#court-ground)" d="M1162 360 C1226 287 1252 215 1324 160 C1403 101 1495 87 1594 104 C1683 119 1738 85 1800 54 L1800 455 C1681 446 1579 462 1481 442 C1366 420 1260 428 1162 360 Z"/>
  <path fill="#E7DFAE" opacity="0.44" d="M1270 286 C1333 214 1406 158 1499 139 C1593 120 1667 143 1730 119 C1754 110 1776 98 1800 83 L1800 384 C1702 378 1621 390 1539 377 C1434 360 1346 352 1270 286 Z"/>

  <!-- Irregular contour islands make the landscape feel found, not tiled. -->
  <path fill="#93C08D" opacity="0.62" d="M67 457 C112 423 167 417 208 441 C232 455 248 485 227 505 C199 532 132 530 89 512 C55 498 43 476 67 457 Z"/>
  <path fill="#BCD8B2" opacity="0.58" d="M365 355 C411 324 476 325 515 354 C548 379 527 410 487 423 C438 439 376 420 349 392 C334 376 345 369 365 355 Z"/>
  <path fill="#8CB47F" opacity="0.72" d="M744 701 C807 663 886 661 941 690 C978 710 976 742 937 764 C873 799 771 788 724 751 C701 733 714 719 744 701 Z"/>
  <path fill="#B0CC80" opacity="0.48" d="M1296 520 C1364 487 1451 488 1512 517 C1550 535 1551 562 1516 581 C1448 619 1335 606 1277 568 C1251 551 1267 534 1296 520 Z"/>

  <!-- Dry stone beds stay when the engine hides painted water. -->
  <path fill="#EAE0C6" d="M186 580 L210 548 L234 580 L266 590 L244 618 L248 652 L211 648 L178 663 L176 628 L153 602 Z"/>
  <path fill="#CBBC97" d="M196 586 L211 565 L229 587 L250 595 L233 615 L237 638 L212 635 L188 646 L188 622 L170 604 Z"/>
  <path fill="#EAE0C6" d="M218 613 C291 615 359 588 432 600 C507 613 559 604 621 548 L648 568 C579 637 518 651 430 636 C355 624 291 653 214 646 Z"/>
  <path fill="#CBBC97" d="M604 551 L662 568 L749 453 L699 423 Z"/>
  <path fill="#EAE0C6" d="M616 541 L665 556 L686 528 L637 513 Z"/>
  <path fill="#EAE0C6" d="M640 510 L686 524 L707 496 L662 482 Z"/>
  <path fill="#EAE0C6" d="M665 479 L707 492 L729 463 L687 451 Z"/>
  <path fill="#EAE0C6" d="M691 447 L729 459 L748 433 L711 421 Z"/>
  <path fill="#B29768" d="M682 526 L730 455 L748 453 L699 531 Z" opacity="0.42"/>

  <path fill="#D2BC90" d="M712 421 C788 378 874 443 951 392 C1025 343 1071 323 1127 289 L1153 320 C1092 360 1046 380 973 431 C881 495 797 423 729 466 Z"/>
  <path fill="#F0E0BE" d="M1108 302 L1166 326 L1255 226 L1202 199 Z"/>
  <path fill="#B29768" d="M1120 294 L1169 314 L1190 289 L1142 270 Z"/>
  <path fill="#D2BC90" d="M1143 266 L1192 286 L1214 261 L1165 240 Z"/>
  <path fill="#F0E0BE" d="M1168 238 L1217 258 L1238 234 L1191 213 Z"/>
  <path fill="#B29768" d="M1194 211 L1241 231 L1258 212 L1213 190 Z"/>
  <path fill="#D2BC90" d="M1224 205 C1320 149 1428 218 1526 151 C1620 87 1706 118 1800 70 L1800 112 C1709 160 1635 130 1547 192 C1438 269 1330 199 1241 250 Z"/>

  <!-- One connected filled trail ribbon, winding and doubling back across the plane. -->
  <path fill="url(#path-warmth)" d="M-20 744 C54 735 110 676 160 686 C208 694 244 725 273 711 C322 687 356 625 387 626 C423 626 334 567 314 551 C350 520 397 455 444 458 C493 462 540 532 579 522 C623 512 665 461 705 465 C750 469 790 559 819 555 C858 551 902 486 927 490 C892 456 816 441 802 404 C846 391 921 309 967 317 C1020 327 1066 414 1102 396 C1130 380 1139 290 1171 280 C1216 266 1263 260 1305 264 C1349 268 1385 329 1413 328 C1455 325 1499 249 1510 254 C1491 223 1407 205 1412 174 C1450 160 1521 106 1572 108 C1620 110 1652 190 1686 179 C1720 168 1738 82 1762 77 C1781 73 1792 74 1820 75 L1820 137 C1792 138 1790 141 1786 142 C1758 150 1745 245 1691 244 C1638 243 1605 170 1574 171 C1543 172 1487 228 1460 228 C1489 254 1557 270 1549 310 C1539 351 1451 397 1410 394 C1368 391 1330 329 1295 327 C1256 325 1223 350 1205 356 C1186 367 1163 475 1101 465 C1042 456 1003 389 966 389 C936 389 877 440 868 445 C901 470 981 488 965 548 C953 596 869 633 816 630 C766 627 732 553 699 561 C652 572 620 627 568 625 C509 622 477 542 435 554 C406 562 368 601 347 615 C391 653 447 676 431 710 C407 762 332 805 282 822 C237 836 191 785 156 786 C103 788 48 835 -20 836 Z"/>
  <path fill="#EAE0C6" opacity="0.28" d="M17 764 C92 749 118 706 160 704 C202 702 249 747 281 731 C326 709 364 651 399 649 C380 626 337 598 334 573 C362 552 403 488 444 481 C485 474 536 550 578 545 C626 539 665 490 704 489 C750 488 787 579 824 575 C869 570 904 514 938 514 C915 488 854 449 837 418 C876 399 929 337 968 340 C1019 344 1060 432 1103 419 C1146 406 1155 314 1182 304 C1220 290 1262 282 1304 286 C1352 291 1379 355 1417 351 C1461 347 1519 295 1527 272 C1514 244 1455 211 1442 189 C1480 174 1530 132 1573 132 C1617 132 1652 217 1690 203 C1726 190 1757 111 1782 102 L1800 101 L1800 119 C1778 124 1760 207 1692 224 C1637 238 1608 152 1574 153 C1544 154 1488 209 1478 221 C1510 242 1546 271 1531 303 C1512 343 1450 373 1411 371 C1369 369 1332 307 1297 305 C1258 303 1221 332 1194 335 C1170 344 1144 447 1102 443 C1048 438 1002 366 965 366 C924 365 858 425 851 443 C879 472 948 500 944 528 C938 568 866 606 819 606 C773 605 738 527 700 538 C653 552 618 600 571 601 C522 602 481 520 436 530 C395 539 355 585 324 604 C345 627 409 660 406 684 C400 726 322 786 282 799 C241 812 194 766 155 765 C102 763 51 808 17 810 Z"/>

  <!-- Region hearts: stone geometry first; painted water/grass is layered separately. -->
  <path fill="#F4EFD8" d="M890 323 C923 323 946 344 949 372 C978 375 999 396 999 424 C999 456 974 478 943 479 C938 508 917 527 887 527 C856 527 835 507 832 477 C801 474 781 453 781 424 C781 394 803 374 833 372 C837 344 859 323 890 323 Z"/>
  <path fill="#CBBC97" d="M890 341 C916 341 932 358 933 385 C962 384 980 401 980 424 C980 449 961 463 931 461 C932 491 914 509 887 509 C860 509 847 491 848 460 C817 463 799 448 799 424 C799 400 817 385 846 386 C846 357 864 341 890 341 Z"/>
  <path fill="#98CB77" d="M890 354 C910 354 920 370 919 398 C947 396 966 407 966 424 C966 443 948 451 917 448 C921 479 908 495 888 495 C867 495 858 479 861 447 C830 452 813 442 813 424 C813 406 830 397 860 400 C857 370 868 354 890 354 Z"/>

  <path fill="#B29768" d="M1318 196 L1380 133 L1491 119 L1572 169 L1587 260 L1523 326 L1412 337 L1328 289 Z"/>
  <path fill="#F0E0BE" d="M1337 200 L1391 150 L1487 138 L1553 179 L1566 254 L1513 308 L1419 318 L1348 279 Z"/>
  <path fill="#D2BC90" d="M1362 205 L1402 169 L1483 159 L1532 189 L1542 247 L1502 287 L1427 296 L1372 269 Z"/>
  <path fill="#8CB061" d="M1384 211 L1413 186 L1478 178 L1512 199 L1519 240 L1491 268 L1434 275 L1393 256 Z"/>

  <!-- Painted water, split by region for engine reveals. -->
  <g id="water-1">
    <path fill="url(#water-valley)" d="M197 588 L211 570 L227 590 L248 598 L232 615 L235 637 L212 633 L189 644 L189 620 L171 604 Z"/>
    <path fill="#BFE8DC" opacity="0.7" d="M202 595 L211 583 L221 596 L237 601 L225 612 L227 627 L212 624 L198 631 L198 616 L186 606 Z"/>
    <path fill="url(#water-valley)" d="M212 614 C288 618 356 595 430 607 C503 619 557 610 614 556 L630 571 C570 633 511 640 431 628 C355 616 291 645 212 639 Z"/>
    <path fill="#BFE8DC" opacity="0.44" d="M238 620 C305 624 362 604 428 613 C489 621 548 617 595 579 C551 626 499 631 434 621 C360 611 306 636 238 633 Z"/>
    <path fill="#8FCFC2" d="M623 531 L651 540 L672 511 L645 503 Z"/>
    <path fill="#BFE8DC" d="M648 500 L674 508 L695 480 L669 472 Z"/>
    <path fill="#8FCFC2" d="M674 469 L698 476 L719 448 L695 441 Z"/>
    <path fill="#BFE8DC" d="M700 438 L723 445 L739 424 L717 417 Z"/>
  </g>

  <g id="water-2">
    <path fill="#8FCFC2" d="M716 423 C791 386 871 449 947 401 C1020 355 1064 333 1123 296 L1138 316 C1076 354 1034 375 962 423 C878 479 800 414 727 454 Z"/>
    <path fill="#BFE8DC" opacity="0.46" d="M738 426 C804 402 877 459 947 413 C1013 370 1067 341 1111 314 C1054 355 1018 384 959 427 C881 482 810 422 738 441 Z"/>
    <path fill="#8FCFC2" d="M1125 283 L1153 295 L1174 271 L1146 259 Z"/>
    <path fill="#BFE8DC" d="M1149 255 L1177 267 L1198 244 L1170 232 Z"/>
    <path fill="#8FCFC2" d="M1174 228 L1202 240 L1222 216 L1195 204 Z"/>
    <path fill="#BFE8DC" d="M1200 201 L1227 213 L1243 195 L1217 182 Z"/>
  </g>

  <g id="water-3">
    <path fill="url(#water-heights)" d="M1222 207 C1319 158 1421 226 1524 160 C1617 100 1701 128 1800 79 L1800 101 C1709 150 1628 119 1541 181 C1432 258 1328 190 1235 235 Z"/>
    <path fill="#C4E4D2" opacity="0.52" d="M1257 207 C1342 175 1428 233 1523 173 C1612 116 1695 139 1774 104 C1697 149 1623 129 1540 188 C1434 262 1347 199 1257 222 Z"/>
  </g>

  <!-- Garden beds and terrain marks, deliberately varied in scale and spacing. -->
  <path fill="#EAE0C6" d="M67 588 C109 562 156 561 188 581 L170 605 C140 590 111 594 80 615 Z"/>
  <path fill="#93C08D" d="M77 587 C108 571 144 570 174 584 L162 596 C137 584 109 587 86 601 Z"/>
  <path fill="#CBBC97" d="M316 695 C351 675 393 677 421 699 L402 720 C377 704 348 704 325 718 Z"/>
  <path fill="#ACDE90" d="M327 695 C351 684 381 685 407 700 L398 709 C376 699 351 699 334 708 Z"/>
  <path fill="#EAE0C6" d="M459 402 C496 382 536 388 561 412 L540 432 C518 414 492 411 467 424 Z"/>
  <path fill="#7CBF6B" d="M472 403 C495 393 523 396 545 412 L536 422 C517 409 494 408 477 416 Z"/>
  <ellipse cx="102" cy="535" rx="29" ry="16" fill="#6FAD72"/>
  <ellipse cx="132" cy="524" rx="18" ry="11" fill="#93C08D"/>
  <ellipse cx="495" cy="725" rx="39" ry="19" fill="#5B9C52" opacity="0.48"/>
  <ellipse cx="545" cy="695" rx="24" ry="13" fill="#6FAD72"/>
  <path fill="#F4CD7E" opacity="0.55" d="M71 650 C88 639 107 642 117 653 C101 661 83 662 71 650 Z"/>
  <path fill="#F4EFD8" opacity="0.56" d="M388 541 C409 528 434 532 446 546 C426 557 402 556 388 541 Z"/>

  <!-- Orchard: fruit trees seen from above, with fronts tucked down-slope. -->
  <path fill="#8A6B4F" d="M716 348 C722 344 728 345 732 351 L728 414 C722 421 714 419 711 412 Z"/>
  <ellipse cx="724" cy="340" rx="52" ry="34" fill="#4E8746"/>
  <ellipse cx="694" cy="344" rx="31" ry="27" fill="#6FAA58"/>
  <ellipse cx="733" cy="318" rx="36" ry="29" fill="#98CB77"/>
  <ellipse cx="759" cy="347" rx="29" ry="24" fill="#6FAA58"/>
  <circle cx="704" cy="329" r="6" fill="#F2C46E"/>
  <circle cx="746" cy="332" r="5" fill="#F4CD7E"/>
  <circle cx="727" cy="353" r="7" fill="#F2C46E"/>

  <path fill="#8A6B4F" d="M1008 252 C1016 248 1023 250 1028 257 L1024 337 C1017 346 1007 343 1002 334 Z"/>
  <ellipse cx="1018" cy="245" rx="67" ry="43" fill="#4E8746"/>
  <ellipse cx="981" cy="244" rx="37" ry="33" fill="#6FAA58"/>
  <ellipse cx="1021" cy="216" rx="43" ry="35" fill="#98CB77"/>
  <ellipse cx="1056" cy="247" rx="39" ry="31" fill="#6FAA58"/>
  <circle cx="996" cy="231" r="7" fill="#F2C46E"/>
  <circle cx="1038" cy="223" r="6" fill="#F4CD7E"/>
  <circle cx="1051" cy="256" r="8" fill="#F2C46E"/>
  <circle cx="1014" cy="263" r="5" fill="#F4CD7E"/>

  <path fill="#8A6B4F" d="M1184 391 C1190 388 1196 389 1200 395 L1198 455 C1192 462 1185 460 1181 453 Z"/>
  <ellipse cx="1191" cy="384" rx="49" ry="32" fill="#4E8746"/>
  <ellipse cx="1162" cy="385" rx="28" ry="25" fill="#6FAA58"/>
  <ellipse cx="1198" cy="361" rx="34" ry="28" fill="#98CB77"/>
  <ellipse cx="1220" cy="389" rx="25" ry="22" fill="#6FAA58"/>
  <circle cx="1174" cy="372" r="5" fill="#F2C46E"/>
  <circle cx="1208" cy="377" r="7" fill="#F4CD7E"/>

  <path fill="#EAE0C6" d="M792 279 C829 259 870 263 899 286 L884 302 C859 286 830 285 801 299 Z"/>
  <path fill="#7CB863" d="M805 281 C832 270 858 272 885 287 L878 294 C855 282 833 281 811 290 Z"/>
  <path fill="#D2BC90" d="M1064 503 C1101 480 1148 484 1175 511 L1155 532 C1130 511 1100 510 1073 528 Z"/>
  <path fill="#A4D384" d="M1076 503 C1101 491 1132 493 1160 511 L1152 521 C1128 507 1103 506 1082 518 Z"/>
  <ellipse cx="842" cy="674" rx="44" ry="22" fill="#699F63" opacity="0.56"/>
  <ellipse cx="924" cy="627" rx="28" ry="16" fill="#8CB47F"/>
  <ellipse cx="1082" cy="585" rx="54" ry="24" fill="#699F63" opacity="0.5"/>

  <!-- Courtyard paving, low walls, and worn honey-stone geometry. -->
  <path fill="#F0E0BE" d="M1267 374 L1325 348 L1380 369 L1324 397 Z"/>
  <path fill="#D2BC90" d="M1325 397 L1380 369 L1380 383 L1324 411 L1267 388 L1267 374 Z" opacity="0.76"/>
  <path fill="#F0E0BE" d="M1576 322 L1645 297 L1702 325 L1634 354 Z"/>
  <path fill="#B29768" d="M1634 354 L1702 325 L1702 342 L1635 371 L1576 342 L1576 322 Z" opacity="0.72"/>
  <path fill="#D2BC90" d="M1699 248 L1755 224 L1800 244 L1800 275 L1755 255 L1699 278 Z"/>
  <path fill="#F0E0BE" d="M1699 248 L1755 224 L1800 244 L1744 268 Z"/>
  <path fill="#B29768" d="M1257 110 L1283 91 L1330 100 L1304 120 Z" opacity="0.72"/>
  <path fill="#DCA346" opacity="0.34" d="M1528 111 C1582 88 1640 98 1667 126 C1626 144 1575 144 1528 111 Z"/>
  <path fill="#F3C572" opacity="0.42" d="M1711 398 C1747 382 1780 386 1800 401 L1800 427 C1764 427 1734 419 1711 398 Z"/>
  <path fill="#E7DFAE" d="M1210 145 C1239 126 1275 129 1296 150 C1270 166 1238 165 1210 145 Z" opacity="0.7"/>
  <path fill="#8CB061" d="M1543 421 C1581 397 1622 402 1647 428 C1617 446 1574 447 1543 421 Z"/>

  <!-- Small rock and foliage clusters; each silhouette and spacing is intentionally irregular. -->
  <ellipse cx="57" cy="397" rx="17" ry="10" fill="#CBBC97"/>
  <ellipse cx="83" cy="389" rx="24" ry="14" fill="#EAE0C6"/>
  <ellipse cx="113" cy="402" rx="12" ry="8" fill="#CBBC97"/>
  <ellipse cx="350" cy="805" rx="29" ry="13" fill="#CBBC97"/>
  <ellipse cx="389" cy="798" rx="17" ry="10" fill="#EAE0C6"/>
  <ellipse cx="600" cy="404" rx="21" ry="12" fill="#93C08D"/>
  <ellipse cx="631" cy="394" rx="12" ry="8" fill="#BCD8B2"/>
  <ellipse cx="754" cy="773" rx="31" ry="14" fill="#699F63"/>
  <ellipse cx="792" cy="764" rx="19" ry="11" fill="#8CB47F"/>
  <ellipse cx="1232" cy="537" rx="22" ry="12" fill="#B29768"/>
  <ellipse cx="1265" cy="528" rx="14" ry="9" fill="#D2BC90"/>
  <ellipse cx="1481" cy="393" rx="27" ry="13" fill="#B29768"/>
  <ellipse cx="1515" cy="386" rx="16" ry="9" fill="#F0E0BE"/>

  <!-- Programmable route and water spines. Invisible, absolute, one-subpath paths. -->
  <path id="walk" fill="none" d="M0 775 C54 775 104 734 150 714 C198 704 244 738 285 755 C330 738 378 691 410 660 C391 625 326 590 285 570 C330 540 387 505 430 490 C478 498 531 537 575 555 C621 550 665 517 700 500 C742 516 777 572 810 590 C853 588 908 547 940 520 C923 485 858 443 825 420 C867 394 928 361 965 350 C1010 363 1064 413 1095 430 C1127 409 1147 347 1180 315 C1221 299 1261 292 1300 295 C1341 300 1381 344 1410 360 C1449 354 1498 307 1525 285 C1515 252 1464 213 1435 195 C1475 180 1535 149 1570 140 C1612 145 1654 193 1685 210 C1723 188 1744 130 1770 110 C1780 105 1791 104 1800 105"/>
  <path id="stream" fill="none" d="M210 625 C300 645 365 605 470 624 C540 637 594 578 650 520 C668 501 676 491 684 486 C703 466 714 449 730 438 C808 392 885 463 960 410 C1036 357 1090 335 1160 284 C1173 276 1184 266 1195 258 C1210 241 1221 231 1235 224 C1350 158 1465 236 1550 170 C1632 106 1705 132 1800 84"/>

  <!-- Raw root-space anchors. -->
  <circle id="heart-1" cx="210" cy="625" r="3" opacity="0"/>
  <circle id="heart-2" cx="890" cy="424" r="3" opacity="0"/>
  <circle id="heart-3" cx="1450" cy="227" r="3" opacity="0"/>
  <circle id="gate-1" cx="684" cy="486" r="3" opacity="0"/>
  <circle id="gate-2" cx="1195" cy="258" r="3" opacity="0"/>
  <circle id="moon" cx="230" cy="32" r="3" opacity="0"/>

  <circle id="spot-1-1" cx="60" cy="755" r="3" opacity="0"/>
  <circle id="spot-1-2" cx="150" cy="714" r="3" opacity="0"/>
  <circle id="spot-1-3" cx="285" cy="755" r="3" opacity="0"/>
  <circle id="spot-1-4" cx="410" cy="660" r="3" opacity="0"/>
  <circle id="spot-1-5" cx="285" cy="570" r="3" opacity="0"/>
  <circle id="spot-1-6" cx="430" cy="490" r="3" opacity="0"/>
  <circle id="spot-1-7" cx="575" cy="555" r="3" opacity="0"/>

  <circle id="spot-2-1" cx="700" cy="500" r="3" opacity="0"/>
  <circle id="spot-2-2" cx="810" cy="590" r="3" opacity="0"/>
  <circle id="spot-2-3" cx="940" cy="520" r="3" opacity="0"/>
  <circle id="spot-2-4" cx="825" cy="420" r="3" opacity="0"/>
  <circle id="spot-2-5" cx="965" cy="350" r="3" opacity="0"/>
  <circle id="spot-2-6" cx="1095" cy="430" r="3" opacity="0"/>
  <circle id="spot-2-7" cx="1180" cy="315" r="3" opacity="0"/>

  <circle id="spot-3-1" cx="1300" cy="295" r="3" opacity="0"/>
  <circle id="spot-3-2" cx="1410" cy="360" r="3" opacity="0"/>
  <circle id="spot-3-3" cx="1525" cy="285" r="3" opacity="0"/>
  <circle id="spot-3-4" cx="1435" cy="195" r="3" opacity="0"/>
  <circle id="spot-3-5" cx="1570" cy="140" r="3" opacity="0"/>
  <circle id="spot-3-6" cx="1685" cy="210" r="3" opacity="0"/>
  <circle id="spot-3-7" cx="1740" cy="130" r="3" opacity="0"/>

  <!-- Foreground silhouettes the child can pass behind. -->
  <g id="over">
    <!-- bridge rails at the valley channel -->
    <path fill="#B29768" d="M454 584 L516 587 L516 596 L454 594 Z"/>
    <path fill="#EAE0C6" d="M451 576 L518 579 L518 587 L452 585 Z"/>
    <path fill="#CBBC97" d="M457 579 L464 579 L464 608 L457 607 Z"/>
    <path fill="#CBBC97" d="M505 581 L512 581 L512 611 L505 610 Z"/>

    <!-- gate crests: posts and lintels only, the animated doors remain absent -->
    <path fill="#8A6B4F" d="M660 468 L671 464 L674 505 L663 509 Z"/>
    <path fill="#8A6B4F" d="M696 480 L708 476 L711 516 L699 520 Z"/>
    <path fill="#8A6B4F" d="M657 462 C672 452 691 457 707 472 L701 481 C687 469 673 466 662 473 Z"/>
    <path fill="#F2C46E" opacity="0.52" d="M666 463 C677 458 689 461 699 470 L695 473 C685 466 676 464 669 468 Z"/>

    <path fill="#8A6B4F" d="M1171 238 L1182 235 L1185 278 L1174 281 Z"/>
    <path fill="#8A6B4F" d="M1207 250 L1219 246 L1222 288 L1210 292 Z"/>
    <path fill="#8A6B4F" d="M1168 232 C1184 222 1203 228 1218 243 L1212 252 C1199 240 1185 236 1173 243 Z"/>
    <path fill="#F3C572" opacity="0.54" d="M1177 232 C1188 228 1200 231 1210 240 L1206 244 C1196 237 1187 234 1180 237 Z"/>

    <!-- an orchard canopy crossing the walking ribbon -->
    <path fill="#8A6B4F" d="M876 527 C882 522 890 523 895 530 L891 602 C884 611 875 608 871 599 Z"/>
    <ellipse cx="884" cy="518" rx="58" ry="37" fill="#4E8746"/>
    <ellipse cx="849" cy="521" rx="33" ry="28" fill="#6FAA58"/>
    <ellipse cx="889" cy="492" rx="39" ry="31" fill="#98CB77"/>
    <ellipse cx="919" cy="522" rx="31" ry="26" fill="#6FAA58"/>
    <circle cx="865" cy="505" r="6" fill="#F2C46E"/>
    <circle cx="903" cy="510" r="7" fill="#F4CD7E"/>

    <!-- low courtyard arch front -->
    <path fill="#B29768" d="M1488 253 L1504 244 L1504 305 L1488 313 Z"/>
    <path fill="#B29768" d="M1542 228 L1558 220 L1558 279 L1542 288 Z"/>
    <path fill="#F0E0BE" d="M1485 244 C1508 220 1537 216 1561 222 L1552 239 C1532 234 1513 240 1499 256 Z"/>
    <path fill="#D2BC90" d="M1499 256 C1514 239 1533 234 1552 239 L1547 249 C1532 246 1518 251 1507 264 Z"/>
  </g>
</svg>
