<svg viewBox="0 0 1800 860" xmlns="http://www.w3.org/2000/svg" xmlns:xlink="http://www.w3.org/1999/xlink">
  <defs>
    <linearGradient id="plain" x1="0" y1="0" x2="0" y2="1">
      <stop offset="0" stop-color="#BCD8B2"/>
      <stop offset="1" stop-color="#93C08D"/>
    </linearGradient>
    <linearGradient id="grass1" x1="0" y1="0" x2="0.3" y2="1">
      <stop offset="0" stop-color="#84C471"/>
      <stop offset="1" stop-color="#74B863"/>
    </linearGradient>
    <linearGradient id="grass2" x1="0" y1="0" x2="0.3" y2="1">
      <stop offset="0" stop-color="#A4D384"/>
      <stop offset="1" stop-color="#7CB863"/>
    </linearGradient>
    <linearGradient id="stone3" x1="0" y1="0" x2="0.3" y2="1">
      <stop offset="0" stop-color="#F0E0BE"/>
      <stop offset="1" stop-color="#E4D0A4"/>
    </linearGradient>
    <path id="isle1" d="M -280,10 C -278,-70 -255,-102 -200,-120 C -128,-148 -62,-162 2,-160 C 92,-157 152,-150 202,-129 C 256,-107 273,-70 276,-28 C 279,20 246,72 208,101 C 152,141 75,162 0,162 C -86,161 -152,146 -210,128 C -258,98 -282,62 -280,10 Z"/>
    <path id="isle2" d="M -205,15 C -201,-58 -162,-94 -97,-114 C -32,-133 58,-134 119,-113 C 174,-94 206,-56 203,-6 C 200,44 171,86 116,109 C 54,133 -50,138 -116,118 C -172,101 -208,68 -205,15 Z"/>
    <path id="isle3" d="M -230,10 C -228,-54 -206,-86 -164,-106 C -110,-131 -58,-138 -4,-136 C 66,-133 132,-125 176,-103 C 216,-83 229,-46 226,-6 C 223,42 191,81 146,104 C 90,131 -58,143 -120,122 C -176,103 -232,64 -230,10 Z"/>
    <polygon id="star8" points="54,0 38.2,15.8 38.2,38.2 15.8,38.2 0,54 -15.8,38.2 -38.2,38.2 -38.2,15.8 -54,0 -38.2,-15.8 -38.2,-38.2 -15.8,-38.2 0,-54 15.8,-38.2 38.2,-38.2 38.2,-15.8"/>
  </defs>

  <!-- calm open plain, light drifting warmer toward the heights -->
  <rect x="0" y="0" width="1800" height="860" fill="url(#plain)"/>
  <ellipse cx="260" cy="790" rx="420" ry="150" fill="#FBE7AE" opacity="0.10"/>
  <ellipse cx="950" cy="470" rx="430" ry="180" fill="#DCE8B4" opacity="0.08"/>
  <ellipse cx="1600" cy="130" rx="440" ry="190" fill="#F6CE92" opacity="0.12"/>
  <ellipse cx="900" cy="40" rx="700" ry="70" fill="#F4EFD8" opacity="0.08"/>
  <ellipse cx="150" cy="330" rx="95" ry="24" fill="#F4EFD8" opacity="0.11"/>
  <ellipse cx="700" cy="760" rx="90" ry="22" fill="#F4EFD8" opacity="0.10"/>
  <ellipse cx="1240" cy="600" rx="100" ry="24" fill="#F4EFD8" opacity="0.11"/>
  <ellipse cx="1700" cy="420" rx="80" ry="20" fill="#F4EFD8" opacity="0.10"/>
  <ellipse cx="620" cy="180" rx="85" ry="20" fill="#F4EFD8" opacity="0.09"/>

  <!-- ============ ISLAND 1 · THE GARDEN VALLEY ============ -->
  <use xlink:href="#isle1" transform="translate(423,638)" fill="#6FAD72" opacity="0.5"/>
  <use xlink:href="#isle1" transform="translate(430,622)" fill="#CBBC97"/>
  <rect x="300" y="768" width="6" height="16" rx="3" fill="#B9A87C" opacity="0.55"/>
  <rect x="382" y="776" width="6" height="16" rx="3" fill="#B9A87C" opacity="0.55"/>
  <rect x="465" y="779" width="6" height="16" rx="3" fill="#B9A87C" opacity="0.55"/>
  <rect x="548" y="770" width="6" height="16" rx="3" fill="#B9A87C" opacity="0.55"/>
  <rect x="622" y="748" width="6" height="15" rx="3" fill="#B9A87C" opacity="0.5"/>
  <use xlink:href="#isle1" transform="translate(430,600)" fill="#EAE0C6"/>
  <use xlink:href="#isle1" transform="translate(430,600) scale(0.94)" fill="url(#grass1)"/>
  <ellipse cx="330" cy="520" rx="105" ry="46" fill="#ACDE90" opacity="0.4"/>
  <ellipse cx="580" cy="670" rx="72" ry="26" fill="#ACDE90" opacity="0.3"/>
  <ellipse cx="250" cy="655" rx="60" ry="24" fill="#ACDE90" opacity="0.25"/>

  <!-- valley tree, west bed -->
  <g>
    <ellipse cx="255" cy="505" rx="30" ry="14" fill="#CBBC97"/>
    <ellipse cx="255" cy="504" rx="24" ry="10" fill="#C4A981"/>
    <ellipse cx="264" cy="507" rx="26" ry="9" fill="#5B9C52" opacity="0.28"/>
    <rect x="251" y="479" width="8" height="26" rx="4" fill="#8A6B4F"/>
    <circle cx="258" cy="468" r="29" fill="#5B9C52"/>
    <circle cx="253" cy="463" r="26" fill="#7CBF6B"/>
    <ellipse cx="244" cy="455" rx="13" ry="10" fill="#ACDE90"/>
  </g>
  <!-- valley tree, north bed -->
  <g>
    <ellipse cx="565" cy="495" rx="32" ry="15" fill="#CBBC97"/>
    <ellipse cx="565" cy="494" rx="26" ry="11" fill="#C4A981"/>
    <ellipse cx="575" cy="497" rx="27" ry="10" fill="#5B9C52" opacity="0.28"/>
    <rect x="561" y="464" width="8" height="30" rx="4" fill="#8A6B4F"/>
    <circle cx="569" cy="453" r="32" fill="#5B9C52"/>
    <circle cx="563" cy="447" r="28" fill="#7CBF6B"/>
    <ellipse cx="553" cy="438" rx="14" ry="10" fill="#ACDE90"/>
  </g>

  <!-- ============ ISLAND 2 · THE ORCHARD RISE ============ -->
  <use xlink:href="#isle2" transform="translate(943,465)" fill="#6FAD72" opacity="0.5"/>
  <use xlink:href="#isle2" transform="translate(950,449)" fill="#CDBB92"/>
  <rect x="850" y="556" width="6" height="17" rx="3" fill="#B9A87C" opacity="0.55"/>
  <rect x="930" y="564" width="6" height="17" rx="3" fill="#B9A87C" opacity="0.55"/>
  <rect x="1010" y="558" width="6" height="17" rx="3" fill="#B9A87C" opacity="0.55"/>
  <rect x="1080" y="540" width="6" height="16" rx="3" fill="#B9A87C" opacity="0.5"/>
  <rect x="790" y="536" width="6" height="16" rx="3" fill="#B9A87C" opacity="0.5"/>
  <use xlink:href="#isle2" transform="translate(950,415)" fill="#EDDFC0"/>
  <use xlink:href="#isle2" transform="translate(950,415) scale(0.94)" fill="url(#grass2)"/>
  <ellipse cx="880" cy="360" rx="85" ry="36" fill="#A4D384" opacity="0.45"/>
  <ellipse cx="1050" cy="470" rx="62" ry="24" fill="#A4D384" opacity="0.3"/>
  <ellipse cx="1010" cy="330" rx="55" ry="22" fill="#A4D384" opacity="0.3"/>

  <!-- orchard trees, laden, in cut beds -->
  <g>
    <ellipse cx="838" cy="350" rx="30" ry="14" fill="#CDBB92"/>
    <ellipse cx="838" cy="349" rx="24" ry="10" fill="#C4A981"/>
    <ellipse cx="847" cy="352" rx="26" ry="9" fill="#4E8746" opacity="0.28"/>
    <rect x="834" y="324" width="8" height="26" rx="4" fill="#8A6B4F"/>
    <circle cx="841" cy="313" r="30" fill="#4E8746"/>
    <circle cx="836" cy="308" r="27" fill="#6FAA58"/>
    <ellipse cx="827" cy="300" rx="14" ry="10" fill="#98CB77"/>
    <circle cx="852" cy="300" r="3.5" fill="#F2C46E"/>
    <circle cx="830" cy="320" r="3.5" fill="#F2C46E"/>
    <circle cx="846" cy="326" r="3.5" fill="#F2C46E"/>
  </g>
  <g>
    <ellipse cx="912" cy="316" rx="32" ry="15" fill="#CDBB92"/>
    <ellipse cx="912" cy="315" rx="26" ry="11" fill="#C4A981"/>
    <ellipse cx="922" cy="318" rx="27" ry="10" fill="#4E8746" opacity="0.28"/>
    <rect x="908" y="286" width="8" height="30" rx="4" fill="#8A6B4F"/>
    <circle cx="916" cy="275" r="33" fill="#4E8746"/>
    <circle cx="910" cy="269" r="29" fill="#6FAA58"/>
    <ellipse cx="900" cy="260" rx="15" ry="11" fill="#98CB77"/>
    <circle cx="928" cy="262" r="3.5" fill="#F2C46E"/>
    <circle cx="903" cy="284" r="3.5" fill="#F2C46E"/>
    <circle cx="923" cy="290" r="3.5" fill="#F2C46E"/>
  </g>
  <g>
    <ellipse cx="988" cy="296" rx="30" ry="14" fill="#CDBB92"/>
    <ellipse cx="988" cy="295" rx="24" ry="10" fill="#C4A981"/>
    <ellipse cx="997" cy="298" rx="26" ry="9" fill="#4E8746" opacity="0.28"/>
    <rect x="984" y="270" width="8" height="26" rx="4" fill="#8A6B4F"/>
    <circle cx="991" cy="259" r="29" fill="#4E8746"/>
    <circle cx="986" cy="254" r="26" fill="#6FAA58"/>
    <ellipse cx="977" cy="246" rx="13" ry="10" fill="#98CB77"/>
    <circle cx="1001" cy="248" r="3.5" fill="#F2C46E"/>
    <circle cx="978" cy="266" r="3.5" fill="#F2C46E"/>
  </g>
  <g>
    <ellipse cx="1040" cy="300" rx="30" ry="14" fill="#CDBB92"/>
    <ellipse cx="1040" cy="299" rx="24" ry="10" fill="#C4A981"/>
    <ellipse cx="1049" cy="302" rx="26" ry="9" fill="#4E8746" opacity="0.28"/>
    <rect x="1036" y="274" width="8" height="26" rx="4" fill="#8A6B4F"/>
    <circle cx="1043" cy="263" r="28" fill="#4E8746"/>
    <circle cx="1038" cy="258" r="25" fill="#6FAA58"/>
    <ellipse cx="1029" cy="250" rx="13" ry="9" fill="#98CB77"/>
    <circle cx="1053" cy="252" r="3.5" fill="#F2C46E"/>
    <circle cx="1032" cy="270" r="3.5" fill="#F2C46E"/>
  </g>
  <g>
    <ellipse cx="800" cy="388" rx="28" ry="13" fill="#CDBB92"/>
    <ellipse cx="800" cy="387" rx="22" ry="9" fill="#C4A981"/>
    <ellipse cx="808" cy="390" rx="24" ry="8" fill="#4E8746" opacity="0.28"/>
    <rect x="796" y="364" width="8" height="24" rx="4" fill="#8A6B4F"/>
    <circle cx="803" cy="353" r="27" fill="#4E8746"/>
    <circle cx="798" cy="348" r="24" fill="#6FAA58"/>
    <ellipse cx="790" cy="341" rx="12" ry="9" fill="#98CB77"/>
    <circle cx="812" cy="342" r="3.5" fill="#F2C46E"/>
    <circle cx="792" cy="360" r="3.5" fill="#F2C46E"/>
  </g>
  <g>
    <ellipse cx="1085" cy="458" rx="30" ry="14" fill="#CDBB92"/>
    <ellipse cx="1085" cy="457" rx="24" ry="10" fill="#C4A981"/>
    <ellipse cx="1094" cy="460" rx="26" ry="9" fill="#4E8746" opacity="0.28"/>
    <rect x="1081" y="432" width="8" height="26" rx="4" fill="#8A6B4F"/>
    <circle cx="1088" cy="421" r="29" fill="#4E8746"/>
    <circle cx="1083" cy="416" r="26" fill="#6FAA58"/>
    <ellipse cx="1074" cy="408" rx="13" ry="10" fill="#98CB77"/>
    <circle cx="1098" cy="410" r="3.5" fill="#F2C46E"/>
    <circle cx="1077" cy="428" r="3.5" fill="#F2C46E"/>
    <circle cx="1094" cy="434" r="3.5" fill="#F2C46E"/>
  </g>

  <!-- ============ ISLAND 3 · THE COURTYARD HEIGHTS ============ -->
  <use xlink:href="#isle3" transform="translate(1448,285)" fill="#6FAD72" opacity="0.5"/>
  <use xlink:href="#isle3" transform="translate(1455,269)" fill="#D2BC90"/>
  <rect x="1360" y="374" width="6" height="18" rx="3" fill="#B29768" opacity="0.5"/>
  <rect x="1440" y="382" width="6" height="18" rx="3" fill="#B29768" opacity="0.5"/>
  <rect x="1520" y="376" width="6" height="18" rx="3" fill="#B29768" opacity="0.5"/>
  <rect x="1590" y="356" width="6" height="17" rx="3" fill="#B29768" opacity="0.5"/>
  <rect x="1285" y="352" width="6" height="17" rx="3" fill="#B29768" opacity="0.5"/>
  <use xlink:href="#isle3" transform="translate(1455,225)" fill="#F0E0BE"/>
  <use xlink:href="#isle3" transform="translate(1455,225) scale(0.94)" fill="url(#stone3)"/>
  <ellipse cx="1350" cy="300" rx="58" ry="22" fill="#B0CC80" opacity="0.5"/>
  <ellipse cx="1565" cy="300" rx="46" ry="18" fill="#B0CC80" opacity="0.4"/>
  <ellipse cx="1330" cy="122" rx="52" ry="20" fill="#B0CC80" opacity="0.45"/>
  <ellipse cx="1600" cy="210" rx="40" ry="15" fill="#8CB061" opacity="0.3"/>
  <ellipse cx="1390" cy="240" rx="10" ry="5" fill="#D2BC90" opacity="0.6"/>
  <ellipse cx="1490" cy="255" rx="10" ry="5" fill="#D2BC90" opacity="0.6"/>
  <ellipse cx="1560" cy="215" rx="9" ry="4.5" fill="#D2BC90" opacity="0.6"/>
  <ellipse cx="1410" cy="150" rx="9" ry="4.5" fill="#D2BC90" opacity="0.6"/>

  <!-- low court walls along the north rim -->
  <g>
    <rect x="1372" y="118" width="70" height="11" rx="5.5" fill="#B29768"/>
    <rect x="1372" y="112" width="70" height="8" rx="4" fill="#F0E0BE"/>
    <rect x="1368" y="106" width="9" height="20" rx="4" fill="#D2BC90"/>
    <rect x="1437" y="106" width="9" height="20" rx="4" fill="#D2BC90"/>
    <rect x="1458" y="108" width="58" height="11" rx="5.5" fill="#B29768"/>
    <rect x="1458" y="102" width="58" height="8" rx="4" fill="#F0E0BE"/>
    <rect x="1454" y="96" width="9" height="20" rx="4" fill="#D2BC90"/>
    <rect x="1511" y="96" width="9" height="20" rx="4" fill="#D2BC90"/>
    <g transform="translate(1258,182) rotate(-24)">
      <rect x="-32" y="0" width="64" height="11" rx="5.5" fill="#B29768"/>
      <rect x="-32" y="-6" width="64" height="8" rx="4" fill="#F0E0BE"/>
      <rect x="-36" y="-12" width="9" height="22" rx="4" fill="#D2BC90"/>
      <rect x="27" y="-12" width="9" height="22" rx="4" fill="#D2BC90"/>
    </g>
  </g>

  <!-- courtyard trees -->
  <g>
    <ellipse cx="1330" cy="150" rx="30" ry="14" fill="#D2BC90"/>
    <ellipse cx="1330" cy="149" rx="24" ry="10" fill="#C4A981"/>
    <ellipse cx="1339" cy="152" rx="26" ry="9" fill="#4E8746" opacity="0.28"/>
    <rect x="1326" y="124" width="8" height="26" rx="4" fill="#8A6B4F"/>
    <circle cx="1333" cy="113" r="29" fill="#6FAA58"/>
    <circle cx="1328" cy="108" r="26" fill="#98CB77"/>
    <ellipse cx="1319" cy="100" rx="13" ry="10" fill="#B0CC80"/>
  </g>
  <g>
    <ellipse cx="1618" cy="282" rx="30" ry="14" fill="#D2BC90"/>
    <ellipse cx="1618" cy="281" rx="24" ry="10" fill="#C4A981"/>
    <ellipse cx="1627" cy="284" rx="26" ry="9" fill="#4E8746" opacity="0.28"/>
    <rect x="1614" y="256" width="8" height="26" rx="4" fill="#8A6B4F"/>
    <circle cx="1621" cy="245" r="29" fill="#6FAA58"/>
    <circle cx="1616" cy="240" r="26" fill="#98CB77"/>
    <ellipse cx="1607" cy="232" rx="13" ry="10" fill="#B0CC80"/>
  </g>

  <!-- ============ BRIDGES AND CAUSEWAYS (deck-level, stair junctions) ============ -->
  <g>
    <path transform="translate(0,9)" d="M 25,812 C 70,795 120,772 165,745" fill="none" stroke="#B4A47C" stroke-width="27" stroke-linecap="round"/>
    <path d="M 25,812 C 70,795 120,772 165,745" fill="none" stroke="#EAE0C6" stroke-width="27" stroke-linecap="round"/>
    <path transform="translate(0,9)" d="M 660,628 C 700,600 740,568 785,548" fill="none" stroke="#B4A47C" stroke-width="27" stroke-linecap="round"/>
    <path d="M 660,628 C 700,600 740,568 785,548" fill="none" stroke="#EAE0C6" stroke-width="27" stroke-linecap="round"/>
    <path transform="translate(0,9)" d="M 1085,336 C 1125,344 1185,328 1252,299" fill="none" stroke="#B4A47C" stroke-width="27" stroke-linecap="round"/>
    <path d="M 1085,336 C 1125,344 1185,328 1252,299" fill="none" stroke="#EAE0C6" stroke-width="27" stroke-linecap="round"/>
    <path transform="translate(0,9)" d="M 1615,128 C 1660,118 1722,97 1795,76" fill="none" stroke="#B4A47C" stroke-width="27" stroke-linecap="round"/>
    <path d="M 1615,128 C 1660,118 1722,97 1795,76" fill="none" stroke="#EAE0C6" stroke-width="27" stroke-linecap="round"/>
  </g>

  <!-- trail stairs up each wall face -->
  <g transform="translate(184,734) rotate(-33)">
    <rect x="-17" y="8" width="34" height="9" rx="4.5" fill="#EAE0C6"/>
    <rect x="-15" y="-1" width="30" height="9" rx="4.5" fill="#E2D6B4"/>
    <rect x="-13" y="-10" width="26" height="9" rx="4.5" fill="#EAE0C6"/>
  </g>
  <g transform="translate(790,540) rotate(-38)">
    <rect x="-17" y="8" width="34" height="9" rx="4.5" fill="#EAE0C6"/>
    <rect x="-15" y="-1" width="30" height="9" rx="4.5" fill="#E2D6B4"/>
    <rect x="-13" y="-10" width="26" height="9" rx="4.5" fill="#EAE0C6"/>
  </g>
  <g transform="translate(1265,287) rotate(-36)">
    <rect x="-17" y="8" width="34" height="9" rx="4.5" fill="#EAE0C6"/>
    <rect x="-15" y="-1" width="30" height="9" rx="4.5" fill="#E2D6B4"/>
    <rect x="-13" y="-10" width="26" height="9" rx="4.5" fill="#EAE0C6"/>
  </g>

  <!-- ============ THE ONE CANAL: continuous stone bed, spring to the open seam ============ -->
  <path transform="translate(0,7)" d="M 445,537 L 475,538.5 Q 505,540 538,543 Q 570,545 600,545 Q 630,545 656,543 Q 681,540 692,551 Q 703,562 726,545 Q 748,528 770,499 Q 791,470 826,451 Q 860,432 900,416 Q 940,400 985,391 Q 1030,382 1065,385 Q 1100,388 1123,394 Q 1145,400 1149,417 Q 1152,434 1184,415 Q 1215,395 1245,375 Q 1275,354 1275,332 Q 1275,310 1323,284 Q 1370,258 1406,240 Q 1442,222 1486,209 Q 1530,196 1565,182 Q 1600,168 1615,163 Q 1630,158 1668,145 Q 1705,132 1748,118 L 1790,104" fill="none" stroke="#B4A47C" stroke-width="26" stroke-linecap="round"/>
  <path d="M 445,537 L 475,538.5 Q 505,540 538,543 Q 570,545 600,545 Q 630,545 656,543 Q 681,540 692,551 Q 703,562 726,545 Q 748,528 770,499 Q 791,470 826,451 Q 860,432 900,416 Q 940,400 985,391 Q 1030,382 1065,385 Q 1100,388 1123,394 Q 1145,400 1149,417 Q 1152,434 1184,415 Q 1215,395 1245,375 Q 1275,354 1275,332 Q 1275,310 1323,284 Q 1370,258 1406,240 Q 1442,222 1486,209 Q 1530,196 1565,182 Q 1600,168 1615,163 Q 1630,158 1668,145 Q 1705,132 1748,118 L 1790,104" fill="none" stroke="#EAE0C6" stroke-width="26" stroke-linecap="round"/>
  <path d="M 445,537 L 475,538.5 Q 505,540 538,543 Q 570,545 600,545 Q 630,545 656,543 Q 681,540 692,551 Q 703,562 726,545 Q 748,528 770,499 Q 791,470 826,451 Q 860,432 900,416 Q 940,400 985,391 Q 1030,382 1065,385 Q 1100,388 1123,394 Q 1145,400 1149,417 Q 1152,434 1184,415 Q 1215,395 1245,375 Q 1275,354 1275,332 Q 1275,310 1323,284 Q 1370,258 1406,240 Q 1442,222 1486,209 Q 1530,196 1565,182 Q 1600,168 1615,163 Q 1630,158 1668,145 Q 1705,132 1748,118 L 1790,104" fill="none" stroke="#CBBC97" stroke-width="13" stroke-linecap="round"/>

  <!-- heart stonework: the eight-point-star spring basin -->
  <g transform="translate(445,537) scale(1.05,0.88)">
    <use xlink:href="#star8" fill="#EAE0C6" stroke="#EAE0C6" stroke-width="10" stroke-linejoin="round"/>
    <use xlink:href="#star8" transform="scale(0.82)" fill="#CBBC97" stroke="#CBBC97" stroke-width="9" stroke-linejoin="round"/>
  </g>
  <!-- heart stonework: the quatrefoil clearing -->
  <g>
    <circle cx="940" cy="372" r="30" fill="#EDDFC0"/>
    <circle cx="940" cy="428" r="30" fill="#EDDFC0"/>
    <circle cx="912" cy="400" r="30" fill="#EDDFC0"/>
    <circle cx="968" cy="400" r="30" fill="#EDDFC0"/>
    <circle cx="940" cy="400" r="32" fill="#EDDFC0"/>
    <circle cx="940" cy="378" r="23" fill="#CDBB92"/>
    <circle cx="940" cy="422" r="23" fill="#CDBB92"/>
    <circle cx="918" cy="400" r="23" fill="#CDBB92"/>
    <circle cx="962" cy="400" r="23" fill="#CDBB92"/>
    <circle cx="940" cy="400" r="24" fill="#CDBB92"/>
    <circle cx="940" cy="374" r="16" fill="#C4A981"/>
    <circle cx="940" cy="426" r="16" fill="#C4A981"/>
    <circle cx="914" cy="400" r="16" fill="#C4A981"/>
    <circle cx="966" cy="400" r="16" fill="#C4A981"/>
    <ellipse cx="938" cy="372" rx="11" ry="8" fill="#A4D384"/>
    <ellipse cx="942" cy="424" rx="11" ry="8" fill="#A4D384"/>
    <ellipse cx="916" cy="398" rx="10" ry="8" fill="#A4D384"/>
    <ellipse cx="964" cy="398" rx="10" ry="8" fill="#A4D384"/>
    <circle cx="940" cy="400" r="17" fill="#EDDFC0"/>
  </g>
  <!-- heart stonework: the octagonal court -->
  <g transform="translate(1442,222)">
    <polygon points="53.6,18.9 22.2,45.6 -22.2,45.6 -53.6,18.9 -53.6,-18.9 -22.2,-45.6 22.2,-45.6 53.6,-18.9" fill="#F0E0BE" stroke="#F0E0BE" stroke-width="9" stroke-linejoin="round"/>
    <polygon points="43.4,15.3 18,36.9 -18,36.9 -43.4,15.3 -43.4,-15.3 -18,-36.9 18,-36.9 43.4,-15.3" fill="#D2BC90" stroke="#D2BC90" stroke-width="8" stroke-linejoin="round"/>
    <polygon points="33.3,11.7 13.8,28.3 -13.8,28.3 -33.3,11.7 -33.3,-11.7 -13.8,-28.3 13.8,-28.3 33.3,-11.7" fill="#F0E0BE" stroke="#F0E0BE" stroke-width="7" stroke-linejoin="round"/>
  </g>

  <!-- ============ WATER (per-region groups) ============ -->
  <g id="water-1">
    <path d="M 445,537 L 475,538.5 Q 505,540 538,543 Q 570,545 600,545 Q 630,545 656,543 Q 681,540 692,551 L 703,562" fill="none" stroke="#57A79E" stroke-width="11" stroke-linecap="round"/>
    <path transform="translate(0,2.5)" d="M 445,537 L 475,538.5 Q 505,540 538,543 Q 570,545 600,545 Q 630,545 656,543 Q 681,540 692,551 L 703,562" fill="none" stroke="#8FCFC2" stroke-width="8" stroke-linecap="round"/>
    <g transform="translate(445,537) scale(1.05,0.88)">
      <use xlink:href="#star8" transform="scale(0.70)" fill="#57A79E" stroke="#57A79E" stroke-width="8" stroke-linejoin="round"/>
      <use xlink:href="#star8" transform="translate(0,4) scale(0.70)" fill="#8FCFC2" stroke="#8FCFC2" stroke-width="8" stroke-linejoin="round"/>
      <ellipse cx="-9" cy="12" rx="17" ry="9" fill="#BFE8DC" opacity="0.85"/>
    </g>
    <rect x="676" y="541" width="19" height="5" rx="2.5" fill="#BFE8DC" transform="rotate(42 685 543)"/>
    <rect x="688" y="551" width="19" height="5" rx="2.5" fill="#BFE8DC" transform="rotate(42 697 553)"/>
  </g>
  <g id="water-2">
    <path d="M 703,562 L 725.5,545 Q 748,528 770,499 Q 791,470 826,451 Q 860,432 900,416 Q 940,400 985,391 Q 1030,382 1065,385 Q 1100,388 1123,394 Q 1145,400 1149,417 L 1152,434" fill="none" stroke="#57A79E" stroke-width="11" stroke-linecap="round"/>
    <path transform="translate(0,2.5)" d="M 703,562 L 725.5,545 Q 748,528 770,499 Q 791,470 826,451 Q 860,432 900,416 Q 940,400 985,391 Q 1030,382 1065,385 Q 1100,388 1123,394 Q 1145,400 1149,417 L 1152,434" fill="none" stroke="#8FCFC2" stroke-width="8" stroke-linecap="round"/>
    <rect x="748" y="515" width="19" height="5" rx="2.5" fill="#BFE8DC" transform="rotate(-52 757 517)"/>
    <rect x="759" y="500" width="19" height="5" rx="2.5" fill="#BFE8DC" transform="rotate(-52 768 502)"/>
    <rect x="770" y="485" width="19" height="5" rx="2.5" fill="#BFE8DC" transform="rotate(-52 779 487)"/>
    <rect x="1138" y="408" width="19" height="5" rx="2.5" fill="#BFE8DC" transform="rotate(76 1147 410)"/>
    <rect x="1141" y="420" width="19" height="5" rx="2.5" fill="#BFE8DC" transform="rotate(76 1150 422)"/>
    <circle cx="940" cy="400" r="13" fill="#57A79E"/>
    <ellipse cx="938" cy="402" rx="10" ry="7" fill="#8FCFC2"/>
    <ellipse cx="936" cy="403" rx="5" ry="3" fill="#BFE8DC"/>
  </g>
  <g id="water-3">
    <path d="M 1152,434 L 1183.5,414.5 Q 1215,395 1245,375 Q 1275,354 1275,332 Q 1275,310 1323,284 Q 1370,258 1406,240 Q 1442,222 1486,209 Q 1530,196 1565,182 Q 1600,168 1615,163 Q 1630,158 1668,145 Q 1705,132 1748,118 L 1790,104" fill="none" stroke="#8FC9B8" stroke-width="11" stroke-linecap="round"/>
    <path transform="translate(0,2.5)" d="M 1152,434 L 1183.5,414.5 Q 1215,395 1245,375 Q 1275,354 1275,332 Q 1275,310 1323,284 Q 1370,258 1406,240 Q 1442,222 1486,209 Q 1530,196 1565,182 Q 1600,168 1615,163 Q 1630,158 1668,145 Q 1705,132 1748,118 L 1790,104" fill="none" stroke="#C4E4D2" stroke-width="8" stroke-linecap="round"/>
    <rect x="1265.5" y="341" width="19" height="5" rx="2.5" fill="#C4E4D2"/>
    <rect x="1265.5" y="327" width="19" height="5" rx="2.5" fill="#C4E4D2"/>
    <rect x="1265.5" y="313" width="19" height="5" rx="2.5" fill="#C4E4D2"/>
    <g transform="translate(1442,222)">
      <polygon points="15.7,5.5 6.5,13.3 -6.5,13.3 -15.7,5.5 -15.7,-5.5 -6.5,-13.3 6.5,-13.3 15.7,-5.5" fill="#8FC9B8" stroke="#8FC9B8" stroke-width="5" stroke-linejoin="round"/>
      <ellipse cx="-3" cy="3" rx="8" ry="5" fill="#C4E4D2" opacity="0.9"/>
    </g>
  </g>

  <!-- paved slabs where the trail steps over the channel -->
  <path d="M 1032,395 L 998,369" fill="none" stroke="#EAE0C6" stroke-width="24" stroke-linecap="round"/>
  <path d="M 1546,219 L 1514,186" fill="none" stroke="#EAE0C6" stroke-width="24" stroke-linecap="round"/>

  <!-- ============ THE WALKING TRAIL (the walk path itself) ============ -->
  <path id="walk" d="M 25,812 L 62.5,798.5 Q 100,785 131,767 Q 162,748 181,733 Q 200,718 217,721 Q 233,724 282,732 Q 330,739 377,718 Q 424,697 448,650 Q 472,602 520,594 Q 568,585 603,617 Q 638,648 667,624 Q 695,600 715,585 Q 735,570 754,563 Q 772,556 790,539 Q 808,522 813,516 Q 818,510 864,519 Q 910,527 953,510 Q 995,492 1022,450 Q 1048,408 1048,408 Q 1048,408 1012,380 Q 975,352 975,352 Q 975,352 1040,342 Q 1105,332 1128,337 Q 1150,342 1175,335 Q 1200,328 1223,315 Q 1245,302 1265,286 Q 1285,270 1295,274 Q 1305,278 1333,292 Q 1360,306 1403,311 Q 1445,316 1470,310 Q 1495,304 1520,293 Q 1545,282 1553,259 Q 1560,236 1528,203 Q 1495,170 1495,170 Q 1495,170 1548,152 Q 1600,133 1633,125 Q 1665,117 1683,111 Q 1700,105 1748,91 L 1795,76" fill="none" stroke="#E7DDC0" stroke-width="20" stroke-linecap="round"/>
  <g fill="#D6C9A2">
    <ellipse cx="120" cy="776" rx="7" ry="4.5"/>
    <ellipse cx="215" cy="720" rx="7" ry="4.5"/>
    <ellipse cx="283" cy="731" rx="7" ry="4.5"/>
    <ellipse cx="378" cy="717" rx="7" ry="4.5"/>
    <ellipse cx="450" cy="648" rx="7" ry="4.5"/>
    <ellipse cx="520" cy="593" rx="7" ry="4.5"/>
    <ellipse cx="605" cy="616" rx="7" ry="4.5"/>
    <ellipse cx="716" cy="584" rx="7" ry="4.5"/>
    <ellipse cx="756" cy="562" rx="7" ry="4.5"/>
    <ellipse cx="864" cy="518" rx="7" ry="4.5"/>
    <ellipse cx="953" cy="509" rx="7" ry="4.5"/>
    <ellipse cx="1023" cy="449" rx="7" ry="4.5"/>
    <ellipse cx="1013" cy="380" rx="7" ry="4.5"/>
    <ellipse cx="1041" cy="342" rx="7" ry="4.5"/>
    <ellipse cx="1128" cy="336" rx="7" ry="4.5"/>
    <ellipse cx="1176" cy="334" rx="7" ry="4.5"/>
    <ellipse cx="1224" cy="314" rx="7" ry="4.5"/>
    <ellipse cx="1296" cy="274" rx="7" ry="4.5"/>
    <ellipse cx="1334" cy="292" rx="7" ry="4.5"/>
    <ellipse cx="1404" cy="311" rx="7" ry="4.5"/>
    <ellipse cx="1471" cy="309" rx="7" ry="4.5"/>
    <ellipse cx="1521" cy="292" rx="7" ry="4.5"/>
    <ellipse cx="1553" cy="258" rx="7" ry="4.5"/>
    <ellipse cx="1527" cy="202" rx="7" ry="4.5"/>
    <ellipse cx="1549" cy="151" rx="7" ry="4.5"/>
    <ellipse cx="1634" cy="124" rx="7" ry="4.5"/>
    <ellipse cx="1684" cy="110" rx="7" ry="4.5"/>
    <ellipse cx="1749" cy="90" rx="7" ry="4.5"/>
  </g>

  <!-- ============ OVER: what the walker passes behind ============ -->
  <g id="over">
    <g>
      <path d="M 778,478 L 778,458 C 778,444 804,444 804,458 L 804,478" fill="none" stroke="#8A6B4F" stroke-width="7" stroke-linecap="round"/>
      <path d="M 781,457 C 783,450 799,450 801,457" fill="none" stroke="#A5825F" stroke-width="3" stroke-linecap="round"/>
      <ellipse cx="791" cy="479" rx="16" ry="4" fill="#5B9C52" opacity="0.25"/>
    </g>
    <g>
      <path d="M 1262,316 L 1262,296 C 1262,282 1288,282 1288,296 L 1288,316" fill="none" stroke="#8A6B4F" stroke-width="7" stroke-linecap="round"/>
      <path d="M 1265,295 C 1267,288 1283,288 1285,295" fill="none" stroke="#A5825F" stroke-width="3" stroke-linecap="round"/>
      <ellipse cx="1275" cy="317" rx="16" ry="4" fill="#8CB061" opacity="0.25"/>
    </g>
    <g transform="translate(1548,152) rotate(-19)">
      <path d="M -13,14 L -13,-8 C -13,-24 13,-24 13,-8 L 13,14" fill="none" stroke="#D2BC90" stroke-width="8" stroke-linecap="round"/>
      <path d="M -9,-9 C -8,-18 8,-18 9,-9" fill="none" stroke="#F0E0BE" stroke-width="3" stroke-linecap="round"/>
      <ellipse cx="0" cy="15" rx="15" ry="4" fill="#8CB061" opacity="0.3"/>
    </g>
  </g>

  <!-- ============ ANCHORS (invisible contract circles) ============ -->
  <path id="stream" d="M 445,537 L 475,538.5 Q 505,540 538,543 Q 570,545 600,545 Q 630,545 656,543 Q 681,540 692,551 Q 703,562 726,545 Q 748,528 770,499 Q 791,470 826,451 Q 860,432 900,416 Q 940,400 985,391 Q 1030,382 1065,385 Q 1100,388 1123,394 Q 1145,400 1149,417 Q 1152,434 1184,415 Q 1215,395 1245,375 Q 1275,354 1275,332 Q 1275,310 1323,284 Q 1370,258 1406,240 Q 1442,222 1486,209 Q 1530,196 1565,182 Q 1600,168 1615,163 Q 1630,158 1668,145 Q 1705,132 1748,118 L 1790,104" fill="none" stroke="none"/>
  <g opacity="0" fill="#FFF6DC">
    <circle id="spot-1-1" cx="233" cy="724" r="10"/>
    <circle id="spot-1-2" cx="330" cy="739" r="10"/>
    <circle id="spot-1-3" cx="424" cy="697" r="10"/>
    <circle id="spot-1-4" cx="472" cy="602" r="10"/>
    <circle id="spot-1-5" cx="568" cy="585" r="10"/>
    <circle id="spot-1-6" cx="638" cy="648" r="10"/>
    <circle id="spot-1-7" cx="735" cy="570" r="10"/>
    <circle id="spot-2-1" cx="818" cy="510" r="10"/>
    <circle id="spot-2-2" cx="910" cy="527" r="10"/>
    <circle id="spot-2-3" cx="995" cy="492" r="10"/>
    <circle id="spot-2-4" cx="1048" cy="408" r="10"/>
    <circle id="spot-2-5" cx="975" cy="352" r="10"/>
    <circle id="spot-2-6" cx="1105" cy="332" r="10"/>
    <circle id="spot-2-7" cx="1200" cy="328" r="10"/>
    <circle id="spot-3-1" cx="1305" cy="278" r="10"/>
    <circle id="spot-3-2" cx="1400" cy="313" r="10"/>
    <circle id="spot-3-3" cx="1495" cy="304" r="10"/>
    <circle id="spot-3-4" cx="1560" cy="236" r="10"/>
    <circle id="spot-3-5" cx="1495" cy="170" r="10"/>
    <circle id="spot-3-6" cx="1600" cy="133" r="10"/>
    <circle id="spot-3-7" cx="1700" cy="105" r="10"/>
    <circle id="heart-1" cx="445" cy="537" r="12"/>
    <circle id="heart-2" cx="940" cy="400" r="12"/>
    <circle id="heart-3" cx="1442" cy="222" r="12"/>
    <circle id="gate-1" cx="791" cy="468" r="10"/>
    <circle id="gate-2" cx="1275" cy="306" r="10"/>
    <circle id="moon" cx="415" cy="268" r="16"/>
  </g>
</svg>
