<svg viewBox="0 0 1800 860" xmlns="http://www.w3.org/2000/svg">
<defs>
<linearGradient id="skyM" x1="0" y1="0" x2="0" y2="1"><stop offset="0" stop-color="#A9CBB4"/><stop offset="0.5" stop-color="#DCE9BE"/><stop offset="1" stop-color="#F7E0A6"/></linearGradient>
<linearGradient id="gV" x1="0" y1="0" x2="0.25" y2="1"><stop offset="0" stop-color="#ACDE90"/><stop offset="1" stop-color="#6FAF60"/></linearGradient>
<linearGradient id="gO" x1="0" y1="0" x2="0.25" y2="1"><stop offset="0" stop-color="#A0D080"/><stop offset="1" stop-color="#74B25E"/></linearGradient>
<linearGradient id="gH" x1="0" y1="0" x2="0.25" y2="1"><stop offset="0" stop-color="#B0CC80"/><stop offset="1" stop-color="#84A857"/></linearGradient>
<radialGradient id="tintV"><stop offset="0" stop-color="#FBE7AE" stop-opacity="0.42"/><stop offset="1" stop-color="#FBE7AE" stop-opacity="0"/></radialGradient>
<radialGradient id="tintT"><stop offset="0" stop-color="#9ED2C6" stop-opacity="0.2"/><stop offset="1" stop-color="#9ED2C6" stop-opacity="0"/></radialGradient>
<radialGradient id="tintH"><stop offset="0" stop-color="#F6CE92" stop-opacity="0.34"/><stop offset="1" stop-color="#F6CE92" stop-opacity="0"/></radialGradient>
<radialGradient id="tintB"><stop offset="0" stop-color="#FBEFC6" stop-opacity="0.45"/><stop offset="1" stop-color="#FBEFC6" stop-opacity="0"/></radialGradient>
</defs>
<rect x="0" y="0" width="1800" height="860" fill="url(#skyM)"/>
<ellipse cx="330" cy="740" rx="620" ry="260" fill="url(#tintV)"/>
<ellipse cx="240" cy="330" rx="520" ry="300" fill="url(#tintT)"/>
<ellipse cx="1520" cy="170" rx="640" ry="330" fill="url(#tintH)"/>
<ellipse cx="1680" cy="80" rx="420" ry="200" fill="url(#tintB)"/>
<g opacity="0.35"><ellipse cx="180" cy="120" rx="44" ry="8" fill="#FDF6E4"/><ellipse cx="164.6" cy="123.2" rx="29.9" ry="6.2" fill="#F4EFD8"/></g>
<g opacity="0.3"><ellipse cx="520" cy="80" rx="36" ry="7" fill="#FDF6E4"/><ellipse cx="507.4" cy="82.8" rx="24.5" ry="5.5" fill="#F4EFD8"/></g>
<g opacity="0.28"><ellipse cx="820" cy="140" rx="30" ry="6" fill="#FDF6E4"/><ellipse cx="809.5" cy="142.4" rx="20.4" ry="4.7" fill="#F4EFD8"/></g>
<g opacity="0.92"><ellipse cx="300" cy="790" rx="130" ry="30" fill="#FDF6E4"/><ellipse cx="232.4" cy="776.5" rx="67.6" ry="21.9" fill="#FDF6E4"/><ellipse cx="349.4" cy="775" rx="76.7" ry="24" fill="#FDF6E4"/><ellipse cx="313" cy="798.1" rx="111.8" ry="21.9" fill="#F4EFD8"/></g>
<g opacity="0.88"><ellipse cx="560" cy="812" rx="110" ry="26" fill="#FDF6E4"/><ellipse cx="502.8" cy="800.3" rx="57.2" ry="19" fill="#FDF6E4"/><ellipse cx="601.8" cy="799" rx="64.9" ry="20.8" fill="#FDF6E4"/><ellipse cx="571" cy="819" rx="94.6" ry="19" fill="#F4EFD8"/></g>
<g opacity="0.85"><ellipse cx="120" cy="820" rx="90" ry="22" fill="#FDF6E4"/><ellipse cx="73.2" cy="810.1" rx="46.8" ry="16.1" fill="#FDF6E4"/><ellipse cx="154.2" cy="809" rx="53.1" ry="17.6" fill="#FDF6E4"/><ellipse cx="129" cy="825.9" rx="77.4" ry="16.1" fill="#F4EFD8"/></g>
<g opacity="0.8"><ellipse cx="760" cy="795" rx="84" ry="20" fill="#FDF6E4"/><ellipse cx="716.3" cy="786" rx="43.7" ry="14.6" fill="#FDF6E4"/><ellipse cx="791.9" cy="785" rx="49.6" ry="16" fill="#FDF6E4"/><ellipse cx="768.4" cy="800.4" rx="72.2" ry="14.6" fill="#F4EFD8"/></g>
<g opacity="0.5"><ellipse cx="950" cy="822" rx="60" ry="13" fill="#FDF6E4"/><ellipse cx="929" cy="827.2" rx="40.8" ry="10.1" fill="#F4EFD8"/></g>
<g opacity="0.4"><ellipse cx="1180" cy="835" rx="48" ry="10" fill="#FDF6E4"/><ellipse cx="1163.2" cy="839" rx="32.6" ry="7.8" fill="#F4EFD8"/></g>
<g opacity="0.3"><ellipse cx="1420" cy="828" rx="40" ry="9" fill="#FDF6E4"/><ellipse cx="1406" cy="831.6" rx="27.2" ry="7" fill="#F4EFD8"/></g>
<g opacity="0.26"><ellipse cx="1300" cy="700" rx="44" ry="9" fill="#FDF6E4"/><ellipse cx="1284.6" cy="703.6" rx="29.9" ry="7" fill="#F4EFD8"/></g>
<g opacity="0.24"><ellipse cx="1620" cy="760" rx="52" ry="10" fill="#FDF6E4"/><ellipse cx="1601.8" cy="764" rx="35.4" ry="7.8" fill="#F4EFD8"/></g>
<g opacity="0.2"><ellipse cx="1680" cy="640" rx="36" ry="7" fill="#FDF6E4"/><ellipse cx="1667.4" cy="642.8" rx="24.5" ry="5.5" fill="#F4EFD8"/></g>
<g opacity="0.5"><ellipse cx="180" cy="560" rx="52" ry="11" fill="#FDF6E4"/><ellipse cx="161.8" cy="564.4" rx="35.4" ry="8.6" fill="#F4EFD8"/></g>
<g opacity="0.42"><ellipse cx="1050" cy="520" rx="44" ry="10" fill="#FDF6E4"/><ellipse cx="1034.6" cy="524" rx="29.9" ry="7.8" fill="#F4EFD8"/></g>
<g opacity="0.3"><ellipse cx="1500" cy="470" rx="38" ry="8" fill="#FDF6E4"/><ellipse cx="1486.7" cy="473.2" rx="25.8" ry="6.2" fill="#F4EFD8"/></g>
<ellipse cx="1311.6" cy="246.2" rx="81" ry="8.2" fill="#C8AE84"/>
<ellipse cx="1313.1" cy="252.2" rx="46.5" ry="5.6" fill="#DBC59E"/>
<ellipse cx="1313.8" cy="256.7" rx="22.5" ry="3.4" fill="#E8D7B4"/>
<path transform="translate(969.6,-71.8) scale(0.75) translate(0,30)" fill="#B89B6E" d="M 144,282 C 141,242 176,204 232,185 C 288,166 350,152 420,150 C 493,148 566,157 634,180 C 700,203 762,228 777,263 C 791,299 748,336 694,358 C 634,383 550,399 464,402 C 382,405 300,392 240,370 C 192,352 147,323 144,282 Z"/>
<path transform="translate(969.6,-71.8) scale(0.75) translate(0,15)" fill="#D2BC90" d="M 144,282 C 141,242 176,204 232,185 C 288,166 350,152 420,150 C 493,148 566,157 634,180 C 700,203 762,228 777,263 C 791,299 748,336 694,358 C 634,383 550,399 464,402 C 382,405 300,392 240,370 C 192,352 147,323 144,282 Z"/>
<path transform="translate(969.6,-71.8) scale(0.75)" fill="#F0E0BE" d="M 144,282 C 141,242 176,204 232,185 C 288,166 350,152 420,150 C 493,148 566,157 634,180 C 700,203 762,228 777,263 C 791,299 748,336 694,358 C 634,383 550,399 464,402 C 382,405 300,392 240,370 C 192,352 147,323 144,282 Z"/>
<path transform="translate(969.6,-71.8) scale(0.75)" fill="url(#gH)" d="M 162,282 C 160,247 193,213 244,195 C 296,176 355,166 421,164 C 490,162 560,170 623,192 C 686,214 744,236 757,268 C 769,298 728,331 677,351 C 620,373 545,388 464,390 C 385,392 313,381 256,360 C 211,343 164,318 162,282 Z"/>
<ellipse cx="1348.3" cy="155.9" rx="70" ry="19" fill="#B0CC80" opacity="0.32"/>
<ellipse cx="1308.3" cy="210.9" rx="120" ry="10" fill="#4E7D42" opacity="0.12"/>
<ellipse cx="1304.6" cy="97.5" rx="56" ry="18" fill="#F3C572" opacity="0.12"/>
<rect x="1226.1" y="207.9" width="4" height="10" rx="2" fill="#B9A87C" opacity="0.4"/><rect x="1254.6" y="211.7" width="4" height="10" rx="2" fill="#B9A87C" opacity="0.4"/><rect x="1284.6" y="214.7" width="4" height="10" rx="2" fill="#B9A87C" opacity="0.4"/><rect x="1316.1" y="216.2" width="4" height="10" rx="2" fill="#B9A87C" opacity="0.4"/><rect x="1347.6" y="215.4" width="4" height="10" rx="2" fill="#B9A87C" opacity="0.4"/><rect x="1379.1" y="213.2" width="4" height="10" rx="2" fill="#B9A87C" opacity="0.4"/><rect x="1410.6" y="208.7" width="4" height="10" rx="2" fill="#B9A87C" opacity="0.4"/><rect x="1440.6" y="202.7" width="4" height="10" rx="2" fill="#B9A87C" opacity="0.4"/><rect x="1467.6" y="194.4" width="4" height="10" rx="2" fill="#B9A87C" opacity="0.4"/><rect x="1491.6" y="183.9" width="4" height="10" rx="2" fill="#B9A87C" opacity="0.4"/><rect x="1511.1" y="171.9" width="4" height="10" rx="2" fill="#B9A87C" opacity="0.4"/><rect x="1524.6" y="157.7" width="4" height="10" rx="2" fill="#B9A87C" opacity="0.4"/>
<ellipse cx="1157.1" cy="75.2" rx="5" ry="2.3" fill="#8CB061" opacity="0.55"/><ellipse cx="1224.6" cy="57.2" rx="5" ry="2.3" fill="#A0BE72" opacity="0.55"/><ellipse cx="1310.8" cy="50.4" rx="5" ry="2.3" fill="#8CB061" opacity="0.55"/><ellipse cx="1397.1" cy="61.7" rx="5" ry="2.3" fill="#A0BE72" opacity="0.55"/><ellipse cx="1460.8" cy="78.2" rx="5" ry="2.3" fill="#8CB061" opacity="0.55"/><ellipse cx="1513.3" cy="100.7" rx="5" ry="2.3" fill="#A0BE72" opacity="0.55"/><ellipse cx="1533.6" cy="134.4" rx="5" ry="2.3" fill="#8CB061" opacity="0.55"/><ellipse cx="1502.1" cy="177.2" rx="5" ry="2.3" fill="#A0BE72" opacity="0.55"/><ellipse cx="1449.6" cy="199.7" rx="5" ry="2.3" fill="#8CB061" opacity="0.55"/><ellipse cx="1389.6" cy="213.2" rx="5" ry="2.3" fill="#A0BE72" opacity="0.55"/><ellipse cx="1314.6" cy="218.4" rx="5" ry="2.3" fill="#8CB061" opacity="0.55"/><ellipse cx="1239.6" cy="213.9" rx="5" ry="2.3" fill="#A0BE72" opacity="0.55"/><ellipse cx="1183.3" cy="202.7" rx="5" ry="2.3" fill="#8CB061" opacity="0.55"/><ellipse cx="1119.6" cy="175.7" rx="5" ry="2.3" fill="#A0BE72" opacity="0.55"/><ellipse cx="1100.1" cy="145.7" rx="5" ry="2.3" fill="#8CB061" opacity="0.55"/><ellipse cx="1108.3" cy="108.2" rx="5" ry="2.3" fill="#A0BE72" opacity="0.55"/><ellipse cx="1130.8" cy="84.2" rx="5" ry="2.3" fill="#8CB061" opacity="0.55"/>
<ellipse cx="892.2" cy="485" rx="81" ry="8.2" fill="#CFB891"/>
<ellipse cx="893.7" cy="491" rx="46.5" ry="5.6" fill="#DCC7A0"/>
<ellipse cx="894.5" cy="495.5" rx="22.5" ry="3.4" fill="#E8D6B2"/>
<path transform="translate(550.2,167) scale(0.75) translate(0,30)" fill="#C9B08A" d="M 144,282 C 141,242 176,204 232,185 C 288,166 350,152 420,150 C 493,148 566,157 634,180 C 700,203 762,228 777,263 C 791,299 748,336 694,358 C 634,383 550,399 464,402 C 382,405 300,392 240,370 C 192,352 147,323 144,282 Z"/>
<path transform="translate(550.2,167) scale(0.75) translate(0,15)" fill="#D2BC90" d="M 144,282 C 141,242 176,204 232,185 C 288,166 350,152 420,150 C 493,148 566,157 634,180 C 700,203 762,228 777,263 C 791,299 748,336 694,358 C 634,383 550,399 464,402 C 382,405 300,392 240,370 C 192,352 147,323 144,282 Z"/>
<path transform="translate(550.2,167) scale(0.75)" fill="#ECDFBE" d="M 144,282 C 141,242 176,204 232,185 C 288,166 350,152 420,150 C 493,148 566,157 634,180 C 700,203 762,228 777,263 C 791,299 748,336 694,358 C 634,383 550,399 464,402 C 382,405 300,392 240,370 C 192,352 147,323 144,282 Z"/>
<path transform="translate(550.2,167) scale(0.75)" fill="url(#gO)" d="M 162,282 C 160,247 193,213 244,195 C 296,176 355,166 421,164 C 490,162 560,170 623,192 C 686,214 744,236 757,268 C 769,298 728,331 677,351 C 620,373 545,388 464,390 C 385,392 313,381 256,360 C 211,343 164,318 162,282 Z"/>
<ellipse cx="929" cy="394.7" rx="70" ry="19" fill="#A0D080" opacity="0.32"/>
<ellipse cx="889" cy="449.7" rx="120" ry="10" fill="#4E8746" opacity="0.12"/>
<ellipse cx="900.7" cy="427.8" rx="56" ry="18" fill="#F2C46E" opacity="0.12"/>
<rect x="806.7" y="446.7" width="4" height="10" rx="2" fill="#B9A87C" opacity="0.4"/><rect x="835.2" y="450.5" width="4" height="10" rx="2" fill="#B9A87C" opacity="0.4"/><rect x="865.2" y="453.5" width="4" height="10" rx="2" fill="#B9A87C" opacity="0.4"/><rect x="896.7" y="455" width="4" height="10" rx="2" fill="#B9A87C" opacity="0.4"/><rect x="928.2" y="454.2" width="4" height="10" rx="2" fill="#B9A87C" opacity="0.4"/><rect x="959.7" y="452" width="4" height="10" rx="2" fill="#B9A87C" opacity="0.4"/><rect x="991.2" y="447.5" width="4" height="10" rx="2" fill="#B9A87C" opacity="0.4"/><rect x="1021.2" y="441.5" width="4" height="10" rx="2" fill="#B9A87C" opacity="0.4"/><rect x="1048.2" y="433.2" width="4" height="10" rx="2" fill="#B9A87C" opacity="0.4"/><rect x="1072.2" y="422.7" width="4" height="10" rx="2" fill="#B9A87C" opacity="0.4"/><rect x="1091.7" y="410.7" width="4" height="10" rx="2" fill="#B9A87C" opacity="0.4"/><rect x="1105.2" y="396.5" width="4" height="10" rx="2" fill="#B9A87C" opacity="0.4"/>
<ellipse cx="737.7" cy="314" rx="5" ry="2.3" fill="#7CB863" opacity="0.55"/><ellipse cx="805.2" cy="296" rx="5" ry="2.3" fill="#8CC474" opacity="0.55"/><ellipse cx="891.5" cy="289.2" rx="5" ry="2.3" fill="#7CB863" opacity="0.55"/><ellipse cx="977.7" cy="300.5" rx="5" ry="2.3" fill="#8CC474" opacity="0.55"/><ellipse cx="1041.5" cy="317" rx="5" ry="2.3" fill="#7CB863" opacity="0.55"/><ellipse cx="1094" cy="339.5" rx="5" ry="2.3" fill="#8CC474" opacity="0.55"/><ellipse cx="1114.2" cy="373.2" rx="5" ry="2.3" fill="#7CB863" opacity="0.55"/><ellipse cx="1082.7" cy="416" rx="5" ry="2.3" fill="#8CC474" opacity="0.55"/><ellipse cx="1030.2" cy="438.5" rx="5" ry="2.3" fill="#7CB863" opacity="0.55"/><ellipse cx="970.2" cy="452" rx="5" ry="2.3" fill="#8CC474" opacity="0.55"/><ellipse cx="895.2" cy="457.2" rx="5" ry="2.3" fill="#7CB863" opacity="0.55"/><ellipse cx="820.2" cy="452.7" rx="5" ry="2.3" fill="#8CC474" opacity="0.55"/><ellipse cx="764" cy="441.5" rx="5" ry="2.3" fill="#7CB863" opacity="0.55"/><ellipse cx="700.2" cy="414.5" rx="5" ry="2.3" fill="#8CC474" opacity="0.55"/><ellipse cx="680.7" cy="384.5" rx="5" ry="2.3" fill="#7CB863" opacity="0.55"/><ellipse cx="689" cy="347" rx="5" ry="2.3" fill="#8CC474" opacity="0.55"/><ellipse cx="711.5" cy="323" rx="5" ry="2.3" fill="#7CB863" opacity="0.55"/>
<ellipse cx="602" cy="708" rx="81" ry="8.2" fill="#C6B58F"/>
<ellipse cx="603.5" cy="714" rx="46.5" ry="5.6" fill="#D6C7A3"/>
<ellipse cx="604.2" cy="718.5" rx="22.5" ry="3.4" fill="#E4D8B9"/>
<path transform="translate(260,390) scale(0.75) translate(0,30)" fill="#BFAE87" d="M 144,282 C 141,242 176,204 232,185 C 288,166 350,152 420,150 C 493,148 566,157 634,180 C 700,203 762,228 777,263 C 791,299 748,336 694,358 C 634,383 550,399 464,402 C 382,405 300,392 240,370 C 192,352 147,323 144,282 Z"/>
<path transform="translate(260,390) scale(0.75) translate(0,15)" fill="#CBBC97" d="M 144,282 C 141,242 176,204 232,185 C 288,166 350,152 420,150 C 493,148 566,157 634,180 C 700,203 762,228 777,263 C 791,299 748,336 694,358 C 634,383 550,399 464,402 C 382,405 300,392 240,370 C 192,352 147,323 144,282 Z"/>
<path transform="translate(260,390) scale(0.75)" fill="#EAE0C6" d="M 144,282 C 141,242 176,204 232,185 C 288,166 350,152 420,150 C 493,148 566,157 634,180 C 700,203 762,228 777,263 C 791,299 748,336 694,358 C 634,383 550,399 464,402 C 382,405 300,392 240,370 C 192,352 147,323 144,282 Z"/>
<path transform="translate(260,390) scale(0.75)" fill="url(#gV)" d="M 162,282 C 160,247 193,213 244,195 C 296,176 355,166 421,164 C 490,162 560,170 623,192 C 686,214 744,236 757,268 C 769,298 728,331 677,351 C 620,373 545,388 464,390 C 385,392 313,381 256,360 C 211,343 164,318 162,282 Z"/>
<ellipse cx="638.8" cy="617.8" rx="70" ry="19" fill="#ACDE90" opacity="0.32"/>
<ellipse cx="598.8" cy="672.8" rx="120" ry="10" fill="#4F8F49" opacity="0.12"/>
<ellipse cx="595.1" cy="559.4" rx="56" ry="18" fill="#F4CD7E" opacity="0.12"/>
<rect x="516.5" y="669.8" width="4" height="10" rx="2" fill="#B9A87C" opacity="0.4"/><rect x="545" y="673.5" width="4" height="10" rx="2" fill="#B9A87C" opacity="0.4"/><rect x="575" y="676.5" width="4" height="10" rx="2" fill="#B9A87C" opacity="0.4"/><rect x="606.5" y="678" width="4" height="10" rx="2" fill="#B9A87C" opacity="0.4"/><rect x="638" y="677.2" width="4" height="10" rx="2" fill="#B9A87C" opacity="0.4"/><rect x="669.5" y="675" width="4" height="10" rx="2" fill="#B9A87C" opacity="0.4"/><rect x="701" y="670.5" width="4" height="10" rx="2" fill="#B9A87C" opacity="0.4"/><rect x="731" y="664.5" width="4" height="10" rx="2" fill="#B9A87C" opacity="0.4"/><rect x="758" y="656.2" width="4" height="10" rx="2" fill="#B9A87C" opacity="0.4"/><rect x="782" y="645.8" width="4" height="10" rx="2" fill="#B9A87C" opacity="0.4"/><rect x="801.5" y="633.8" width="4" height="10" rx="2" fill="#B9A87C" opacity="0.4"/><rect x="815" y="619.5" width="4" height="10" rx="2" fill="#B9A87C" opacity="0.4"/>
<ellipse cx="447.5" cy="537" rx="5" ry="2.3" fill="#7CBF6B" opacity="0.55"/><ellipse cx="515" cy="519" rx="5" ry="2.3" fill="#8FCB79" opacity="0.55"/><ellipse cx="601.2" cy="512.2" rx="5" ry="2.3" fill="#7CBF6B" opacity="0.55"/><ellipse cx="687.5" cy="523.5" rx="5" ry="2.3" fill="#8FCB79" opacity="0.55"/><ellipse cx="751.2" cy="540" rx="5" ry="2.3" fill="#7CBF6B" opacity="0.55"/><ellipse cx="803.8" cy="562.5" rx="5" ry="2.3" fill="#8FCB79" opacity="0.55"/><ellipse cx="824" cy="596.2" rx="5" ry="2.3" fill="#7CBF6B" opacity="0.55"/><ellipse cx="792.5" cy="639" rx="5" ry="2.3" fill="#8FCB79" opacity="0.55"/><ellipse cx="740" cy="661.5" rx="5" ry="2.3" fill="#7CBF6B" opacity="0.55"/><ellipse cx="680" cy="675" rx="5" ry="2.3" fill="#8FCB79" opacity="0.55"/><ellipse cx="605" cy="680.2" rx="5" ry="2.3" fill="#7CBF6B" opacity="0.55"/><ellipse cx="530" cy="675.8" rx="5" ry="2.3" fill="#8FCB79" opacity="0.55"/><ellipse cx="473.8" cy="664.5" rx="5" ry="2.3" fill="#7CBF6B" opacity="0.55"/><ellipse cx="410" cy="637.5" rx="5" ry="2.3" fill="#8FCB79" opacity="0.55"/><ellipse cx="390.5" cy="607.5" rx="5" ry="2.3" fill="#7CBF6B" opacity="0.55"/><ellipse cx="398.8" cy="570" rx="5" ry="2.3" fill="#8FCB79" opacity="0.55"/><ellipse cx="421.2" cy="546" rx="5" ry="2.3" fill="#7CBF6B" opacity="0.55"/>
<path d="M 724.4,539.9 C 724.9,538.7 726,535.9 727.5,533 C 729,530.1 731.4,526 733.3,522.5 C 735.2,519 737.1,515.5 738.9,511.9 C 740.8,508.4 742.6,504.8 744.3,501.2 C 746.1,497.6 747.8,494 749.5,490.4 C 751.1,486.7 752.8,483.1 754.4,479.4 C 756,475.7 757.5,472.1 759.1,468.4 C 760.6,464.7 762.1,460.9 763.5,457.2 C 764.9,453.5 766.5,449 767.7,446 C 768.9,442.9 769.8,440.6 770.5,439 C 771.1,437.4 771.5,436.7 771.7,436.3" fill="none" stroke="#B08A60" stroke-width="25" stroke-linecap="round" transform="translate(0,8)" opacity="0.8"/><path d="M 724.4,539.9 C 724.9,538.7 726,535.9 727.5,533 C 729,530.1 731.4,526 733.3,522.5 C 735.2,519 737.1,515.5 738.9,511.9 C 740.8,508.4 742.6,504.8 744.3,501.2 C 746.1,497.6 747.8,494 749.5,490.4 C 751.1,486.7 752.8,483.1 754.4,479.4 C 756,475.7 757.5,472.1 759.1,468.4 C 760.6,464.7 762.1,460.9 763.5,457.2 C 764.9,453.5 766.5,449 767.7,446 C 768.9,442.9 769.8,440.6 770.5,439 C 771.1,437.4 771.5,436.7 771.7,436.3" fill="none" stroke="#D8C7A0" stroke-width="25" stroke-linecap="round" transform="translate(0,4)"/><path d="M 724.4,539.9 C 724.9,538.7 726,535.9 727.5,533 C 729,530.1 731.4,526 733.3,522.5 C 735.2,519 737.1,515.5 738.9,511.9 C 740.8,508.4 742.6,504.8 744.3,501.2 C 746.1,497.6 747.8,494 749.5,490.4 C 751.1,486.7 752.8,483.1 754.4,479.4 C 756,475.7 757.5,472.1 759.1,468.4 C 760.6,464.7 762.1,460.9 763.5,457.2 C 764.9,453.5 766.5,449 767.7,446 C 768.9,442.9 769.8,440.6 770.5,439 C 771.1,437.4 771.5,436.7 771.7,436.3" fill="none" stroke="#ECDFBE" stroke-width="25" stroke-linecap="round"/>
<path d="M 1010.8,315.4 C 1012.1,314.7 1015.4,312.5 1018.5,310.8 C 1021.5,309.1 1025.5,307 1029,305.1 C 1032.5,303.2 1036.1,301.3 1039.6,299.3 C 1043.1,297.4 1046.6,295.4 1050,293.5 C 1053.5,291.5 1057,289.5 1060.5,287.6 C 1063.9,285.6 1067.4,283.6 1070.9,281.6 C 1074.3,279.5 1077.8,277.5 1081.2,275.5 C 1084.7,273.4 1088.1,271.4 1091.5,269.3 C 1094.9,267.3 1098.4,265.2 1101.8,263.1 C 1105.2,261 1108.6,258.9 1112,256.8 C 1115.4,254.7 1118.8,252.6 1122.2,250.4 C 1125.5,248.3 1128.9,246.1 1132.3,244 C 1135.6,241.8 1139,239.6 1142.3,237.4 C 1145.7,235.3 1149,233.1 1152.4,230.8 C 1155.7,228.6 1159,226.4 1162.3,224.2 C 1165.7,221.9 1169,219.7 1172.3,217.4 C 1175.6,215.2 1179.3,212.6 1182.1,210.6 C 1185,208.6 1187.3,207 1189.5,205.5 C 1191.8,204 1194.8,202.1 1195.9,201.4" fill="none" stroke="#B08A60" stroke-width="25" stroke-linecap="round" transform="translate(0,8)" opacity="0.8"/><path d="M 1010.8,315.4 C 1012.1,314.7 1015.4,312.5 1018.5,310.8 C 1021.5,309.1 1025.5,307 1029,305.1 C 1032.5,303.2 1036.1,301.3 1039.6,299.3 C 1043.1,297.4 1046.6,295.4 1050,293.5 C 1053.5,291.5 1057,289.5 1060.5,287.6 C 1063.9,285.6 1067.4,283.6 1070.9,281.6 C 1074.3,279.5 1077.8,277.5 1081.2,275.5 C 1084.7,273.4 1088.1,271.4 1091.5,269.3 C 1094.9,267.3 1098.4,265.2 1101.8,263.1 C 1105.2,261 1108.6,258.9 1112,256.8 C 1115.4,254.7 1118.8,252.6 1122.2,250.4 C 1125.5,248.3 1128.9,246.1 1132.3,244 C 1135.6,241.8 1139,239.6 1142.3,237.4 C 1145.7,235.3 1149,233.1 1152.4,230.8 C 1155.7,228.6 1159,226.4 1162.3,224.2 C 1165.7,221.9 1169,219.7 1172.3,217.4 C 1175.6,215.2 1179.3,212.6 1182.1,210.6 C 1185,208.6 1187.3,207 1189.5,205.5 C 1191.8,204 1194.8,202.1 1195.9,201.4" fill="none" stroke="#D8C7A0" stroke-width="25" stroke-linecap="round" transform="translate(0,4)"/><path d="M 1010.8,315.4 C 1012.1,314.7 1015.4,312.5 1018.5,310.8 C 1021.5,309.1 1025.5,307 1029,305.1 C 1032.5,303.2 1036.1,301.3 1039.6,299.3 C 1043.1,297.4 1046.6,295.4 1050,293.5 C 1053.5,291.5 1057,289.5 1060.5,287.6 C 1063.9,285.6 1067.4,283.6 1070.9,281.6 C 1074.3,279.5 1077.8,277.5 1081.2,275.5 C 1084.7,273.4 1088.1,271.4 1091.5,269.3 C 1094.9,267.3 1098.4,265.2 1101.8,263.1 C 1105.2,261 1108.6,258.9 1112,256.8 C 1115.4,254.7 1118.8,252.6 1122.2,250.4 C 1125.5,248.3 1128.9,246.1 1132.3,244 C 1135.6,241.8 1139,239.6 1142.3,237.4 C 1145.7,235.3 1149,233.1 1152.4,230.8 C 1155.7,228.6 1159,226.4 1162.3,224.2 C 1165.7,221.9 1169,219.7 1172.3,217.4 C 1175.6,215.2 1179.3,212.6 1182.1,210.6 C 1185,208.6 1187.3,207 1189.5,205.5 C 1191.8,204 1194.8,202.1 1195.9,201.4" fill="none" stroke="#ECDFBE" stroke-width="25" stroke-linecap="round"/>
<path d="M 1434,78.1 C 1434.5,76.9 1435.5,74.1 1437.1,71.2 C 1438.6,68.4 1441.2,64.4 1443.4,61 C 1445.6,57.6 1447.8,54.3 1450.1,51 C 1452.4,47.8 1454.8,44.5 1457.2,41.4 C 1459.6,38.2 1462.1,35.1 1464.7,32 C 1467.2,28.9 1469.8,25.9 1472.5,22.9 C 1475.2,19.9 1477.9,17 1480.7,14.1 C 1483.5,11.3 1486.6,8.2 1489.2,5.7 C 1491.9,3.2 1495.4,0.1 1496.6,-1.1" fill="none" stroke="#B08A60" stroke-width="25" stroke-linecap="round" transform="translate(0,8)" opacity="0.8"/><path d="M 1434,78.1 C 1434.5,76.9 1435.5,74.1 1437.1,71.2 C 1438.6,68.4 1441.2,64.4 1443.4,61 C 1445.6,57.6 1447.8,54.3 1450.1,51 C 1452.4,47.8 1454.8,44.5 1457.2,41.4 C 1459.6,38.2 1462.1,35.1 1464.7,32 C 1467.2,28.9 1469.8,25.9 1472.5,22.9 C 1475.2,19.9 1477.9,17 1480.7,14.1 C 1483.5,11.3 1486.6,8.2 1489.2,5.7 C 1491.9,3.2 1495.4,0.1 1496.6,-1.1" fill="none" stroke="#D8C7A0" stroke-width="25" stroke-linecap="round" transform="translate(0,4)"/><path d="M 1434,78.1 C 1434.5,76.9 1435.5,74.1 1437.1,71.2 C 1438.6,68.4 1441.2,64.4 1443.4,61 C 1445.6,57.6 1447.8,54.3 1450.1,51 C 1452.4,47.8 1454.8,44.5 1457.2,41.4 C 1459.6,38.2 1462.1,35.1 1464.7,32 C 1467.2,28.9 1469.8,25.9 1472.5,22.9 C 1475.2,19.9 1477.9,17 1480.7,14.1 C 1483.5,11.3 1486.6,8.2 1489.2,5.7 C 1491.9,3.2 1495.4,0.1 1496.6,-1.1" fill="none" stroke="#ECDFBE" stroke-width="25" stroke-linecap="round"/>
<g><ellipse cx="496.7" cy="661.6" rx="18" ry="9" fill="#C9B389"/><ellipse cx="496.7" cy="657.3" rx="18" ry="9" fill="#E7DDC0"/><ellipse cx="496.7" cy="655.8" rx="13.5" ry="6.6" fill="#EAE0C6"/></g>
<path d="M 496.7,657.3 C 502,654.5 507.5,652 513,649.7 C 518.6,647.5 524.3,645.5 530,643.8 C 535.8,642.1 541.6,640.7 547.5,639.5 C 553.4,638.4 559.4,637.8 565.3,637 C 571.3,636.2 577.3,635.8 583.2,634.9 C 589.1,633.9 595,632.6 600.8,631.1 C 606.6,629.6 612.3,627.9 618,625.9 C 623.6,623.9 629.2,621.6 634.7,619.2 C 640.1,616.7 645.5,613.9 650.7,611 C 655.9,608 661,604.8 666,601.4 C 670.9,598.1 675.7,594.4 680.3,590.6 C 685,586.8 689.4,582.8 693.7,578.5 C 698,574.3 702.1,569.9 705.9,565.4 C 709.8,560.8 713.5,556 717,551.1 C 720.4,546.3 723.5,541.7 726.7,536 C 729.9,530.4 732.8,523.9 736.2,517.2 C 739.5,510.5 743.5,503 746.9,495.8 C 750.3,488.6 753.6,481.3 756.7,473.9 C 759.9,466.5 763,458.1 765.6,451.6 C 768.2,445.1 769.8,440.3 772.3,434.9 C 774.8,429.5 777.6,424.1 780.8,419 C 783.9,413.9 787.3,408.9 791,404.2 C 794.7,399.5 798.7,395 802.9,390.7 C 807.1,386.5 811.6,382.4 816.3,378.7 C 820.9,375 825.9,371.5 831,368.3 C 836,365.1 841.3,362.2 846.7,359.7 C 852.2,357.1 857.8,354.9 863.4,353 C 869.1,351 874.9,349.4 880.8,348.2 C 886.6,347 892.6,346.2 898.6,345.5 C 904.5,344.8 910.5,344.6 916.5,343.9 C 922.4,343.1 928.4,342.2 934.3,341.1 C 940.2,340.1 946.1,338.8 951.9,337.3 C 957.7,335.9 963.5,334.2 969.2,332.4 C 974.9,330.6 980.6,328.6 986.1,326.4 C 991.7,324.2 997.3,322 1002.7,319.4 C 1008.1,316.8 1012.3,314.1 1018.5,310.8 C 1024.6,307.4 1032.6,303.2 1039.6,299.3 C 1046.6,295.4 1053.5,291.5 1060.5,287.6 C 1067.4,283.6 1074.3,279.6 1081.2,275.5 C 1088.1,271.4 1095,267.3 1101.8,263.1 C 1108.6,258.9 1115.4,254.7 1122.2,250.4 C 1128.9,246.1 1135.6,241.8 1142.3,237.4 C 1149,233.1 1155.7,228.7 1162.3,224.2 C 1169,219.7 1176.3,214.5 1182.1,210.6 C 1187.9,206.7 1192,203.7 1197.1,200.7 C 1202.3,197.6 1207.6,194.7 1213,192.2 C 1218.4,189.6 1224,187.3 1229.6,185.2 C 1235.2,183.2 1241,181.5 1246.8,180 C 1252.6,178.5 1258.5,177.4 1264.5,176.5 C 1270.4,175.5 1276.4,175.3 1282.3,174.5 C 1288.3,173.7 1294.2,172.9 1300.1,171.7 C 1306,170.5 1311.8,169 1317.6,167.3 C 1323.3,165.6 1329,163.7 1334.6,161.4 C 1340.2,159.2 1345.7,156.8 1351,154.1 C 1356.4,151.4 1361.6,148.5 1366.7,145.4 C 1371.8,142.2 1376.8,138.8 1381.6,135.3 C 1386.4,131.7 1391.1,127.9 1395.6,123.9 C 1400.1,119.9 1404.4,115.7 1408.5,111.4 C 1412.6,107 1416.5,102.4 1420.2,97.7 C 1424,93 1427.6,88.1 1430.8,83.1 C 1433.9,78.1 1435.5,73.7 1439.1,67.8 C 1442.7,61.9 1447.7,54.3 1452.4,47.8 C 1457.1,41.3 1462,35 1467.2,28.9 C 1472.4,22.8 1478.6,16.3 1483.5,11.3 C 1488.4,6.3 1494.4,1 1496.6,-1.1" fill="none" stroke="#B4A47C" stroke-width="18" stroke-linecap="round" transform="translate(0,4.5)"/>
<path id="walk" d="M 496.7,657.3 C 502,654.5 507.5,652 513,649.7 C 518.6,647.5 524.3,645.5 530,643.8 C 535.8,642.1 541.6,640.7 547.5,639.5 C 553.4,638.4 559.4,637.8 565.3,637 C 571.3,636.2 577.3,635.8 583.2,634.9 C 589.1,633.9 595,632.6 600.8,631.1 C 606.6,629.6 612.3,627.9 618,625.9 C 623.6,623.9 629.2,621.6 634.7,619.2 C 640.1,616.7 645.5,613.9 650.7,611 C 655.9,608 661,604.8 666,601.4 C 670.9,598.1 675.7,594.4 680.3,590.6 C 685,586.8 689.4,582.8 693.7,578.5 C 698,574.3 702.1,569.9 705.9,565.4 C 709.8,560.8 713.5,556 717,551.1 C 720.4,546.3 723.5,541.7 726.7,536 C 729.9,530.4 732.8,523.9 736.2,517.2 C 739.5,510.5 743.5,503 746.9,495.8 C 750.3,488.6 753.6,481.3 756.7,473.9 C 759.9,466.5 763,458.1 765.6,451.6 C 768.2,445.1 769.8,440.3 772.3,434.9 C 774.8,429.5 777.6,424.1 780.8,419 C 783.9,413.9 787.3,408.9 791,404.2 C 794.7,399.5 798.7,395 802.9,390.7 C 807.1,386.5 811.6,382.4 816.3,378.7 C 820.9,375 825.9,371.5 831,368.3 C 836,365.1 841.3,362.2 846.7,359.7 C 852.2,357.1 857.8,354.9 863.4,353 C 869.1,351 874.9,349.4 880.8,348.2 C 886.6,347 892.6,346.2 898.6,345.5 C 904.5,344.8 910.5,344.6 916.5,343.9 C 922.4,343.1 928.4,342.2 934.3,341.1 C 940.2,340.1 946.1,338.8 951.9,337.3 C 957.7,335.9 963.5,334.2 969.2,332.4 C 974.9,330.6 980.6,328.6 986.1,326.4 C 991.7,324.2 997.3,322 1002.7,319.4 C 1008.1,316.8 1012.3,314.1 1018.5,310.8 C 1024.6,307.4 1032.6,303.2 1039.6,299.3 C 1046.6,295.4 1053.5,291.5 1060.5,287.6 C 1067.4,283.6 1074.3,279.6 1081.2,275.5 C 1088.1,271.4 1095,267.3 1101.8,263.1 C 1108.6,258.9 1115.4,254.7 1122.2,250.4 C 1128.9,246.1 1135.6,241.8 1142.3,237.4 C 1149,233.1 1155.7,228.7 1162.3,224.2 C 1169,219.7 1176.3,214.5 1182.1,210.6 C 1187.9,206.7 1192,203.7 1197.1,200.7 C 1202.3,197.6 1207.6,194.7 1213,192.2 C 1218.4,189.6 1224,187.3 1229.6,185.2 C 1235.2,183.2 1241,181.5 1246.8,180 C 1252.6,178.5 1258.5,177.4 1264.5,176.5 C 1270.4,175.5 1276.4,175.3 1282.3,174.5 C 1288.3,173.7 1294.2,172.9 1300.1,171.7 C 1306,170.5 1311.8,169 1317.6,167.3 C 1323.3,165.6 1329,163.7 1334.6,161.4 C 1340.2,159.2 1345.7,156.8 1351,154.1 C 1356.4,151.4 1361.6,148.5 1366.7,145.4 C 1371.8,142.2 1376.8,138.8 1381.6,135.3 C 1386.4,131.7 1391.1,127.9 1395.6,123.9 C 1400.1,119.9 1404.4,115.7 1408.5,111.4 C 1412.6,107 1416.5,102.4 1420.2,97.7 C 1424,93 1427.6,88.1 1430.8,83.1 C 1433.9,78.1 1435.5,73.7 1439.1,67.8 C 1442.7,61.9 1447.7,54.3 1452.4,47.8 C 1457.1,41.3 1462,35 1467.2,28.9 C 1472.4,22.8 1478.6,16.3 1483.5,11.3 C 1488.4,6.3 1494.4,1 1496.6,-1.1" fill="none" stroke="#EAE0C6" stroke-width="18" stroke-linecap="round"/>
<path d="M 496.7,657.3 C 502,654.5 507.5,652 513,649.7 C 518.6,647.5 524.3,645.5 530,643.8 C 535.8,642.1 541.6,640.7 547.5,639.5 C 553.4,638.4 559.4,637.8 565.3,637 C 571.3,636.2 577.3,635.8 583.2,634.9 C 589.1,633.9 595,632.6 600.8,631.1 C 606.6,629.6 612.3,627.9 618,625.9 C 623.6,623.9 629.2,621.6 634.7,619.2 C 640.1,616.7 645.5,613.9 650.7,611 C 655.9,608 661,604.8 666,601.4 C 670.9,598.1 675.7,594.4 680.3,590.6 C 685,586.8 689.4,582.8 693.7,578.5 C 698,574.3 702.1,569.9 705.9,565.4 C 709.8,560.8 713.5,556 717,551.1 C 720.4,546.3 723.5,541.7 726.7,536 C 729.9,530.4 732.8,523.9 736.2,517.2 C 739.5,510.5 743.5,503 746.9,495.8 C 750.3,488.6 753.6,481.3 756.7,473.9 C 759.9,466.5 763,458.1 765.6,451.6 C 768.2,445.1 769.8,440.3 772.3,434.9 C 774.8,429.5 777.6,424.1 780.8,419 C 783.9,413.9 787.3,408.9 791,404.2 C 794.7,399.5 798.7,395 802.9,390.7 C 807.1,386.5 811.6,382.4 816.3,378.7 C 820.9,375 825.9,371.5 831,368.3 C 836,365.1 841.3,362.2 846.7,359.7 C 852.2,357.1 857.8,354.9 863.4,353 C 869.1,351 874.9,349.4 880.8,348.2 C 886.6,347 892.6,346.2 898.6,345.5 C 904.5,344.8 910.5,344.6 916.5,343.9 C 922.4,343.1 928.4,342.2 934.3,341.1 C 940.2,340.1 946.1,338.8 951.9,337.3 C 957.7,335.9 963.5,334.2 969.2,332.4 C 974.9,330.6 980.6,328.6 986.1,326.4 C 991.7,324.2 997.3,322 1002.7,319.4 C 1008.1,316.8 1012.3,314.1 1018.5,310.8 C 1024.6,307.4 1032.6,303.2 1039.6,299.3 C 1046.6,295.4 1053.5,291.5 1060.5,287.6 C 1067.4,283.6 1074.3,279.6 1081.2,275.5 C 1088.1,271.4 1095,267.3 1101.8,263.1 C 1108.6,258.9 1115.4,254.7 1122.2,250.4 C 1128.9,246.1 1135.6,241.8 1142.3,237.4 C 1149,233.1 1155.7,228.7 1162.3,224.2 C 1169,219.7 1176.3,214.5 1182.1,210.6 C 1187.9,206.7 1192,203.7 1197.1,200.7 C 1202.3,197.6 1207.6,194.7 1213,192.2 C 1218.4,189.6 1224,187.3 1229.6,185.2 C 1235.2,183.2 1241,181.5 1246.8,180 C 1252.6,178.5 1258.5,177.4 1264.5,176.5 C 1270.4,175.5 1276.4,175.3 1282.3,174.5 C 1288.3,173.7 1294.2,172.9 1300.1,171.7 C 1306,170.5 1311.8,169 1317.6,167.3 C 1323.3,165.6 1329,163.7 1334.6,161.4 C 1340.2,159.2 1345.7,156.8 1351,154.1 C 1356.4,151.4 1361.6,148.5 1366.7,145.4 C 1371.8,142.2 1376.8,138.8 1381.6,135.3 C 1386.4,131.7 1391.1,127.9 1395.6,123.9 C 1400.1,119.9 1404.4,115.7 1408.5,111.4 C 1412.6,107 1416.5,102.4 1420.2,97.7 C 1424,93 1427.6,88.1 1430.8,83.1 C 1433.9,78.1 1435.5,73.7 1439.1,67.8 C 1442.7,61.9 1447.7,54.3 1452.4,47.8 C 1457.1,41.3 1462,35 1467.2,28.9 C 1472.4,22.8 1478.6,16.3 1483.5,11.3 C 1488.4,6.3 1494.4,1 1496.6,-1.1" fill="none" stroke="#EAE0C6" stroke-width="20.5" stroke-linecap="round" opacity="0.35" transform="translate(1.2,1.6)"/>
<path d="M 496.7,657.3 C 502,654.5 507.5,652 513,649.7 C 518.6,647.5 524.3,645.5 530,643.8 C 535.8,642.1 541.6,640.7 547.5,639.5 C 553.4,638.4 559.4,637.8 565.3,637 C 571.3,636.2 577.3,635.8 583.2,634.9 C 589.1,633.9 595,632.6 600.8,631.1 C 606.6,629.6 612.3,627.9 618,625.9 C 623.6,623.9 629.2,621.6 634.7,619.2 C 640.1,616.7 645.5,613.9 650.7,611 C 655.9,608 661,604.8 666,601.4 C 670.9,598.1 675.7,594.4 680.3,590.6 C 685,586.8 689.4,582.8 693.7,578.5 C 698,574.3 702.1,569.9 705.9,565.4 C 709.8,560.8 713.5,556 717,551.1 C 720.4,546.3 723.5,541.7 726.7,536 C 729.9,530.4 732.8,523.9 736.2,517.2 C 739.5,510.5 743.5,503 746.9,495.8 C 750.3,488.6 753.6,481.3 756.7,473.9 C 759.9,466.5 763,458.1 765.6,451.6 C 768.2,445.1 769.8,440.3 772.3,434.9 C 774.8,429.5 777.6,424.1 780.8,419 C 783.9,413.9 787.3,408.9 791,404.2 C 794.7,399.5 798.7,395 802.9,390.7 C 807.1,386.5 811.6,382.4 816.3,378.7 C 820.9,375 825.9,371.5 831,368.3 C 836,365.1 841.3,362.2 846.7,359.7 C 852.2,357.1 857.8,354.9 863.4,353 C 869.1,351 874.9,349.4 880.8,348.2 C 886.6,347 892.6,346.2 898.6,345.5 C 904.5,344.8 910.5,344.6 916.5,343.9 C 922.4,343.1 928.4,342.2 934.3,341.1 C 940.2,340.1 946.1,338.8 951.9,337.3 C 957.7,335.9 963.5,334.2 969.2,332.4 C 974.9,330.6 980.6,328.6 986.1,326.4 C 991.7,324.2 997.3,322 1002.7,319.4 C 1008.1,316.8 1012.3,314.1 1018.5,310.8 C 1024.6,307.4 1032.6,303.2 1039.6,299.3 C 1046.6,295.4 1053.5,291.5 1060.5,287.6 C 1067.4,283.6 1074.3,279.6 1081.2,275.5 C 1088.1,271.4 1095,267.3 1101.8,263.1 C 1108.6,258.9 1115.4,254.7 1122.2,250.4 C 1128.9,246.1 1135.6,241.8 1142.3,237.4 C 1149,233.1 1155.7,228.7 1162.3,224.2 C 1169,219.7 1176.3,214.5 1182.1,210.6 C 1187.9,206.7 1192,203.7 1197.1,200.7 C 1202.3,197.6 1207.6,194.7 1213,192.2 C 1218.4,189.6 1224,187.3 1229.6,185.2 C 1235.2,183.2 1241,181.5 1246.8,180 C 1252.6,178.5 1258.5,177.4 1264.5,176.5 C 1270.4,175.5 1276.4,175.3 1282.3,174.5 C 1288.3,173.7 1294.2,172.9 1300.1,171.7 C 1306,170.5 1311.8,169 1317.6,167.3 C 1323.3,165.6 1329,163.7 1334.6,161.4 C 1340.2,159.2 1345.7,156.8 1351,154.1 C 1356.4,151.4 1361.6,148.5 1366.7,145.4 C 1371.8,142.2 1376.8,138.8 1381.6,135.3 C 1386.4,131.7 1391.1,127.9 1395.6,123.9 C 1400.1,119.9 1404.4,115.7 1408.5,111.4 C 1412.6,107 1416.5,102.4 1420.2,97.7 C 1424,93 1427.6,88.1 1430.8,83.1 C 1433.9,78.1 1435.5,73.7 1439.1,67.8 C 1442.7,61.9 1447.7,54.3 1452.4,47.8 C 1457.1,41.3 1462,35 1467.2,28.9 C 1472.4,22.8 1478.6,16.3 1483.5,11.3 C 1488.4,6.3 1494.4,1 1496.6,-1.1" fill="none" stroke="#E7DDC0" stroke-width="9" stroke-linecap="round" transform="translate(-0.4,-0.8)"/>
<ellipse cx="506.2" cy="652.7" rx="4.9" ry="2.5" fill="#D6C9A2"/><ellipse cx="528.6" cy="644.2" rx="4.9" ry="2.5" fill="#D6C9A2"/><ellipse cx="553.4" cy="638.5" rx="4.9" ry="2.5" fill="#D6C9A2"/><ellipse cx="578.7" cy="635.5" rx="4.9" ry="2.5" fill="#D6C9A2"/><ellipse cx="603.7" cy="630.4" rx="4.9" ry="2.5" fill="#D6C9A2"/><ellipse cx="626.4" cy="622.7" rx="4.9" ry="2.5" fill="#D6C9A2"/><ellipse cx="648.1" cy="612.5" rx="4.9" ry="2.5" fill="#D6C9A2"/><ellipse cx="669.7" cy="598.9" rx="4.9" ry="2.5" fill="#D6C9A2"/><ellipse cx="689.4" cy="582.7" rx="4.9" ry="2.5" fill="#D6C9A2"/><ellipse cx="706.9" cy="564.2" rx="4.9" ry="2.5" fill="#D6C9A2"/><ellipse cx="721.2" cy="545" rx="4.9" ry="2.5" fill="#D6C9A2"/><ellipse cx="732.4" cy="524.3" rx="4.9" ry="2.5" fill="#D6C9A2"/><ellipse cx="743.4" cy="503" rx="4.9" ry="2.5" fill="#D6C9A2"/><ellipse cx="754.4" cy="479.4" rx="4.9" ry="2.5" fill="#D6C9A2"/><ellipse cx="763.5" cy="457.2" rx="4.9" ry="2.5" fill="#D6C9A2"/><ellipse cx="772.9" cy="433.5" rx="4.9" ry="2.5" fill="#D6C9A2"/><ellipse cx="785.7" cy="411.5" rx="4.9" ry="2.5" fill="#D6C9A2"/><ellipse cx="801.8" cy="391.8" rx="4.9" ry="2.5" fill="#D6C9A2"/><ellipse cx="821" cy="375" rx="4.9" ry="2.5" fill="#D6C9A2"/><ellipse cx="842.7" cy="361.7" rx="4.9" ry="2.5" fill="#D6C9A2"/><ellipse cx="866.3" cy="352" rx="4.9" ry="2.5" fill="#D6C9A2"/><ellipse cx="889.6" cy="346.6" rx="4.9" ry="2.5" fill="#D6C9A2"/><ellipse cx="915" cy="344" rx="4.9" ry="2.5" fill="#D6C9A2"/><ellipse cx="940.2" cy="340" rx="4.9" ry="2.5" fill="#D6C9A2"/><ellipse cx="964.9" cy="333.7" rx="4.9" ry="2.5" fill="#D6C9A2"/><ellipse cx="988.9" cy="325.3" rx="4.9" ry="2.5" fill="#D6C9A2"/><ellipse cx="1012.1" cy="314.8" rx="4.9" ry="2.5" fill="#D6C9A2"/><ellipse cx="1034.3" cy="302.2" rx="4.9" ry="2.5" fill="#D6C9A2"/><ellipse cx="1055.3" cy="290.5" rx="4.9" ry="2.5" fill="#D6C9A2"/><ellipse cx="1076" cy="278.5" rx="4.9" ry="2.5" fill="#D6C9A2"/><ellipse cx="1098.4" cy="265.2" rx="4.9" ry="2.5" fill="#D6C9A2"/><ellipse cx="1118.8" cy="252.6" rx="4.9" ry="2.5" fill="#D6C9A2"/><ellipse cx="1140.7" cy="238.5" rx="4.9" ry="2.5" fill="#D6C9A2"/><ellipse cx="1160.7" cy="225.3" rx="4.9" ry="2.5" fill="#D6C9A2"/><ellipse cx="1180.5" cy="211.8" rx="4.9" ry="2.5" fill="#D6C9A2"/><ellipse cx="1201" cy="198.4" rx="4.9" ry="2.5" fill="#D6C9A2"/><ellipse cx="1224" cy="187.4" rx="4.9" ry="2.5" fill="#D6C9A2"/><ellipse cx="1248.3" cy="179.6" rx="4.9" ry="2.5" fill="#D6C9A2"/><ellipse cx="1273.4" cy="175.3" rx="4.9" ry="2.5" fill="#D6C9A2"/><ellipse cx="1297.2" cy="172.3" rx="4.9" ry="2.5" fill="#D6C9A2"/><ellipse cx="1320.4" cy="166.4" rx="4.9" ry="2.5" fill="#D6C9A2"/><ellipse cx="1344.3" cy="157.3" rx="4.9" ry="2.5" fill="#D6C9A2"/><ellipse cx="1365.5" cy="146.1" rx="4.9" ry="2.5" fill="#D6C9A2"/><ellipse cx="1386.4" cy="131.6" rx="4.9" ry="2.5" fill="#D6C9A2"/><ellipse cx="1404.3" cy="115.7" rx="4.9" ry="2.5" fill="#D6C9A2"/><ellipse cx="1421.2" cy="96.6" rx="4.9" ry="2.5" fill="#D6C9A2"/><ellipse cx="1435.5" cy="75.5" rx="4.9" ry="2.5" fill="#D6C9A2"/><ellipse cx="1447.8" cy="54.3" rx="4.9" ry="2.5" fill="#D6C9A2"/><ellipse cx="1462.1" cy="35.1" rx="4.9" ry="2.5" fill="#D6C9A2"/><ellipse cx="1477.9" cy="17" rx="4.9" ry="2.5" fill="#D6C9A2"/><ellipse cx="1496.6" cy="-1.1" rx="4.9" ry="2.5" fill="#D6C9A2"/>
<g transform="translate(595.1,553.4)"><g transform="translate(0,4) scale(1,0.52)"><rect x="-23.4" y="-23.4" width="46.8" height="46.8" rx="4.2" fill="#C9B389"/><rect x="-23.4" y="-23.4" width="46.8" height="46.8" rx="4.2" transform="rotate(45 0 0)" fill="#C9B389"/></g><g transform="scale(1,0.52)"><rect x="-23.4" y="-23.4" width="46.8" height="46.8" rx="4.2" fill="#EAE0C6"/><rect x="-23.4" y="-23.4" width="46.8" height="46.8" rx="4.2" transform="rotate(45 0 0)" fill="#EAE0C6"/><rect x="-19.5" y="-17.5" width="39" height="39" rx="3.5" fill="#B7A177"/><rect x="-19.5" y="-17.5" width="39" height="39" rx="3.5" transform="rotate(45 0 2)" fill="#B7A177"/><rect x="-19.5" y="-19.5" width="39" height="39" rx="3.5" fill="#EAE0C6"/><rect x="-19.5" y="-19.5" width="39" height="39" rx="3.5" transform="rotate(45 0 0)" fill="#EAE0C6"/><rect x="-16" y="-16" width="32" height="32" rx="2.9" fill="#CBBC97"/><rect x="-16" y="-16" width="32" height="32" rx="2.9" transform="rotate(45 0 0)" fill="#CBBC97"/><ellipse cx="28.8" cy="11.9" rx="3.3" ry="2.2" fill="#D6C9A2" opacity="0.8"/><ellipse cx="11.9" cy="28.8" rx="3.3" ry="2.2" fill="#D6C9A2" opacity="0.8"/><ellipse cx="-11.9" cy="28.8" rx="3.3" ry="2.2" fill="#D6C9A2" opacity="0.8"/><ellipse cx="-28.8" cy="11.9" rx="3.3" ry="2.2" fill="#D6C9A2" opacity="0.8"/><ellipse cx="-28.8" cy="-11.9" rx="3.3" ry="2.2" fill="#D6C9A2" opacity="0.8"/><ellipse cx="-11.9" cy="-28.8" rx="3.3" ry="2.2" fill="#D6C9A2" opacity="0.8"/><ellipse cx="11.9" cy="-28.8" rx="3.3" ry="2.2" fill="#D6C9A2" opacity="0.8"/><ellipse cx="28.8" cy="-11.9" rx="3.3" ry="2.2" fill="#D6C9A2" opacity="0.8"/><g id="water-1"><rect x="-15.2" y="-15.2" width="30.4" height="30.4" rx="2.6" fill="#6FB6A4"/><rect x="-15.2" y="-15.2" width="30.4" height="30.4" rx="2.6" transform="rotate(45 0 0)" fill="#6FB6A4"/><rect x="-12.4" y="-10.8" width="24.8" height="24.8" rx="2.2" fill="#8ECFBE"/><rect x="-12.4" y="-10.8" width="24.8" height="24.8" rx="2.2" transform="rotate(45 0 1.7)" fill="#8ECFBE"/><ellipse cx="-3.6" cy="-2.2" rx="9.6" ry="5.2" fill="#C8ECDB" opacity="0.6"/></g></g></g>
<g transform="translate(900.7,421.8)"><g transform="translate(0,4) scale(1,0.52)"><circle cx="0" cy="-15" r="21.5" fill="#C9B389"/><circle cx="18.7" cy="0" r="21.5" fill="#C9B389"/><circle cx="0" cy="15" r="21.5" fill="#C9B389"/><circle cx="-18.7" cy="0" r="21.5" fill="#C9B389"/><rect x="-18.7" y="-15" width="37.4" height="30" rx="7.5" fill="#C9B389"/></g><g transform="scale(1,0.52)"><circle cx="0" cy="-15" r="21.5" fill="#ECDFBE"/><circle cx="18.7" cy="0" r="21.5" fill="#ECDFBE"/><circle cx="0" cy="15" r="21.5" fill="#ECDFBE"/><circle cx="-18.7" cy="0" r="21.5" fill="#ECDFBE"/><rect x="-18.7" y="-15" width="37.4" height="30" rx="7.5" fill="#ECDFBE"/><ellipse cx="26.7" cy="8.7" rx="3.4" ry="2.3" fill="#D6C9A2" opacity="0.8"/><ellipse cx="16.5" cy="22.7" rx="3.4" ry="2.3" fill="#D6C9A2" opacity="0.8"/><ellipse cx="0" cy="28.1" rx="3.4" ry="2.3" fill="#D6C9A2" opacity="0.8"/><ellipse cx="-16.5" cy="22.7" rx="3.4" ry="2.3" fill="#D6C9A2" opacity="0.8"/><ellipse cx="-26.7" cy="8.7" rx="3.4" ry="2.3" fill="#D6C9A2" opacity="0.8"/><ellipse cx="-26.7" cy="-8.7" rx="3.4" ry="2.3" fill="#D6C9A2" opacity="0.8"/><ellipse cx="-16.5" cy="-22.7" rx="3.4" ry="2.3" fill="#D6C9A2" opacity="0.8"/><ellipse cx="-0" cy="-28.1" rx="3.4" ry="2.3" fill="#D6C9A2" opacity="0.8"/><ellipse cx="16.5" cy="-22.7" rx="3.4" ry="2.3" fill="#D6C9A2" opacity="0.8"/><ellipse cx="26.7" cy="-8.7" rx="3.4" ry="2.3" fill="#D6C9A2" opacity="0.8"/><circle cx="0" cy="-13.1" r="17.9" fill="#B7A177"/><circle cx="18.7" cy="1.9" r="17.9" fill="#B7A177"/><circle cx="0" cy="16.8" r="17.9" fill="#B7A177"/><circle cx="-18.7" cy="1.9" r="17.9" fill="#B7A177"/><rect x="-18.7" y="-13.1" width="37.4" height="30" rx="7.5" fill="#B7A177"/><circle cx="0" cy="-15" r="17.9" fill="#ECDFBE"/><circle cx="18.7" cy="0" r="17.9" fill="#ECDFBE"/><circle cx="0" cy="15" r="17.9" fill="#ECDFBE"/><circle cx="-18.7" cy="0" r="17.9" fill="#ECDFBE"/><rect x="-18.7" y="-15" width="37.4" height="30" rx="7.5" fill="#ECDFBE"/><circle cx="0" cy="-15" r="14.4" fill="#D2BC90"/><circle cx="18.7" cy="0" r="14.4" fill="#D2BC90"/><circle cx="0" cy="15" r="14.4" fill="#D2BC90"/><circle cx="-18.7" cy="0" r="14.4" fill="#D2BC90"/><rect x="-18.7" y="-15" width="37.4" height="30" rx="7.5" fill="#D2BC90"/><g id="water-2"><circle cx="0" cy="-15" r="13.8" fill="#6FB8AC"/><circle cx="18.7" cy="0" r="13.8" fill="#6FB8AC"/><circle cx="0" cy="15" r="13.8" fill="#6FB8AC"/><circle cx="-18.7" cy="0" r="13.8" fill="#6FB8AC"/><rect x="-18" y="-14.4" width="36" height="28.8" rx="7.2" fill="#6FB8AC"/><circle cx="0" cy="-13.3" r="11.6" fill="#8ECFC1"/><circle cx="18.7" cy="1.7" r="11.6" fill="#8ECFC1"/><circle cx="0" cy="16.7" r="11.6" fill="#8ECFC1"/><circle cx="-18.7" cy="1.7" r="11.6" fill="#8ECFC1"/><rect x="-18" y="-12.7" width="36" height="28.8" rx="7.2" fill="#8ECFC1"/><ellipse cx="-3.6" cy="2.6" rx="10.6" ry="5.5" fill="#C6EBDC" opacity="0.6"/></g></g></g>
<g transform="translate(1304.6,91.5)"><g transform="translate(0,4) scale(1,0.52)"><polygon points="30.3,12.5 12.5,30.3 -12.5,30.3 -30.3,12.5 -30.3,-12.5 -12.5,-30.3 12.5,-30.3 30.3,-12.5" fill="#C9B389"/></g><g transform="scale(1,0.52)"><polygon points="30.3,12.5 12.5,30.3 -12.5,30.3 -30.3,12.5 -30.3,-12.5 -12.5,-30.3 12.5,-30.3 30.3,-12.5" fill="#F0E0BE"/><polygon points="25.9,12.7 10.7,27.9 -10.7,27.9 -25.9,12.7 -25.9,-8.7 -10.7,-23.9 10.7,-23.9 25.9,-8.7" fill="#B7A177"/><polygon points="25.9,10.7 10.7,25.9 -10.7,25.9 -25.9,10.7 -25.9,-10.7 -10.7,-25.9 10.7,-25.9 25.9,-10.7" fill="#F0E0BE"/><polygon points="22.3,9.3 9.3,22.3 -9.3,22.3 -22.3,9.3 -22.3,-9.3 -9.3,-22.3 9.3,-22.3 22.3,-9.3" fill="#D2BC90"/><ellipse cx="37.4" cy="0" rx="3.4" ry="2.3" fill="#D6C9A2" opacity="0.8"/><ellipse cx="26.5" cy="26.5" rx="3.4" ry="2.3" fill="#D6C9A2" opacity="0.8"/><ellipse cx="0" cy="37.4" rx="3.4" ry="2.3" fill="#D6C9A2" opacity="0.8"/><ellipse cx="-26.5" cy="26.5" rx="3.4" ry="2.3" fill="#D6C9A2" opacity="0.8"/><ellipse cx="-37.4" cy="0" rx="3.4" ry="2.3" fill="#D6C9A2" opacity="0.8"/><ellipse cx="-26.5" cy="-26.5" rx="3.4" ry="2.3" fill="#D6C9A2" opacity="0.8"/><ellipse cx="-0" cy="-37.4" rx="3.4" ry="2.3" fill="#D6C9A2" opacity="0.8"/><ellipse cx="26.5" cy="-26.5" rx="3.4" ry="2.3" fill="#D6C9A2" opacity="0.8"/><g id="water-3"><polygon points="19.5,8.1 8.1,19.5 -8.1,19.5 -19.5,8.1 -19.5,-8.1 -8.1,-19.5 8.1,-19.5 19.5,-8.1" fill="#7FB9A8"/><polygon points="16.6,8.5 6.9,18.2 -6.9,18.2 -16.6,8.5 -16.6,-5.3 -6.9,-15 6.9,-15 16.6,-5.3" fill="#8FC9B8"/><ellipse cx="-3.9" cy="2.3" rx="10.1" ry="5.5" fill="#C4E4D2" opacity="0.55"/></g></g></g>
<g><ellipse cx="515" cy="558.8" rx="17.2" ry="7.2" fill="#CBBC97"/><ellipse cx="515" cy="557.8" rx="13" ry="5.2" fill="#C4A981"/><ellipse cx="520.5" cy="560.8" rx="14" ry="5.2" fill="#4F8F49" opacity="0.22"/><rect x="511.9" y="540" width="6.2" height="20.3" rx="3.1" fill="#8A6B4F"/><circle cx="517.3" cy="532.3" r="14" fill="#4F8F49"/><circle cx="513.4" cy="529.2" r="12.3" fill="#7CBF6B"/><ellipse cx="509.7" cy="527.2" rx="6.2" ry="4.8" fill="#ACDE90"/><circle cx="508.6" cy="530.6" r="2.7" fill="#F4CD7E"/><circle cx="519.1" cy="523" r="2.7" fill="#F4CD7E"/><circle cx="525.5" cy="533.7" r="2.7" fill="#F4CD7E"/></g>
<g><ellipse cx="447.5" cy="603.8" rx="14.5" ry="6.1" fill="#CBBC97"/><ellipse cx="447.5" cy="602.8" rx="11" ry="4.4" fill="#C4A981"/><ellipse cx="452.1" cy="605.8" rx="11.9" ry="4.4" fill="#4F8F49" opacity="0.22"/><rect x="444.9" y="587.9" width="5.3" height="17.2" rx="2.6" fill="#8A6B4F"/><circle cx="449.5" cy="581.4" r="11.9" fill="#4F8F49"/><circle cx="446.2" cy="578.7" r="10.4" fill="#7CBF6B"/><ellipse cx="443" cy="577.1" rx="5.2" ry="4" fill="#ACDE90"/><circle cx="442.1" cy="579.9" r="2.2" fill="#F4CD7E"/><circle cx="450.9" cy="573.5" r="2.2" fill="#F4CD7E"/><circle cx="456.3" cy="582.6" r="2.2" fill="#F4CD7E"/></g>
<g><ellipse cx="537.5" cy="517.5" rx="15.8" ry="6.6" fill="#CBBC97"/><ellipse cx="537.5" cy="516.5" rx="12" ry="4.8" fill="#C4A981"/><ellipse cx="542.5" cy="519.5" rx="13" ry="4.8" fill="#4F8F49" opacity="0.22"/><rect x="534.6" y="500.2" width="5.8" height="18.7" rx="2.9" fill="#8A6B4F"/><circle cx="539.7" cy="493.1" r="13" fill="#4F8F49"/><circle cx="536.1" cy="490.2" r="11.4" fill="#7CBF6B"/><ellipse cx="532.6" cy="488.4" rx="5.7" ry="4.4" fill="#ACDE90"/><circle cx="531.6" cy="491.5" r="2.4" fill="#F4CD7E"/><circle cx="541.2" cy="484.5" r="2.4" fill="#F4CD7E"/><circle cx="547.1" cy="494.4" r="2.4" fill="#F4CD7E"/></g>
<g><ellipse cx="421.2" cy="630" rx="13.2" ry="5.5" fill="#CBBC97"/><ellipse cx="421.2" cy="629" rx="10" ry="4" fill="#C4A981"/><ellipse cx="425.4" cy="632" rx="10.8" ry="4" fill="#4F8F49" opacity="0.22"/><rect x="418.9" y="615.6" width="4.8" height="15.6" rx="2.4" fill="#8A6B4F"/><circle cx="423.1" cy="609.7" r="10.8" fill="#4F8F49"/><circle cx="420.1" cy="607.3" r="9.5" fill="#7CBF6B"/><ellipse cx="417.2" cy="605.8" rx="4.7" ry="3.7" fill="#ACDE90"/><circle cx="416.3" cy="608.3" r="2" fill="#F4CD7E"/><circle cx="424.4" cy="602.5" r="2" fill="#F4CD7E"/></g>
<g><ellipse cx="638.8" cy="519" rx="13.2" ry="5.5" fill="#CBBC97"/><ellipse cx="638.8" cy="518" rx="10" ry="4" fill="#C4A981"/><ellipse cx="643" cy="521" rx="10.8" ry="4" fill="#4F8F49" opacity="0.22"/><rect x="636.4" y="504.6" width="4.8" height="15.6" rx="2.4" fill="#8A6B4F"/><circle cx="640.5" cy="498.7" r="10.8" fill="#4F8F49"/><circle cx="637.5" cy="496.3" r="9.5" fill="#7CBF6B"/><ellipse cx="634.7" cy="494.8" rx="4.7" ry="3.7" fill="#ACDE90"/><circle cx="633.8" cy="497.3" r="2" fill="#F4CD7E"/><circle cx="641.9" cy="491.5" r="2" fill="#F4CD7E"/></g>
<g><ellipse cx="476" cy="537" rx="13.2" ry="5.5" fill="#CBBC97"/><ellipse cx="476" cy="536" rx="10" ry="4" fill="#C4A981"/><ellipse cx="480.2" cy="539" rx="10.8" ry="4" fill="#4F8F49" opacity="0.22"/><rect x="473.6" y="522.6" width="4.8" height="15.6" rx="2.4" fill="#8A6B4F"/><circle cx="477.8" cy="516.7" r="10.8" fill="#4F8F49"/><circle cx="474.8" cy="514.3" r="9.5" fill="#7CBF6B"/><ellipse cx="471.9" cy="512.8" rx="4.7" ry="3.7" fill="#ACDE90"/><circle cx="471.1" cy="515.3" r="2" fill="#F4CD7E"/><circle cx="479.1" cy="509.5" r="2" fill="#F4CD7E"/></g>
<g transform="translate(524,609) rotate(-4) scale(0.8)"><rect x="-36" y="-6" width="72" height="20" rx="8" fill="#C9B389"/><rect x="-36" y="-10" width="72" height="20" rx="8" fill="#EAE0C6"/><rect x="-30" y="-6" width="60" height="12" rx="5" fill="#C4A981"/><ellipse cx="-18" cy="0" rx="5" ry="2.6" fill="#7CBF6B"/><ellipse cx="0" cy="0" rx="5" ry="2.6" fill="#ACDE90"/><ellipse cx="18" cy="0" rx="5" ry="2.6" fill="#7CBF6B"/><circle cx="14" cy="-1.5" r="2.2" fill="#F4CD7E"/></g>
<g transform="translate(666.5,531) rotate(5) scale(0.75)"><rect x="-36" y="-6" width="72" height="20" rx="8" fill="#C9B389"/><rect x="-36" y="-10" width="72" height="20" rx="8" fill="#EAE0C6"/><rect x="-30" y="-6" width="60" height="12" rx="5" fill="#C4A981"/><ellipse cx="-18" cy="0" rx="5" ry="2.6" fill="#7CBF6B"/><ellipse cx="0" cy="0" rx="5" ry="2.6" fill="#ACDE90"/><ellipse cx="18" cy="0" rx="5" ry="2.6" fill="#7CBF6B"/><circle cx="14" cy="-1.5" r="2.2" fill="#F4CD7E"/></g>
<g><ellipse cx="560" cy="670.6" rx="9" ry="3.1" fill="#CBBC97"/><ellipse cx="560" cy="670.1" rx="7.1" ry="2.4" fill="#C4A981"/><circle cx="556.6" cy="666.4" r="5.6" fill="#4F8F49"/><circle cx="563.1" cy="666.8" r="5.2" fill="#7CBF6B"/><circle cx="559.9" cy="663.8" r="5.5" fill="#7CBF6B"/><ellipse cx="558.1" cy="662.2" rx="3.6" ry="2.9" fill="#ACDE90"/><circle cx="555.9" cy="665.1" r="1.6" fill="#EFC3CC"/><circle cx="562.9" cy="663.6" r="1.6" fill="#EFC98D"/><circle cx="560.6" cy="668.2" r="1.5" fill="#EFC3CC"/></g>
<g><ellipse cx="702.5" cy="616.3" rx="8.4" ry="2.9" fill="#CBBC97"/><ellipse cx="702.5" cy="615.9" rx="6.6" ry="2.2" fill="#C4A981"/><circle cx="699.4" cy="612.4" r="5.2" fill="#4F8F49"/><circle cx="705.4" cy="612.7" r="4.9" fill="#7CBF6B"/><circle cx="702.4" cy="609.9" r="5.2" fill="#7CBF6B"/><ellipse cx="700.8" cy="608.5" rx="3.4" ry="2.7" fill="#ACDE90"/><circle cx="698.6" cy="611.2" r="1.5" fill="#EFC3CC"/><circle cx="705.2" cy="609.8" r="1.5" fill="#EFC98D"/><circle cx="703.1" cy="614.1" r="1.4" fill="#EFC3CC"/></g>
<g><ellipse cx="515" cy="677.5" rx="7.8" ry="2.7" fill="#CBBC97"/><ellipse cx="515" cy="677.1" rx="6.2" ry="2.1" fill="#C4A981"/><circle cx="512.1" cy="673.8" r="4.9" fill="#4F8F49"/><circle cx="517.7" cy="674.1" r="4.5" fill="#7CBF6B"/><circle cx="514.9" cy="671.5" r="4.8" fill="#7CBF6B"/><ellipse cx="513.4" cy="670.2" rx="3.1" ry="2.5" fill="#ACDE90"/><circle cx="511.4" cy="672.7" r="1.5" fill="#EFC3CC"/><circle cx="517.5" cy="671.4" r="1.5" fill="#EFC98D"/><circle cx="515.5" cy="675.5" r="1.4" fill="#EFC3CC"/></g>
<g><ellipse cx="776" cy="618.7" rx="7.2" ry="2.5" fill="#CBBC97"/><ellipse cx="776" cy="618.3" rx="5.7" ry="1.9" fill="#C4A981"/><circle cx="773.3" cy="615.3" r="4.5" fill="#4F8F49"/><circle cx="778.5" cy="615.6" r="4.2" fill="#7CBF6B"/><circle cx="775.9" cy="613.2" r="4.4" fill="#7CBF6B"/><ellipse cx="774.5" cy="612" rx="2.9" ry="2.3" fill="#ACDE90"/><circle cx="772.7" cy="614.3" r="1.5" fill="#EFC3CC"/><circle cx="778.3" cy="613.1" r="1.5" fill="#EFC98D"/><circle cx="776.5" cy="616.8" r="1.4" fill="#EFC3CC"/></g>
<g><ellipse cx="768.5" cy="575.5" rx="7.8" ry="2.7" fill="#CBBC97"/><ellipse cx="768.5" cy="575.1" rx="6.2" ry="2.1" fill="#C4A981"/><circle cx="765.6" cy="571.8" r="4.9" fill="#4F8F49"/><circle cx="771.2" cy="572.1" r="4.5" fill="#7CBF6B"/><circle cx="768.4" cy="569.5" r="4.8" fill="#7CBF6B"/><ellipse cx="766.9" cy="568.2" rx="3.1" ry="2.5" fill="#ACDE90"/><circle cx="764.9" cy="570.7" r="1.5" fill="#EFC3CC"/><circle cx="771" cy="569.4" r="1.5" fill="#EFC98D"/><circle cx="769" cy="573.5" r="1.4" fill="#EFC3CC"/></g>
<g><ellipse cx="614" cy="661" rx="13" ry="7.2" fill="#C9B389"/><ellipse cx="614" cy="658.5" rx="13" ry="7.2" fill="#EAE0C6"/><ellipse cx="614" cy="658.9" rx="10" ry="5.2" fill="#C4A981"/><ellipse cx="606.5" cy="657.7" rx="1.9" ry="1.2" fill="#7CBF6B"/><circle cx="608.5" cy="656.7" r="1.9" fill="#EFC3CC"/><ellipse cx="612.5" cy="656.6" rx="1.9" ry="1.2" fill="#7CBF6B"/><circle cx="614.5" cy="655.6" r="1.9" fill="#EFC98D"/><ellipse cx="617.8" cy="658.2" rx="1.9" ry="1.2" fill="#7CBF6B"/><circle cx="619.8" cy="657.2" r="1.9" fill="#EFC3CC"/><ellipse cx="609.8" cy="661.6" rx="1.9" ry="1.2" fill="#7CBF6B"/><circle cx="611.8" cy="660.6" r="1.9" fill="#FBF0D8"/><ellipse cx="615.2" cy="661.7" rx="1.9" ry="1.2" fill="#7CBF6B"/><circle cx="617.2" cy="660.7" r="1.9" fill="#EFC98D"/></g>
<g><ellipse cx="731" cy="640" rx="13.5" ry="7.5" fill="#C9B389"/><ellipse cx="731" cy="637.5" rx="13.5" ry="7.5" fill="#EAE0C6"/><ellipse cx="731" cy="637.9" rx="10.5" ry="5.5" fill="#C4A981"/><ellipse cx="723.2" cy="636.6" rx="1.9" ry="1.2" fill="#7CBF6B"/><circle cx="725.2" cy="635.6" r="1.9" fill="#EFC3CC"/><ellipse cx="729.5" cy="635.5" rx="1.9" ry="1.2" fill="#7CBF6B"/><circle cx="731.5" cy="634.5" r="1.9" fill="#EFC98D"/><ellipse cx="735.1" cy="637.1" rx="1.9" ry="1.2" fill="#7CBF6B"/><circle cx="737.1" cy="636.1" r="1.9" fill="#EFC3CC"/><ellipse cx="726.7" cy="640.7" rx="1.9" ry="1.2" fill="#7CBF6B"/><circle cx="728.7" cy="639.7" r="1.9" fill="#FBF0D8"/><ellipse cx="732.4" cy="640.8" rx="1.9" ry="1.2" fill="#7CBF6B"/><circle cx="734.4" cy="639.8" r="1.9" fill="#EFC98D"/></g>
<g><ellipse cx="485" cy="577.5" rx="3.2" ry="2" fill="#4F8F49" opacity="0.5"/><ellipse cx="492" cy="579" rx="4" ry="2.4" fill="#4F8F49" opacity="0.4"/><ellipse cx="489" cy="573.5" rx="3.6" ry="2.2" fill="#ACDE90" opacity="0.55"/></g>
<g><ellipse cx="635" cy="532.5" rx="3.2" ry="2" fill="#4F8F49" opacity="0.5"/><ellipse cx="642" cy="534" rx="4" ry="2.4" fill="#4F8F49" opacity="0.4"/><ellipse cx="639" cy="528.5" rx="3.6" ry="2.2" fill="#ACDE90" opacity="0.55"/></g>
<g><ellipse cx="680" cy="637.5" rx="3.2" ry="2" fill="#4F8F49" opacity="0.5"/><ellipse cx="687" cy="639" rx="4" ry="2.4" fill="#4F8F49" opacity="0.4"/><ellipse cx="684" cy="633.5" rx="3.6" ry="2.2" fill="#ACDE90" opacity="0.55"/></g>
<g><ellipse cx="582.5" cy="615" rx="3.2" ry="2" fill="#4F8F49" opacity="0.5"/><ellipse cx="589.5" cy="616.5" rx="4" ry="2.4" fill="#4F8F49" opacity="0.4"/><ellipse cx="586.5" cy="611" rx="3.6" ry="2.2" fill="#ACDE90" opacity="0.55"/></g>
<g><ellipse cx="447.5" cy="648.8" rx="3.2" ry="2" fill="#4F8F49" opacity="0.5"/><ellipse cx="454.5" cy="650.2" rx="4" ry="2.4" fill="#4F8F49" opacity="0.4"/><ellipse cx="451.5" cy="644.8" rx="3.6" ry="2.2" fill="#ACDE90" opacity="0.55"/></g>
<g><ellipse cx="755" cy="592.5" rx="3.2" ry="2" fill="#4F8F49" opacity="0.5"/><ellipse cx="762" cy="594" rx="4" ry="2.4" fill="#4F8F49" opacity="0.4"/><ellipse cx="759" cy="588.5" rx="3.6" ry="2.2" fill="#ACDE90" opacity="0.55"/></g>
<g><ellipse cx="657.5" cy="652.5" rx="3.2" ry="2" fill="#4F8F49" opacity="0.5"/><ellipse cx="664.5" cy="654" rx="4" ry="2.4" fill="#4F8F49" opacity="0.4"/><ellipse cx="661.5" cy="648.5" rx="3.6" ry="2.2" fill="#ACDE90" opacity="0.55"/></g>
<g><ellipse cx="417.5" cy="570" rx="3.2" ry="2" fill="#4F8F49" opacity="0.5"/><ellipse cx="424.5" cy="571.5" rx="4" ry="2.4" fill="#4F8F49" opacity="0.4"/><ellipse cx="421.5" cy="566" rx="3.6" ry="2.2" fill="#ACDE90" opacity="0.55"/></g>
<g><ellipse cx="725" cy="577.5" rx="3.2" ry="2" fill="#4F8F49" opacity="0.5"/><ellipse cx="732" cy="579" rx="4" ry="2.4" fill="#4F8F49" opacity="0.4"/><ellipse cx="729" cy="573.5" rx="3.6" ry="2.2" fill="#ACDE90" opacity="0.55"/></g>
<g><ellipse cx="537.5" cy="525" rx="3.2" ry="2" fill="#4F8F49" opacity="0.5"/><ellipse cx="544.5" cy="526.5" rx="4" ry="2.4" fill="#4F8F49" opacity="0.4"/><ellipse cx="541.5" cy="521" rx="3.6" ry="2.2" fill="#ACDE90" opacity="0.55"/></g>
<g><ellipse cx="1075.2" cy="350.7" rx="14.5" ry="6.1" fill="#CBBC97"/><ellipse cx="1075.2" cy="349.7" rx="11" ry="4.4" fill="#C4A981"/><ellipse cx="1079.8" cy="352.7" rx="11.9" ry="4.4" fill="#4E8746" opacity="0.22"/><rect x="1072.6" y="334.9" width="5.3" height="17.2" rx="2.6" fill="#8A6B4F"/><circle cx="1077.2" cy="328.3" r="11.9" fill="#4E8746"/><circle cx="1073.9" cy="325.7" r="10.4" fill="#6FAA58"/><ellipse cx="1070.7" cy="324.1" rx="5.2" ry="4" fill="#98CB77"/><circle cx="1069.8" cy="326.9" r="2.2" fill="#F2C46E"/><circle cx="1078.6" cy="320.5" r="2.2" fill="#F2C46E"/><circle cx="1084.1" cy="329.5" r="2.2" fill="#F2C46E"/></g>
<g><ellipse cx="1000.2" cy="384.5" rx="20.2" ry="8.5" fill="#CBBC97"/><ellipse cx="1000.2" cy="383.5" rx="15.4" ry="6.2" fill="#C4A981"/><ellipse cx="1006.6" cy="386.5" rx="16.6" ry="6.2" fill="#4E8746" opacity="0.22"/><rect x="996.5" y="362.4" width="7.4" height="23.9" rx="3.7" fill="#8A6B4F"/><circle cx="1003" cy="353.3" r="16.6" fill="#4E8746"/><circle cx="998.4" cy="349.6" r="14.5" fill="#6FAA58"/><ellipse cx="994" cy="347.3" rx="7.3" ry="5.6" fill="#98CB77"/><circle cx="992.7" cy="351.3" r="3.1" fill="#F2C46E"/><circle cx="1005" cy="342.3" r="3.1" fill="#F2C46E"/><circle cx="1012.5" cy="354.9" r="3.1" fill="#F2C46E"/><circle cx="1000.7" cy="361.6" r="3.1" fill="#F2C46E"/></g>
<g><ellipse cx="1067.7" cy="398" rx="16.7" ry="7" fill="#CBBC97"/><ellipse cx="1067.7" cy="397" rx="12.7" ry="5.1" fill="#C4A981"/><ellipse cx="1073" cy="400" rx="13.7" ry="5.1" fill="#4E8746" opacity="0.22"/><rect x="1064.7" y="379.7" width="6.1" height="19.8" rx="3" fill="#8A6B4F"/><circle cx="1070" cy="372.2" r="13.7" fill="#4E8746"/><circle cx="1066.2" cy="369.2" r="12" fill="#6FAA58"/><ellipse cx="1062.5" cy="367.3" rx="6" ry="4.6" fill="#98CB77"/><circle cx="1061.5" cy="370.5" r="2.6" fill="#F2C46E"/><circle cx="1071.7" cy="363.2" r="2.6" fill="#F2C46E"/><circle cx="1077.9" cy="373.6" r="2.6" fill="#F2C46E"/></g>
<g transform="translate(44,12)"><ellipse cx="923.7" cy="431" rx="18.7" ry="7.8" fill="#CBBC97"/><ellipse cx="923.7" cy="430" rx="14.2" ry="5.7" fill="#C4A981"/><ellipse cx="929.7" cy="433" rx="15.3" ry="5.7" fill="#4E8746" opacity="0.22"/><rect x="920.3" y="410.6" width="6.8" height="22.1" rx="3.4" fill="#8A6B4F"/><circle cx="926.3" cy="402.2" r="15.3" fill="#4E8746"/><circle cx="922" cy="398.8" r="13.4" fill="#6FAA58"/><ellipse cx="917.9" cy="396.6" rx="6.7" ry="5.2" fill="#98CB77"/><circle cx="916.7" cy="400.3" r="2.9" fill="#F2C46E"/><circle cx="928.1" cy="392" r="2.9" fill="#F2C46E"/><circle cx="935.1" cy="403.7" r="2.9" fill="#F2C46E"/><circle cx="924.1" cy="409.8" r="2.9" fill="#F2C46E"/></g>
<g><ellipse cx="801.5" cy="446" rx="12.3" ry="5.2" fill="#CBBC97"/><ellipse cx="801.5" cy="445" rx="9.4" ry="3.8" fill="#C4A981"/><ellipse cx="805.4" cy="448" rx="10.1" ry="3.8" fill="#4E8746" opacity="0.22"/><rect x="799.2" y="432.5" width="4.5" height="14.6" rx="2.2" fill="#8A6B4F"/><circle cx="803.1" cy="427" r="10.1" fill="#4E8746"/><circle cx="800.3" cy="424.7" r="8.8" fill="#6FAA58"/><ellipse cx="797.6" cy="423.3" rx="4.4" ry="3.4" fill="#98CB77"/><circle cx="796.9" cy="425.8" r="2" fill="#F2C46E"/><circle cx="804.4" cy="420.3" r="2" fill="#F2C46E"/></g>
<g transform="translate(1022.7,416) rotate(6) scale(0.74)"><rect x="-36" y="-6" width="72" height="20" rx="8" fill="#C9B389"/><rect x="-36" y="-10" width="72" height="20" rx="8" fill="#ECDFBE"/><rect x="-30" y="-6" width="60" height="12" rx="5" fill="#C4A981"/><ellipse cx="-18" cy="0" rx="5" ry="2.6" fill="#6FAA58"/><ellipse cx="0" cy="0" rx="5" ry="2.6" fill="#98CB77"/><ellipse cx="18" cy="0" rx="5" ry="2.6" fill="#6FAA58"/><circle cx="14" cy="-1.5" r="2.2" fill="#F2C46E"/></g>
<g><ellipse cx="719" cy="371.3" rx="10.8" ry="3.8" fill="#CBBC97"/><ellipse cx="719" cy="370.7" rx="8.5" ry="2.9" fill="#C4A981"/><circle cx="714.9" cy="366.2" r="6.8" fill="#4E8746"/><circle cx="722.7" cy="366.6" r="6.3" fill="#6FAA58"/><circle cx="718.8" cy="363" r="6.7" fill="#6FAA58"/><ellipse cx="716.7" cy="361.2" rx="4.3" ry="3.4" fill="#98CB77"/><circle cx="714" cy="364.6" r="2" fill="#EFC3CC"/><circle cx="722.4" cy="362.8" r="2" fill="#EFC98D"/><circle cx="719.7" cy="368.4" r="1.8" fill="#EFC3CC"/></g>
<g><ellipse cx="726.5" cy="425.1" rx="9" ry="3.1" fill="#CBBC97"/><ellipse cx="726.5" cy="424.6" rx="7.1" ry="2.4" fill="#C4A981"/><circle cx="723.1" cy="420.8" r="5.6" fill="#4E8746"/><circle cx="729.6" cy="421.2" r="5.2" fill="#6FAA58"/><circle cx="726.3" cy="418.2" r="5.5" fill="#6FAA58"/><ellipse cx="724.6" cy="416.7" rx="3.6" ry="2.9" fill="#98CB77"/><circle cx="722.3" cy="419.6" r="1.6" fill="#EFC3CC"/><circle cx="729.3" cy="418.1" r="1.6" fill="#EFC98D"/><circle cx="727.1" cy="422.7" r="1.5" fill="#EFC3CC"/></g>
<g><ellipse cx="741.5" cy="340.7" rx="9.6" ry="3.4" fill="#CBBC97"/><ellipse cx="741.5" cy="340.1" rx="7.6" ry="2.6" fill="#C4A981"/><circle cx="737.9" cy="336.1" r="6" fill="#4E8746"/><circle cx="744.8" cy="336.5" r="5.6" fill="#6FAA58"/><circle cx="741.3" cy="333.3" r="5.9" fill="#6FAA58"/><ellipse cx="739.5" cy="331.7" rx="3.8" ry="3" fill="#98CB77"/><circle cx="737.1" cy="334.8" r="1.8" fill="#EFC3CC"/><circle cx="744.5" cy="333.2" r="1.8" fill="#EFC98D"/><circle cx="742.1" cy="338.1" r="1.6" fill="#EFC3CC"/></g>
<g><ellipse cx="812.7" cy="313.8" rx="8.4" ry="2.9" fill="#CBBC97"/><ellipse cx="812.7" cy="313.3" rx="6.6" ry="2.2" fill="#C4A981"/><circle cx="809.6" cy="309.8" r="5.2" fill="#4E8746"/><circle cx="815.6" cy="310.2" r="4.9" fill="#6FAA58"/><circle cx="812.6" cy="307.4" r="5.2" fill="#6FAA58"/><ellipse cx="811" cy="306" rx="3.4" ry="2.7" fill="#98CB77"/><circle cx="808.9" cy="308.6" r="1.5" fill="#EFC3CC"/><circle cx="815.4" cy="307.2" r="1.5" fill="#EFC98D"/><circle cx="813.3" cy="311.6" r="1.4" fill="#EFC3CC"/></g>
<g><ellipse cx="887.7" cy="317.6" rx="8.4" ry="2.9" fill="#CBBC97"/><ellipse cx="887.7" cy="317.1" rx="6.6" ry="2.2" fill="#C4A981"/><circle cx="884.6" cy="313.6" r="5.2" fill="#4E8746"/><circle cx="890.6" cy="313.9" r="4.9" fill="#6FAA58"/><circle cx="887.6" cy="311.1" r="5.2" fill="#6FAA58"/><ellipse cx="886" cy="309.7" rx="3.4" ry="2.7" fill="#98CB77"/><circle cx="883.9" cy="312.4" r="1.5" fill="#EFC3CC"/><circle cx="890.4" cy="311" r="1.5" fill="#EFC98D"/><circle cx="888.3" cy="315.3" r="1.4" fill="#EFC3CC"/></g>
<g><ellipse cx="846.5" cy="310.2" rx="7.2" ry="2.5" fill="#CBBC97"/><ellipse cx="846.5" cy="309.8" rx="5.7" ry="1.9" fill="#C4A981"/><circle cx="843.8" cy="306.8" r="4.5" fill="#4E8746"/><circle cx="849" cy="307.1" r="4.2" fill="#6FAA58"/><circle cx="846.3" cy="304.7" r="4.4" fill="#6FAA58"/><ellipse cx="845" cy="303.5" rx="2.9" ry="2.3" fill="#98CB77"/><circle cx="843.2" cy="305.8" r="1.5" fill="#EFC3CC"/><circle cx="848.7" cy="304.6" r="1.5" fill="#EFC98D"/><circle cx="846.9" cy="308.3" r="1.4" fill="#EFC3CC"/></g>
<g><ellipse cx="722.7" cy="398.2" rx="15" ry="8.2" fill="#C9B389"/><ellipse cx="722.7" cy="395.7" rx="15" ry="8.2" fill="#ECDFBE"/><ellipse cx="722.7" cy="396.1" rx="12" ry="6.2" fill="#C4A981"/><ellipse cx="714.1" cy="394.5" rx="1.9" ry="1.2" fill="#6FAA58"/><circle cx="716.1" cy="393.5" r="1.9" fill="#EFC3CC"/><ellipse cx="721.3" cy="393.3" rx="1.9" ry="1.2" fill="#6FAA58"/><circle cx="723.3" cy="392.3" r="1.9" fill="#EFC98D"/><ellipse cx="727.7" cy="395.2" rx="1.9" ry="1.2" fill="#6FAA58"/><circle cx="729.7" cy="394.2" r="1.9" fill="#EFC3CC"/><ellipse cx="718.1" cy="399.2" rx="1.9" ry="1.2" fill="#6FAA58"/><circle cx="720.1" cy="398.2" r="1.9" fill="#FBF0D8"/><ellipse cx="724.5" cy="399.3" rx="1.9" ry="1.2" fill="#6FAA58"/><circle cx="726.5" cy="398.3" r="1.9" fill="#EFC98D"/></g>
<g><ellipse cx="775.2" cy="323.2" rx="13" ry="7.2" fill="#C9B389"/><ellipse cx="775.2" cy="320.7" rx="13" ry="7.2" fill="#ECDFBE"/><ellipse cx="775.2" cy="321.1" rx="10" ry="5.2" fill="#C4A981"/><ellipse cx="767.7" cy="319.9" rx="1.9" ry="1.2" fill="#6FAA58"/><circle cx="769.7" cy="318.9" r="1.9" fill="#EFC3CC"/><ellipse cx="773.7" cy="318.9" rx="1.9" ry="1.2" fill="#6FAA58"/><circle cx="775.7" cy="317.9" r="1.9" fill="#EFC98D"/><ellipse cx="779" cy="320.4" rx="1.9" ry="1.2" fill="#6FAA58"/><circle cx="781" cy="319.4" r="1.9" fill="#EFC3CC"/><ellipse cx="771" cy="323.8" rx="1.9" ry="1.2" fill="#6FAA58"/><circle cx="773" cy="322.8" r="1.9" fill="#FBF0D8"/><ellipse cx="776.4" cy="323.9" rx="1.9" ry="1.2" fill="#6FAA58"/><circle cx="778.4" cy="322.9" r="1.9" fill="#EFC98D"/></g>
<g><ellipse cx="936.5" cy="314.2" rx="12.5" ry="6.9" fill="#C9B389"/><ellipse cx="936.5" cy="311.7" rx="12.5" ry="6.9" fill="#ECDFBE"/><ellipse cx="936.5" cy="312.1" rx="9.5" ry="4.9" fill="#C4A981"/><ellipse cx="929.2" cy="311" rx="1.9" ry="1.2" fill="#6FAA58"/><circle cx="931.2" cy="310" r="1.9" fill="#EFC3CC"/><ellipse cx="934.9" cy="310" rx="1.9" ry="1.2" fill="#6FAA58"/><circle cx="936.9" cy="309" r="1.9" fill="#EFC98D"/><ellipse cx="940" cy="311.5" rx="1.9" ry="1.2" fill="#6FAA58"/><circle cx="942" cy="310.5" r="1.9" fill="#EFC3CC"/><ellipse cx="932.4" cy="314.7" rx="1.9" ry="1.2" fill="#6FAA58"/><circle cx="934.4" cy="313.7" r="1.9" fill="#FBF0D8"/><ellipse cx="937.5" cy="314.8" rx="1.9" ry="1.2" fill="#6FAA58"/><circle cx="939.5" cy="313.8" r="1.9" fill="#EFC98D"/></g>
<g><ellipse cx="846.5" cy="363.5" rx="3.2" ry="2" fill="#4E8746" opacity="0.5"/><ellipse cx="853.5" cy="365" rx="4" ry="2.4" fill="#4E8746" opacity="0.4"/><ellipse cx="850.5" cy="359.5" rx="3.6" ry="2.2" fill="#98CB77" opacity="0.55"/></g>
<g><ellipse cx="959" cy="384.5" rx="3.2" ry="2" fill="#4E8746" opacity="0.5"/><ellipse cx="966" cy="386" rx="4" ry="2.4" fill="#4E8746" opacity="0.4"/><ellipse cx="963" cy="380.5" rx="3.6" ry="2.2" fill="#98CB77" opacity="0.55"/></g>
<g><ellipse cx="989" cy="403.2" rx="3.2" ry="2" fill="#4E8746" opacity="0.5"/><ellipse cx="996" cy="404.7" rx="4" ry="2.4" fill="#4E8746" opacity="0.4"/><ellipse cx="993" cy="399.2" rx="3.6" ry="2.2" fill="#98CB77" opacity="0.55"/></g>
<g><ellipse cx="1045.2" cy="369.5" rx="3.2" ry="2" fill="#4E8746" opacity="0.5"/><ellipse cx="1052.2" cy="371" rx="4" ry="2.4" fill="#4E8746" opacity="0.4"/><ellipse cx="1049.2" cy="365.5" rx="3.6" ry="2.2" fill="#98CB77" opacity="0.55"/></g>
<g><ellipse cx="821.7" cy="431" rx="3.2" ry="2" fill="#4E8746" opacity="0.5"/><ellipse cx="828.7" cy="432.5" rx="4" ry="2.4" fill="#4E8746" opacity="0.4"/><ellipse cx="825.7" cy="427" rx="3.6" ry="2.2" fill="#98CB77" opacity="0.55"/></g>
<g><ellipse cx="925.2" cy="450.5" rx="3.2" ry="2" fill="#4E8746" opacity="0.5"/><ellipse cx="932.2" cy="452" rx="4" ry="2.4" fill="#4E8746" opacity="0.4"/><ellipse cx="929.2" cy="446.5" rx="3.6" ry="2.2" fill="#98CB77" opacity="0.55"/></g>
<g><ellipse cx="1015.2" cy="438.5" rx="3.2" ry="2" fill="#4E8746" opacity="0.5"/><ellipse cx="1022.2" cy="440" rx="4" ry="2.4" fill="#4E8746" opacity="0.4"/><ellipse cx="1019.2" cy="434.5" rx="3.6" ry="2.2" fill="#98CB77" opacity="0.55"/></g>
<g><ellipse cx="1090.2" cy="384.5" rx="3.2" ry="2" fill="#4E8746" opacity="0.5"/><ellipse cx="1097.2" cy="386" rx="4" ry="2.4" fill="#4E8746" opacity="0.4"/><ellipse cx="1094.2" cy="380.5" rx="3.6" ry="2.2" fill="#98CB77" opacity="0.55"/></g>
<g><ellipse cx="700.2" cy="392" rx="3.2" ry="2" fill="#4E8746" opacity="0.5"/><ellipse cx="707.2" cy="393.5" rx="4" ry="2.4" fill="#4E8746" opacity="0.4"/><ellipse cx="704.2" cy="388" rx="3.6" ry="2.2" fill="#98CB77" opacity="0.55"/></g>
<g><ellipse cx="797.7" cy="333.5" rx="3.2" ry="2" fill="#4E8746" opacity="0.5"/><ellipse cx="804.7" cy="335" rx="4" ry="2.4" fill="#4E8746" opacity="0.4"/><ellipse cx="801.7" cy="329.5" rx="3.6" ry="2.2" fill="#98CB77" opacity="0.55"/></g>
<g><ellipse cx="914" cy="308" rx="3.2" ry="2" fill="#4E8746" opacity="0.5"/><ellipse cx="921" cy="309.5" rx="4" ry="2.4" fill="#4E8746" opacity="0.4"/><ellipse cx="918" cy="304" rx="3.6" ry="2.2" fill="#98CB77" opacity="0.55"/></g>
<g><ellipse cx="1217.1" cy="100.7" rx="15.4" ry="6.4" fill="#CBBC97"/><ellipse cx="1217.1" cy="99.7" rx="11.7" ry="4.7" fill="#C4A981"/><ellipse cx="1222" cy="102.7" rx="12.6" ry="4.7" fill="#4E7D42" opacity="0.22"/><rect x="1214.3" y="83.9" width="5.6" height="18.2" rx="2.8" fill="#8A6B4F"/><circle cx="1219.2" cy="77" r="12.6" fill="#4E7D42"/><circle cx="1215.7" cy="74.2" r="11.1" fill="#6F9A4F"/><ellipse cx="1212.3" cy="72.4" rx="5.5" ry="4.3" fill="#93BA6E"/><circle cx="1211.3" cy="75.4" r="2.4" fill="#F3C572"/><circle cx="1220.7" cy="68.6" r="2.4" fill="#F3C572"/><circle cx="1226.4" cy="78.2" r="2.4" fill="#F3C572"/></g>
<g><ellipse cx="1153.3" cy="147.2" rx="13.2" ry="5.5" fill="#CBBC97"/><ellipse cx="1153.3" cy="146.2" rx="10" ry="4" fill="#C4A981"/><ellipse cx="1157.5" cy="149.2" rx="10.8" ry="4" fill="#4E7D42" opacity="0.22"/><rect x="1150.9" y="132.8" width="4.8" height="15.6" rx="2.4" fill="#8A6B4F"/><circle cx="1155.1" cy="126.8" r="10.8" fill="#4E7D42"/><circle cx="1152.1" cy="124.4" r="9.5" fill="#6F9A4F"/><ellipse cx="1149.2" cy="122.9" rx="4.7" ry="3.7" fill="#93BA6E"/><circle cx="1148.4" cy="125.5" r="2" fill="#F3C572"/><circle cx="1156.4" cy="119.7" r="2" fill="#F3C572"/></g>
<g><ellipse cx="1348.3" cy="59.4" rx="12.1" ry="5.1" fill="#CBBC97"/><ellipse cx="1348.3" cy="58.4" rx="9.2" ry="3.7" fill="#C4A981"/><ellipse cx="1352.2" cy="61.4" rx="9.9" ry="3.7" fill="#4E7D42" opacity="0.22"/><rect x="1346.1" y="46.2" width="4.4" height="14.3" rx="2.2" fill="#8A6B4F"/><circle cx="1350" cy="40.8" r="9.9" fill="#4E7D42"/><circle cx="1347.2" cy="38.6" r="8.7" fill="#6F9A4F"/><ellipse cx="1344.6" cy="37.2" rx="4.3" ry="3.4" fill="#93BA6E"/><circle cx="1343.8" cy="39.6" r="2" fill="#F3C572"/><circle cx="1351.2" cy="34.2" r="2" fill="#F3C572"/></g>
<g transform="translate(1233.6,147.2) rotate(-4) scale(0.78)"><rect x="-36" y="-6" width="72" height="20" rx="8" fill="#C9B389"/><rect x="-36" y="-10" width="72" height="20" rx="8" fill="#F0E0BE"/><rect x="-30" y="-6" width="60" height="12" rx="5" fill="#C4A981"/><ellipse cx="-18" cy="0" rx="5" ry="2.6" fill="#6F9A4F"/><ellipse cx="0" cy="0" rx="5" ry="2.6" fill="#93BA6E"/><ellipse cx="18" cy="0" rx="5" ry="2.6" fill="#6F9A4F"/><circle cx="14" cy="-1.5" r="2.2" fill="#F3C572"/></g>
<g transform="translate(1378.3,66.9) rotate(4) scale(0.7)"><rect x="-36" y="-6" width="72" height="20" rx="8" fill="#C9B389"/><rect x="-36" y="-10" width="72" height="20" rx="8" fill="#F0E0BE"/><rect x="-30" y="-6" width="60" height="12" rx="5" fill="#C4A981"/><ellipse cx="-18" cy="0" rx="5" ry="2.6" fill="#6F9A4F"/><ellipse cx="0" cy="0" rx="5" ry="2.6" fill="#93BA6E"/><ellipse cx="18" cy="0" rx="5" ry="2.6" fill="#6F9A4F"/><circle cx="14" cy="-1.5" r="2.2" fill="#F3C572"/></g>
<g transform="translate(1268.1,67.7) rotate(-6)"><rect x="-26" y="-2" width="52" height="8" rx="3.5" fill="#B89B6E"/><rect x="-26" y="-5" width="52" height="8" rx="3.5" fill="#F0E0BE"/></g>
<g transform="translate(1130.8,171.9) rotate(-22)"><rect x="-22" y="-2" width="44" height="8" rx="3.5" fill="#B89B6E"/><rect x="-22" y="-5" width="44" height="8" rx="3.5" fill="#F0E0BE"/></g>
<g transform="translate(1388.1,49.7) rotate(6)"><rect x="-22" y="-2" width="44" height="8" rx="3.5" fill="#B89B6E"/><rect x="-22" y="-5" width="44" height="8" rx="3.5" fill="#F0E0BE"/></g>
<ellipse cx="1348.3" cy="83.5" rx="7" ry="3.5" fill="#C9B389"/><ellipse cx="1348.3" cy="81.9" rx="7" ry="3.5" fill="#F0E0BE"/>
<ellipse cx="1293.6" cy="109.8" rx="6" ry="3" fill="#C9B389"/><ellipse cx="1293.6" cy="108.2" rx="6" ry="3" fill="#F0E0BE"/>
<ellipse cx="1344.6" cy="66.3" rx="5.5" ry="2.8" fill="#C9B389"/><ellipse cx="1344.6" cy="64.7" rx="5.5" ry="2.8" fill="#F0E0BE"/>
<ellipse cx="1385.8" cy="102.3" rx="6" ry="3" fill="#C9B389"/><ellipse cx="1385.8" cy="100.7" rx="6" ry="3" fill="#F0E0BE"/>
<ellipse cx="1262.1" cy="91" rx="5" ry="2.5" fill="#C9B389"/><ellipse cx="1262.1" cy="89.4" rx="5" ry="2.5" fill="#F0E0BE"/>
<g><ellipse cx="1269.6" cy="208.5" rx="8.4" ry="2.9" fill="#CBBC97"/><ellipse cx="1269.6" cy="208" rx="6.6" ry="2.2" fill="#C4A981"/><circle cx="1266.4" cy="204.5" r="5.2" fill="#4E7D42"/><circle cx="1272.5" cy="204.9" r="4.9" fill="#6F9A4F"/><circle cx="1269.4" cy="202.1" r="5.2" fill="#6F9A4F"/><ellipse cx="1267.8" cy="200.7" rx="3.4" ry="2.7" fill="#93BA6E"/><circle cx="1265.7" cy="203.3" r="1.5" fill="#EFC3CC"/><circle cx="1272.2" cy="201.9" r="1.5" fill="#EFC98D"/><circle cx="1270.1" cy="206.3" r="1.4" fill="#EFC3CC"/></g>
<g><ellipse cx="1419.6" cy="151.2" rx="7.8" ry="2.7" fill="#CBBC97"/><ellipse cx="1419.6" cy="150.8" rx="6.2" ry="2.1" fill="#C4A981"/><circle cx="1416.6" cy="147.5" r="4.9" fill="#4E7D42"/><circle cx="1422.3" cy="147.8" r="4.5" fill="#6F9A4F"/><circle cx="1419.4" cy="145.2" r="4.8" fill="#6F9A4F"/><ellipse cx="1417.9" cy="143.9" rx="3.1" ry="2.5" fill="#93BA6E"/><circle cx="1416" cy="146.4" r="1.5" fill="#EFC3CC"/><circle cx="1422" cy="145.1" r="1.5" fill="#EFC98D"/><circle cx="1420.1" cy="149.1" r="1.4" fill="#EFC3CC"/></g>
<g><ellipse cx="1228.3" cy="215.4" rx="7.2" ry="2.5" fill="#CBBC97"/><ellipse cx="1228.3" cy="215" rx="5.7" ry="1.9" fill="#C4A981"/><circle cx="1225.6" cy="212" r="4.5" fill="#4E7D42"/><circle cx="1230.8" cy="212.3" r="4.2" fill="#6F9A4F"/><circle cx="1228.2" cy="209.9" r="4.4" fill="#6F9A4F"/><ellipse cx="1226.8" cy="208.7" rx="2.9" ry="2.3" fill="#93BA6E"/><circle cx="1225" cy="211" r="1.5" fill="#EFC3CC"/><circle cx="1230.6" cy="209.8" r="1.5" fill="#EFC98D"/><circle cx="1228.8" cy="213.5" r="1.4" fill="#EFC3CC"/></g>
<g><ellipse cx="1323.6" cy="199.2" rx="13" ry="7.2" fill="#C9B389"/><ellipse cx="1323.6" cy="196.7" rx="13" ry="7.2" fill="#F0E0BE"/><ellipse cx="1323.6" cy="197.1" rx="10" ry="5.2" fill="#C4A981"/><ellipse cx="1316.1" cy="195.9" rx="1.9" ry="1.2" fill="#6F9A4F"/><circle cx="1318.1" cy="194.9" r="1.9" fill="#EFC98D"/><ellipse cx="1322.1" cy="194.8" rx="1.9" ry="1.2" fill="#6F9A4F"/><circle cx="1324.1" cy="193.8" r="1.9" fill="#F3D9A0"/><ellipse cx="1327.4" cy="196.4" rx="1.9" ry="1.2" fill="#6F9A4F"/><circle cx="1329.4" cy="195.4" r="1.9" fill="#EFC98D"/><ellipse cx="1319.4" cy="199.8" rx="1.9" ry="1.2" fill="#6F9A4F"/><circle cx="1321.4" cy="198.8" r="1.9" fill="#FBF0D8"/><ellipse cx="1324.8" cy="199.9" rx="1.9" ry="1.2" fill="#6F9A4F"/><circle cx="1326.8" cy="198.9" r="1.9" fill="#F3D9A0"/></g>
<g><ellipse cx="1438.3" cy="178.2" rx="13" ry="7.2" fill="#C9B389"/><ellipse cx="1438.3" cy="175.7" rx="13" ry="7.2" fill="#F0E0BE"/><ellipse cx="1438.3" cy="176.1" rx="10" ry="5.2" fill="#C4A981"/><ellipse cx="1430.8" cy="174.9" rx="1.9" ry="1.2" fill="#6F9A4F"/><circle cx="1432.8" cy="173.9" r="1.9" fill="#EFC98D"/><ellipse cx="1436.8" cy="173.8" rx="1.9" ry="1.2" fill="#6F9A4F"/><circle cx="1438.8" cy="172.8" r="1.9" fill="#F3D9A0"/><ellipse cx="1442.1" cy="175.4" rx="1.9" ry="1.2" fill="#6F9A4F"/><circle cx="1444.1" cy="174.4" r="1.9" fill="#EFC98D"/><ellipse cx="1434.1" cy="178.8" rx="1.9" ry="1.2" fill="#6F9A4F"/><circle cx="1436.1" cy="177.8" r="1.9" fill="#FBF0D8"/><ellipse cx="1439.5" cy="178.9" rx="1.9" ry="1.2" fill="#6F9A4F"/><circle cx="1441.5" cy="177.9" r="1.9" fill="#F3D9A0"/></g>
<g><ellipse cx="1389.6" cy="181.9" rx="11" ry="6.2" fill="#C9B389"/><ellipse cx="1389.6" cy="179.4" rx="11" ry="6.2" fill="#F0E0BE"/><ellipse cx="1389.6" cy="179.8" rx="8" ry="4.2" fill="#C4A981"/><ellipse cx="1383.2" cy="179" rx="1.9" ry="1.2" fill="#6F9A4F"/><circle cx="1385.2" cy="178" r="1.9" fill="#EFC98D"/><ellipse cx="1388" cy="178.1" rx="1.9" ry="1.2" fill="#6F9A4F"/><circle cx="1390" cy="177.1" r="1.9" fill="#F3D9A0"/><ellipse cx="1392.2" cy="179.4" rx="1.9" ry="1.2" fill="#6F9A4F"/><circle cx="1394.2" cy="178.4" r="1.9" fill="#EFC98D"/><ellipse cx="1385.8" cy="182.1" rx="1.9" ry="1.2" fill="#6F9A4F"/><circle cx="1387.8" cy="181.1" r="1.9" fill="#FBF0D8"/><ellipse cx="1390.1" cy="182.2" rx="1.9" ry="1.2" fill="#6F9A4F"/><circle cx="1392.1" cy="181.2" r="1.9" fill="#F3D9A0"/></g>
<g><ellipse cx="1481.1" cy="115.9" rx="12" ry="6.7" fill="#C9B389"/><ellipse cx="1481.1" cy="113.4" rx="12" ry="6.7" fill="#F0E0BE"/><ellipse cx="1481.1" cy="113.8" rx="9" ry="4.7" fill="#C4A981"/><ellipse cx="1474.1" cy="112.8" rx="1.9" ry="1.2" fill="#6F9A4F"/><circle cx="1476.1" cy="111.8" r="1.9" fill="#EFC98D"/><ellipse cx="1479.5" cy="111.9" rx="1.9" ry="1.2" fill="#6F9A4F"/><circle cx="1481.5" cy="110.9" r="1.9" fill="#F3D9A0"/><ellipse cx="1484.3" cy="113.3" rx="1.9" ry="1.2" fill="#6F9A4F"/><circle cx="1486.3" cy="112.3" r="1.9" fill="#EFC98D"/><ellipse cx="1477.1" cy="116.3" rx="1.9" ry="1.2" fill="#6F9A4F"/><circle cx="1479.1" cy="115.3" r="1.9" fill="#FBF0D8"/><ellipse cx="1481.9" cy="116.4" rx="1.9" ry="1.2" fill="#6F9A4F"/><circle cx="1483.9" cy="115.4" r="1.9" fill="#F3D9A0"/></g>
<g><ellipse cx="1194.6" cy="119.4" rx="3.2" ry="2" fill="#4E7D42" opacity="0.5"/><ellipse cx="1201.6" cy="120.9" rx="4" ry="2.4" fill="#4E7D42" opacity="0.4"/><ellipse cx="1198.6" cy="115.4" rx="3.6" ry="2.2" fill="#93BA6E" opacity="0.55"/></g>
<g><ellipse cx="1348.3" cy="104.4" rx="3.2" ry="2" fill="#4E7D42" opacity="0.5"/><ellipse cx="1355.3" cy="105.9" rx="4" ry="2.4" fill="#4E7D42" opacity="0.4"/><ellipse cx="1352.3" cy="100.4" rx="3.6" ry="2.2" fill="#93BA6E" opacity="0.55"/></g>
<g><ellipse cx="1389.6" cy="153.2" rx="3.2" ry="2" fill="#4E7D42" opacity="0.5"/><ellipse cx="1396.6" cy="154.7" rx="4" ry="2.4" fill="#4E7D42" opacity="0.4"/><ellipse cx="1393.6" cy="149.2" rx="3.6" ry="2.2" fill="#93BA6E" opacity="0.55"/></g>
<g><ellipse cx="1157.1" cy="190.7" rx="3.2" ry="2" fill="#4E7D42" opacity="0.5"/><ellipse cx="1164.1" cy="192.2" rx="4" ry="2.4" fill="#4E7D42" opacity="0.4"/><ellipse cx="1161.1" cy="186.7" rx="3.6" ry="2.2" fill="#93BA6E" opacity="0.55"/></g>
<g><ellipse cx="1464.6" cy="134.4" rx="3.2" ry="2" fill="#4E7D42" opacity="0.5"/><ellipse cx="1471.6" cy="135.9" rx="4" ry="2.4" fill="#4E7D42" opacity="0.4"/><ellipse cx="1468.6" cy="130.4" rx="3.6" ry="2.2" fill="#93BA6E" opacity="0.55"/></g>
<g><ellipse cx="1127.1" cy="111.9" rx="3.2" ry="2" fill="#4E7D42" opacity="0.5"/><ellipse cx="1134.1" cy="113.4" rx="4" ry="2.4" fill="#4E7D42" opacity="0.4"/><ellipse cx="1131.1" cy="107.9" rx="3.6" ry="2.2" fill="#93BA6E" opacity="0.55"/></g>
<g id="over">
<g transform="translate(767.7,448)"><rect x="-24" y="-30" width="8" height="40" rx="3" fill="#D2BC90"/><rect x="16" y="-30" width="8" height="40" rx="3" fill="#D2BC90"/><rect x="-24" y="-32" width="8" height="38" rx="3" fill="#ECDFBE"/><rect x="16" y="-32" width="8" height="38" rx="3" fill="#ECDFBE"/><path d="M -20,-28 Q 0,-52 20,-28" fill="none" stroke="#ECDFBE" stroke-width="8" stroke-linecap="round"/><path d="M -20,-26 Q 0,-49 20,-26" fill="none" stroke="#D2BC90" stroke-width="3" stroke-linecap="round" opacity="0.6"/><circle cx="0" cy="-41" r="2.6" fill="#F2C46E"/></g>
<g transform="translate(1187.1,209.2)"><rect x="-24" y="-30" width="8" height="40" rx="3" fill="#D2BC90"/><rect x="16" y="-30" width="8" height="40" rx="3" fill="#D2BC90"/><rect x="-24" y="-32" width="8" height="38" rx="3" fill="#F0E0BE"/><rect x="16" y="-32" width="8" height="38" rx="3" fill="#F0E0BE"/><path d="M -20,-28 Q 0,-52 20,-28" fill="none" stroke="#F0E0BE" stroke-width="8" stroke-linecap="round"/><path d="M -20,-26 Q 0,-49 20,-26" fill="none" stroke="#D2BC90" stroke-width="3" stroke-linecap="round" opacity="0.6"/><circle cx="0" cy="-41" r="2.6" fill="#F3C572"/></g>
</g>
<g opacity="0.75"><ellipse cx="485" cy="729" rx="66" ry="14" fill="#FDF6E4"/><ellipse cx="461.9" cy="734.6" rx="44.9" ry="10.9" fill="#F4EFD8"/></g>
<g opacity="0.7"><ellipse cx="725" cy="720" rx="58" ry="12" fill="#FDF6E4"/><ellipse cx="704.7" cy="724.8" rx="39.4" ry="9.4" fill="#F4EFD8"/></g>
<g opacity="0.8"><ellipse cx="742.5" cy="520.8" rx="30" ry="8" fill="#FDF6E4"/><ellipse cx="732" cy="524" rx="20.4" ry="6.2" fill="#F4EFD8"/></g>
<g opacity="0.8"><ellipse cx="747.7" cy="462" rx="28" ry="7" fill="#FDF6E4"/><ellipse cx="737.9" cy="464.8" rx="19" ry="5.5" fill="#F4EFD8"/></g>
<g opacity="0.55"><ellipse cx="797.7" cy="503" rx="50" ry="11" fill="#FDF6E4"/><ellipse cx="780.2" cy="507.4" rx="34" ry="8.6" fill="#F4EFD8"/></g>
<g opacity="0.5"><ellipse cx="1000.2" cy="498.5" rx="42" ry="9" fill="#FDF6E4"/><ellipse cx="985.5" cy="502.1" rx="28.6" ry="7" fill="#F4EFD8"/></g>
<g opacity="0.7"><ellipse cx="1036.7" cy="301.7" rx="26" ry="7" fill="#FDF6E4"/><ellipse cx="1027.6" cy="304.5" rx="17.7" ry="5.5" fill="#F4EFD8"/></g>
<g opacity="0.65"><ellipse cx="1163.1" cy="221.2" rx="24" ry="6" fill="#FDF6E4"/><ellipse cx="1154.7" cy="223.6" rx="16.3" ry="4.7" fill="#F4EFD8"/></g>
<g opacity="0.35"><ellipse cx="1209.6" cy="262.7" rx="36" ry="8" fill="#FDF6E4"/><ellipse cx="1197" cy="265.9" rx="24.5" ry="6.2" fill="#F4EFD8"/></g>
<g opacity="0.85"><ellipse cx="1504.6" cy="4.9" rx="40" ry="10" fill="#FDF6E4"/><ellipse cx="1490.6" cy="8.9" rx="27.2" ry="7.8" fill="#F4EFD8"/></g>
<g opacity="0.8"><ellipse cx="1474.6" cy="18.9" rx="26" ry="7" fill="#FDF6E4"/><ellipse cx="1465.5" cy="21.7" rx="17.7" ry="5.5" fill="#F4EFD8"/></g>
<circle id="spot-1-1" cx="511.2" cy="650.5" r="4" fill="#FFFFFF" opacity="0"/>
<circle id="spot-1-2" cx="550.8" cy="638.9" r="4" fill="#FFFFFF" opacity="0"/>
<circle id="spot-1-3" cx="591.7" cy="633.3" r="4" fill="#FFFFFF" opacity="0"/>
<circle id="spot-1-4" cx="631.1" cy="620.8" r="4" fill="#FFFFFF" opacity="0"/>
<circle id="spot-1-5" cx="667.1" cy="600.6" r="4" fill="#FFFFFF" opacity="0"/>
<circle id="spot-1-6" cx="698.4" cy="573.7" r="4" fill="#FFFFFF" opacity="0"/>
<circle id="spot-1-7" cx="723.7" cy="541.1" r="4" fill="#FFFFFF" opacity="0"/>
<circle id="spot-1-8" cx="742.7" cy="504.3" r="4" fill="#FFFFFF" opacity="0"/>
<circle id="spot-2-1" cx="786.5" cy="410.3" r="4" fill="#FFFFFF" opacity="0"/>
<circle id="spot-2-2" cx="828.8" cy="369.7" r="4" fill="#FFFFFF" opacity="0"/>
<circle id="spot-2-3" cx="883.1" cy="347.7" r="4" fill="#FFFFFF" opacity="0"/>
<circle id="spot-2-4" cx="941.5" cy="339.7" r="4" fill="#FFFFFF" opacity="0"/>
<circle id="spot-2-5" cx="997.6" cy="321.7" r="4" fill="#FFFFFF" opacity="0"/>
<circle id="spot-2-6" cx="1049.5" cy="293.8" r="4" fill="#FFFFFF" opacity="0"/>
<circle id="spot-2-7" cx="1100.4" cy="264" r="4" fill="#FFFFFF" opacity="0"/>
<circle id="spot-2-8" cx="1150.2" cy="232.3" r="4" fill="#FFFFFF" opacity="0"/>
<circle id="spot-3-1" cx="1220" cy="189" r="4" fill="#FFFFFF" opacity="0"/>
<circle id="spot-3-2" cx="1255.1" cy="178.1" r="4" fill="#FFFFFF" opacity="0"/>
<circle id="spot-3-3" cx="1291.6" cy="173.2" r="4" fill="#FFFFFF" opacity="0"/>
<circle id="spot-3-4" cx="1327.2" cy="164.2" r="4" fill="#FFFFFF" opacity="0"/>
<circle id="spot-3-5" cx="1360.7" cy="148.9" r="4" fill="#FFFFFF" opacity="0"/>
<circle id="spot-3-6" cx="1390.9" cy="128" r="4" fill="#FFFFFF" opacity="0"/>
<circle id="spot-3-7" cx="1416.8" cy="101.9" r="4" fill="#FFFFFF" opacity="0"/>
<circle id="spot-3-8" cx="1437.1" cy="71.3" r="4" fill="#FFFFFF" opacity="0"/>
<circle id="heart-1" cx="595.1" cy="553.4" r="4" fill="#FFFFFF" opacity="0"/>
<circle id="heart-2" cx="900.7" cy="421.8" r="4" fill="#FFFFFF" opacity="0"/>
<circle id="heart-3" cx="1304.6" cy="91.5" r="4" fill="#FFFFFF" opacity="0"/>
<circle id="gate-1" cx="767.7" cy="446" r="4" fill="#FFFFFF" opacity="0"/>
<circle id="gate-2" cx="1187.1" cy="207.2" r="4" fill="#FFFFFF" opacity="0"/>
<circle id="moon" cx="480" cy="420" r="4" fill="#FFFFFF" opacity="0"/>
</svg>
