<svg xmlns="http://www.w3.org/2000/svg" version="1.1" viewBox="0 0 2400 1080">
<rect x="0" y="0" width="2400" height="1080" fill="#CDE6D8"/>
<rect x="0" y="700" width="2400" height="380" fill="#DDEBC9"/>
<ellipse cx="340" cy="1010" rx="150" ry="34" fill="#F7F2E0" opacity="0.8"/>
<ellipse cx="873" cy="793" rx="150" ry="34" fill="#F7F2E0" opacity="0.8"/>
<ellipse cx="1406" cy="576" rx="150" ry="34" fill="#F7F2E0" opacity="0.8"/>
<ellipse cx="1940" cy="360" rx="150" ry="34" fill="#F7F2E0" opacity="0.8"/>
<ellipse cx="400" cy="876" rx="236" ry="122" fill="#C9B183"/>
<ellipse cx="400" cy="850" rx="236" ry="120" fill="#8FBF6E"/>
<ellipse cx="933" cy="659" rx="236" ry="122" fill="#C9B183"/>
<ellipse cx="933" cy="633" rx="236" ry="120" fill="#8FBF6E"/>
<ellipse cx="1466" cy="442" rx="236" ry="122" fill="#C9B183"/>
<ellipse cx="1466" cy="416" rx="236" ry="120" fill="#8FBF6E"/>
<ellipse cx="2000" cy="226" rx="236" ry="122" fill="#C9B183"/>
<ellipse cx="2000" cy="200" rx="236" ry="120" fill="#8FBF6E"/>
<ellipse cx="410" cy="940" rx="56" ry="28" fill="#EAE0C6"/>
<ellipse cx="410" cy="940" rx="46" ry="22" fill="#D8CCA8"/>
<ellipse cx="943" cy="723" rx="56" ry="28" fill="#EAE0C6"/>
<ellipse cx="943" cy="723" rx="46" ry="22" fill="#D8CCA8"/>
<ellipse cx="1476" cy="506" rx="56" ry="28" fill="#EAE0C6"/>
<ellipse cx="1476" cy="506" rx="46" ry="22" fill="#D8CCA8"/>
<ellipse cx="2010" cy="290" rx="56" ry="28" fill="#EAE0C6"/>
<ellipse cx="2010" cy="290" rx="46" ry="22" fill="#D8CCA8"/>
<path id="walk" d="M 200 890 L 300 820 L 480 880 L 600 810 L 733 673 L 833 603 L 1013 663 L 1133 593 L 1266 456 L 1366 386 L 1546 446 L 1666 376 L 1800 240 L 1900 170 L 2080 230 L 2200 160 L 2240 130" fill="none" stroke="#EFE3C2" stroke-width="26" stroke-linejoin="round" stroke-linecap="round"/>
<g id="water-1"><ellipse cx="410" cy="940" rx="42" ry="20" fill="#7FC8B8"/><ellipse cx="402" cy="936" rx="14" ry="5" fill="#EAF7EF"/></g>
<g id="water-2"><ellipse cx="943" cy="723" rx="42" ry="20" fill="#8FD0B0"/><ellipse cx="935" cy="719" rx="14" ry="5" fill="#EAF7EF"/></g>
<g id="water-3"><ellipse cx="1476" cy="506" rx="42" ry="20" fill="#9AD3C4"/><ellipse cx="1468" cy="502" rx="14" ry="5" fill="#EAF7EF"/></g>
<g id="water-4"><ellipse cx="2010" cy="290" rx="42" ry="20" fill="#BCE3D2"/><ellipse cx="2002" cy="286" rx="14" ry="5" fill="#EAF7EF"/></g>
<circle id="heart-1" cx="410" cy="940" r="4" opacity="0"/>
<circle id="heart-2" cx="943" cy="723" r="4" opacity="0"/>
<circle id="heart-3" cx="1476" cy="506" r="4" opacity="0"/>
<circle id="heart-4" cx="2010" cy="290" r="4" opacity="0"/>
<circle cx="212.3" cy="881.4" r="6" fill="#B98A3E" opacity="0.7"/>
<circle id="spot-1-1" cx="212.3" cy="881.4" r="4" opacity="0"/>
<circle cx="281.2" cy="833.1" r="6" fill="#B98A3E" opacity="0.7"/>
<circle id="spot-1-2" cx="281.2" cy="833.1" r="4" opacity="0"/>
<circle cx="358.1" cy="839.4" r="6" fill="#B98A3E" opacity="0.7"/>
<circle id="spot-1-3" cx="358.1" cy="839.4" r="4" opacity="0"/>
<circle cx="437.9" cy="866" r="6" fill="#B98A3E" opacity="0.7"/>
<circle id="spot-1-4" cx="437.9" cy="866" r="4" opacity="0"/>
<circle cx="514.4" cy="860" r="6" fill="#B98A3E" opacity="0.7"/>
<circle id="spot-1-5" cx="514.4" cy="860" r="4" opacity="0"/>
<circle cx="587" cy="817.6" r="6" fill="#B98A3E" opacity="0.7"/>
<circle id="spot-1-6" cx="587" cy="817.6" r="4" opacity="0"/>
<circle cx="745.3" cy="664.4" r="6" fill="#B98A3E" opacity="0.7"/>
<circle id="spot-2-1" cx="745.3" cy="664.4" r="4" opacity="0"/>
<circle cx="814.2" cy="616.1" r="6" fill="#B98A3E" opacity="0.7"/>
<circle id="spot-2-2" cx="814.2" cy="616.1" r="4" opacity="0"/>
<circle cx="891.1" cy="622.4" r="6" fill="#B98A3E" opacity="0.7"/>
<circle id="spot-2-3" cx="891.1" cy="622.4" r="4" opacity="0"/>
<circle cx="970.9" cy="649" r="6" fill="#B98A3E" opacity="0.7"/>
<circle id="spot-2-4" cx="970.9" cy="649" r="4" opacity="0"/>
<circle cx="1047.4" cy="643" r="6" fill="#B98A3E" opacity="0.7"/>
<circle id="spot-2-5" cx="1047.4" cy="643" r="4" opacity="0"/>
<circle cx="1120" cy="600.6" r="6" fill="#B98A3E" opacity="0.7"/>
<circle id="spot-2-6" cx="1120" cy="600.6" r="4" opacity="0"/>
<circle cx="1278.3" cy="447.4" r="6" fill="#B98A3E" opacity="0.7"/>
<circle id="spot-3-1" cx="1278.3" cy="447.4" r="4" opacity="0"/>
<circle cx="1347.2" cy="399.1" r="6" fill="#B98A3E" opacity="0.7"/>
<circle id="spot-3-2" cx="1347.2" cy="399.1" r="4" opacity="0"/>
<circle cx="1424.1" cy="405.4" r="6" fill="#B98A3E" opacity="0.7"/>
<circle id="spot-3-3" cx="1424.1" cy="405.4" r="4" opacity="0"/>
<circle cx="1503.9" cy="432" r="6" fill="#B98A3E" opacity="0.7"/>
<circle id="spot-3-4" cx="1503.9" cy="432" r="4" opacity="0"/>
<circle cx="1580.4" cy="426" r="6" fill="#B98A3E" opacity="0.7"/>
<circle id="spot-3-5" cx="1580.4" cy="426" r="4" opacity="0"/>
<circle cx="1653" cy="383.6" r="6" fill="#B98A3E" opacity="0.7"/>
<circle id="spot-3-6" cx="1653" cy="383.6" r="4" opacity="0"/>
<circle cx="1812.3" cy="231.4" r="6" fill="#B98A3E" opacity="0.7"/>
<circle id="spot-4-1" cx="1812.3" cy="231.4" r="4" opacity="0"/>
<circle cx="1881.2" cy="183.1" r="6" fill="#B98A3E" opacity="0.7"/>
<circle id="spot-4-2" cx="1881.2" cy="183.1" r="4" opacity="0"/>
<circle cx="1958.1" cy="189.4" r="6" fill="#B98A3E" opacity="0.7"/>
<circle id="spot-4-3" cx="1958.1" cy="189.4" r="4" opacity="0"/>
<circle cx="2037.9" cy="216" r="6" fill="#B98A3E" opacity="0.7"/>
<circle id="spot-4-4" cx="2037.9" cy="216" r="4" opacity="0"/>
<circle cx="2114.4" cy="210" r="6" fill="#B98A3E" opacity="0.7"/>
<circle id="spot-4-5" cx="2114.4" cy="210" r="4" opacity="0"/>
<circle cx="2187" cy="167.6" r="6" fill="#B98A3E" opacity="0.7"/>
<circle id="spot-4-6" cx="2187" cy="167.6" r="4" opacity="0"/>
<rect x="717" y="629" width="10" height="44" fill="#C9B183"/><rect x="741" y="629" width="10" height="44" fill="#C9B183"/><circle id="gate-1" cx="733" cy="673" r="4" opacity="0"/>
<rect x="1250" y="412" width="10" height="44" fill="#C9B183"/><rect x="1274" y="412" width="10" height="44" fill="#C9B183"/><circle id="gate-2" cx="1266" cy="456" r="4" opacity="0"/>
<rect x="1784" y="196" width="10" height="44" fill="#C9B183"/><rect x="1808" y="196" width="10" height="44" fill="#C9B183"/><circle id="gate-3" cx="1800" cy="240" r="4" opacity="0"/>
<circle id="moon" cx="330" cy="580" r="4" opacity="0"/>
<g id="over"><ellipse cx="1200" cy="520" rx="90" ry="24" fill="#F7F2E0" opacity="0.85"/></g>
</svg>
